<?xml version="1.0" encoding="UTF-8"?>
<svg id="Capa_2" xmlns="http://www.w3.org/2000/svg" viewBox="0 0 1075.56 792">
	<defs>
		<style>
			.cls-1{stroke:#2b6438;stroke-miterlimit:10;stroke-width:6px;}.cls-1,.cls-2{fill:none;}.cls-3{fill:#d9d9d9;}.cls-2{stroke:#000;stroke-linecap:round;stroke-linejoin:round;stroke-width:5px;}.cls-4{fill:#1d1d1b;font-family:Arial-BoldMT, Arial;font-size:124.14px;font-weight:700;isolation:isolate;}
		</style>
	</defs>
	<path id="path197502" class="cls-1" d="m14.69,181.59h1046.18v428.83H14.69V181.59Z" />
	<rect class="cls-3" x="70.81" y="211.44" width="50.71" height="33.68" rx="5.98" ry="5.98" />
	<rect class="cls-3" x="125.9" y="211.44" width="50.71" height="33.68" rx="5.98" ry="5.98" />
	<rect class="cls-3" x="181" y="211.44" width="50.71" height="33.68" rx="5.98" ry="5.98" />
	<rect class="cls-3" x="236.09" y="211.44" width="50.71" height="33.68" rx="5.98" ry="5.98" />
	<rect class="cls-3" x="291.19" y="211.44" width="50.71" height="33.68" rx="5.98" ry="5.98" />
	<rect class="cls-3" x="346.29" y="211.44" width="50.71" height="33.68" rx="5.98" ry="5.98" />
	<rect class="cls-3" x="401.38" y="211.44" width="50.71" height="33.68" rx="5.98" ry="5.98" />
	<rect class="cls-3" x="456.48" y="211.44" width="50.71" height="33.68" rx="5.98" ry="5.98" />
	<rect class="cls-3" x="511.58" y="211.44" width="50.71" height="33.68" rx="5.98" ry="5.98" />
	<rect class="cls-3" x="566.67" y="211.44" width="50.71" height="33.68" rx="5.98" ry="5.98" />
	<rect class="cls-3" x="621.77" y="211.44" width="50.71" height="33.68" rx="5.98" ry="5.98" />
	<rect class="cls-3" x="676.86" y="211.44" width="50.71" height="33.68" rx="5.98" ry="5.98" />
	<rect class="cls-3" x="731.96" y="211.44" width="50.71" height="33.68" rx="5.98" ry="5.98" />
	<rect class="cls-3" x="787.06" y="211.44" width="50.71" height="33.68" rx="5.98" ry="5.98" />
	<rect class="cls-3" x="842.15" y="211.44" width="50.71" height="33.68" rx="5.98" ry="5.98" />
	<rect class="cls-3" x="897.25" y="211.44" width="50.71" height="33.68" rx="5.98" ry="5.98" />
	<rect class="cls-3" x="952.35" y="211.44" width="50.71" height="33.68" rx="5.98" ry="5.98" />
	<rect class="cls-3" x="70.81" y="268.29" width="50.71" height="33.68" rx="5.98" ry="5.98" />
	<rect class="cls-3" x="125.9" y="268.29" width="50.71" height="33.68" rx="5.98" ry="5.98" />
	<rect class="cls-3" x="181" y="268.29" width="50.71" height="33.68" rx="5.98" ry="5.98" />
	<rect class="cls-3" x="236.09" y="268.29" width="50.71" height="33.68" rx="5.98" ry="5.98" />
	<rect class="cls-3" x="291.19" y="268.29" width="50.71" height="33.68" rx="5.98" ry="5.98" />
	<rect class="cls-3" x="346.29" y="268.29" width="50.71" height="33.68" rx="5.98" ry="5.98" />
	<rect class="cls-3" x="401.38" y="268.29" width="50.71" height="33.68" rx="5.98" ry="5.98" />
	<rect class="cls-3" x="621.77" y="268.29" width="50.71" height="33.68" rx="5.98" ry="5.98" />
	<rect class="cls-3" x="676.86" y="268.29" width="50.71" height="33.68" rx="5.98" ry="5.98" />
	<rect class="cls-3" x="731.96" y="268.29" width="50.71" height="33.68" rx="5.98" ry="5.98" />
	<rect class="cls-3" x="787.06" y="268.29" width="50.71" height="33.68" rx="5.98" ry="5.98" />
	<rect class="cls-3" x="842.15" y="268.29" width="50.71" height="33.68" rx="5.98" ry="5.98" />
	<rect class="cls-3" x="897.25" y="268.29" width="50.71" height="33.68" rx="5.98" ry="5.98" />
	<rect class="cls-3" x="952.35" y="268.29" width="50.71" height="33.68" rx="5.98" ry="5.98" />
	<rect class="cls-3" x="70.81" y="325.13" width="50.71" height="33.68" rx="5.98" ry="5.98" />
	<rect class="cls-3" x="125.9" y="325.13" width="50.71" height="33.68" rx="5.98" ry="5.98" />
	<rect class="cls-3" x="181" y="325.13" width="50.71" height="33.68" rx="5.98" ry="5.98" />
	<rect class="cls-3" x="236.09" y="325.13" width="50.71" height="33.68" rx="5.98" ry="5.98" />
	<rect class="cls-3" x="291.19" y="325.13" width="50.71" height="33.68" rx="5.98" ry="5.98" />
	<rect class="cls-3" x="346.29" y="325.13" width="50.71" height="33.68" rx="5.98" ry="5.98" />
	<rect class="cls-3" x="401.38" y="325.13" width="50.71" height="33.68" rx="5.98" ry="5.98" />
	<rect class="cls-3" x="621.77" y="325.13" width="50.71" height="33.68" rx="5.98" ry="5.98" />
	<rect class="cls-3" x="676.86" y="325.13" width="50.71" height="33.68" rx="5.98" ry="5.98" />
	<rect class="cls-3" x="731.96" y="325.13" width="50.71" height="33.68" rx="5.98" ry="5.98" />
	<rect class="cls-3" x="787.06" y="325.13" width="50.71" height="33.68" rx="5.98" ry="5.98" />
	<rect class="cls-3" x="842.15" y="325.13" width="50.71" height="33.68" rx="5.98" ry="5.98" />
	<rect class="cls-3" x="897.25" y="325.13" width="50.71" height="33.68" rx="5.98" ry="5.98" />
	<rect class="cls-3" x="952.35" y="325.13" width="50.71" height="33.68" rx="5.98" ry="5.98" />
	<rect class="cls-3" x="70.81" y="381.97" width="50.71" height="33.68" rx="5.98" ry="5.98" />
	<rect class="cls-3" x="125.9" y="381.97" width="50.71" height="33.68" rx="5.98" ry="5.98" />
	<rect class="cls-3" x="181" y="381.97" width="50.71" height="33.68" rx="5.98" ry="5.98" />
	<rect class="cls-3" x="236.09" y="381.97" width="50.71" height="33.68" rx="5.98" ry="5.98" />
	<rect class="cls-3" x="291.19" y="381.97" width="50.71" height="33.68" rx="5.98" ry="5.98" />
	<rect class="cls-3" x="346.29" y="381.97" width="50.71" height="33.68" rx="5.98" ry="5.98" />
	<rect class="cls-3" x="401.38" y="381.97" width="50.71" height="33.68" rx="5.98" ry="5.98" />
	<rect class="cls-3" x="621.77" y="381.97" width="50.71" height="33.68" rx="5.98" ry="5.98" />
	<rect class="cls-3" x="676.86" y="381.97" width="50.71" height="33.68" rx="5.98" ry="5.98" />
	<rect class="cls-3" x="731.96" y="381.97" width="50.71" height="33.68" rx="5.98" ry="5.98" />
	<rect class="cls-3" x="787.06" y="381.97" width="50.71" height="33.68" rx="5.98" ry="5.98" />
	<rect class="cls-3" x="842.15" y="381.97" width="50.71" height="33.68" rx="5.98" ry="5.98" />
	<rect class="cls-3" x="897.25" y="381.97" width="50.71" height="33.68" rx="5.98" ry="5.98" />
	<rect class="cls-3" x="952.35" y="381.97" width="50.71" height="33.68" rx="5.98" ry="5.98" />
	<rect class="cls-3" x="70.81" y="438.82" width="50.71" height="33.68" rx="5.98" ry="5.98" />
	<rect class="cls-3" x="125.9" y="438.82" width="50.71" height="33.68" rx="5.98" ry="5.98" />
	<rect class="cls-3" x="181" y="438.82" width="50.71" height="33.68" rx="5.98" ry="5.98" />
	<rect class="cls-3" x="236.09" y="438.82" width="50.71" height="33.68" rx="5.98" ry="5.98" />
	<rect class="cls-3" x="291.19" y="438.82" width="50.71" height="33.68" rx="5.98" ry="5.98" />
	<rect class="cls-3" x="346.29" y="438.82" width="50.71" height="33.68" rx="5.98" ry="5.98" />
	<rect class="cls-3" x="401.38" y="438.82" width="50.71" height="33.68" rx="5.98" ry="5.98" />
	<rect class="cls-3" x="621.77" y="438.82" width="50.71" height="33.68" rx="5.98" ry="5.98" />
	<rect class="cls-3" x="676.86" y="438.82" width="50.71" height="33.68" rx="5.98" ry="5.98" />
	<rect class="cls-3" x="731.96" y="438.82" width="50.71" height="33.68" rx="5.98" ry="5.98" />
	<rect class="cls-3" x="787.06" y="438.82" width="50.71" height="33.68" rx="5.98" ry="5.98" />
	<rect class="cls-3" x="842.15" y="438.82" width="50.71" height="33.68" rx="5.98" ry="5.98" />
	<rect class="cls-3" x="897.25" y="438.82" width="50.71" height="33.68" rx="5.98" ry="5.98" />
	<rect class="cls-3" x="952.35" y="438.82" width="50.71" height="33.68" rx="5.98" ry="5.98" />
	<rect class="cls-3" x="70.81" y="495.66" width="50.71" height="33.68" rx="5.98" ry="5.98" />
	<rect class="cls-3" x="125.9" y="495.66" width="50.71" height="33.68" rx="5.98" ry="5.98" />
	<rect class="cls-3" x="181" y="495.66" width="50.71" height="33.68" rx="5.98" ry="5.98" />
	<rect class="cls-3" x="236.09" y="495.66" width="50.71" height="33.68" rx="5.98" ry="5.98" />
	<rect class="cls-3" x="291.19" y="495.66" width="50.71" height="33.68" rx="5.98" ry="5.98" />
	<rect class="cls-3" x="346.29" y="495.66" width="50.71" height="33.68" rx="5.98" ry="5.98" />
	<rect class="cls-3" x="401.38" y="495.66" width="50.71" height="33.68" rx="5.98" ry="5.98" />
	<rect class="cls-3" x="621.77" y="495.66" width="50.71" height="33.68" rx="5.98" ry="5.98" />
	<rect class="cls-3" x="676.86" y="495.66" width="50.71" height="33.68" rx="5.98" ry="5.98" />
	<rect class="cls-3" x="731.96" y="495.66" width="50.71" height="33.68" rx="5.98" ry="5.98" />
	<rect class="cls-3" x="787.06" y="495.66" width="50.71" height="33.68" rx="5.98" ry="5.98" />
	<rect class="cls-3" x="842.15" y="495.66" width="50.71" height="33.68" rx="5.98" ry="5.98" />
	<rect class="cls-3" x="897.25" y="495.66" width="50.71" height="33.68" rx="5.98" ry="5.98" />
	<rect class="cls-3" x="952.35" y="495.66" width="50.71" height="33.68" rx="5.98" ry="5.98" />
	<rect class="cls-3" x="70.81" y="552.51" width="50.71" height="33.68" rx="5.98" ry="5.98" />
	<rect class="cls-3" x="125.9" y="552.51" width="50.71" height="33.68" rx="5.98" ry="5.98" />
	<rect class="cls-3" x="181" y="552.51" width="50.71" height="33.68" rx="5.98" ry="5.98" />
	<rect class="cls-3" x="236.09" y="552.51" width="50.71" height="33.68" rx="5.98" ry="5.98" />
	<rect class="cls-3" x="291.19" y="552.51" width="50.71" height="33.68" rx="5.98" ry="5.98" />
	<rect class="cls-3" x="346.29" y="552.51" width="50.71" height="33.68" rx="5.98" ry="5.98" />
	<rect class="cls-3" x="401.38" y="552.51" width="50.71" height="33.68" rx="5.98" ry="5.98" />
	<rect class="cls-3" x="621.77" y="552.51" width="50.71" height="33.68" rx="5.98" ry="5.98" />
	<rect class="cls-3" x="676.86" y="552.51" width="50.71" height="33.68" rx="5.98" ry="5.98" />
	<rect class="cls-3" x="731.96" y="552.51" width="50.71" height="33.68" rx="5.98" ry="5.98" />
	<rect class="cls-3" x="787.06" y="552.51" width="50.71" height="33.68" rx="5.98" ry="5.98" />
	<rect class="cls-3" x="842.15" y="552.51" width="50.71" height="33.68" rx="5.98" ry="5.98" />
	<rect class="cls-3" x="897.25" y="552.51" width="50.71" height="33.68" rx="5.98" ry="5.98" />
	<rect class="cls-3" x="952.35" y="552.51" width="50.71" height="33.68" rx="5.98" ry="5.98" />
	<g id="text202720">
		<text class="cls-4" transform="translate(489.55 446.65)">
			<tspan x="0" y="0">
				E
			</tspan>
		</text>
	</g>
	<path id="path200254" class="cls-2" d="m54.3,578l-22.16-8.35,22.16-8.67" />
	<path id="path200256" class="cls-2" d="m46.92,574.79v-10.6" />
	<path id="path200258" class="cls-2" d="m53.66,523.73h-22.16v-9.63l.96-2.89.96-1.28,2.25-.96h1.93l2.25.96.96,1.28,1.28,2.89v9.63" />
	<path id="path200260" class="cls-2" d="m42.1,514.09l.96-2.89.96-1.28,2.25-.96h3.21l1.93.96,1.28,1.28.96,2.89v9.63" />
	<path id="path200262" class="cls-2" d="m37.6,451.14l-2.25.96-1.93,2.25-1.28,1.93v4.5l1.28,1.93,1.93,2.25,2.25.96,3.21.96h5.14l3.21-.96,2.25-.96,1.93-2.25.96-1.93v-4.5l-.96-1.93-1.93-2.25-2.25-.96" />
	<path id="path200264" class="cls-2" d="m54.3,411h-22.16v-7.39l1.28-3.21,1.93-1.93,2.25-.96,3.21-1.28h5.14l3.21,1.28,2.25.96,1.93,1.93.96,3.21v7.39" />
	<path id="path200266" class="cls-2" d="m56.87,353.51h-22.16v-13.81" />
	<path id="path200268" class="cls-2" d="m45.31,353.51v-8.35" />
	<path id="path200270" class="cls-2" d="m56.87,353.51v-13.81" />
	<path id="path200272" class="cls-2" d="m55.27,294.1h-22.16v-13.49" />
	<path id="path200274" class="cls-2" d="m43.71,294.1v-8.35" />
	<path id="path201354" class="cls-2" d="m38.25,221.52l-1.93.96-2.25,2.25-.96,1.93v4.5l.96,1.93,2.25,2.25,1.93.96,3.21.96h5.46l3.21-.96,1.93-.96,2.25-2.25.96-1.93v-4.5l-.96-1.93-2.25-2.25-1.93-.96h-3.21v5.14" />
	<path id="path200254-2" class="cls-2" d="m1039.39,578l-22.16-8.35,22.16-8.67" />
	<path id="path200256-2" class="cls-2" d="m1032.01,574.79v-10.6" />
	<path id="path200258-2" class="cls-2" d="m1038.75,523.73h-22.16v-9.63l.96-2.89.96-1.28,2.25-.96h1.93l2.25.96.96,1.28,1.28,2.89v9.63" />
	<path id="path200260-2" class="cls-2" d="m1027.19,514.09l.96-2.89.96-1.28,2.25-.96h3.21l1.93.96,1.28,1.28.96,2.89v9.63" />
	<path id="path200262-2" class="cls-2" d="m1022.69,451.14l-2.25.96-1.93,2.25-1.28,1.93v4.5l1.28,1.93,1.93,2.25,2.25.96,3.21.96h5.14l3.21-.96,2.25-.96,1.93-2.25.96-1.93v-4.5l-.96-1.93-1.93-2.25-2.25-.96" />
	<path id="path200264-2" class="cls-2" d="m1039.39,411h-22.16v-7.39l1.28-3.21,1.93-1.93,2.25-.96,3.21-1.28h5.14l3.21,1.28,2.25.96,1.93,1.93.96,3.21v7.39" />
	<path id="path200266-2" class="cls-2" d="m1041.96,353.51h-22.16v-13.81" />
	<path id="path200268-2" class="cls-2" d="m1030.4,353.51v-8.35" />
	<path id="path200270-2" class="cls-2" d="m1041.96,353.51v-13.81" />
	<path id="path200272-2" class="cls-2" d="m1040.36,294.1h-22.16v-13.49" />
	<path id="path200274-2" class="cls-2" d="m1028.8,294.1v-8.35" />
	<path id="path201354-2" class="cls-2" d="m1023.34,221.52l-1.93.96-2.25,2.25-.96,1.93v4.5l.96,1.93,2.25,2.25,1.93.96,3.21.96h5.46l3.21-.96,1.93-.96,2.25-2.25.96-1.93v-4.5l-.96-1.93-2.25-2.25-1.93-.96h-3.21v5.14" />
</svg>
