<?xml version="1.0" encoding="UTF-8"?>
<svg id="Capa_2" xmlns="http://www.w3.org/2000/svg" viewBox="0 0 1075.56 792">
	<defs>
		<style>
			.cls-1{stroke:#786a5a;stroke-miterlimit:10;}.cls-1,.cls-2{fill:none;stroke-width:6px;}.cls-3{fill:#d9d9d9;}.cls-4{font-family:Arial-BoldMT, Arial;font-size:146.19px;font-weight:700;}.cls-4,.cls-5{isolation:isolate;}.cls-2{stroke:#000;stroke-linecap:round;stroke-linejoin:round;}
		</style>
	</defs>
	<rect class="cls-3" x="214.22" y="178.21" width="50.71" height="33.68" rx="5.98" ry="5.98" transform="translate(434.62 -44.53) rotate(90)" />
	<rect class="cls-3" x="214.22" y="234.04" width="50.71" height="33.68" rx="5.98" ry="5.98" transform="translate(490.45 11.3) rotate(90)" />
	<rect class="cls-3" x="214.22" y="289.87" width="50.71" height="33.68" rx="5.98" ry="5.98" transform="translate(546.28 67.13) rotate(90)" />
	<rect class="cls-3" x="214.22" y="345.7" width="50.71" height="33.68" rx="5.98" ry="5.98" transform="translate(602.11 122.96) rotate(90)" />
	<rect class="cls-3" x="214.22" y="401.53" width="50.71" height="33.68" rx="5.98" ry="5.98" transform="translate(657.94 178.79) rotate(90)" />
	<rect class="cls-3" x="214.22" y="457.36" width="50.71" height="33.68" rx="5.98" ry="5.98" transform="translate(713.77 234.62) rotate(90)" />
	<rect class="cls-3" x="214.22" y="513.19" width="50.71" height="33.68" rx="5.98" ry="5.98" transform="translate(769.61 290.45) rotate(90)" />
	<rect class="cls-3" x="298.18" y="178.21" width="50.71" height="33.68" rx="5.98" ry="5.98" transform="translate(518.58 -128.49) rotate(90)" />
	<rect class="cls-3" x="298.18" y="234.04" width="50.71" height="33.68" rx="5.98" ry="5.98" transform="translate(574.41 -72.66) rotate(90)" />
	<rect class="cls-3" x="298.18" y="289.87" width="50.71" height="33.68" rx="5.98" ry="5.98" transform="translate(630.24 -16.83) rotate(90)" />
	<rect class="cls-3" x="298.18" y="345.7" width="50.71" height="33.68" rx="5.98" ry="5.98" transform="translate(686.07 39) rotate(90)" />
	<rect class="cls-3" x="298.18" y="401.53" width="50.71" height="33.68" rx="5.98" ry="5.98" transform="translate(741.9 94.83) rotate(90)" />
	<rect class="cls-3" x="298.18" y="457.36" width="50.71" height="33.68" rx="5.98" ry="5.98" transform="translate(797.73 150.66) rotate(90)" />
	<rect class="cls-3" x="298.18" y="513.19" width="50.71" height="33.68" rx="5.98" ry="5.98" transform="translate(853.56 206.49) rotate(90)" />
	<rect class="cls-3" x="382.14" y="178.21" width="50.71" height="33.68" rx="5.98" ry="5.98" transform="translate(602.54 -212.44) rotate(90)" />
	<rect class="cls-3" x="382.14" y="234.04" width="50.71" height="33.68" rx="5.98" ry="5.98" transform="translate(658.37 -156.61) rotate(90)" />
	<rect class="cls-3" x="382.14" y="289.87" width="50.71" height="33.68" rx="5.98" ry="5.98" transform="translate(714.2 -100.78) rotate(90)" />
	<rect class="cls-3" x="382.14" y="345.7" width="50.71" height="33.68" rx="5.98" ry="5.98" transform="translate(770.03 -44.95) rotate(90)" />
	<rect class="cls-3" x="382.14" y="401.53" width="50.71" height="33.68" rx="5.98" ry="5.98" transform="translate(825.86 10.88) rotate(90)" />
	<rect class="cls-3" x="382.14" y="457.36" width="50.71" height="33.68" rx="5.98" ry="5.98" transform="translate(881.69 66.71) rotate(90)" />
	<rect class="cls-3" x="382.14" y="513.19" width="50.71" height="33.68" rx="5.98" ry="5.98" transform="translate(937.52 122.54) rotate(90)" />
	<rect class="cls-3" x="466.09" y="178.21" width="50.71" height="33.68" rx="5.98" ry="5.98" transform="translate(686.5 -296.4) rotate(90)" />
	<rect class="cls-3" x="466.09" y="234.04" width="50.71" height="33.68" rx="5.98" ry="5.98" transform="translate(742.33 -240.57) rotate(90)" />
	<rect class="cls-3" x="466.09" y="289.87" width="50.71" height="33.68" rx="5.98" ry="5.98" transform="translate(798.16 -184.74) rotate(90)" />
	<rect class="cls-3" x="466.09" y="345.7" width="50.71" height="33.68" rx="5.98" ry="5.98" transform="translate(853.99 -128.91) rotate(90)" />
	<rect class="cls-3" x="466.09" y="401.53" width="50.71" height="33.68" rx="5.98" ry="5.98" transform="translate(909.82 -73.08) rotate(90)" />
	<rect class="cls-3" x="466.09" y="457.36" width="50.71" height="33.68" rx="5.98" ry="5.98" transform="translate(965.65 -17.25) rotate(90)" />
	<rect class="cls-3" x="466.09" y="513.19" width="50.71" height="33.68" rx="5.98" ry="5.98" transform="translate(1021.48 38.58) rotate(90)" />
	<rect class="cls-3" x="550.05" y="178.21" width="50.71" height="33.68" rx="5.98" ry="5.98" transform="translate(770.45 -380.36) rotate(90)" />
	<rect class="cls-3" x="550.05" y="234.04" width="50.71" height="33.68" rx="5.98" ry="5.98" transform="translate(826.28 -324.53) rotate(90)" />
	<rect class="cls-3" x="550.05" y="289.87" width="50.71" height="33.68" rx="5.98" ry="5.98" transform="translate(882.11 -268.7) rotate(90)" />
	<rect class="cls-3" x="550.05" y="345.7" width="50.71" height="33.68" rx="5.98" ry="5.98" transform="translate(937.94 -212.87) rotate(90)" />
	<rect class="cls-3" x="550.05" y="401.53" width="50.71" height="33.68" rx="5.98" ry="5.98" transform="translate(993.78 -157.04) rotate(90)" />
	<rect class="cls-3" x="550.05" y="457.36" width="50.71" height="33.68" rx="5.98" ry="5.98" transform="translate(1049.61 -101.21) rotate(90)" />
	<rect class="cls-3" x="550.05" y="513.19" width="50.71" height="33.68" rx="5.98" ry="5.98" transform="translate(1105.44 -45.38) rotate(90)" />
	<rect class="cls-3" x="634.01" y="178.21" width="50.71" height="33.68" rx="5.98" ry="5.98" transform="translate(854.41 -464.32) rotate(90)" />
	<rect class="cls-3" x="634.01" y="234.04" width="50.71" height="33.68" rx="5.98" ry="5.98" transform="translate(910.24 -408.49) rotate(90)" />
	<rect class="cls-3" x="634.01" y="289.87" width="50.71" height="33.68" rx="5.98" ry="5.98" transform="translate(966.07 -352.66) rotate(90)" />
	<rect class="cls-3" x="634.01" y="345.7" width="50.71" height="33.68" rx="5.98" ry="5.98" transform="translate(1021.9 -296.83) rotate(90)" />
	<rect class="cls-3" x="634.01" y="401.53" width="50.71" height="33.68" rx="5.98" ry="5.98" transform="translate(1077.73 -241) rotate(90)" />
	<rect class="cls-3" x="634.01" y="457.36" width="50.71" height="33.68" rx="5.98" ry="5.98" transform="translate(1133.56 -185.17) rotate(90)" />
	<rect class="cls-3" x="634.01" y="513.19" width="50.71" height="33.68" rx="5.98" ry="5.98" transform="translate(1189.39 -129.34) rotate(90)" />
	<rect class="cls-3" x="717.97" y="178.21" width="50.71" height="33.68" rx="5.98" ry="5.98" transform="translate(938.37 -548.28) rotate(90)" />
	<rect class="cls-3" x="717.97" y="234.04" width="50.71" height="33.68" rx="5.98" ry="5.98" transform="translate(994.2 -492.45) rotate(90)" />
	<rect class="cls-3" x="717.97" y="289.87" width="50.71" height="33.68" rx="5.98" ry="5.98" transform="translate(1050.03 -436.61) rotate(90)" />
	<rect class="cls-3" x="717.97" y="345.7" width="50.71" height="33.68" rx="5.98" ry="5.98" transform="translate(1105.86 -380.78) rotate(90)" />
	<rect class="cls-3" x="717.97" y="401.53" width="50.71" height="33.68" rx="5.98" ry="5.98" transform="translate(1161.69 -324.95) rotate(90)" />
	<rect class="cls-3" x="717.97" y="457.36" width="50.71" height="33.68" rx="5.98" ry="5.98" transform="translate(1217.52 -269.12) rotate(90)" />
	<rect class="cls-3" x="717.97" y="513.19" width="50.71" height="33.68" rx="5.98" ry="5.98" transform="translate(1273.35 -213.29) rotate(90)" />
	<rect class="cls-3" x="801.92" y="178.21" width="50.71" height="33.68" rx="5.98" ry="5.98" transform="translate(1022.33 -632.23) rotate(90)" />
	<rect class="cls-3" x="801.92" y="234.04" width="50.71" height="33.68" rx="5.98" ry="5.98" transform="translate(1078.16 -576.4) rotate(90)" />
	<rect class="cls-3" x="801.92" y="289.87" width="50.71" height="33.68" rx="5.98" ry="5.98" transform="translate(1133.99 -520.57) rotate(90)" />
	<rect class="cls-3" x="801.92" y="345.7" width="50.71" height="33.68" rx="5.98" ry="5.98" transform="translate(1189.82 -464.74) rotate(90)" />
	<rect class="cls-3" x="801.92" y="401.53" width="50.71" height="33.68" rx="5.98" ry="5.98" transform="translate(1245.65 -408.91) rotate(90)" />
	<rect class="cls-3" x="801.92" y="457.36" width="50.71" height="33.68" rx="5.98" ry="5.98" transform="translate(1301.48 -353.08) rotate(90)" />
	<rect class="cls-3" x="801.92" y="513.19" width="50.71" height="33.68" rx="5.98" ry="5.98" transform="translate(1357.31 -297.25) rotate(90)" />
	<rect class="cls-3" x="885.88" y="178.21" width="50.71" height="33.68" rx="5.98" ry="5.98" transform="translate(1106.28 -716.19) rotate(90)" />
	<rect class="cls-3" x="885.88" y="234.04" width="50.71" height="33.68" rx="5.98" ry="5.98" transform="translate(1162.11 -660.36) rotate(90)" />
	<rect class="cls-3" x="885.88" y="289.87" width="50.71" height="33.68" rx="5.98" ry="5.98" transform="translate(1217.95 -604.53) rotate(90)" />
	<rect class="cls-3" x="885.88" y="345.7" width="50.71" height="33.68" rx="5.98" ry="5.98" transform="translate(1273.78 -548.7) rotate(90)" />
	<rect class="cls-3" x="885.88" y="401.53" width="50.71" height="33.68" rx="5.98" ry="5.98" transform="translate(1329.61 -492.87) rotate(90)" />
	<rect class="cls-3" x="885.88" y="457.36" width="50.71" height="33.68" rx="5.98" ry="5.98" transform="translate(1385.44 -437.04) rotate(90)" />
	<rect class="cls-3" x="885.88" y="513.19" width="50.71" height="33.68" rx="5.98" ry="5.98" transform="translate(1441.27 -381.21) rotate(90)" />
	<rect class="cls-3" x="969.84" y="178.21" width="50.71" height="33.68" rx="5.98" ry="5.98" transform="translate(1190.24 -800.15) rotate(90)" />
	<rect class="cls-3" x="969.84" y="234.04" width="50.71" height="33.68" rx="5.98" ry="5.98" transform="translate(1246.07 -744.32) rotate(90)" />
	<rect class="cls-3" x="969.84" y="289.87" width="50.71" height="33.68" rx="5.98" ry="5.98" transform="translate(1301.9 -688.49) rotate(90)" />
	<rect class="cls-3" x="969.84" y="345.7" width="50.71" height="33.68" rx="5.98" ry="5.98" transform="translate(1357.73 -632.66) rotate(90)" />
	<rect class="cls-3" x="969.84" y="401.53" width="50.71" height="33.68" rx="5.98" ry="5.98" transform="translate(1413.56 -576.83) rotate(90)" />
	<rect class="cls-3" x="969.84" y="457.36" width="50.71" height="33.68" rx="5.98" ry="5.98" transform="translate(1469.39 -521) rotate(90)" />
	<rect class="cls-3" x="969.84" y="513.19" width="50.71" height="33.68" rx="5.98" ry="5.98" transform="translate(1525.22 -465.17) rotate(90)" />
	<rect class="cls-3" x="969.84" y="569.02" width="50.71" height="33.68" rx="5.98" ry="5.98" transform="translate(1581.05 -409.34) rotate(90)" />
	<polygon class="cls-1" points="1029.77 158.69 1029.77 627.69 967.74 627.69 967.74 570.17 208.92 570.17 208.92 158.69 1029.77 158.69" />
	<path id="path100260" class="cls-2" d="m995.98,642.94v20.04l-1.51,3.78-1.13,1.13-2.27,1.51h-2.65l-2.65-1.51-1.13-1.13-1.13-3.78v-2.27" />
	<path id="path100262" class="cls-2" d="m910.88,608.02v-26.47" />
	<g>
		<path id="path100264" class="cls-2" d="m825.79,608.02v-26.47" />
		<path id="path100266" class="cls-2" d="m843.19,581.55v26.47" />
		<path id="path100268" class="cls-2" d="m826.55,594.03h17.4" />
	</g>
	<path id="path100270" class="cls-2" d="m759.61,587.98l-1.51-2.65-2.27-2.27-2.65-1.51h-4.92l-2.27,1.51-2.65,2.27-1.13,2.65-1.51,3.78v6.05l1.51,3.78,1.13,2.65,2.65,2.27,2.27,1.51h4.92l2.65-1.51,2.27-2.27,1.51-2.65v-3.78h-6.43" />
	<g>
		<path id="path100272" class="cls-2" d="m655.99,608.02v-26.47h15.88" />
		<path id="path100274" class="cls-2" d="m655.99,594.03h9.83" />
	</g>
	<g>
		<path id="path100276" class="cls-2" d="m570.89,608.02v-26.47h16.26" />
		<path id="path100278" class="cls-2" d="m570.89,594.03h9.83" />
		<path id="path100280" class="cls-2" d="m570.89,608.02h16.26" />
	</g>
	<path id="path100282" class="cls-2" d="m485.8,608.02v-26.47h8.7l3.78,1.51,2.27,2.27,1.51,2.65,1.13,3.78v6.05l-1.13,3.78-1.51,2.65-2.27,2.27-3.78,1.51h-8.7" />
	<path id="path100284" class="cls-2" d="m419.24,587.98l-1.13-2.65-2.27-2.27-2.65-1.51h-4.92l-2.65,1.51-2.27,2.27-1.51,2.65-1.13,3.78v6.05l1.13,3.78,1.51,2.65,2.27,2.27,2.65,1.51h4.92l2.65-1.51,2.27-2.27,1.13-2.65" />
	<path id="path100286" class="cls-2" d="m315.62,608.02v-26.47h11.35l3.78,1.51,1.13,1.13,1.13,2.65v2.27l-1.13,2.65-1.13,1.13-3.78,1.13h-11.35" />
	<path id="path100288" class="cls-2" d="m326.96,594.03l3.78,1.51,1.13,1.13,1.13,2.65v3.4l-1.13,2.65-1.13,1.13-3.78,1.51h-11.35" />
	<path id="path100290" class="cls-2" d="m230.52,608.02l10.21-26.47,9.83,26.47" />
	<path id="path100292" class="cls-2" d="m234.31,599.33h12.48" />
	<g id="text112306" class="cls-5">
		<text class="cls-4" transform="translate(52.18 426.88)">
			<tspan x="0" y="0">
				G
			</tspan>
		</text>
	</g>
</svg>
