<?xml version="1.0" encoding="UTF-8"?>
<svg id="Capa_2" xmlns="http://www.w3.org/2000/svg" viewBox="0 0 1075.56 792">
	<defs>
		<style>
			.cls-1{fill:#d9d9d9;}.cls-2{font-family:Arial-BoldMT, Arial;font-size:83.71px;font-weight:700;}.cls-2,.cls-3{isolation:isolate;}.cls-4{stroke:#000;stroke-linecap:round;stroke-linejoin:round;}.cls-4,.cls-5{fill:none;stroke-width:4px;}.cls-5{stroke:#282359;stroke-miterlimit:10;}
		</style>
	</defs>
	<rect class="cls-1" x="773.92" y="56.6" width="31.67" height="21.03" rx="3.73" ry="3.73" transform="translate(856.87 -722.64) rotate(90)" />
	<rect class="cls-1" x="773.92" y="89.65" width="31.67" height="21.03" rx="3.73" ry="3.73" transform="translate(889.92 -689.59) rotate(90)" />
	<rect class="cls-1" x="773.92" y="122.7" width="31.67" height="21.03" rx="3.73" ry="3.73" transform="translate(922.97 -656.54) rotate(90)" />
	<rect class="cls-1" x="773.92" y="155.75" width="31.67" height="21.03" rx="3.73" ry="3.73" transform="translate(956.02 -623.49) rotate(90)" />
	<rect class="cls-1" x="773.92" y="188.8" width="31.67" height="21.03" rx="3.73" ry="3.73" transform="translate(989.07 -590.44) rotate(90)" />
	<rect class="cls-1" x="773.92" y="221.85" width="31.67" height="21.03" rx="3.73" ry="3.73" transform="translate(1022.13 -557.39) rotate(90)" />
	<rect class="cls-1" x="773.92" y="254.9" width="31.67" height="21.03" rx="3.73" ry="3.73" transform="translate(1055.18 -524.34) rotate(90)" />
	<rect class="cls-1" x="773.92" y="287.95" width="31.67" height="21.03" rx="3.73" ry="3.73" transform="translate(1088.23 -491.29) rotate(90)" />
	<rect class="cls-1" x="773.92" y="321" width="31.67" height="21.03" rx="3.73" ry="3.73" transform="translate(1121.28 -458.24) rotate(90)" />
	<rect class="cls-1" x="773.92" y="354.06" width="31.67" height="21.03" rx="3.73" ry="3.73" transform="translate(1154.33 -425.19) rotate(90)" />
	<rect class="cls-1" x="773.92" y="387.11" width="31.67" height="21.03" rx="3.73" ry="3.73" transform="translate(1187.38 -392.14) rotate(90)" />
	<rect class="cls-1" x="773.92" y="420.16" width="31.67" height="21.03" rx="3.73" ry="3.73" transform="translate(1220.43 -359.08) rotate(90)" />
	<rect class="cls-1" x="773.92" y="453.21" width="31.67" height="21.03" rx="3.73" ry="3.73" transform="translate(1253.48 -326.03) rotate(90)" />
	<rect class="cls-1" x="773.92" y="486.26" width="31.67" height="21.03" rx="3.73" ry="3.73" transform="translate(1286.53 -292.98) rotate(90)" />
	<rect class="cls-1" x="773.92" y="519.31" width="31.67" height="21.03" rx="3.73" ry="3.73" transform="translate(1319.58 -259.93) rotate(90)" />
	<rect class="cls-1" x="773.92" y="552.36" width="31.67" height="21.03" rx="3.73" ry="3.73" transform="translate(1352.63 -226.88) rotate(90)" />
	<rect class="cls-1" x="773.92" y="585.41" width="31.67" height="21.03" rx="3.73" ry="3.73" transform="translate(1385.68 -193.83) rotate(90)" />
	<rect class="cls-1" x="773.92" y="618.46" width="31.67" height="21.03" rx="3.73" ry="3.73" transform="translate(1418.74 -160.78) rotate(90)" />
	<rect class="cls-1" x="773.92" y="651.51" width="31.67" height="21.03" rx="3.73" ry="3.73" transform="translate(1451.79 -127.73) rotate(90)" />
	<rect class="cls-1" x="773.92" y="684.56" width="31.67" height="21.03" rx="3.73" ry="3.73" transform="translate(1484.84 -94.68) rotate(90)" />
	<rect class="cls-1" x="727.63" y="122.7" width="31.67" height="21.03" rx="3.73" ry="3.73" transform="translate(876.68 -610.25) rotate(90)" />
	<rect class="cls-1" x="727.63" y="155.75" width="31.67" height="21.03" rx="3.73" ry="3.73" transform="translate(909.73 -577.19) rotate(90)" />
	<rect class="cls-1" x="727.63" y="188.8" width="31.67" height="21.03" rx="3.73" ry="3.73" transform="translate(942.78 -544.14) rotate(90)" />
	<rect class="cls-1" x="727.63" y="221.85" width="31.67" height="21.03" rx="3.73" ry="3.73" transform="translate(975.83 -511.09) rotate(90)" />
	<rect class="cls-1" x="727.63" y="254.9" width="31.67" height="21.03" rx="3.73" ry="3.73" transform="translate(1008.88 -478.04) rotate(90)" />
	<rect class="cls-1" x="727.63" y="287.95" width="31.67" height="21.03" rx="3.73" ry="3.73" transform="translate(1041.93 -444.99) rotate(90)" />
	<rect class="cls-1" x="727.63" y="321" width="31.67" height="21.03" rx="3.73" ry="3.73" transform="translate(1074.98 -411.94) rotate(90)" />
	<rect class="cls-1" x="727.63" y="354.06" width="31.67" height="21.03" rx="3.73" ry="3.73" transform="translate(1108.03 -378.89) rotate(90)" />
	<rect class="cls-1" x="727.63" y="387.11" width="31.67" height="21.03" rx="3.73" ry="3.73" transform="translate(1141.08 -345.84) rotate(90)" />
	<rect class="cls-1" x="727.63" y="420.16" width="31.67" height="21.03" rx="3.73" ry="3.73" transform="translate(1174.13 -312.79) rotate(90)" />
	<rect class="cls-1" x="727.63" y="453.21" width="31.67" height="21.03" rx="3.73" ry="3.73" transform="translate(1207.18 -279.74) rotate(90)" />
	<rect class="cls-1" x="727.63" y="486.26" width="31.67" height="21.03" rx="3.73" ry="3.73" transform="translate(1240.24 -246.69) rotate(90)" />
	<rect class="cls-1" x="727.63" y="519.31" width="31.67" height="21.03" rx="3.73" ry="3.73" transform="translate(1273.29 -213.64) rotate(90)" />
	<rect class="cls-1" x="727.63" y="552.36" width="31.67" height="21.03" rx="3.73" ry="3.73" transform="translate(1306.34 -180.59) rotate(90)" />
	<rect class="cls-1" x="727.63" y="585.41" width="31.67" height="21.03" rx="3.73" ry="3.73" transform="translate(1339.39 -147.53) rotate(90)" />
	<rect class="cls-1" x="727.63" y="618.46" width="31.67" height="21.03" rx="3.73" ry="3.73" transform="translate(1372.44 -114.48) rotate(90)" />
	<rect class="cls-1" x="727.63" y="651.51" width="31.67" height="21.03" rx="3.73" ry="3.73" transform="translate(1405.49 -81.43) rotate(90)" />
	<rect class="cls-1" x="727.63" y="684.56" width="31.67" height="21.03" rx="3.73" ry="3.73" transform="translate(1438.54 -48.38) rotate(90)" />
	<rect class="cls-1" x="681.33" y="122.7" width="31.67" height="21.03" rx="3.73" ry="3.73" transform="translate(830.38 -563.95) rotate(90)" />
	<rect class="cls-1" x="681.33" y="155.75" width="31.67" height="21.03" rx="3.73" ry="3.73" transform="translate(863.43 -530.9) rotate(90)" />
	<rect class="cls-1" x="681.33" y="188.8" width="31.67" height="21.03" rx="3.73" ry="3.73" transform="translate(896.48 -497.85) rotate(90)" />
	<rect class="cls-1" x="681.33" y="221.85" width="31.67" height="21.03" rx="3.73" ry="3.73" transform="translate(929.53 -464.8) rotate(90)" />
	<rect class="cls-1" x="681.33" y="254.9" width="31.67" height="21.03" rx="3.73" ry="3.73" transform="translate(962.58 -431.75) rotate(90)" />
	<rect class="cls-1" x="681.33" y="287.95" width="31.67" height="21.03" rx="3.73" ry="3.73" transform="translate(995.63 -398.7) rotate(90)" />
	<rect class="cls-1" x="681.33" y="321" width="31.67" height="21.03" rx="3.73" ry="3.73" transform="translate(1028.69 -365.64) rotate(90)" />
	<rect class="cls-1" x="681.33" y="354.06" width="31.67" height="21.03" rx="3.73" ry="3.73" transform="translate(1061.74 -332.59) rotate(90)" />
	<rect class="cls-1" x="681.33" y="387.11" width="31.67" height="21.03" rx="3.73" ry="3.73" transform="translate(1094.79 -299.54) rotate(90)" />
	<rect class="cls-1" x="681.33" y="420.16" width="31.67" height="21.03" rx="3.73" ry="3.73" transform="translate(1127.84 -266.49) rotate(90)" />
	<rect class="cls-1" x="681.33" y="453.21" width="31.67" height="21.03" rx="3.73" ry="3.73" transform="translate(1160.89 -233.44) rotate(90)" />
	<rect class="cls-1" x="681.33" y="486.26" width="31.67" height="21.03" rx="3.73" ry="3.73" transform="translate(1193.94 -200.39) rotate(90)" />
	<rect class="cls-1" x="681.33" y="519.31" width="31.67" height="21.03" rx="3.73" ry="3.73" transform="translate(1226.99 -167.34) rotate(90)" />
	<rect class="cls-1" x="681.33" y="552.36" width="31.67" height="21.03" rx="3.73" ry="3.73" transform="translate(1260.04 -134.29) rotate(90)" />
	<rect class="cls-1" x="681.33" y="585.41" width="31.67" height="21.03" rx="3.73" ry="3.73" transform="translate(1293.09 -101.24) rotate(90)" />
	<rect class="cls-1" x="681.33" y="618.46" width="31.67" height="21.03" rx="3.73" ry="3.73" transform="translate(1326.14 -68.19) rotate(90)" />
	<rect class="cls-1" x="681.33" y="651.51" width="31.67" height="21.03" rx="3.73" ry="3.73" transform="translate(1359.19 -35.14) rotate(90)" />
	<rect class="cls-1" x="681.33" y="684.56" width="31.67" height="21.03" rx="3.73" ry="3.73" transform="translate(1392.24 -2.09) rotate(90)" />
	<rect class="cls-1" x="635.04" y="122.7" width="31.67" height="21.03" rx="3.73" ry="3.73" transform="translate(784.08 -517.65) rotate(90)" />
	<rect class="cls-1" x="635.04" y="155.75" width="31.67" height="21.03" rx="3.73" ry="3.73" transform="translate(817.13 -484.6) rotate(90)" />
	<rect class="cls-1" x="635.04" y="188.8" width="31.67" height="21.03" rx="3.73" ry="3.73" transform="translate(850.19 -451.55) rotate(90)" />
	<rect class="cls-1" x="635.04" y="221.85" width="31.67" height="21.03" rx="3.73" ry="3.73" transform="translate(883.24 -418.5) rotate(90)" />
	<rect class="cls-1" x="635.04" y="254.9" width="31.67" height="21.03" rx="3.73" ry="3.73" transform="translate(916.29 -385.45) rotate(90)" />
	<rect class="cls-1" x="635.04" y="287.95" width="31.67" height="21.03" rx="3.73" ry="3.73" transform="translate(949.34 -352.4) rotate(90)" />
	<rect class="cls-1" x="635.04" y="321" width="31.67" height="21.03" rx="3.73" ry="3.73" transform="translate(982.39 -319.35) rotate(90)" />
	<rect class="cls-1" x="635.04" y="354.06" width="31.67" height="21.03" rx="3.73" ry="3.73" transform="translate(1015.44 -286.3) rotate(90)" />
	<rect class="cls-1" x="635.04" y="387.11" width="31.67" height="21.03" rx="3.73" ry="3.73" transform="translate(1048.49 -253.25) rotate(90)" />
	<rect class="cls-1" x="635.04" y="420.16" width="31.67" height="21.03" rx="3.73" ry="3.73" transform="translate(1081.54 -220.2) rotate(90)" />
	<rect class="cls-1" x="635.04" y="453.21" width="31.67" height="21.03" rx="3.73" ry="3.73" transform="translate(1114.59 -187.14) rotate(90)" />
	<rect class="cls-1" x="635.04" y="486.26" width="31.67" height="21.03" rx="3.73" ry="3.73" transform="translate(1147.64 -154.09) rotate(90)" />
	<rect class="cls-1" x="635.04" y="519.31" width="31.67" height="21.03" rx="3.73" ry="3.73" transform="translate(1180.69 -121.04) rotate(90)" />
	<rect class="cls-1" x="635.04" y="552.36" width="31.67" height="21.03" rx="3.73" ry="3.73" transform="translate(1213.74 -87.99) rotate(90)" />
	<rect class="cls-1" x="635.04" y="585.41" width="31.67" height="21.03" rx="3.73" ry="3.73" transform="translate(1246.8 -54.94) rotate(90)" />
	<rect class="cls-1" x="635.04" y="618.46" width="31.67" height="21.03" rx="3.73" ry="3.73" transform="translate(1279.85 -21.89) rotate(90)" />
	<rect class="cls-1" x="635.04" y="651.51" width="31.67" height="21.03" rx="3.73" ry="3.73" transform="translate(1312.9 11.16) rotate(90)" />
	<rect class="cls-1" x="635.04" y="684.56" width="31.67" height="21.03" rx="3.73" ry="3.73" transform="translate(1345.95 44.21) rotate(90)" />
	<rect class="cls-1" x="588.74" y="122.7" width="31.67" height="21.03" rx="3.73" ry="3.73" transform="translate(737.79 -471.36) rotate(90)" />
	<rect class="cls-1" x="588.74" y="155.75" width="31.67" height="21.03" rx="3.73" ry="3.73" transform="translate(770.84 -438.31) rotate(90)" />
	<rect class="cls-1" x="588.74" y="188.8" width="31.67" height="21.03" rx="3.73" ry="3.73" transform="translate(803.89 -405.26) rotate(90)" />
	<rect class="cls-1" x="588.74" y="221.85" width="31.67" height="21.03" rx="3.73" ry="3.73" transform="translate(836.94 -372.2) rotate(90)" />
	<rect class="cls-1" x="588.74" y="254.9" width="31.67" height="21.03" rx="3.73" ry="3.73" transform="translate(869.99 -339.15) rotate(90)" />
	<rect class="cls-1" x="588.74" y="287.95" width="31.67" height="21.03" rx="3.73" ry="3.73" transform="translate(903.04 -306.1) rotate(90)" />
	<rect class="cls-1" x="588.74" y="321" width="31.67" height="21.03" rx="3.73" ry="3.73" transform="translate(936.09 -273.05) rotate(90)" />
	<rect class="cls-1" x="588.74" y="354.06" width="31.67" height="21.03" rx="3.73" ry="3.73" transform="translate(969.14 -240) rotate(90)" />
	<rect class="cls-1" x="588.74" y="387.11" width="31.67" height="21.03" rx="3.73" ry="3.73" transform="translate(1002.19 -206.95) rotate(90)" />
	<rect class="cls-1" x="588.74" y="420.16" width="31.67" height="21.03" rx="3.73" ry="3.73" transform="translate(1035.25 -173.9) rotate(90)" />
	<rect class="cls-1" x="588.74" y="453.21" width="31.67" height="21.03" rx="3.73" ry="3.73" transform="translate(1068.3 -140.85) rotate(90)" />
	<rect class="cls-1" x="588.74" y="486.26" width="31.67" height="21.03" rx="3.73" ry="3.73" transform="translate(1101.35 -107.8) rotate(90)" />
	<rect class="cls-1" x="588.74" y="519.31" width="31.67" height="21.03" rx="3.73" ry="3.73" transform="translate(1134.4 -74.75) rotate(90)" />
	<rect class="cls-1" x="588.74" y="552.36" width="31.67" height="21.03" rx="3.73" ry="3.73" transform="translate(1167.45 -41.7) rotate(90)" />
	<rect class="cls-1" x="588.74" y="585.41" width="31.67" height="21.03" rx="3.73" ry="3.73" transform="translate(1200.5 -8.65) rotate(90)" />
	<rect class="cls-1" x="588.74" y="618.46" width="31.67" height="21.03" rx="3.73" ry="3.73" transform="translate(1233.55 24.41) rotate(90)" />
	<rect class="cls-1" x="588.74" y="651.51" width="31.67" height="21.03" rx="3.73" ry="3.73" transform="translate(1266.6 57.46) rotate(90)" />
	<rect class="cls-1" x="588.74" y="684.56" width="31.67" height="21.03" rx="3.73" ry="3.73" transform="translate(1299.65 90.51) rotate(90)" />
	<rect class="cls-1" x="542.44" y="122.7" width="31.67" height="21.03" rx="3.73" ry="3.73" transform="translate(691.49 -425.06) rotate(90)" />
	<rect class="cls-1" x="542.44" y="155.75" width="31.67" height="21.03" rx="3.73" ry="3.73" transform="translate(724.54 -392.01) rotate(90)" />
	<rect class="cls-1" x="542.44" y="188.8" width="31.67" height="21.03" rx="3.73" ry="3.73" transform="translate(757.59 -358.96) rotate(90)" />
	<rect class="cls-1" x="542.44" y="221.85" width="31.67" height="21.03" rx="3.73" ry="3.73" transform="translate(790.64 -325.91) rotate(90)" />
	<rect class="cls-1" x="542.44" y="254.9" width="31.67" height="21.03" rx="3.73" ry="3.73" transform="translate(823.69 -292.86) rotate(90)" />
	<rect class="cls-1" x="542.44" y="287.95" width="31.67" height="21.03" rx="3.73" ry="3.73" transform="translate(856.75 -259.81) rotate(90)" />
	<rect class="cls-1" x="542.44" y="321" width="31.67" height="21.03" rx="3.73" ry="3.73" transform="translate(889.8 -226.76) rotate(90)" />
	<rect class="cls-1" x="542.44" y="354.06" width="31.67" height="21.03" rx="3.73" ry="3.73" transform="translate(922.85 -193.7) rotate(90)" />
	<rect class="cls-1" x="542.44" y="387.11" width="31.67" height="21.03" rx="3.73" ry="3.73" transform="translate(955.9 -160.65) rotate(90)" />
	<rect class="cls-1" x="542.44" y="420.16" width="31.67" height="21.03" rx="3.73" ry="3.73" transform="translate(988.95 -127.6) rotate(90)" />
	<rect class="cls-1" x="542.44" y="453.21" width="31.67" height="21.03" rx="3.73" ry="3.73" transform="translate(1022 -94.55) rotate(90)" />
	<rect class="cls-1" x="542.44" y="486.26" width="31.67" height="21.03" rx="3.73" ry="3.73" transform="translate(1055.05 -61.5) rotate(90)" />
	<rect class="cls-1" x="542.44" y="519.31" width="31.67" height="21.03" rx="3.73" ry="3.73" transform="translate(1088.1 -28.45) rotate(90)" />
	<rect class="cls-1" x="542.44" y="552.36" width="31.67" height="21.03" rx="3.73" ry="3.73" transform="translate(1121.15 4.6) rotate(90)" />
	<rect class="cls-1" x="542.44" y="585.41" width="31.67" height="21.03" rx="3.73" ry="3.73" transform="translate(1154.2 37.65) rotate(90)" />
	<rect class="cls-1" x="542.44" y="618.46" width="31.67" height="21.03" rx="3.73" ry="3.73" transform="translate(1187.25 70.7) rotate(90)" />
	<rect class="cls-1" x="542.44" y="651.51" width="31.67" height="21.03" rx="3.73" ry="3.73" transform="translate(1220.3 103.75) rotate(90)" />
	<rect class="cls-1" x="542.44" y="684.56" width="31.67" height="21.03" rx="3.73" ry="3.73" transform="translate(1253.36 136.8) rotate(90)" />
	<rect class="cls-1" x="496.15" y="122.7" width="31.67" height="21.03" rx="3.73" ry="3.73" transform="translate(645.2 -378.76) rotate(90)" />
	<rect class="cls-1" x="496.15" y="155.75" width="31.67" height="21.03" rx="3.73" ry="3.73" transform="translate(678.25 -345.71) rotate(90)" />
	<rect class="cls-1" x="496.15" y="188.8" width="31.67" height="21.03" rx="3.73" ry="3.73" transform="translate(711.3 -312.66) rotate(90)" />
	<rect class="cls-1" x="496.15" y="221.85" width="31.67" height="21.03" rx="3.73" ry="3.73" transform="translate(744.35 -279.61) rotate(90)" />
	<rect class="cls-1" x="496.15" y="254.9" width="31.67" height="21.03" rx="3.73" ry="3.73" transform="translate(777.4 -246.56) rotate(90)" />
	<rect class="cls-1" x="496.15" y="287.95" width="31.67" height="21.03" rx="3.73" ry="3.73" transform="translate(810.45 -213.51) rotate(90)" />
	<rect class="cls-1" x="496.15" y="321" width="31.67" height="21.03" rx="3.73" ry="3.73" transform="translate(843.5 -180.46) rotate(90)" />
	<rect class="cls-1" x="496.15" y="354.06" width="31.67" height="21.03" rx="3.73" ry="3.73" transform="translate(876.55 -147.41) rotate(90)" />
	<rect class="cls-1" x="496.15" y="387.11" width="31.67" height="21.03" rx="3.73" ry="3.73" transform="translate(909.6 -114.36) rotate(90)" />
	<rect class="cls-1" x="496.15" y="420.16" width="31.67" height="21.03" rx="3.73" ry="3.73" transform="translate(942.65 -81.31) rotate(90)" />
	<rect class="cls-1" x="496.15" y="453.21" width="31.67" height="21.03" rx="3.73" ry="3.73" transform="translate(975.7 -48.26) rotate(90)" />
	<rect class="cls-1" x="496.15" y="486.26" width="31.67" height="21.03" rx="3.73" ry="3.73" transform="translate(1008.75 -15.21) rotate(90)" />
	<rect class="cls-1" x="496.15" y="519.31" width="31.67" height="21.03" rx="3.73" ry="3.73" transform="translate(1041.81 17.85) rotate(90)" />
	<rect class="cls-1" x="496.15" y="552.36" width="31.67" height="21.03" rx="3.73" ry="3.73" transform="translate(1074.86 50.9) rotate(90)" />
	<rect class="cls-1" x="496.15" y="585.41" width="31.67" height="21.03" rx="3.73" ry="3.73" transform="translate(1107.91 83.95) rotate(90)" />
	<rect class="cls-1" x="496.15" y="618.46" width="31.67" height="21.03" rx="3.73" ry="3.73" transform="translate(1140.96 117) rotate(90)" />
	<rect class="cls-1" x="496.15" y="651.51" width="31.67" height="21.03" rx="3.73" ry="3.73" transform="translate(1174.01 150.05) rotate(90)" />
	<rect class="cls-1" x="496.15" y="684.56" width="31.67" height="21.03" rx="3.73" ry="3.73" transform="translate(1207.06 183.1) rotate(90)" />
	<rect class="cls-1" x="449.85" y="122.7" width="31.67" height="21.03" rx="3.73" ry="3.73" transform="translate(598.9 -332.47) rotate(90)" />
	<rect class="cls-1" x="449.85" y="155.75" width="31.67" height="21.03" rx="3.73" ry="3.73" transform="translate(631.95 -299.42) rotate(90)" />
	<rect class="cls-1" x="449.85" y="188.8" width="31.67" height="21.03" rx="3.73" ry="3.73" transform="translate(665 -266.37) rotate(90)" />
	<rect class="cls-1" x="449.85" y="221.85" width="31.67" height="21.03" rx="3.73" ry="3.73" transform="translate(698.05 -233.32) rotate(90)" />
	<rect class="cls-1" x="449.85" y="254.9" width="31.67" height="21.03" rx="3.73" ry="3.73" transform="translate(731.1 -200.26) rotate(90)" />
	<rect class="cls-1" x="449.85" y="287.95" width="31.67" height="21.03" rx="3.73" ry="3.73" transform="translate(764.15 -167.21) rotate(90)" />
	<rect class="cls-1" x="449.85" y="321" width="31.67" height="21.03" rx="3.73" ry="3.73" transform="translate(797.2 -134.16) rotate(90)" />
	<rect class="cls-1" x="449.85" y="354.06" width="31.67" height="21.03" rx="3.73" ry="3.73" transform="translate(830.25 -101.11) rotate(90)" />
	<rect class="cls-1" x="449.85" y="387.11" width="31.67" height="21.03" rx="3.73" ry="3.73" transform="translate(863.31 -68.06) rotate(90)" />
	<rect class="cls-1" x="449.85" y="420.16" width="31.67" height="21.03" rx="3.73" ry="3.73" transform="translate(896.36 -35.01) rotate(90)" />
	<rect class="cls-1" x="449.85" y="453.21" width="31.67" height="21.03" rx="3.73" ry="3.73" transform="translate(929.41 -1.96) rotate(90)" />
	<rect class="cls-1" x="449.85" y="486.26" width="31.67" height="21.03" rx="3.73" ry="3.73" transform="translate(962.46 31.09) rotate(90)" />
	<rect class="cls-1" x="449.85" y="519.31" width="31.67" height="21.03" rx="3.73" ry="3.73" transform="translate(995.51 64.14) rotate(90)" />
	<rect class="cls-1" x="449.85" y="552.36" width="31.67" height="21.03" rx="3.73" ry="3.73" transform="translate(1028.56 97.19) rotate(90)" />
	<rect class="cls-1" x="449.85" y="585.41" width="31.67" height="21.03" rx="3.73" ry="3.73" transform="translate(1061.61 130.24) rotate(90)" />
	<rect class="cls-1" x="449.85" y="618.46" width="31.67" height="21.03" rx="3.73" ry="3.73" transform="translate(1094.66 163.29) rotate(90)" />
	<rect class="cls-1" x="449.85" y="651.51" width="31.67" height="21.03" rx="3.73" ry="3.73" transform="translate(1127.71 196.35) rotate(90)" />
	<rect class="cls-1" x="449.85" y="684.56" width="31.67" height="21.03" rx="3.73" ry="3.73" transform="translate(1160.76 229.4) rotate(90)" />
	<rect class="cls-1" x="403.55" y="122.7" width="31.67" height="21.03" rx="3.73" ry="3.73" transform="translate(552.6 -286.17) rotate(90)" />
	<rect class="cls-1" x="403.55" y="155.75" width="31.67" height="21.03" rx="3.73" ry="3.73" transform="translate(585.65 -253.12) rotate(90)" />
	<rect class="cls-1" x="403.55" y="188.8" width="31.67" height="21.03" rx="3.73" ry="3.73" transform="translate(618.7 -220.07) rotate(90)" />
	<rect class="cls-1" x="403.55" y="221.85" width="31.67" height="21.03" rx="3.73" ry="3.73" transform="translate(651.76 -187.02) rotate(90)" />
	<rect class="cls-1" x="403.55" y="254.9" width="31.67" height="21.03" rx="3.73" ry="3.73" transform="translate(684.81 -153.97) rotate(90)" />
	<rect class="cls-1" x="403.55" y="287.95" width="31.67" height="21.03" rx="3.73" ry="3.73" transform="translate(717.86 -120.92) rotate(90)" />
	<rect class="cls-1" x="403.55" y="321" width="31.67" height="21.03" rx="3.73" ry="3.73" transform="translate(750.91 -87.87) rotate(90)" />
	<rect class="cls-1" x="403.55" y="354.06" width="31.67" height="21.03" rx="3.73" ry="3.73" transform="translate(783.96 -54.82) rotate(90)" />
	<rect class="cls-1" x="403.55" y="387.11" width="31.67" height="21.03" rx="3.73" ry="3.73" transform="translate(817.01 -21.77) rotate(90)" />
	<rect class="cls-1" x="403.55" y="420.16" width="31.67" height="21.03" rx="3.73" ry="3.73" transform="translate(850.06 11.29) rotate(90)" />
	<rect class="cls-1" x="403.55" y="453.21" width="31.67" height="21.03" rx="3.73" ry="3.73" transform="translate(883.11 44.34) rotate(90)" />
	<rect class="cls-1" x="403.55" y="486.26" width="31.67" height="21.03" rx="3.73" ry="3.73" transform="translate(916.16 77.39) rotate(90)" />
	<rect class="cls-1" x="403.55" y="519.31" width="31.67" height="21.03" rx="3.73" ry="3.73" transform="translate(949.21 110.44) rotate(90)" />
	<rect class="cls-1" x="403.55" y="552.36" width="31.67" height="21.03" rx="3.73" ry="3.73" transform="translate(982.26 143.49) rotate(90)" />
	<rect class="cls-1" x="403.55" y="585.41" width="31.67" height="21.03" rx="3.73" ry="3.73" transform="translate(1015.31 176.54) rotate(90)" />
	<rect class="cls-1" x="403.55" y="618.46" width="31.67" height="21.03" rx="3.73" ry="3.73" transform="translate(1048.36 209.59) rotate(90)" />
	<rect class="cls-1" x="403.55" y="651.51" width="31.67" height="21.03" rx="3.73" ry="3.73" transform="translate(1081.42 242.64) rotate(90)" />
	<rect class="cls-1" x="403.55" y="684.56" width="31.67" height="21.03" rx="3.73" ry="3.73" transform="translate(1114.47 275.69) rotate(90)" />
	<rect class="cls-1" x="357.26" y="122.7" width="31.67" height="21.03" rx="3.73" ry="3.73" transform="translate(506.31 -239.88) rotate(90)" />
	<rect class="cls-1" x="357.26" y="155.75" width="31.67" height="21.03" rx="3.73" ry="3.73" transform="translate(539.36 -206.82) rotate(90)" />
	<rect class="cls-1" x="357.26" y="188.8" width="31.67" height="21.03" rx="3.73" ry="3.73" transform="translate(572.41 -173.77) rotate(90)" />
	<rect class="cls-1" x="357.26" y="221.85" width="31.67" height="21.03" rx="3.73" ry="3.73" transform="translate(605.46 -140.72) rotate(90)" />
	<rect class="cls-1" x="357.26" y="254.9" width="31.67" height="21.03" rx="3.73" ry="3.73" transform="translate(638.51 -107.67) rotate(90)" />
	<rect class="cls-1" x="357.26" y="287.95" width="31.67" height="21.03" rx="3.73" ry="3.73" transform="translate(671.56 -74.62) rotate(90)" />
	<rect class="cls-1" x="357.26" y="321" width="31.67" height="21.03" rx="3.73" ry="3.73" transform="translate(704.61 -41.57) rotate(90)" />
	<rect class="cls-1" x="357.26" y="354.06" width="31.67" height="21.03" rx="3.73" ry="3.73" transform="translate(737.66 -8.52) rotate(90)" />
	<rect class="cls-1" x="357.26" y="387.11" width="31.67" height="21.03" rx="3.73" ry="3.73" transform="translate(770.71 24.53) rotate(90)" />
	<rect class="cls-1" x="357.26" y="420.16" width="31.67" height="21.03" rx="3.73" ry="3.73" transform="translate(803.76 57.58) rotate(90)" />
	<rect class="cls-1" x="357.26" y="453.21" width="31.67" height="21.03" rx="3.73" ry="3.73" transform="translate(836.81 90.63) rotate(90)" />
	<rect class="cls-1" x="357.26" y="486.26" width="31.67" height="21.03" rx="3.73" ry="3.73" transform="translate(869.87 123.68) rotate(90)" />
	<rect class="cls-1" x="357.26" y="519.31" width="31.67" height="21.03" rx="3.73" ry="3.73" transform="translate(902.92 156.73) rotate(90)" />
	<rect class="cls-1" x="357.26" y="552.36" width="31.67" height="21.03" rx="3.73" ry="3.73" transform="translate(935.97 189.79) rotate(90)" />
	<rect class="cls-1" x="357.26" y="585.41" width="31.67" height="21.03" rx="3.73" ry="3.73" transform="translate(969.02 222.84) rotate(90)" />
	<rect class="cls-1" x="357.26" y="618.46" width="31.67" height="21.03" rx="3.73" ry="3.73" transform="translate(1002.07 255.89) rotate(90)" />
	<rect class="cls-1" x="357.26" y="651.51" width="31.67" height="21.03" rx="3.73" ry="3.73" transform="translate(1035.12 288.94) rotate(90)" />
	<rect class="cls-1" x="357.26" y="684.56" width="31.67" height="21.03" rx="3.73" ry="3.73" transform="translate(1068.17 321.99) rotate(90)" />
	<rect class="cls-1" x="773.92" y="717.61" width="31.67" height="21.03" rx="3.73" ry="3.73" transform="translate(1517.89 -61.63) rotate(90)" />
	<polygon class="cls-5" points="810.9 51.28 810.9 746.15 771.47 746.15 771.47 723.2 354.13 723.2 354.13 51.28 810.9 51.28" />
	<g>
		<path id="path100318" class="cls-4" d="m789.76,760.68v10.81s-.82,1.84-.82,1.84l-.61.82-1.22.61h-1.43s-1.43-.61-1.43-.61l-.61-.82-.61-1.84v-1.43" />
		<path id="path100320" class="cls-4" d="m743.74,775.06v-14.08" />
		<path id="path100322" class="cls-4" d="m693.04,775.06v-14.08" />
		<path id="path100324" class="cls-4" d="m702.42,760.99v14.08" />
		<path id="path100326" class="cls-4" d="m693.04,767.72h9.39" />
		<path id="path100328" class="cls-4" d="m657.86,764.25l-.82-1.22-1.22-1.43-1.43-.61h-2.65s-1.22.61-1.22.61l-1.43,1.43-.61,1.22-.82,2.04v3.47s.82,2.04.82,2.04l.61,1.22,1.43,1.43,1.22.61h2.65s1.43-.61,1.43-.61l1.22-1.43.82-1.22v-2.04s-3.47,0-3.47,0" />
		<path id="path100330" class="cls-4" d="m601.42,775.06v-14.08s8.57,0,8.57,0" />
		<path id="path100332" class="cls-4" d="m601.42,767.72h5.3" />
		<path id="path100334" class="cls-4" d="m555.3,775.06v-14.08s8.77,0,8.77,0" />
		<path id="path100336" class="cls-4" d="m555.3,767.72h5.3" />
		<path id="path100338" class="cls-4" d="m555.3,775.06h8.77" />
		<path id="path100340" class="cls-4" d="m508.98,775.06v-14.08s4.69,0,4.69,0l2.04.61,1.22,1.43.82,1.22.61,2.04v3.47s-.61,2.04-.61,2.04l-.82,1.22-1.22,1.43-2.04.61h-4.69" />
		<path id="path100342" class="cls-4" d="m472.66,764.25l-.61-1.22-1.22-1.43-1.43-.61h-2.65s-1.43.61-1.43.61l-1.22,1.43-.82,1.22-.61,2.04v3.47s.61,2.04.61,2.04l.82,1.22,1.22,1.43,1.43.61h2.65s1.43-.61,1.43-.61l1.22-1.43.61-1.22" />
		<path id="path100344" class="cls-4" d="m416.27,775.06v-14.08s6.12,0,6.12,0l2.04.61.61.61.61,1.43v1.43s-.61,1.22-.61,1.22l-.61.61-2.04.82h-6.12" />
		<path id="path100346" class="cls-4" d="m422.39,767.72l2.04.61.61.61.61,1.43v2.04s-.61,1.22-.61,1.22l-.61.82-2.04.61h-6.12" />
		<path id="path100348" class="cls-4" d="m368.32,775.06l5.51-14.08,5.3,14.08" />
		<path id="path100350" class="cls-4" d="m370.37,770.37h6.73" />
	</g>
	<g id="text112310" class="cls-3">
		<text class="cls-2" transform="translate(264.53 432.76)">
			<tspan x="0" y="0">
				H
			</tspan>
		</text>
	</g>
</svg>
