<?xml version="1.0" encoding="UTF-8"?>
<svg id="Capa_2" xmlns="http://www.w3.org/2000/svg" viewBox="0 0 1075.56 792">
	<defs>
		<style>
			.cls-1{fill:#d9d9d9;}.cls-2{font-family:Arial-BoldMT, Arial;font-size:83.71px;font-weight:700;}.cls-2,.cls-3{isolation:isolate;}.cls-4{stroke:#000;stroke-linecap:round;stroke-linejoin:round;}.cls-4,.cls-5{fill:none;stroke-width:4px;}.cls-5{stroke:#9ec043;stroke-miterlimit:10;}
		</style>
	</defs>
	<rect class="cls-1" x="770.88" y="49.16" width="31.67" height="21.03" rx="3.73" ry="3.73" transform="translate(846.38 -727.03) rotate(90)" />
	<rect class="cls-1" x="770.88" y="82.21" width="31.67" height="21.03" rx="3.73" ry="3.73" transform="translate(879.44 -693.98) rotate(90)" />
	<rect class="cls-1" x="770.88" y="115.26" width="31.67" height="21.03" rx="3.73" ry="3.73" transform="translate(912.49 -660.93) rotate(90)" />
	<rect class="cls-1" x="770.88" y="148.31" width="31.67" height="21.03" rx="3.73" ry="3.73" transform="translate(945.54 -627.88) rotate(90)" />
	<rect class="cls-1" x="770.88" y="181.36" width="31.67" height="21.03" rx="3.73" ry="3.73" transform="translate(978.59 -594.83) rotate(90)" />
	<rect class="cls-1" x="770.88" y="214.41" width="31.67" height="21.03" rx="3.73" ry="3.73" transform="translate(1011.64 -561.78) rotate(90)" />
	<rect class="cls-1" x="770.88" y="247.46" width="31.67" height="21.03" rx="3.73" ry="3.73" transform="translate(1044.69 -528.73) rotate(90)" />
	<rect class="cls-1" x="770.88" y="280.52" width="31.67" height="21.03" rx="3.73" ry="3.73" transform="translate(1077.74 -495.68) rotate(90)" />
	<rect class="cls-1" x="770.88" y="313.57" width="31.67" height="21.03" rx="3.73" ry="3.73" transform="translate(1110.79 -462.63) rotate(90)" />
	<rect class="cls-1" x="770.88" y="346.62" width="31.67" height="21.03" rx="3.73" ry="3.73" transform="translate(1143.84 -429.58) rotate(90)" />
	<rect class="cls-1" x="770.88" y="379.67" width="31.67" height="21.03" rx="3.73" ry="3.73" transform="translate(1176.89 -396.53) rotate(90)" />
	<rect class="cls-1" x="770.88" y="412.72" width="31.67" height="21.03" rx="3.73" ry="3.73" transform="translate(1209.94 -363.47) rotate(90)" />
	<rect class="cls-1" x="770.88" y="445.77" width="31.67" height="21.03" rx="3.73" ry="3.73" transform="translate(1242.99 -330.42) rotate(90)" />
	<rect class="cls-1" x="770.88" y="478.82" width="31.67" height="21.03" rx="3.73" ry="3.73" transform="translate(1276.05 -297.37) rotate(90)" />
	<rect class="cls-1" x="770.88" y="511.87" width="31.67" height="21.03" rx="3.73" ry="3.73" transform="translate(1309.1 -264.32) rotate(90)" />
	<rect class="cls-1" x="770.88" y="544.92" width="31.67" height="21.03" rx="3.73" ry="3.73" transform="translate(1342.15 -231.27) rotate(90)" />
	<rect class="cls-1" x="770.88" y="577.97" width="31.67" height="21.03" rx="3.73" ry="3.73" transform="translate(1375.2 -198.22) rotate(90)" />
	<rect class="cls-1" x="770.88" y="611.02" width="31.67" height="21.03" rx="3.73" ry="3.73" transform="translate(1408.25 -165.17) rotate(90)" />
	<rect class="cls-1" x="770.88" y="644.07" width="31.67" height="21.03" rx="3.73" ry="3.73" transform="translate(1441.3 -132.12) rotate(90)" />
	<rect class="cls-1" x="770.88" y="677.13" width="31.67" height="21.03" rx="3.73" ry="3.73" transform="translate(1474.35 -99.07) rotate(90)" />
	<rect class="cls-1" x="724.58" y="115.26" width="31.67" height="21.03" rx="3.73" ry="3.73" transform="translate(866.19 -614.64) rotate(90)" />
	<rect class="cls-1" x="724.58" y="148.31" width="31.67" height="21.03" rx="3.73" ry="3.73" transform="translate(899.24 -581.59) rotate(90)" />
	<rect class="cls-1" x="724.58" y="181.36" width="31.67" height="21.03" rx="3.73" ry="3.73" transform="translate(932.29 -548.53) rotate(90)" />
	<rect class="cls-1" x="724.58" y="214.41" width="31.67" height="21.03" rx="3.73" ry="3.73" transform="translate(965.34 -515.48) rotate(90)" />
	<rect class="cls-1" x="724.58" y="247.46" width="31.67" height="21.03" rx="3.73" ry="3.73" transform="translate(998.39 -482.43) rotate(90)" />
	<rect class="cls-1" x="724.58" y="280.52" width="31.67" height="21.03" rx="3.73" ry="3.73" transform="translate(1031.44 -449.38) rotate(90)" />
	<rect class="cls-1" x="724.58" y="313.57" width="31.67" height="21.03" rx="3.73" ry="3.73" transform="translate(1064.49 -416.33) rotate(90)" />
	<rect class="cls-1" x="724.58" y="346.62" width="31.67" height="21.03" rx="3.73" ry="3.73" transform="translate(1097.55 -383.28) rotate(90)" />
	<rect class="cls-1" x="724.58" y="379.67" width="31.67" height="21.03" rx="3.73" ry="3.73" transform="translate(1130.6 -350.23) rotate(90)" />
	<rect class="cls-1" x="724.58" y="412.72" width="31.67" height="21.03" rx="3.73" ry="3.73" transform="translate(1163.65 -317.18) rotate(90)" />
	<rect class="cls-1" x="724.58" y="445.77" width="31.67" height="21.03" rx="3.73" ry="3.73" transform="translate(1196.7 -284.13) rotate(90)" />
	<rect class="cls-1" x="724.58" y="478.82" width="31.67" height="21.03" rx="3.73" ry="3.73" transform="translate(1229.75 -251.08) rotate(90)" />
	<rect class="cls-1" x="724.58" y="511.87" width="31.67" height="21.03" rx="3.73" ry="3.73" transform="translate(1262.8 -218.03) rotate(90)" />
	<rect class="cls-1" x="724.58" y="544.92" width="31.67" height="21.03" rx="3.73" ry="3.73" transform="translate(1295.85 -184.98) rotate(90)" />
	<rect class="cls-1" x="724.58" y="577.97" width="31.67" height="21.03" rx="3.73" ry="3.73" transform="translate(1328.9 -151.92) rotate(90)" />
	<rect class="cls-1" x="724.58" y="611.02" width="31.67" height="21.03" rx="3.73" ry="3.73" transform="translate(1361.95 -118.87) rotate(90)" />
	<rect class="cls-1" x="724.58" y="644.07" width="31.67" height="21.03" rx="3.73" ry="3.73" transform="translate(1395 -85.82) rotate(90)" />
	<rect class="cls-1" x="724.58" y="677.13" width="31.67" height="21.03" rx="3.73" ry="3.73" transform="translate(1428.05 -52.77) rotate(90)" />
	<rect class="cls-1" x="678.28" y="115.26" width="31.67" height="21.03" rx="3.73" ry="3.73" transform="translate(819.89 -568.34) rotate(90)" />
	<rect class="cls-1" x="678.28" y="148.31" width="31.67" height="21.03" rx="3.73" ry="3.73" transform="translate(852.94 -535.29) rotate(90)" />
	<rect class="cls-1" x="678.28" y="181.36" width="31.67" height="21.03" rx="3.73" ry="3.73" transform="translate(886 -502.24) rotate(90)" />
	<rect class="cls-1" x="678.28" y="214.41" width="31.67" height="21.03" rx="3.73" ry="3.73" transform="translate(919.05 -469.19) rotate(90)" />
	<rect class="cls-1" x="678.28" y="247.46" width="31.67" height="21.03" rx="3.73" ry="3.73" transform="translate(952.1 -436.14) rotate(90)" />
	<rect class="cls-1" x="678.28" y="280.52" width="31.67" height="21.03" rx="3.73" ry="3.73" transform="translate(985.15 -403.09) rotate(90)" />
	<rect class="cls-1" x="678.28" y="313.57" width="31.67" height="21.03" rx="3.73" ry="3.73" transform="translate(1018.2 -370.03) rotate(90)" />
	<rect class="cls-1" x="678.28" y="346.62" width="31.67" height="21.03" rx="3.73" ry="3.73" transform="translate(1051.25 -336.98) rotate(90)" />
	<rect class="cls-1" x="678.28" y="379.67" width="31.67" height="21.03" rx="3.73" ry="3.73" transform="translate(1084.3 -303.93) rotate(90)" />
	<rect class="cls-1" x="678.28" y="412.72" width="31.67" height="21.03" rx="3.73" ry="3.73" transform="translate(1117.35 -270.88) rotate(90)" />
	<rect class="cls-1" x="678.28" y="445.77" width="31.67" height="21.03" rx="3.73" ry="3.73" transform="translate(1150.4 -237.83) rotate(90)" />
	<rect class="cls-1" x="678.28" y="478.82" width="31.67" height="21.03" rx="3.73" ry="3.73" transform="translate(1183.45 -204.78) rotate(90)" />
	<rect class="cls-1" x="678.28" y="511.87" width="31.67" height="21.03" rx="3.73" ry="3.73" transform="translate(1216.5 -171.73) rotate(90)" />
	<rect class="cls-1" x="678.28" y="544.92" width="31.67" height="21.03" rx="3.73" ry="3.73" transform="translate(1249.55 -138.68) rotate(90)" />
	<rect class="cls-1" x="678.28" y="577.97" width="31.67" height="21.03" rx="3.73" ry="3.73" transform="translate(1282.61 -105.63) rotate(90)" />
	<rect class="cls-1" x="678.28" y="611.02" width="31.67" height="21.03" rx="3.73" ry="3.73" transform="translate(1315.66 -72.58) rotate(90)" />
	<rect class="cls-1" x="678.28" y="644.07" width="31.67" height="21.03" rx="3.73" ry="3.73" transform="translate(1348.71 -39.53) rotate(90)" />
	<rect class="cls-1" x="678.28" y="677.13" width="31.67" height="21.03" rx="3.73" ry="3.73" transform="translate(1381.76 -6.48) rotate(90)" />
	<rect class="cls-1" x="631.99" y="115.26" width="31.67" height="21.03" rx="3.73" ry="3.73" transform="translate(773.6 -522.04) rotate(90)" />
	<rect class="cls-1" x="631.99" y="148.31" width="31.67" height="21.03" rx="3.73" ry="3.73" transform="translate(806.65 -488.99) rotate(90)" />
	<rect class="cls-1" x="631.99" y="181.36" width="31.67" height="21.03" rx="3.73" ry="3.73" transform="translate(839.7 -455.94) rotate(90)" />
	<rect class="cls-1" x="631.99" y="214.41" width="31.67" height="21.03" rx="3.73" ry="3.73" transform="translate(872.75 -422.89) rotate(90)" />
	<rect class="cls-1" x="631.99" y="247.46" width="31.67" height="21.03" rx="3.73" ry="3.73" transform="translate(905.8 -389.84) rotate(90)" />
	<rect class="cls-1" x="631.99" y="280.52" width="31.67" height="21.03" rx="3.73" ry="3.73" transform="translate(938.85 -356.79) rotate(90)" />
	<rect class="cls-1" x="631.99" y="313.57" width="31.67" height="21.03" rx="3.73" ry="3.73" transform="translate(971.9 -323.74) rotate(90)" />
	<rect class="cls-1" x="631.99" y="346.62" width="31.67" height="21.03" rx="3.73" ry="3.73" transform="translate(1004.95 -290.69) rotate(90)" />
	<rect class="cls-1" x="631.99" y="379.67" width="31.67" height="21.03" rx="3.73" ry="3.73" transform="translate(1038 -257.64) rotate(90)" />
	<rect class="cls-1" x="631.99" y="412.72" width="31.67" height="21.03" rx="3.73" ry="3.73" transform="translate(1071.05 -224.59) rotate(90)" />
	<rect class="cls-1" x="631.99" y="445.77" width="31.67" height="21.03" rx="3.73" ry="3.73" transform="translate(1104.11 -191.54) rotate(90)" />
	<rect class="cls-1" x="631.99" y="478.82" width="31.67" height="21.03" rx="3.73" ry="3.73" transform="translate(1137.16 -158.48) rotate(90)" />
	<rect class="cls-1" x="631.99" y="511.87" width="31.67" height="21.03" rx="3.73" ry="3.73" transform="translate(1170.21 -125.43) rotate(90)" />
	<rect class="cls-1" x="631.99" y="544.92" width="31.67" height="21.03" rx="3.73" ry="3.73" transform="translate(1203.26 -92.38) rotate(90)" />
	<rect class="cls-1" x="631.99" y="577.97" width="31.67" height="21.03" rx="3.73" ry="3.73" transform="translate(1236.31 -59.33) rotate(90)" />
	<rect class="cls-1" x="631.99" y="611.02" width="31.67" height="21.03" rx="3.73" ry="3.73" transform="translate(1269.36 -26.28) rotate(90)" />
	<rect class="cls-1" x="631.99" y="644.07" width="31.67" height="21.03" rx="3.73" ry="3.73" transform="translate(1302.41 6.77) rotate(90)" />
	<rect class="cls-1" x="631.99" y="677.13" width="31.67" height="21.03" rx="3.73" ry="3.73" transform="translate(1335.46 39.82) rotate(90)" />
	<rect class="cls-1" x="585.69" y="115.26" width="31.67" height="21.03" rx="3.73" ry="3.73" transform="translate(727.3 -475.75) rotate(90)" />
	<rect class="cls-1" x="585.69" y="148.31" width="31.67" height="21.03" rx="3.73" ry="3.73" transform="translate(760.35 -442.7) rotate(90)" />
	<rect class="cls-1" x="585.69" y="181.36" width="31.67" height="21.03" rx="3.73" ry="3.73" transform="translate(793.4 -409.65) rotate(90)" />
	<rect class="cls-1" x="585.69" y="214.41" width="31.67" height="21.03" rx="3.73" ry="3.73" transform="translate(826.45 -376.59) rotate(90)" />
	<rect class="cls-1" x="585.69" y="247.46" width="31.67" height="21.03" rx="3.73" ry="3.73" transform="translate(859.5 -343.54) rotate(90)" />
	<rect class="cls-1" x="585.69" y="280.52" width="31.67" height="21.03" rx="3.73" ry="3.73" transform="translate(892.56 -310.49) rotate(90)" />
	<rect class="cls-1" x="585.69" y="313.57" width="31.67" height="21.03" rx="3.73" ry="3.73" transform="translate(925.61 -277.44) rotate(90)" />
	<rect class="cls-1" x="585.69" y="346.62" width="31.67" height="21.03" rx="3.73" ry="3.73" transform="translate(958.66 -244.39) rotate(90)" />
	<rect class="cls-1" x="585.69" y="379.67" width="31.67" height="21.03" rx="3.73" ry="3.73" transform="translate(991.71 -211.34) rotate(90)" />
	<rect class="cls-1" x="585.69" y="412.72" width="31.67" height="21.03" rx="3.73" ry="3.73" transform="translate(1024.76 -178.29) rotate(90)" />
	<rect class="cls-1" x="585.69" y="445.77" width="31.67" height="21.03" rx="3.73" ry="3.73" transform="translate(1057.81 -145.24) rotate(90)" />
	<rect class="cls-1" x="585.69" y="478.82" width="31.67" height="21.03" rx="3.73" ry="3.73" transform="translate(1090.86 -112.19) rotate(90)" />
	<rect class="cls-1" x="585.69" y="511.87" width="31.67" height="21.03" rx="3.73" ry="3.73" transform="translate(1123.91 -79.14) rotate(90)" />
	<rect class="cls-1" x="585.69" y="544.92" width="31.67" height="21.03" rx="3.73" ry="3.73" transform="translate(1156.96 -46.09) rotate(90)" />
	<rect class="cls-1" x="585.69" y="577.97" width="31.67" height="21.03" rx="3.73" ry="3.73" transform="translate(1190.01 -13.04) rotate(90)" />
	<rect class="cls-1" x="585.69" y="611.02" width="31.67" height="21.03" rx="3.73" ry="3.73" transform="translate(1223.06 20.02) rotate(90)" />
	<rect class="cls-1" x="585.69" y="644.07" width="31.67" height="21.03" rx="3.73" ry="3.73" transform="translate(1256.11 53.07) rotate(90)" />
	<rect class="cls-1" x="585.69" y="677.13" width="31.67" height="21.03" rx="3.73" ry="3.73" transform="translate(1289.16 86.12) rotate(90)" />
	<rect class="cls-1" x="539.4" y="115.26" width="31.67" height="21.03" rx="3.73" ry="3.73" transform="translate(681 -429.45) rotate(90)" />
	<rect class="cls-1" x="539.4" y="148.31" width="31.67" height="21.03" rx="3.73" ry="3.73" transform="translate(714.06 -396.4) rotate(90)" />
	<rect class="cls-1" x="539.4" y="181.36" width="31.67" height="21.03" rx="3.73" ry="3.73" transform="translate(747.11 -363.35) rotate(90)" />
	<rect class="cls-1" x="539.4" y="214.41" width="31.67" height="21.03" rx="3.73" ry="3.73" transform="translate(780.16 -330.3) rotate(90)" />
	<rect class="cls-1" x="539.4" y="247.46" width="31.67" height="21.03" rx="3.73" ry="3.73" transform="translate(813.21 -297.25) rotate(90)" />
	<rect class="cls-1" x="539.4" y="280.52" width="31.67" height="21.03" rx="3.73" ry="3.73" transform="translate(846.26 -264.2) rotate(90)" />
	<rect class="cls-1" x="539.4" y="313.57" width="31.67" height="21.03" rx="3.73" ry="3.73" transform="translate(879.31 -231.15) rotate(90)" />
	<rect class="cls-1" x="539.4" y="346.62" width="31.67" height="21.03" rx="3.73" ry="3.73" transform="translate(912.36 -198.09) rotate(90)" />
	<rect class="cls-1" x="539.4" y="379.67" width="31.67" height="21.03" rx="3.73" ry="3.73" transform="translate(945.41 -165.04) rotate(90)" />
	<rect class="cls-1" x="539.4" y="412.72" width="31.67" height="21.03" rx="3.73" ry="3.73" transform="translate(978.46 -131.99) rotate(90)" />
	<rect class="cls-1" x="539.4" y="445.77" width="31.67" height="21.03" rx="3.73" ry="3.73" transform="translate(1011.51 -98.94) rotate(90)" />
	<rect class="cls-1" x="539.4" y="478.82" width="31.67" height="21.03" rx="3.73" ry="3.73" transform="translate(1044.56 -65.89) rotate(90)" />
	<rect class="cls-1" x="539.4" y="511.87" width="31.67" height="21.03" rx="3.73" ry="3.73" transform="translate(1077.61 -32.84) rotate(90)" />
	<rect class="cls-1" x="539.4" y="544.92" width="31.67" height="21.03" rx="3.73" ry="3.73" transform="translate(1110.67 .21) rotate(90)" />
	<rect class="cls-1" x="539.4" y="577.97" width="31.67" height="21.03" rx="3.73" ry="3.73" transform="translate(1143.72 33.26) rotate(90)" />
	<rect class="cls-1" x="539.4" y="611.02" width="31.67" height="21.03" rx="3.73" ry="3.73" transform="translate(1176.77 66.31) rotate(90)" />
	<rect class="cls-1" x="539.4" y="644.07" width="31.67" height="21.03" rx="3.73" ry="3.73" transform="translate(1209.82 99.36) rotate(90)" />
	<rect class="cls-1" x="539.4" y="677.13" width="31.67" height="21.03" rx="3.73" ry="3.73" transform="translate(1242.87 132.41) rotate(90)" />
	<rect class="cls-1" x="493.1" y="115.26" width="31.67" height="21.03" rx="3.73" ry="3.73" transform="translate(634.71 -383.15) rotate(90)" />
	<rect class="cls-1" x="493.1" y="148.31" width="31.67" height="21.03" rx="3.73" ry="3.73" transform="translate(667.76 -350.1) rotate(90)" />
	<rect class="cls-1" x="493.1" y="181.36" width="31.67" height="21.03" rx="3.73" ry="3.73" transform="translate(700.81 -317.05) rotate(90)" />
	<rect class="cls-1" x="493.1" y="214.41" width="31.67" height="21.03" rx="3.73" ry="3.73" transform="translate(733.86 -284) rotate(90)" />
	<rect class="cls-1" x="493.1" y="247.46" width="31.67" height="21.03" rx="3.73" ry="3.73" transform="translate(766.91 -250.95) rotate(90)" />
	<rect class="cls-1" x="493.1" y="280.52" width="31.67" height="21.03" rx="3.73" ry="3.73" transform="translate(799.96 -217.9) rotate(90)" />
	<rect class="cls-1" x="493.1" y="313.57" width="31.67" height="21.03" rx="3.73" ry="3.73" transform="translate(833.01 -184.85) rotate(90)" />
	<rect class="cls-1" x="493.1" y="346.62" width="31.67" height="21.03" rx="3.73" ry="3.73" transform="translate(866.06 -151.8) rotate(90)" />
	<rect class="cls-1" x="493.1" y="379.67" width="31.67" height="21.03" rx="3.73" ry="3.73" transform="translate(899.11 -118.75) rotate(90)" />
	<rect class="cls-1" x="493.1" y="412.72" width="31.67" height="21.03" rx="3.73" ry="3.73" transform="translate(932.17 -85.7) rotate(90)" />
	<rect class="cls-1" x="493.1" y="445.77" width="31.67" height="21.03" rx="3.73" ry="3.73" transform="translate(965.22 -52.65) rotate(90)" />
	<rect class="cls-1" x="493.1" y="478.82" width="31.67" height="21.03" rx="3.73" ry="3.73" transform="translate(998.27 -19.6) rotate(90)" />
	<rect class="cls-1" x="493.1" y="511.87" width="31.67" height="21.03" rx="3.73" ry="3.73" transform="translate(1031.32 13.46) rotate(90)" />
	<rect class="cls-1" x="493.1" y="544.92" width="31.67" height="21.03" rx="3.73" ry="3.73" transform="translate(1064.37 46.51) rotate(90)" />
	<rect class="cls-1" x="493.1" y="577.97" width="31.67" height="21.03" rx="3.73" ry="3.73" transform="translate(1097.42 79.56) rotate(90)" />
	<rect class="cls-1" x="493.1" y="611.02" width="31.67" height="21.03" rx="3.73" ry="3.73" transform="translate(1130.47 112.61) rotate(90)" />
	<rect class="cls-1" x="493.1" y="644.07" width="31.67" height="21.03" rx="3.73" ry="3.73" transform="translate(1163.52 145.66) rotate(90)" />
	<rect class="cls-1" x="493.1" y="677.13" width="31.67" height="21.03" rx="3.73" ry="3.73" transform="translate(1196.57 178.71) rotate(90)" />
	<rect class="cls-1" x="446.8" y="115.26" width="31.67" height="21.03" rx="3.73" ry="3.73" transform="translate(588.41 -336.86) rotate(90)" />
	<rect class="cls-1" x="446.8" y="148.31" width="31.67" height="21.03" rx="3.73" ry="3.73" transform="translate(621.46 -303.81) rotate(90)" />
	<rect class="cls-1" x="446.8" y="181.36" width="31.67" height="21.03" rx="3.73" ry="3.73" transform="translate(654.51 -270.76) rotate(90)" />
	<rect class="cls-1" x="446.8" y="214.41" width="31.67" height="21.03" rx="3.73" ry="3.73" transform="translate(687.56 -237.71) rotate(90)" />
	<rect class="cls-1" x="446.8" y="247.46" width="31.67" height="21.03" rx="3.73" ry="3.73" transform="translate(720.62 -204.65) rotate(90)" />
	<rect class="cls-1" x="446.8" y="280.52" width="31.67" height="21.03" rx="3.73" ry="3.73" transform="translate(753.67 -171.6) rotate(90)" />
	<rect class="cls-1" x="446.8" y="313.57" width="31.67" height="21.03" rx="3.73" ry="3.73" transform="translate(786.72 -138.55) rotate(90)" />
	<rect class="cls-1" x="446.8" y="346.62" width="31.67" height="21.03" rx="3.73" ry="3.73" transform="translate(819.77 -105.5) rotate(90)" />
	<rect class="cls-1" x="446.8" y="379.67" width="31.67" height="21.03" rx="3.73" ry="3.73" transform="translate(852.82 -72.45) rotate(90)" />
	<rect class="cls-1" x="446.8" y="412.72" width="31.67" height="21.03" rx="3.73" ry="3.73" transform="translate(885.87 -39.4) rotate(90)" />
	<rect class="cls-1" x="446.8" y="445.77" width="31.67" height="21.03" rx="3.73" ry="3.73" transform="translate(918.92 -6.35) rotate(90)" />
	<rect class="cls-1" x="446.8" y="478.82" width="31.67" height="21.03" rx="3.73" ry="3.73" transform="translate(951.97 26.7) rotate(90)" />
	<rect class="cls-1" x="446.8" y="511.87" width="31.67" height="21.03" rx="3.73" ry="3.73" transform="translate(985.02 59.75) rotate(90)" />
	<rect class="cls-1" x="446.8" y="544.92" width="31.67" height="21.03" rx="3.73" ry="3.73" transform="translate(1018.07 92.8) rotate(90)" />
	<rect class="cls-1" x="446.8" y="577.97" width="31.67" height="21.03" rx="3.73" ry="3.73" transform="translate(1051.12 125.85) rotate(90)" />
	<rect class="cls-1" x="446.8" y="611.02" width="31.67" height="21.03" rx="3.73" ry="3.73" transform="translate(1084.17 158.9) rotate(90)" />
	<rect class="cls-1" x="446.8" y="644.07" width="31.67" height="21.03" rx="3.73" ry="3.73" transform="translate(1117.23 191.95) rotate(90)" />
	<rect class="cls-1" x="446.8" y="677.13" width="31.67" height="21.03" rx="3.73" ry="3.73" transform="translate(1150.28 225.01) rotate(90)" />
	<rect class="cls-1" x="400.51" y="115.26" width="31.67" height="21.03" rx="3.73" ry="3.73" transform="translate(542.12 -290.56) rotate(90)" />
	<rect class="cls-1" x="400.51" y="148.31" width="31.67" height="21.03" rx="3.73" ry="3.73" transform="translate(575.17 -257.51) rotate(90)" />
	<rect class="cls-1" x="400.51" y="181.36" width="31.67" height="21.03" rx="3.73" ry="3.73" transform="translate(608.22 -224.46) rotate(90)" />
	<rect class="cls-1" x="400.51" y="214.41" width="31.67" height="21.03" rx="3.73" ry="3.73" transform="translate(641.27 -191.41) rotate(90)" />
	<rect class="cls-1" x="400.51" y="247.46" width="31.67" height="21.03" rx="3.73" ry="3.73" transform="translate(674.32 -158.36) rotate(90)" />
	<rect class="cls-1" x="400.51" y="280.52" width="31.67" height="21.03" rx="3.73" ry="3.73" transform="translate(707.37 -125.31) rotate(90)" />
	<rect class="cls-1" x="400.51" y="313.57" width="31.67" height="21.03" rx="3.73" ry="3.73" transform="translate(740.42 -92.26) rotate(90)" />
	<rect class="cls-1" x="400.51" y="346.62" width="31.67" height="21.03" rx="3.73" ry="3.73" transform="translate(773.47 -59.21) rotate(90)" />
	<rect class="cls-1" x="400.51" y="379.67" width="31.67" height="21.03" rx="3.73" ry="3.73" transform="translate(806.52 -26.16) rotate(90)" />
	<rect class="cls-1" x="400.51" y="412.72" width="31.67" height="21.03" rx="3.73" ry="3.73" transform="translate(839.57 6.9) rotate(90)" />
	<rect class="cls-1" x="400.51" y="445.77" width="31.67" height="21.03" rx="3.73" ry="3.73" transform="translate(872.62 39.95) rotate(90)" />
	<rect class="cls-1" x="400.51" y="478.82" width="31.67" height="21.03" rx="3.73" ry="3.73" transform="translate(905.67 73) rotate(90)" />
	<rect class="cls-1" x="400.51" y="511.87" width="31.67" height="21.03" rx="3.73" ry="3.73" transform="translate(938.73 106.05) rotate(90)" />
	<rect class="cls-1" x="400.51" y="544.92" width="31.67" height="21.03" rx="3.73" ry="3.73" transform="translate(971.78 139.1) rotate(90)" />
	<rect class="cls-1" x="400.51" y="577.97" width="31.67" height="21.03" rx="3.73" ry="3.73" transform="translate(1004.83 172.15) rotate(90)" />
	<rect class="cls-1" x="400.51" y="611.02" width="31.67" height="21.03" rx="3.73" ry="3.73" transform="translate(1037.88 205.2) rotate(90)" />
	<rect class="cls-1" x="400.51" y="644.07" width="31.67" height="21.03" rx="3.73" ry="3.73" transform="translate(1070.93 238.25) rotate(90)" />
	<rect class="cls-1" x="400.51" y="677.13" width="31.67" height="21.03" rx="3.73" ry="3.73" transform="translate(1103.98 271.3) rotate(90)" />
	<rect class="cls-1" x="354.21" y="115.26" width="31.67" height="21.03" rx="3.73" ry="3.73" transform="translate(495.82 -244.27) rotate(90)" />
	<rect class="cls-1" x="354.21" y="148.31" width="31.67" height="21.03" rx="3.73" ry="3.73" transform="translate(528.87 -211.21) rotate(90)" />
	<rect class="cls-1" x="354.21" y="181.36" width="31.67" height="21.03" rx="3.73" ry="3.73" transform="translate(561.92 -178.16) rotate(90)" />
	<rect class="cls-1" x="354.21" y="214.41" width="31.67" height="21.03" rx="3.73" ry="3.73" transform="translate(594.97 -145.11) rotate(90)" />
	<rect class="cls-1" x="354.21" y="247.46" width="31.67" height="21.03" rx="3.73" ry="3.73" transform="translate(628.02 -112.06) rotate(90)" />
	<rect class="cls-1" x="354.21" y="280.52" width="31.67" height="21.03" rx="3.73" ry="3.73" transform="translate(661.07 -79.01) rotate(90)" />
	<rect class="cls-1" x="354.21" y="313.57" width="31.67" height="21.03" rx="3.73" ry="3.73" transform="translate(694.12 -45.96) rotate(90)" />
	<rect class="cls-1" x="354.21" y="346.62" width="31.67" height="21.03" rx="3.73" ry="3.73" transform="translate(727.18 -12.91) rotate(90)" />
	<rect class="cls-1" x="354.21" y="379.67" width="31.67" height="21.03" rx="3.73" ry="3.73" transform="translate(760.23 20.14) rotate(90)" />
	<rect class="cls-1" x="354.21" y="412.72" width="31.67" height="21.03" rx="3.73" ry="3.73" transform="translate(793.28 53.19) rotate(90)" />
	<rect class="cls-1" x="354.21" y="445.77" width="31.67" height="21.03" rx="3.73" ry="3.73" transform="translate(826.33 86.24) rotate(90)" />
	<rect class="cls-1" x="354.21" y="478.82" width="31.67" height="21.03" rx="3.73" ry="3.73" transform="translate(859.38 119.29) rotate(90)" />
	<rect class="cls-1" x="354.21" y="511.87" width="31.67" height="21.03" rx="3.73" ry="3.73" transform="translate(892.43 152.34) rotate(90)" />
	<rect class="cls-1" x="354.21" y="544.92" width="31.67" height="21.03" rx="3.73" ry="3.73" transform="translate(925.48 185.4) rotate(90)" />
	<rect class="cls-1" x="354.21" y="577.97" width="31.67" height="21.03" rx="3.73" ry="3.73" transform="translate(958.53 218.45) rotate(90)" />
	<rect class="cls-1" x="354.21" y="611.02" width="31.67" height="21.03" rx="3.73" ry="3.73" transform="translate(991.58 251.5) rotate(90)" />
	<rect class="cls-1" x="354.21" y="644.07" width="31.67" height="21.03" rx="3.73" ry="3.73" transform="translate(1024.63 284.55) rotate(90)" />
	<rect class="cls-1" x="354.21" y="677.13" width="31.67" height="21.03" rx="3.73" ry="3.73" transform="translate(1057.68 317.6) rotate(90)" />
	<rect class="cls-1" x="770.88" y="710.18" width="31.67" height="21.03" rx="3.73" ry="3.73" transform="translate(1507.4 -66.02) rotate(90)" />
	<polygon class="cls-5" points="807.85 43.84 807.85 738.71 768.42 738.71 768.42 715.76 351.09 715.76 351.09 43.84 807.85 43.84" />
	<g>
		<path id="path100318" class="cls-4" d="m786.71,753.24v10.81s-.82,1.84-.82,1.84l-.61.82-1.22.61h-1.43s-1.43-.61-1.43-.61l-.61-.82-.61-1.84v-1.43" />
		<path id="path100320" class="cls-4" d="m740.7,767.63v-14.08" />
		<path id="path100322" class="cls-4" d="m689.99,767.63v-14.08" />
		<path id="path100324" class="cls-4" d="m699.38,753.55v14.08" />
		<path id="path100326" class="cls-4" d="m689.99,760.28h9.39" />
		<path id="path100328" class="cls-4" d="m654.81,756.81l-.82-1.22-1.22-1.43-1.43-.61h-2.65s-1.22.61-1.22.61l-1.43,1.43-.61,1.22-.82,2.04v3.47s.82,2.04.82,2.04l.61,1.22,1.43,1.43,1.22.61h2.65s1.43-.61,1.43-.61l1.22-1.43.82-1.22v-2.04s-3.47,0-3.47,0" />
		<path id="path100330" class="cls-4" d="m598.37,767.63v-14.08s8.57,0,8.57,0" />
		<path id="path100332" class="cls-4" d="m598.37,760.28h5.3" />
		<path id="path100334" class="cls-4" d="m552.26,767.63v-14.08s8.77,0,8.77,0" />
		<path id="path100336" class="cls-4" d="m552.26,760.28h5.3" />
		<path id="path100338" class="cls-4" d="m552.26,767.63h8.77" />
		<path id="path100340" class="cls-4" d="m505.94,767.63v-14.08s4.69,0,4.69,0l2.04.61,1.22,1.43.82,1.22.61,2.04v3.47s-.61,2.04-.61,2.04l-.82,1.22-1.22,1.43-2.04.61h-4.69" />
		<path id="path100342" class="cls-4" d="m469.61,756.81l-.61-1.22-1.22-1.43-1.43-.61h-2.65s-1.43.61-1.43.61l-1.22,1.43-.82,1.22-.61,2.04v3.47s.61,2.04.61,2.04l.82,1.22,1.22,1.43,1.43.61h2.65s1.43-.61,1.43-.61l1.22-1.43.61-1.22" />
		<path id="path100344" class="cls-4" d="m413.22,767.63v-14.08s6.12,0,6.12,0l2.04.61.61.61.61,1.43v1.43s-.61,1.22-.61,1.22l-.61.61-2.04.82h-6.12" />
		<path id="path100346" class="cls-4" d="m419.35,760.28l2.04.61.61.61.61,1.43v2.04s-.61,1.22-.61,1.22l-.61.82-2.04.61h-6.12" />
		<path id="path100348" class="cls-4" d="m365.28,767.63l5.51-14.08,5.3,14.08" />
		<path id="path100350" class="cls-4" d="m367.32,762.93h6.73" />
	</g>
	<g id="text112310" class="cls-3">
		<text class="cls-2" transform="translate(261.48 425.32)">
			<tspan x="0" y="0">
				I
			</tspan>
		</text>
	</g>
</svg>
