<?xml version="1.0" encoding="UTF-8"?>
<svg id="Capa_2" xmlns="http://www.w3.org/2000/svg" viewBox="0 0 1075.56 792">
	<defs>
		<style>
			.cls-1{fill:#d9d9d9;}.cls-2{stroke-width:5px;}.cls-2,.cls-3{stroke:#000;stroke-linecap:round;stroke-linejoin:round;}.cls-2,.cls-3,.cls-4{fill:none;}.cls-5{font-family:Arial-BoldMT, Arial;font-size:146.59px;font-weight:700;}.cls-5,.cls-6{isolation:isolate;}.cls-3{stroke-width:4px;}.cls-4{stroke:#469cdd;stroke-miterlimit:10;stroke-width:7px;}
		</style>
	</defs>
	<rect class="cls-1" x="967" y="115" width="54.75" height="36.36" rx="6.46" ry="6.46" transform="translate(1127.56 -861.19) rotate(90)" />
	<rect class="cls-1" x="967" y="173.34" width="54.75" height="36.36" rx="6.46" ry="6.46" transform="translate(1185.89 -802.86) rotate(90)" />
	<rect class="cls-1" x="967" y="231.67" width="54.75" height="36.36" rx="6.46" ry="6.46" transform="translate(1244.23 -744.53) rotate(90)" />
	<rect class="cls-1" x="967" y="290" width="54.75" height="36.36" rx="6.46" ry="6.46" transform="translate(1302.56 -686.19) rotate(90)" />
	<rect class="cls-1" x="967" y="348.34" width="54.75" height="36.36" rx="6.46" ry="6.46" transform="translate(1360.9 -627.86) rotate(90)" />
	<rect class="cls-1" x="967" y="406.67" width="54.75" height="36.36" rx="6.46" ry="6.46" transform="translate(1419.23 -569.52) rotate(90)" />
	<rect class="cls-1" x="967" y="465.01" width="54.75" height="36.36" rx="6.46" ry="6.46" transform="translate(1477.56 -511.19) rotate(90)" />
	<rect class="cls-1" x="967" y="523.34" width="54.75" height="36.36" rx="6.46" ry="6.46" transform="translate(1535.9 -452.85) rotate(90)" />
	<rect class="cls-1" x="967" y="581.68" width="54.75" height="36.36" rx="6.46" ry="6.46" transform="translate(1594.23 -394.52) rotate(90)" />
	<rect class="cls-1" x="967" y="640.01" width="54.75" height="36.36" rx="6.46" ry="6.46" transform="translate(1652.57 -336.19) rotate(90)" />
	<rect class="cls-1" x="881.68" y="231.67" width="54.75" height="36.36" rx="6.46" ry="6.46" transform="translate(1158.9 -659.2) rotate(90)" />
	<rect class="cls-1" x="881.68" y="290" width="54.75" height="36.36" rx="6.46" ry="6.46" transform="translate(1217.23 -600.86) rotate(90)" />
	<rect class="cls-1" x="881.68" y="348.34" width="54.75" height="36.36" rx="6.46" ry="6.46" transform="translate(1275.57 -542.53) rotate(90)" />
	<rect class="cls-1" x="881.68" y="406.67" width="54.75" height="36.36" rx="6.46" ry="6.46" transform="translate(1333.9 -484.19) rotate(90)" />
	<rect class="cls-1" x="881.68" y="465.01" width="54.75" height="36.36" rx="6.46" ry="6.46" transform="translate(1392.24 -425.86) rotate(90)" />
	<rect class="cls-1" x="881.68" y="523.34" width="54.75" height="36.36" rx="6.46" ry="6.46" transform="translate(1450.57 -367.53) rotate(90)" />
	<rect class="cls-1" x="881.68" y="581.68" width="54.75" height="36.36" rx="6.46" ry="6.46" transform="translate(1508.9 -309.19) rotate(90)" />
	<rect class="cls-1" x="881.68" y="640.01" width="54.75" height="36.36" rx="6.46" ry="6.46" transform="translate(1567.24 -250.86) rotate(90)" />
	<rect class="cls-1" x="796.35" y="231.67" width="54.75" height="36.36" rx="6.46" ry="6.46" transform="translate(1073.57 -573.87) rotate(90)" />
	<rect class="cls-1" x="796.35" y="290" width="54.75" height="36.36" rx="6.46" ry="6.46" transform="translate(1131.91 -515.54) rotate(90)" />
	<rect class="cls-1" x="796.35" y="348.34" width="54.75" height="36.36" rx="6.46" ry="6.46" transform="translate(1190.24 -457.2) rotate(90)" />
	<rect class="cls-1" x="796.35" y="406.67" width="54.75" height="36.36" rx="6.46" ry="6.46" transform="translate(1248.57 -398.87) rotate(90)" />
	<rect class="cls-1" x="796.35" y="465.01" width="54.75" height="36.36" rx="6.46" ry="6.46" transform="translate(1306.91 -340.53) rotate(90)" />
	<rect class="cls-1" x="796.35" y="523.34" width="54.75" height="36.36" rx="6.46" ry="6.46" transform="translate(1365.24 -282.2) rotate(90)" />
	<rect class="cls-1" x="796.35" y="581.68" width="54.75" height="36.36" rx="6.46" ry="6.46" transform="translate(1423.58 -223.86) rotate(90)" />
	<rect class="cls-1" x="796.35" y="640.01" width="54.75" height="36.36" rx="6.46" ry="6.46" transform="translate(1481.91 -165.53) rotate(90)" />
	<rect class="cls-1" x="711.02" y="231.67" width="54.75" height="36.36" rx="6.46" ry="6.46" transform="translate(988.24 -488.54) rotate(90)" />
	<rect class="cls-1" x="711.02" y="290" width="54.75" height="36.36" rx="6.46" ry="6.46" transform="translate(1046.58 -430.21) rotate(90)" />
	<rect class="cls-1" x="711.02" y="348.34" width="54.75" height="36.36" rx="6.46" ry="6.46" transform="translate(1104.91 -371.87) rotate(90)" />
	<rect class="cls-1" x="711.02" y="406.67" width="54.75" height="36.36" rx="6.46" ry="6.46" transform="translate(1163.25 -313.54) rotate(90)" />
	<rect class="cls-1" x="711.02" y="465.01" width="54.75" height="36.36" rx="6.46" ry="6.46" transform="translate(1221.58 -255.2) rotate(90)" />
	<rect class="cls-1" x="711.02" y="523.34" width="54.75" height="36.36" rx="6.46" ry="6.46" transform="translate(1279.91 -196.87) rotate(90)" />
	<rect class="cls-1" x="711.02" y="581.68" width="54.75" height="36.36" rx="6.46" ry="6.46" transform="translate(1338.25 -138.54) rotate(90)" />
	<rect class="cls-1" x="711.02" y="640.01" width="54.75" height="36.36" rx="6.46" ry="6.46" transform="translate(1396.58 -80.2) rotate(90)" />
	<rect class="cls-1" x="625.69" y="231.67" width="54.75" height="36.36" rx="6.46" ry="6.46" transform="translate(902.92 -403.21) rotate(90)" />
	<rect class="cls-1" x="625.69" y="290" width="54.75" height="36.36" rx="6.46" ry="6.46" transform="translate(961.25 -344.88) rotate(90)" />
	<rect class="cls-1" x="625.69" y="348.34" width="54.75" height="36.36" rx="6.46" ry="6.46" transform="translate(1019.58 -286.54) rotate(90)" />
	<rect class="cls-1" x="625.69" y="406.67" width="54.75" height="36.36" rx="6.46" ry="6.46" transform="translate(1077.92 -228.21) rotate(90)" />
	<rect class="cls-1" x="625.69" y="465.01" width="54.75" height="36.36" rx="6.46" ry="6.46" transform="translate(1136.25 -169.88) rotate(90)" />
	<rect class="cls-1" x="625.69" y="523.34" width="54.75" height="36.36" rx="6.46" ry="6.46" transform="translate(1194.59 -111.54) rotate(90)" />
	<rect class="cls-1" x="625.69" y="581.68" width="54.75" height="36.36" rx="6.46" ry="6.46" transform="translate(1252.92 -53.21) rotate(90)" />
	<rect class="cls-1" x="625.69" y="640.01" width="54.75" height="36.36" rx="6.46" ry="6.46" transform="translate(1311.25 5.13) rotate(90)" />
	<rect class="cls-1" x="540.36" y="231.67" width="54.75" height="36.36" rx="6.46" ry="6.46" transform="translate(817.59 -317.89) rotate(90)" />
	<rect class="cls-1" x="540.36" y="290" width="54.75" height="36.36" rx="6.46" ry="6.46" transform="translate(875.92 -259.55) rotate(90)" />
	<rect class="cls-1" x="540.36" y="348.34" width="54.75" height="36.36" rx="6.46" ry="6.46" transform="translate(934.26 -201.22) rotate(90)" />
	<rect class="cls-1" x="540.36" y="406.67" width="54.75" height="36.36" rx="6.46" ry="6.46" transform="translate(992.59 -142.88) rotate(90)" />
	<rect class="cls-1" x="540.36" y="465.01" width="54.75" height="36.36" rx="6.46" ry="6.46" transform="translate(1050.92 -84.55) rotate(90)" />
	<rect class="cls-1" x="540.36" y="523.34" width="54.75" height="36.36" rx="6.46" ry="6.46" transform="translate(1109.26 -26.21) rotate(90)" />
	<rect class="cls-1" x="540.36" y="581.68" width="54.75" height="36.36" rx="6.46" ry="6.46" transform="translate(1167.59 32.12) rotate(90)" />
	<rect class="cls-1" x="540.36" y="640.01" width="54.75" height="36.36" rx="6.46" ry="6.46" transform="translate(1225.93 90.45) rotate(90)" />
	<rect class="cls-1" x="455.03" y="231.67" width="54.75" height="36.36" rx="6.46" ry="6.46" transform="translate(732.26 -232.56) rotate(90)" />
	<rect class="cls-1" x="455.03" y="290" width="54.75" height="36.36" rx="6.46" ry="6.46" transform="translate(790.59 -174.22) rotate(90)" />
	<rect class="cls-1" x="455.03" y="348.34" width="54.75" height="36.36" rx="6.46" ry="6.46" transform="translate(848.93 -115.89) rotate(90)" />
	<rect class="cls-1" x="455.03" y="406.67" width="54.75" height="36.36" rx="6.46" ry="6.46" transform="translate(907.26 -57.55) rotate(90)" />
	<rect class="cls-1" x="455.03" y="465.01" width="54.75" height="36.36" rx="6.46" ry="6.46" transform="translate(965.6 .78) rotate(90)" />
	<rect class="cls-1" x="455.03" y="523.34" width="54.75" height="36.36" rx="6.46" ry="6.46" transform="translate(1023.93 59.11) rotate(90)" />
	<rect class="cls-1" x="455.03" y="581.68" width="54.75" height="36.36" rx="6.46" ry="6.46" transform="translate(1082.26 117.45) rotate(90)" />
	<rect class="cls-1" x="455.03" y="640.01" width="54.75" height="36.36" rx="6.46" ry="6.46" transform="translate(1140.6 175.78) rotate(90)" />
	<rect class="cls-1" x="369.71" y="231.67" width="54.75" height="36.36" rx="6.46" ry="6.46" transform="translate(646.93 -147.23) rotate(90)" />
	<rect class="cls-1" x="369.71" y="290" width="54.75" height="36.36" rx="6.46" ry="6.46" transform="translate(705.27 -88.89) rotate(90)" />
	<rect class="cls-1" x="369.71" y="348.34" width="54.75" height="36.36" rx="6.46" ry="6.46" transform="translate(763.6 -30.56) rotate(90)" />
	<rect class="cls-1" x="369.71" y="406.67" width="54.75" height="36.36" rx="6.46" ry="6.46" transform="translate(821.93 27.77) rotate(90)" />
	<rect class="cls-1" x="369.71" y="465.01" width="54.75" height="36.36" rx="6.46" ry="6.46" transform="translate(880.27 86.11) rotate(90)" />
	<rect class="cls-1" x="369.71" y="523.34" width="54.75" height="36.36" rx="6.46" ry="6.46" transform="translate(938.6 144.44) rotate(90)" />
	<rect class="cls-1" x="369.71" y="581.68" width="54.75" height="36.36" rx="6.46" ry="6.46" transform="translate(996.94 202.78) rotate(90)" />
	<rect class="cls-1" x="369.71" y="640.01" width="54.75" height="36.36" rx="6.46" ry="6.46" transform="translate(1055.27 261.11) rotate(90)" />
	<rect class="cls-1" x="284.38" y="231.67" width="54.75" height="36.36" rx="6.46" ry="6.46" transform="translate(561.6 -61.9) rotate(90)" />
	<rect class="cls-1" x="284.38" y="290" width="54.75" height="36.36" rx="6.46" ry="6.46" transform="translate(619.94 -3.57) rotate(90)" />
	<rect class="cls-1" x="284.38" y="348.34" width="54.75" height="36.36" rx="6.46" ry="6.46" transform="translate(678.27 54.77) rotate(90)" />
	<rect class="cls-1" x="284.38" y="406.67" width="54.75" height="36.36" rx="6.46" ry="6.46" transform="translate(736.61 113.1) rotate(90)" />
	<rect class="cls-1" x="284.38" y="465.01" width="54.75" height="36.36" rx="6.46" ry="6.46" transform="translate(794.94 171.44) rotate(90)" />
	<rect class="cls-1" x="284.38" y="523.34" width="54.75" height="36.36" rx="6.46" ry="6.46" transform="translate(853.27 229.77) rotate(90)" />
	<rect class="cls-1" x="284.38" y="581.68" width="54.75" height="36.36" rx="6.46" ry="6.46" transform="translate(911.61 288.1) rotate(90)" />
	<rect class="cls-1" x="284.38" y="640.01" width="54.75" height="36.36" rx="6.46" ry="6.46" transform="translate(969.94 346.44) rotate(90)" />
	<rect class="cls-1" x="199.05" y="231.67" width="54.75" height="36.36" rx="6.46" ry="6.46" transform="translate(476.28 23.43) rotate(90)" />
	<rect class="cls-1" x="199.05" y="290" width="54.75" height="36.36" rx="6.46" ry="6.46" transform="translate(534.61 81.76) rotate(90)" />
	<rect class="cls-1" x="199.05" y="348.34" width="54.75" height="36.36" rx="6.46" ry="6.46" transform="translate(592.94 140.1) rotate(90)" />
	<rect class="cls-1" x="199.05" y="406.67" width="54.75" height="36.36" rx="6.46" ry="6.46" transform="translate(651.28 198.43) rotate(90)" />
	<rect class="cls-1" x="199.05" y="465.01" width="54.75" height="36.36" rx="6.46" ry="6.46" transform="translate(709.61 256.76) rotate(90)" />
	<rect class="cls-1" x="199.05" y="523.34" width="54.75" height="36.36" rx="6.46" ry="6.46" transform="translate(767.95 315.1) rotate(90)" />
	<rect class="cls-1" x="199.05" y="581.68" width="54.75" height="36.36" rx="6.46" ry="6.46" transform="translate(826.28 373.43) rotate(90)" />
	<rect class="cls-1" x="199.05" y="640.01" width="54.75" height="36.36" rx="6.46" ry="6.46" transform="translate(884.61 431.77) rotate(90)" />
	<polygon class="cls-4" points="1019.78 84.17 1019.78 696.26 200.77 696.26 200.77 212.81 962.75 212.81 962.75 84.17 1019.78 84.17" />
	<g id="text202682" class="cls-6">
		<text class="cls-5" transform="translate(53.88 489.77)">
			<tspan x="0" y="0">
				J
			</tspan>
		</text>
	</g>
	<path id="path100376" class="cls-2" d="m1000.23,40.15v18.8l-1.42,3.55-1.06,1.06-2.13,1.06h-2.48l-2.48-1.06-1.06-1.06-1.06-3.55v-2.48" />
	<path id="path100378" class="cls-2" d="m904.85,197.37v-24.48" />
	<path id="path100380" class="cls-2" d="m817.18,197.37v-24.48" />
	<path id="path100382" class="cls-2" d="m833.5,172.89v24.48" />
	<path id="path100384" class="cls-2" d="m817.18,184.59h16.32" />
	<path id="path100386" class="cls-2" d="m747.01,178.92l-1.42-2.48-2.13-2.13-2.48-1.42h-4.61l-2.13,1.42-2.48,2.13-1.06,2.48-1.42,3.55v5.68l1.42,3.55,1.06,2.48,2.48,2.13,2.13,1.06h4.61l2.48-1.06,2.13-2.13,1.42-2.48v-3.55h-6.03" />
	<path id="path100388" class="cls-2" d="m649.82,197.37v-24.48h14.9" />
	<path id="path100390" class="cls-2" d="m649.82,184.59h9.22" />
	<g>
		<path id="path100392" class="cls-2" d="m559.71,197.37v-24.48h15.25" />
		<path id="path100394" class="cls-2" d="m559.71,184.59h9.22" />
		<path id="path100396" class="cls-2" d="m559.71,197.37h15.25" />
	</g>
	<path id="path100398" class="cls-2" d="m479.9,197.37v-24.48h8.16l3.55,1.42,2.13,2.13,1.42,2.48,1.06,3.55v5.68l-1.06,3.55-1.42,2.48-2.13,2.13-3.55,1.06h-8.16" />
	<path id="path100400" class="cls-2" d="m409.3,178.92l-1.06-2.48-2.13-2.13-2.48-1.42h-4.61l-2.48,1.42-2.13,2.13-1.42,2.48-1.06,3.55v5.68l1.06,3.55,1.42,2.48,2.13,2.13,2.48,1.06h4.61l2.48-1.06,2.13-2.13,1.06-2.48" />
	<path id="path100402" class="cls-2" d="m303.41,197.37v-24.48h10.64l3.55,1.42,1.06,1.06,1.06,2.13v2.48l-1.06,2.48-1.06,1.06-3.55,1.06h-10.64" />
	<path id="path100404" class="cls-2" d="m314.05,184.59l3.55,1.06,1.06,1.42,1.06,2.13v3.55l-1.06,2.48-1.06,1.06-3.55,1.06h-10.64" />
	<path id="path100406" class="cls-2" d="m214.37,197.37l9.58-24.48,9.22,24.48" />
	<path id="path100408" class="cls-3" d="m217.92,192.21h11.71" />
</svg>
