<?xml version="1.0" encoding="UTF-8"?>
<svg id="Capa_2" xmlns="http://www.w3.org/2000/svg" viewBox="0 0 1075.56 792">
	<defs>
		<style>
			.cls-1{font-family:Arial-BoldMT, Arial;font-size:117.81px;font-weight:700;letter-spacing:-.02em;}.cls-1,.cls-2{isolation:isolate;}.cls-3{fill:none;stroke:#536d01;stroke-miterlimit:10;stroke-width:6px;}.cls-4{fill:#d9d9d9;}
		</style>
	</defs>
	<rect class="cls-4" x="359.59" y="79.1" width="107.57" height="64.81" rx="12.08" ry="12.08" transform="translate(826.75 223) rotate(-180)" />
	<rect class="cls-4" x="487.43" y="78.8" width="107.57" height="64.81" rx="12.08" ry="12.08" transform="translate(1082.43 222.41) rotate(-180)" />
	<rect class="cls-4" x="615.28" y="78.5" width="107.57" height="64.81" rx="12.08" ry="12.08" transform="translate(1338.12 221.82) rotate(-180)" />
	<rect class="cls-4" x="359.59" y="192.37" width="107.57" height="64.81" rx="12.08" ry="12.08" transform="translate(826.75 449.55) rotate(-180)" />
	<rect class="cls-4" x="487.43" y="192.07" width="107.57" height="64.81" rx="12.08" ry="12.08" transform="translate(1082.43 448.96) rotate(-180)" />
	<rect class="cls-4" x="615.28" y="191.78" width="107.57" height="64.81" rx="12.08" ry="12.08" transform="translate(1338.12 448.37) rotate(-180)" />
	<rect class="cls-4" x="359.59" y="305.65" width="107.57" height="64.81" rx="12.08" ry="12.08" transform="translate(826.75 676.1) rotate(-180)" />
	<rect class="cls-4" x="487.43" y="305.35" width="107.57" height="64.81" rx="12.08" ry="12.08" transform="translate(1082.43 675.51) rotate(-180)" />
	<rect class="cls-4" x="615.28" y="305.05" width="107.57" height="64.81" rx="12.08" ry="12.08" transform="translate(1338.12 674.91) rotate(-180)" />
	<rect class="cls-4" x="359.59" y="418.92" width="107.57" height="64.81" rx="12.08" ry="12.08" transform="translate(826.75 902.65) rotate(-180)" />
	<rect class="cls-4" x="487.43" y="418.62" width="107.57" height="64.81" rx="12.08" ry="12.08" transform="translate(1082.43 902.06) rotate(-180)" />
	<rect class="cls-4" x="615.28" y="418.33" width="107.57" height="64.81" rx="12.08" ry="12.08" transform="translate(1338.12 901.46) rotate(-180)" />
	<rect class="cls-3" x="318.65" y="40.72" width="438.25" height="518.7" />
	<g id="text202686" class="cls-2">
		<text class="cls-1" transform="translate(499.08 706.93)">
			<tspan x="0" y="0">
				L
			</tspan>
		</text>
	</g>
</svg>
