<?xml version="1.0" encoding="UTF-8"?>
<svg id="Capa_2" xmlns="http://www.w3.org/2000/svg" viewBox="0 0 1075.56 792">
	<defs>
		<style>
			.cls-1{fill:#d9d9d9;}.cls-2{font-family:Arial-BoldMT, Arial;font-size:43.18px;font-weight:700;}.cls-2,.cls-3{isolation:isolate;}.cls-4{stroke:#489f9a;stroke-miterlimit:10;stroke-width:5px;}.cls-4,.cls-5{fill:none;}.cls-5{stroke:#000;stroke-linecap:round;stroke-linejoin:round;stroke-width:2px;}
		</style>
	</defs>
	<rect class="cls-1" x="320.02" y="47.44" width="16.95" height="11.26" rx="2" ry="2" transform="translate(381.54 -275.43) rotate(90)" />
	<rect class="cls-1" x="320.02" y="65.18" width="16.95" height="11.26" rx="2" ry="2" transform="translate(399.28 -257.68) rotate(90)" />
	<rect class="cls-1" x="320.02" y="82.93" width="16.95" height="11.26" rx="2" ry="2" transform="translate(417.03 -239.94) rotate(90)" />
	<rect class="cls-1" x="320.02" y="100.67" width="16.95" height="11.26" rx="2" ry="2" transform="translate(434.78 -222.19) rotate(90)" />
	<rect class="cls-1" x="320.02" y="118.42" width="16.95" height="11.26" rx="2" ry="2" transform="translate(452.52 -204.45) rotate(90)" />
	<rect class="cls-1" x="320.02" y="136.17" width="16.95" height="11.26" rx="2" ry="2" transform="translate(470.27 -186.7) rotate(90)" />
	<rect class="cls-1" x="320.02" y="153.91" width="16.95" height="11.26" rx="2" ry="2" transform="translate(488.01 -168.96) rotate(90)" />
	<rect class="cls-1" x="320.02" y="171.66" width="16.95" height="11.26" rx="2" ry="2" transform="translate(505.76 -151.21) rotate(90)" />
	<rect class="cls-1" x="320.02" y="189.41" width="16.95" height="11.26" rx="2" ry="2" transform="translate(523.51 -133.47) rotate(90)" />
	<rect class="cls-1" x="320.02" y="207.15" width="16.95" height="11.26" rx="2" ry="2" transform="translate(541.25 -115.72) rotate(90)" />
	<rect class="cls-1" x="320.02" y="224.9" width="16.95" height="11.26" rx="2" ry="2" transform="translate(559 -97.98) rotate(90)" />
	<rect class="cls-1" x="320.02" y="242.64" width="16.95" height="11.26" rx="2" ry="2" transform="translate(576.75 -80.23) rotate(90)" />
	<rect class="cls-1" x="320.02" y="260.39" width="16.95" height="11.26" rx="2" ry="2" transform="translate(594.49 -62.49) rotate(90)" />
	<rect class="cls-1" x="320.02" y="278.14" width="16.95" height="11.26" rx="2" ry="2" transform="translate(612.24 -44.74) rotate(90)" />
	<rect class="cls-1" x="320.02" y="295.88" width="16.95" height="11.26" rx="2" ry="2" transform="translate(629.98 -27) rotate(90)" />
	<rect class="cls-1" x="320.02" y="313.63" width="16.95" height="11.26" rx="2" ry="2" transform="translate(647.73 -9.25) rotate(90)" />
	<rect class="cls-1" x="320.02" y="331.38" width="16.95" height="11.26" rx="2" ry="2" transform="translate(665.48 8.49) rotate(90)" />
	<rect class="cls-1" x="320.02" y="349.12" width="16.95" height="11.26" rx="2" ry="2" transform="translate(683.22 26.24) rotate(90)" />
	<rect class="cls-1" x="320.02" y="366.87" width="16.95" height="11.26" rx="2" ry="2" transform="translate(700.97 43.98) rotate(90)" />
	<rect class="cls-1" x="320.02" y="425.9" width="16.95" height="11.26" rx="2" ry="2" transform="translate(760 103.01) rotate(90)" />
	<rect class="cls-1" x="320.02" y="443.59" width="16.95" height="11.26" rx="2" ry="2" transform="translate(777.69 120.7) rotate(90)" />
	<rect class="cls-1" x="320.02" y="461.28" width="16.95" height="11.26" rx="2" ry="2" transform="translate(795.38 138.39) rotate(90)" />
	<rect class="cls-1" x="320.02" y="478.96" width="16.95" height="11.26" rx="2" ry="2" transform="translate(813.06 156.07) rotate(90)" />
	<rect class="cls-1" x="320.02" y="496.65" width="16.95" height="11.26" rx="2" ry="2" transform="translate(830.75 173.76) rotate(90)" />
	<rect class="cls-1" x="320.02" y="514.34" width="16.95" height="11.26" rx="2" ry="2" transform="translate(848.44 191.45) rotate(90)" />
	<rect class="cls-1" x="320.02" y="532.03" width="16.95" height="11.26" rx="2" ry="2" transform="translate(866.13 209.13) rotate(90)" />
	<rect class="cls-1" x="320.02" y="549.72" width="16.95" height="11.26" rx="2" ry="2" transform="translate(883.82 226.82) rotate(90)" />
	<rect class="cls-1" x="320.02" y="567.4" width="16.95" height="11.26" rx="2" ry="2" transform="translate(901.5 244.51) rotate(90)" />
	<rect class="cls-1" x="320.02" y="585.09" width="16.95" height="11.26" rx="2" ry="2" transform="translate(919.19 262.2) rotate(90)" />
	<rect class="cls-1" x="320.02" y="602.78" width="16.95" height="11.26" rx="2" ry="2" transform="translate(936.88 279.88) rotate(90)" />
	<rect class="cls-1" x="320.02" y="620.47" width="16.95" height="11.26" rx="2" ry="2" transform="translate(954.57 297.57) rotate(90)" />
	<rect class="cls-1" x="320.02" y="638.16" width="16.95" height="11.26" rx="2" ry="2" transform="translate(972.26 315.26) rotate(90)" />
	<rect class="cls-1" x="320.02" y="655.84" width="16.95" height="11.26" rx="2" ry="2" transform="translate(989.94 332.94) rotate(90)" />
	<rect class="cls-1" x="320.02" y="673.53" width="16.95" height="11.26" rx="2" ry="2" transform="translate(1007.63 350.63) rotate(90)" />
	<rect class="cls-1" x="320.02" y="691.22" width="16.95" height="11.26" rx="2" ry="2" transform="translate(1025.32 368.32) rotate(90)" />
	<rect class="cls-1" x="320.02" y="708.91" width="16.95" height="11.26" rx="2" ry="2" transform="translate(1043.01 386) rotate(90)" />
	<rect class="cls-1" x="320.02" y="726.59" width="16.95" height="11.26" rx="2" ry="2" transform="translate(1060.7 403.69) rotate(90)" />
	<rect class="cls-1" x="320.02" y="744.28" width="16.95" height="11.26" rx="2" ry="2" transform="translate(1078.38 421.38) rotate(90)" />
	<rect class="cls-1" x="320.02" y="761.97" width="16.95" height="11.26" rx="2" ry="2" transform="translate(1096.07 439.06) rotate(90)" />
	<rect class="cls-1" x="345.32" y="514.34" width="16.95" height="11.26" rx="2" ry="2" transform="translate(873.74 166.14) rotate(90)" />
	<rect class="cls-1" x="345.32" y="532.03" width="16.95" height="11.26" rx="2" ry="2" transform="translate(891.43 183.83) rotate(90)" />
	<rect class="cls-1" x="345.32" y="549.72" width="16.95" height="11.26" rx="2" ry="2" transform="translate(909.12 201.52) rotate(90)" />
	<rect class="cls-1" x="345.32" y="567.4" width="16.95" height="11.26" rx="2" ry="2" transform="translate(926.81 219.2) rotate(90)" />
	<rect class="cls-1" x="345.32" y="585.09" width="16.95" height="11.26" rx="2" ry="2" transform="translate(944.49 236.89) rotate(90)" />
	<rect class="cls-1" x="345.32" y="602.78" width="16.95" height="11.26" rx="2" ry="2" transform="translate(962.18 254.58) rotate(90)" />
	<rect class="cls-1" x="345.32" y="620.47" width="16.95" height="11.26" rx="2" ry="2" transform="translate(979.87 272.26) rotate(90)" />
	<rect class="cls-1" x="345.32" y="638.16" width="16.95" height="11.26" rx="2" ry="2" transform="translate(997.56 289.95) rotate(90)" />
	<rect class="cls-1" x="345.32" y="655.84" width="16.95" height="11.26" rx="2" ry="2" transform="translate(1015.25 307.64) rotate(90)" />
	<rect class="cls-1" x="345.32" y="673.53" width="16.95" height="11.26" rx="2" ry="2" transform="translate(1032.93 325.33) rotate(90)" />
	<rect class="cls-1" x="345.32" y="691.22" width="16.95" height="11.26" rx="2" ry="2" transform="translate(1050.62 343.01) rotate(90)" />
	<rect class="cls-1" x="345.32" y="708.91" width="16.95" height="11.26" rx="2" ry="2" transform="translate(1068.31 360.7) rotate(90)" />
	<rect class="cls-1" x="345.32" y="726.59" width="16.95" height="11.26" rx="2" ry="2" transform="translate(1086 378.39) rotate(90)" />
	<rect class="cls-1" x="345.32" y="744.28" width="16.95" height="11.26" rx="2" ry="2" transform="translate(1103.69 396.07) rotate(90)" />
	<rect class="cls-1" x="345.32" y="761.97" width="16.95" height="11.26" rx="2" ry="2" transform="translate(1121.37 413.76) rotate(90)" />
	<rect class="cls-1" x="371.07" y="514.34" width="16.95" height="11.26" rx="2" ry="2" transform="translate(899.49 140.4) rotate(90)" />
	<rect class="cls-1" x="371.07" y="532.03" width="16.95" height="11.26" rx="2" ry="2" transform="translate(917.18 158.08) rotate(90)" />
	<rect class="cls-1" x="371.07" y="549.72" width="16.95" height="11.26" rx="2" ry="2" transform="translate(934.86 175.77) rotate(90)" />
	<rect class="cls-1" x="371.07" y="567.4" width="16.95" height="11.26" rx="2" ry="2" transform="translate(952.55 193.46) rotate(90)" />
	<rect class="cls-1" x="371.07" y="585.09" width="16.95" height="11.26" rx="2" ry="2" transform="translate(970.24 211.15) rotate(90)" />
	<rect class="cls-1" x="371.07" y="602.78" width="16.95" height="11.26" rx="2" ry="2" transform="translate(987.93 228.83) rotate(90)" />
	<rect class="cls-1" x="371.07" y="620.47" width="16.95" height="11.26" rx="2" ry="2" transform="translate(1005.61 246.52) rotate(90)" />
	<rect class="cls-1" x="371.07" y="638.16" width="16.95" height="11.26" rx="2" ry="2" transform="translate(1023.3 264.21) rotate(90)" />
	<rect class="cls-1" x="371.07" y="655.84" width="16.95" height="11.26" rx="2" ry="2" transform="translate(1040.99 281.89) rotate(90)" />
	<rect class="cls-1" x="371.07" y="673.53" width="16.95" height="11.26" rx="2" ry="2" transform="translate(1058.68 299.58) rotate(90)" />
	<rect class="cls-1" x="371.07" y="691.22" width="16.95" height="11.26" rx="2" ry="2" transform="translate(1076.37 317.27) rotate(90)" />
	<rect class="cls-1" x="371.07" y="708.91" width="16.95" height="11.26" rx="2" ry="2" transform="translate(1094.05 334.95) rotate(90)" />
	<rect class="cls-1" x="371.07" y="726.59" width="16.95" height="11.26" rx="2" ry="2" transform="translate(1111.74 352.64) rotate(90)" />
	<rect class="cls-1" x="371.07" y="744.28" width="16.95" height="11.26" rx="2" ry="2" transform="translate(1129.43 370.33) rotate(90)" />
	<rect class="cls-1" x="371.07" y="761.97" width="16.95" height="11.26" rx="2" ry="2" transform="translate(1147.12 388.01) rotate(90)" />
	<rect class="cls-1" x="396.81" y="514.34" width="16.95" height="11.26" rx="2" ry="2" transform="translate(925.23 114.65) rotate(90)" />
	<rect class="cls-1" x="396.81" y="532.03" width="16.95" height="11.26" rx="2" ry="2" transform="translate(942.92 132.34) rotate(90)" />
	<rect class="cls-1" x="396.81" y="549.72" width="16.95" height="11.26" rx="2" ry="2" transform="translate(960.61 150.03) rotate(90)" />
	<rect class="cls-1" x="396.81" y="567.4" width="16.95" height="11.26" rx="2" ry="2" transform="translate(978.3 167.71) rotate(90)" />
	<rect class="cls-1" x="396.81" y="585.09" width="16.95" height="11.26" rx="2" ry="2" transform="translate(995.98 185.4) rotate(90)" />
	<rect class="cls-1" x="396.81" y="602.78" width="16.95" height="11.26" rx="2" ry="2" transform="translate(1013.67 203.09) rotate(90)" />
	<rect class="cls-1" x="396.81" y="620.47" width="16.95" height="11.26" rx="2" ry="2" transform="translate(1031.36 220.77) rotate(90)" />
	<rect class="cls-1" x="396.81" y="638.16" width="16.95" height="11.26" rx="2" ry="2" transform="translate(1049.05 238.46) rotate(90)" />
	<rect class="cls-1" x="396.81" y="655.84" width="16.95" height="11.26" rx="2" ry="2" transform="translate(1066.73 256.15) rotate(90)" />
	<rect class="cls-1" x="396.81" y="673.53" width="16.95" height="11.26" rx="2" ry="2" transform="translate(1084.42 273.83) rotate(90)" />
	<rect class="cls-1" x="396.81" y="691.22" width="16.95" height="11.26" rx="2" ry="2" transform="translate(1102.11 291.52) rotate(90)" />
	<rect class="cls-1" x="396.81" y="708.91" width="16.95" height="11.26" rx="2" ry="2" transform="translate(1119.8 309.21) rotate(90)" />
	<rect class="cls-1" x="396.81" y="726.59" width="16.95" height="11.26" rx="2" ry="2" transform="translate(1137.49 326.89) rotate(90)" />
	<rect class="cls-1" x="396.81" y="744.28" width="16.95" height="11.26" rx="2" ry="2" transform="translate(1155.17 344.58) rotate(90)" />
	<rect class="cls-1" x="396.81" y="761.97" width="16.95" height="11.26" rx="2" ry="2" transform="translate(1172.86 362.27) rotate(90)" />
	<rect class="cls-1" x="422.56" y="514.34" width="16.95" height="11.26" rx="2" ry="2" transform="translate(950.98 88.91) rotate(90)" />
	<rect class="cls-1" x="422.56" y="532.03" width="16.95" height="11.26" rx="2" ry="2" transform="translate(968.66 106.59) rotate(90)" />
	<rect class="cls-1" x="422.56" y="549.72" width="16.95" height="11.26" rx="2" ry="2" transform="translate(986.35 124.28) rotate(90)" />
	<rect class="cls-1" x="422.56" y="567.4" width="16.95" height="11.26" rx="2" ry="2" transform="translate(1004.04 141.97) rotate(90)" />
	<rect class="cls-1" x="422.56" y="585.09" width="16.95" height="11.26" rx="2" ry="2" transform="translate(1021.73 159.65) rotate(90)" />
	<rect class="cls-1" x="422.56" y="602.78" width="16.95" height="11.26" rx="2" ry="2" transform="translate(1039.42 177.34) rotate(90)" />
	<rect class="cls-1" x="422.56" y="620.47" width="16.95" height="11.26" rx="2" ry="2" transform="translate(1057.1 195.03) rotate(90)" />
	<rect class="cls-1" x="422.56" y="638.16" width="16.95" height="11.26" rx="2" ry="2" transform="translate(1074.79 212.71) rotate(90)" />
	<rect class="cls-1" x="422.56" y="655.84" width="16.95" height="11.26" rx="2" ry="2" transform="translate(1092.48 230.4) rotate(90)" />
	<rect class="cls-1" x="422.56" y="673.53" width="16.95" height="11.26" rx="2" ry="2" transform="translate(1110.17 248.09) rotate(90)" />
	<rect class="cls-1" x="422.56" y="691.22" width="16.95" height="11.26" rx="2" ry="2" transform="translate(1127.86 265.77) rotate(90)" />
	<rect class="cls-1" x="422.56" y="708.91" width="16.95" height="11.26" rx="2" ry="2" transform="translate(1145.54 283.46) rotate(90)" />
	<rect class="cls-1" x="422.56" y="726.59" width="16.95" height="11.26" rx="2" ry="2" transform="translate(1163.23 301.15) rotate(90)" />
	<rect class="cls-1" x="422.56" y="744.28" width="16.95" height="11.26" rx="2" ry="2" transform="translate(1180.92 318.83) rotate(90)" />
	<rect class="cls-1" x="422.56" y="761.97" width="16.95" height="11.26" rx="2" ry="2" transform="translate(1198.61 336.52) rotate(90)" />
	<rect class="cls-1" x="448.3" y="514.34" width="16.95" height="11.26" rx="2" ry="2" transform="translate(976.72 63.16) rotate(90)" />
	<rect class="cls-1" x="448.3" y="532.03" width="16.95" height="11.26" rx="2" ry="2" transform="translate(994.41 80.85) rotate(90)" />
	<rect class="cls-1" x="448.3" y="549.72" width="16.95" height="11.26" rx="2" ry="2" transform="translate(1012.1 98.53) rotate(90)" />
	<rect class="cls-1" x="448.3" y="567.4" width="16.95" height="11.26" rx="2" ry="2" transform="translate(1029.78 116.22) rotate(90)" />
	<rect class="cls-1" x="448.3" y="585.09" width="16.95" height="11.26" rx="2" ry="2" transform="translate(1047.47 133.91) rotate(90)" />
	<rect class="cls-1" x="448.3" y="602.78" width="16.95" height="11.26" rx="2" ry="2" transform="translate(1065.16 151.59) rotate(90)" />
	<rect class="cls-1" x="448.3" y="620.47" width="16.95" height="11.26" rx="2" ry="2" transform="translate(1082.85 169.28) rotate(90)" />
	<rect class="cls-1" x="448.3" y="638.16" width="16.95" height="11.26" rx="2" ry="2" transform="translate(1100.54 186.97) rotate(90)" />
	<rect class="cls-1" x="448.3" y="655.84" width="16.95" height="11.26" rx="2" ry="2" transform="translate(1118.22 204.65) rotate(90)" />
	<rect class="cls-1" x="448.3" y="673.53" width="16.95" height="11.26" rx="2" ry="2" transform="translate(1135.91 222.34) rotate(90)" />
	<rect class="cls-1" x="448.3" y="691.22" width="16.95" height="11.26" rx="2" ry="2" transform="translate(1153.6 240.03) rotate(90)" />
	<rect class="cls-1" x="448.3" y="708.91" width="16.95" height="11.26" rx="2" ry="2" transform="translate(1171.29 257.72) rotate(90)" />
	<rect class="cls-1" x="448.3" y="726.59" width="16.95" height="11.26" rx="2" ry="2" transform="translate(1188.98 275.4) rotate(90)" />
	<rect class="cls-1" x="448.3" y="744.28" width="16.95" height="11.26" rx="2" ry="2" transform="translate(1206.66 293.09) rotate(90)" />
	<rect class="cls-1" x="448.3" y="761.97" width="16.95" height="11.26" rx="2" ry="2" transform="translate(1224.35 310.78) rotate(90)" />
	<rect class="cls-1" x="474.05" y="514.34" width="16.95" height="11.26" rx="2" ry="2" transform="translate(1002.47 37.41) rotate(90)" />
	<rect class="cls-1" x="474.05" y="532.03" width="16.95" height="11.26" rx="2" ry="2" transform="translate(1020.15 55.1) rotate(90)" />
	<rect class="cls-1" x="474.05" y="549.72" width="16.95" height="11.26" rx="2" ry="2" transform="translate(1037.84 72.79) rotate(90)" />
	<rect class="cls-1" x="474.05" y="567.4" width="16.95" height="11.26" rx="2" ry="2" transform="translate(1055.53 90.47) rotate(90)" />
	<rect class="cls-1" x="474.05" y="585.09" width="16.95" height="11.26" rx="2" ry="2" transform="translate(1073.22 108.16) rotate(90)" />
	<rect class="cls-1" x="474.05" y="602.78" width="16.95" height="11.26" rx="2" ry="2" transform="translate(1090.9 125.85) rotate(90)" />
	<rect class="cls-1" x="474.05" y="620.47" width="16.95" height="11.26" rx="2" ry="2" transform="translate(1108.59 143.54) rotate(90)" />
	<rect class="cls-1" x="474.05" y="638.16" width="16.95" height="11.26" rx="2" ry="2" transform="translate(1126.28 161.22) rotate(90)" />
	<rect class="cls-1" x="474.05" y="655.84" width="16.95" height="11.26" rx="2" ry="2" transform="translate(1143.97 178.91) rotate(90)" />
	<rect class="cls-1" x="474.05" y="673.53" width="16.95" height="11.26" rx="2" ry="2" transform="translate(1161.66 196.6) rotate(90)" />
	<rect class="cls-1" x="474.05" y="691.22" width="16.95" height="11.26" rx="2" ry="2" transform="translate(1179.34 214.28) rotate(90)" />
	<rect class="cls-1" x="474.05" y="708.91" width="16.95" height="11.26" rx="2" ry="2" transform="translate(1197.03 231.97) rotate(90)" />
	<rect class="cls-1" x="474.05" y="726.59" width="16.95" height="11.26" rx="2" ry="2" transform="translate(1214.72 249.66) rotate(90)" />
	<rect class="cls-1" x="474.05" y="744.28" width="16.95" height="11.26" rx="2" ry="2" transform="translate(1232.41 267.34) rotate(90)" />
	<rect class="cls-1" x="474.05" y="761.97" width="16.95" height="11.26" rx="2" ry="2" transform="translate(1250.1 285.03) rotate(90)" />
	<rect class="cls-1" x="499.8" y="514.34" width="16.95" height="11.26" rx="2" ry="2" transform="translate(1028.21 11.67) rotate(90)" />
	<rect class="cls-1" x="499.8" y="532.03" width="16.95" height="11.26" rx="2" ry="2" transform="translate(1045.9 29.36) rotate(90)" />
	<rect class="cls-1" x="499.8" y="549.72" width="16.95" height="11.26" rx="2" ry="2" transform="translate(1063.59 47.04) rotate(90)" />
	<rect class="cls-1" x="499.8" y="567.4" width="16.95" height="11.26" rx="2" ry="2" transform="translate(1081.27 64.73) rotate(90)" />
	<rect class="cls-1" x="499.8" y="585.09" width="16.95" height="11.26" rx="2" ry="2" transform="translate(1098.96 82.42) rotate(90)" />
	<rect class="cls-1" x="499.8" y="602.78" width="16.95" height="11.26" rx="2" ry="2" transform="translate(1116.65 100.1) rotate(90)" />
	<rect class="cls-1" x="499.8" y="620.47" width="16.95" height="11.26" rx="2" ry="2" transform="translate(1134.34 117.79) rotate(90)" />
	<rect class="cls-1" x="499.8" y="638.16" width="16.95" height="11.26" rx="2" ry="2" transform="translate(1152.02 135.48) rotate(90)" />
	<rect class="cls-1" x="499.8" y="655.84" width="16.95" height="11.26" rx="2" ry="2" transform="translate(1169.71 153.16) rotate(90)" />
	<rect class="cls-1" x="499.8" y="673.53" width="16.95" height="11.26" rx="2" ry="2" transform="translate(1187.4 170.85) rotate(90)" />
	<rect class="cls-1" x="499.8" y="691.22" width="16.95" height="11.26" rx="2" ry="2" transform="translate(1205.09 188.54) rotate(90)" />
	<rect class="cls-1" x="499.8" y="708.91" width="16.95" height="11.26" rx="2" ry="2" transform="translate(1222.78 206.22) rotate(90)" />
	<rect class="cls-1" x="499.8" y="726.59" width="16.95" height="11.26" rx="2" ry="2" transform="translate(1240.46 223.91) rotate(90)" />
	<rect class="cls-1" x="499.8" y="744.28" width="16.95" height="11.26" rx="2" ry="2" transform="translate(1258.15 241.6) rotate(90)" />
	<rect class="cls-1" x="499.8" y="761.97" width="16.95" height="11.26" rx="2" ry="2" transform="translate(1275.84 259.28) rotate(90)" />
	<rect class="cls-1" x="525.54" y="514.34" width="16.95" height="11.26" rx="2" ry="2" transform="translate(1053.95 -14.08) rotate(90)" />
	<rect class="cls-1" x="525.54" y="532.03" width="16.95" height="11.26" rx="2" ry="2" transform="translate(1071.64 3.61) rotate(90)" />
	<rect class="cls-1" x="525.54" y="549.72" width="16.95" height="11.26" rx="2" ry="2" transform="translate(1089.33 21.3) rotate(90)" />
	<rect class="cls-1" x="525.54" y="567.4" width="16.95" height="11.26" rx="2" ry="2" transform="translate(1107.02 38.98) rotate(90)" />
	<rect class="cls-1" x="525.54" y="585.09" width="16.95" height="11.26" rx="2" ry="2" transform="translate(1124.71 56.67) rotate(90)" />
	<rect class="cls-1" x="525.54" y="602.78" width="16.95" height="11.26" rx="2" ry="2" transform="translate(1142.39 74.36) rotate(90)" />
	<rect class="cls-1" x="525.54" y="620.47" width="16.95" height="11.26" rx="2" ry="2" transform="translate(1160.08 92.04) rotate(90)" />
	<rect class="cls-1" x="525.54" y="638.16" width="16.95" height="11.26" rx="2" ry="2" transform="translate(1177.77 109.73) rotate(90)" />
	<rect class="cls-1" x="525.54" y="655.84" width="16.95" height="11.26" rx="2" ry="2" transform="translate(1195.46 127.42) rotate(90)" />
	<rect class="cls-1" x="525.54" y="673.53" width="16.95" height="11.26" rx="2" ry="2" transform="translate(1213.14 145.1) rotate(90)" />
	<rect class="cls-1" x="525.54" y="691.22" width="16.95" height="11.26" rx="2" ry="2" transform="translate(1230.83 162.79) rotate(90)" />
	<rect class="cls-1" x="525.54" y="708.91" width="16.95" height="11.26" rx="2" ry="2" transform="translate(1248.52 180.48) rotate(90)" />
	<rect class="cls-1" x="525.54" y="726.59" width="16.95" height="11.26" rx="2" ry="2" transform="translate(1266.21 198.16) rotate(90)" />
	<rect class="cls-1" x="525.54" y="744.28" width="16.95" height="11.26" rx="2" ry="2" transform="translate(1283.9 215.85) rotate(90)" />
	<rect class="cls-1" x="525.54" y="761.97" width="16.95" height="11.26" rx="2" ry="2" transform="translate(1301.58 233.54) rotate(90)" />
	<rect class="cls-1" x="551.29" y="514.34" width="16.95" height="11.26" rx="2" ry="2" transform="translate(1079.7 -39.82) rotate(90)" />
	<rect class="cls-1" x="551.29" y="532.03" width="16.95" height="11.26" rx="2" ry="2" transform="translate(1097.39 -22.14) rotate(90)" />
	<rect class="cls-1" x="551.29" y="549.72" width="16.95" height="11.26" rx="2" ry="2" transform="translate(1115.07 -4.45) rotate(90)" />
	<rect class="cls-1" x="551.29" y="567.4" width="16.95" height="11.26" rx="2" ry="2" transform="translate(1132.76 13.24) rotate(90)" />
	<rect class="cls-1" x="551.29" y="585.09" width="16.95" height="11.26" rx="2" ry="2" transform="translate(1150.45 30.92) rotate(90)" />
	<rect class="cls-1" x="551.29" y="602.78" width="16.95" height="11.26" rx="2" ry="2" transform="translate(1168.14 48.61) rotate(90)" />
	<rect class="cls-1" x="551.29" y="620.47" width="16.95" height="11.26" rx="2" ry="2" transform="translate(1185.83 66.3) rotate(90)" />
	<rect class="cls-1" x="551.29" y="638.16" width="16.95" height="11.26" rx="2" ry="2" transform="translate(1203.51 83.98) rotate(90)" />
	<rect class="cls-1" x="551.29" y="655.84" width="16.95" height="11.26" rx="2" ry="2" transform="translate(1221.2 101.67) rotate(90)" />
	<rect class="cls-1" x="551.29" y="673.53" width="16.95" height="11.26" rx="2" ry="2" transform="translate(1238.89 119.36) rotate(90)" />
	<rect class="cls-1" x="551.29" y="691.22" width="16.95" height="11.26" rx="2" ry="2" transform="translate(1256.58 137.04) rotate(90)" />
	<rect class="cls-1" x="551.29" y="708.91" width="16.95" height="11.26" rx="2" ry="2" transform="translate(1274.26 154.73) rotate(90)" />
	<rect class="cls-1" x="551.29" y="726.59" width="16.95" height="11.26" rx="2" ry="2" transform="translate(1291.95 172.42) rotate(90)" />
	<rect class="cls-1" x="551.29" y="744.28" width="16.95" height="11.26" rx="2" ry="2" transform="translate(1309.64 190.11) rotate(90)" />
	<rect class="cls-1" x="551.29" y="761.97" width="16.95" height="11.26" rx="2" ry="2" transform="translate(1327.33 207.79) rotate(90)" />
	<rect class="cls-1" x="577.03" y="514.34" width="16.95" height="11.26" rx="2" ry="2" transform="translate(1105.44 -65.57) rotate(90)" />
	<rect class="cls-1" x="577.03" y="532.03" width="16.95" height="11.26" rx="2" ry="2" transform="translate(1123.13 -47.88) rotate(90)" />
	<rect class="cls-1" x="577.03" y="549.72" width="16.95" height="11.26" rx="2" ry="2" transform="translate(1140.82 -30.2) rotate(90)" />
	<rect class="cls-1" x="577.03" y="567.4" width="16.95" height="11.26" rx="2" ry="2" transform="translate(1158.51 -12.51) rotate(90)" />
	<rect class="cls-1" x="577.03" y="585.09" width="16.95" height="11.26" rx="2" ry="2" transform="translate(1176.19 5.18) rotate(90)" />
	<rect class="cls-1" x="577.03" y="602.78" width="16.95" height="11.26" rx="2" ry="2" transform="translate(1193.88 22.86) rotate(90)" />
	<rect class="cls-1" x="577.03" y="620.47" width="16.95" height="11.26" rx="2" ry="2" transform="translate(1211.57 40.55) rotate(90)" />
	<rect class="cls-1" x="577.03" y="638.16" width="16.95" height="11.26" rx="2" ry="2" transform="translate(1229.26 58.24) rotate(90)" />
	<rect class="cls-1" x="577.03" y="655.84" width="16.95" height="11.26" rx="2" ry="2" transform="translate(1246.95 75.93) rotate(90)" />
	<rect class="cls-1" x="577.03" y="673.53" width="16.95" height="11.26" rx="2" ry="2" transform="translate(1264.63 93.61) rotate(90)" />
	<rect class="cls-1" x="577.03" y="691.22" width="16.95" height="11.26" rx="2" ry="2" transform="translate(1282.32 111.3) rotate(90)" />
	<rect class="cls-1" x="577.03" y="708.91" width="16.95" height="11.26" rx="2" ry="2" transform="translate(1300.01 128.99) rotate(90)" />
	<rect class="cls-1" x="577.03" y="726.59" width="16.95" height="11.26" rx="2" ry="2" transform="translate(1317.7 146.67) rotate(90)" />
	<rect class="cls-1" x="577.03" y="744.28" width="16.95" height="11.26" rx="2" ry="2" transform="translate(1335.39 164.36) rotate(90)" />
	<rect class="cls-1" x="577.03" y="761.97" width="16.95" height="11.26" rx="2" ry="2" transform="translate(1353.07 182.05) rotate(90)" />
	<rect class="cls-1" x="602.78" y="514.34" width="16.95" height="11.26" rx="2" ry="2" transform="translate(1131.19 -91.32) rotate(90)" />
	<rect class="cls-1" x="628.52" y="514.34" width="16.95" height="11.26" rx="2" ry="2" transform="translate(1156.93 -117.06) rotate(90)" />
	<rect class="cls-1" x="654.27" y="514.34" width="16.95" height="11.26" rx="2" ry="2" transform="translate(1182.68 -142.81) rotate(90)" />
	<rect class="cls-1" x="680.02" y="514.34" width="16.95" height="11.26" rx="2" ry="2" transform="translate(1208.42 -168.55) rotate(90)" />
	<rect class="cls-1" x="705.76" y="514.34" width="16.95" height="11.26" rx="2" ry="2" transform="translate(1234.16 -194.3) rotate(90)" />
	<rect class="cls-1" x="344.14" y="43.68" width="16.95" height="11.26" rx="2" ry="2" transform="translate(401.91 -303.31) rotate(90)" />
	<rect class="cls-1" x="369.73" y="43.68" width="16.95" height="11.26" rx="2" ry="2" transform="translate(427.49 -328.9) rotate(90)" />
	<rect class="cls-1" x="395.31" y="43.68" width="16.95" height="11.26" rx="2" ry="2" transform="translate(453.07 -354.48) rotate(90)" />
	<rect class="cls-1" x="420.89" y="43.68" width="16.95" height="11.26" rx="2" ry="2" transform="translate(478.64 -380.06) rotate(90)" />
	<rect class="cls-1" x="446.47" y="43.68" width="16.95" height="11.26" rx="2" ry="2" transform="translate(504.22 -405.64) rotate(90)" />
	<rect class="cls-1" x="472.05" y="43.68" width="16.95" height="11.26" rx="2" ry="2" transform="translate(529.8 -431.22) rotate(90)" />
	<rect class="cls-1" x="497.63" y="43.68" width="16.95" height="11.26" rx="2" ry="2" transform="translate(555.38 -456.8) rotate(90)" />
	<rect class="cls-1" x="523.21" y="43.68" width="16.95" height="11.26" rx="2" ry="2" transform="translate(580.96 -482.38) rotate(90)" />
	<rect class="cls-1" x="548.79" y="43.68" width="16.95" height="11.26" rx="2" ry="2" transform="translate(606.54 -507.96) rotate(90)" />
	<rect class="cls-1" x="574.37" y="43.68" width="16.95" height="11.26" rx="2" ry="2" transform="translate(632.12 -533.54) rotate(90)" />
	<rect class="cls-1" x="599.95" y="43.68" width="16.95" height="11.26" rx="2" ry="2" transform="translate(657.7 -559.12) rotate(90)" />
	<rect class="cls-1" x="625.53" y="43.68" width="16.95" height="11.26" rx="2" ry="2" transform="translate(683.28 -584.7) rotate(90)" />
	<rect class="cls-1" x="651.11" y="43.68" width="16.95" height="11.26" rx="2" ry="2" transform="translate(708.86 -610.28) rotate(90)" />
	<rect class="cls-1" x="676.7" y="43.68" width="16.95" height="11.26" rx="2" ry="2" transform="translate(734.44 -635.87) rotate(90)" />
	<rect class="cls-1" x="344.14" y="61.72" width="16.95" height="11.26" rx="2" ry="2" transform="translate(419.95 -285.28) rotate(90)" />
	<rect class="cls-1" x="369.73" y="61.72" width="16.95" height="11.26" rx="2" ry="2" transform="translate(445.53 -310.86) rotate(90)" />
	<rect class="cls-1" x="395.31" y="61.72" width="16.95" height="11.26" rx="2" ry="2" transform="translate(471.11 -336.44) rotate(90)" />
	<rect class="cls-1" x="420.89" y="61.72" width="16.95" height="11.26" rx="2" ry="2" transform="translate(496.69 -362.02) rotate(90)" />
	<rect class="cls-1" x="446.47" y="61.72" width="16.95" height="11.26" rx="2" ry="2" transform="translate(522.26 -387.6) rotate(90)" />
	<rect class="cls-1" x="472.05" y="61.72" width="16.95" height="11.26" rx="2" ry="2" transform="translate(547.84 -413.18) rotate(90)" />
	<rect class="cls-1" x="497.63" y="61.72" width="16.95" height="11.26" rx="2" ry="2" transform="translate(573.42 -438.76) rotate(90)" />
	<rect class="cls-1" x="523.21" y="61.72" width="16.95" height="11.26" rx="2" ry="2" transform="translate(599 -464.34) rotate(90)" />
	<rect class="cls-1" x="548.79" y="61.72" width="16.95" height="11.26" rx="2" ry="2" transform="translate(624.58 -489.92) rotate(90)" />
	<rect class="cls-1" x="574.37" y="61.72" width="16.95" height="11.26" rx="2" ry="2" transform="translate(650.16 -515.5) rotate(90)" />
	<rect class="cls-1" x="599.95" y="61.72" width="16.95" height="11.26" rx="2" ry="2" transform="translate(675.74 -541.08) rotate(90)" />
	<rect class="cls-1" x="625.53" y="61.72" width="16.95" height="11.26" rx="2" ry="2" transform="translate(701.32 -566.66) rotate(90)" />
	<rect class="cls-1" x="651.11" y="61.72" width="16.95" height="11.26" rx="2" ry="2" transform="translate(726.9 -592.24) rotate(90)" />
	<rect class="cls-1" x="676.7" y="61.72" width="16.95" height="11.26" rx="2" ry="2" transform="translate(752.48 -617.83) rotate(90)" />
	<rect class="cls-1" x="344.14" y="79.76" width="16.95" height="11.26" rx="2" ry="2" transform="translate(437.99 -267.24) rotate(90)" />
	<rect class="cls-1" x="369.73" y="79.76" width="16.95" height="11.26" rx="2" ry="2" transform="translate(463.57 -292.82) rotate(90)" />
	<rect class="cls-1" x="395.31" y="79.76" width="16.95" height="11.26" rx="2" ry="2" transform="translate(489.15 -318.4) rotate(90)" />
	<rect class="cls-1" x="420.89" y="79.76" width="16.95" height="11.26" rx="2" ry="2" transform="translate(514.73 -343.98) rotate(90)" />
	<rect class="cls-1" x="446.47" y="79.76" width="16.95" height="11.26" rx="2" ry="2" transform="translate(540.31 -369.56) rotate(90)" />
	<rect class="cls-1" x="472.05" y="79.76" width="16.95" height="11.26" rx="2" ry="2" transform="translate(565.88 -395.14) rotate(90)" />
	<rect class="cls-1" x="497.63" y="79.76" width="16.95" height="11.26" rx="2" ry="2" transform="translate(591.46 -420.72) rotate(90)" />
	<rect class="cls-1" x="523.21" y="79.76" width="16.95" height="11.26" rx="2" ry="2" transform="translate(617.04 -446.3) rotate(90)" />
	<rect class="cls-1" x="548.79" y="79.76" width="16.95" height="11.26" rx="2" ry="2" transform="translate(642.62 -471.88) rotate(90)" />
	<rect class="cls-1" x="574.37" y="79.76" width="16.95" height="11.26" rx="2" ry="2" transform="translate(668.2 -497.46) rotate(90)" />
	<rect class="cls-1" x="599.95" y="79.76" width="16.95" height="11.26" rx="2" ry="2" transform="translate(693.78 -523.04) rotate(90)" />
	<rect class="cls-1" x="625.53" y="79.76" width="16.95" height="11.26" rx="2" ry="2" transform="translate(719.36 -548.62) rotate(90)" />
	<rect class="cls-1" x="651.11" y="79.76" width="16.95" height="11.26" rx="2" ry="2" transform="translate(744.94 -574.21) rotate(90)" />
	<rect class="cls-1" x="676.7" y="79.76" width="16.95" height="11.26" rx="2" ry="2" transform="translate(770.52 -599.79) rotate(90)" />
	<rect class="cls-1" x="344.14" y="97.8" width="16.95" height="11.26" rx="2" ry="2" transform="translate(456.03 -249.2) rotate(90)" />
	<rect class="cls-1" x="369.73" y="97.8" width="16.95" height="11.26" rx="2" ry="2" transform="translate(481.61 -274.78) rotate(90)" />
	<rect class="cls-1" x="395.31" y="97.8" width="16.95" height="11.26" rx="2" ry="2" transform="translate(507.19 -300.36) rotate(90)" />
	<rect class="cls-1" x="420.89" y="97.8" width="16.95" height="11.26" rx="2" ry="2" transform="translate(532.77 -325.94) rotate(90)" />
	<rect class="cls-1" x="446.47" y="97.8" width="16.95" height="11.26" rx="2" ry="2" transform="translate(558.35 -351.52) rotate(90)" />
	<rect class="cls-1" x="472.05" y="97.8" width="16.95" height="11.26" rx="2" ry="2" transform="translate(583.93 -377.1) rotate(90)" />
	<rect class="cls-1" x="497.63" y="97.8" width="16.95" height="11.26" rx="2" ry="2" transform="translate(609.5 -402.68) rotate(90)" />
	<rect class="cls-1" x="523.21" y="97.8" width="16.95" height="11.26" rx="2" ry="2" transform="translate(635.08 -428.26) rotate(90)" />
	<rect class="cls-1" x="548.79" y="97.8" width="16.95" height="11.26" rx="2" ry="2" transform="translate(660.66 -453.84) rotate(90)" />
	<rect class="cls-1" x="574.37" y="97.8" width="16.95" height="11.26" rx="2" ry="2" transform="translate(686.24 -479.42) rotate(90)" />
	<rect class="cls-1" x="599.95" y="97.8" width="16.95" height="11.26" rx="2" ry="2" transform="translate(711.82 -505) rotate(90)" />
	<rect class="cls-1" x="625.53" y="97.8" width="16.95" height="11.26" rx="2" ry="2" transform="translate(737.4 -530.58) rotate(90)" />
	<rect class="cls-1" x="651.11" y="97.8" width="16.95" height="11.26" rx="2" ry="2" transform="translate(762.98 -556.17) rotate(90)" />
	<rect class="cls-1" x="676.7" y="97.8" width="16.95" height="11.26" rx="2" ry="2" transform="translate(788.56 -581.75) rotate(90)" />
	<rect class="cls-1" x="344.14" y="115.84" width="16.95" height="11.26" rx="2" ry="2" transform="translate(474.07 -231.16) rotate(90)" />
	<rect class="cls-1" x="369.73" y="115.84" width="16.95" height="11.26" rx="2" ry="2" transform="translate(499.65 -256.74) rotate(90)" />
	<rect class="cls-1" x="395.31" y="115.84" width="16.95" height="11.26" rx="2" ry="2" transform="translate(525.23 -282.32) rotate(90)" />
	<rect class="cls-1" x="420.89" y="115.84" width="16.95" height="11.26" rx="2" ry="2" transform="translate(550.81 -307.9) rotate(90)" />
	<rect class="cls-1" x="446.47" y="115.84" width="16.95" height="11.26" rx="2" ry="2" transform="translate(576.39 -333.48) rotate(90)" />
	<rect class="cls-1" x="472.05" y="115.84" width="16.95" height="11.26" rx="2" ry="2" transform="translate(601.97 -359.06) rotate(90)" />
	<rect class="cls-1" x="497.63" y="115.84" width="16.95" height="11.26" rx="2" ry="2" transform="translate(627.55 -384.64) rotate(90)" />
	<rect class="cls-1" x="523.21" y="115.84" width="16.95" height="11.26" rx="2" ry="2" transform="translate(653.12 -410.22) rotate(90)" />
	<rect class="cls-1" x="548.79" y="115.84" width="16.95" height="11.26" rx="2" ry="2" transform="translate(678.7 -435.8) rotate(90)" />
	<rect class="cls-1" x="574.37" y="115.84" width="16.95" height="11.26" rx="2" ry="2" transform="translate(704.28 -461.38) rotate(90)" />
	<rect class="cls-1" x="599.95" y="115.84" width="16.95" height="11.26" rx="2" ry="2" transform="translate(729.86 -486.96) rotate(90)" />
	<rect class="cls-1" x="625.53" y="115.84" width="16.95" height="11.26" rx="2" ry="2" transform="translate(755.44 -512.55) rotate(90)" />
	<rect class="cls-1" x="651.11" y="115.84" width="16.95" height="11.26" rx="2" ry="2" transform="translate(781.02 -538.13) rotate(90)" />
	<rect class="cls-1" x="676.7" y="115.84" width="16.95" height="11.26" rx="2" ry="2" transform="translate(806.6 -563.71) rotate(90)" />
	<rect class="cls-1" x="344.14" y="133.88" width="16.95" height="11.26" rx="2" ry="2" transform="translate(492.11 -213.12) rotate(90)" />
	<rect class="cls-1" x="369.73" y="133.88" width="16.95" height="11.26" rx="2" ry="2" transform="translate(517.69 -238.7) rotate(90)" />
	<rect class="cls-1" x="395.31" y="133.88" width="16.95" height="11.26" rx="2" ry="2" transform="translate(543.27 -264.28) rotate(90)" />
	<rect class="cls-1" x="420.89" y="133.88" width="16.95" height="11.26" rx="2" ry="2" transform="translate(568.85 -289.86) rotate(90)" />
	<rect class="cls-1" x="446.47" y="133.88" width="16.95" height="11.26" rx="2" ry="2" transform="translate(594.43 -315.44) rotate(90)" />
	<rect class="cls-1" x="472.05" y="133.88" width="16.95" height="11.26" rx="2" ry="2" transform="translate(620.01 -341.02) rotate(90)" />
	<rect class="cls-1" x="497.63" y="133.88" width="16.95" height="11.26" rx="2" ry="2" transform="translate(645.59 -366.6) rotate(90)" />
	<rect class="cls-1" x="523.21" y="133.88" width="16.95" height="11.26" rx="2" ry="2" transform="translate(671.16 -392.18) rotate(90)" />
	<rect class="cls-1" x="548.79" y="133.88" width="16.95" height="11.26" rx="2" ry="2" transform="translate(696.74 -417.76) rotate(90)" />
	<rect class="cls-1" x="574.37" y="133.88" width="16.95" height="11.26" rx="2" ry="2" transform="translate(722.32 -443.34) rotate(90)" />
	<rect class="cls-1" x="599.95" y="133.88" width="16.95" height="11.26" rx="2" ry="2" transform="translate(747.9 -468.92) rotate(90)" />
	<rect class="cls-1" x="625.53" y="133.88" width="16.95" height="11.26" rx="2" ry="2" transform="translate(773.48 -494.51) rotate(90)" />
	<rect class="cls-1" x="651.11" y="133.88" width="16.95" height="11.26" rx="2" ry="2" transform="translate(799.06 -520.09) rotate(90)" />
	<rect class="cls-1" x="676.7" y="133.88" width="16.95" height="11.26" rx="2" ry="2" transform="translate(824.64 -545.67) rotate(90)" />
	<rect class="cls-1" x="344.14" y="151.92" width="16.95" height="11.26" rx="2" ry="2" transform="translate(510.15 -195.08) rotate(90)" />
	<rect class="cls-1" x="369.73" y="151.92" width="16.95" height="11.26" rx="2" ry="2" transform="translate(535.73 -220.66) rotate(90)" />
	<rect class="cls-1" x="395.31" y="151.92" width="16.95" height="11.26" rx="2" ry="2" transform="translate(561.31 -246.24) rotate(90)" />
	<rect class="cls-1" x="420.89" y="151.92" width="16.95" height="11.26" rx="2" ry="2" transform="translate(586.89 -271.82) rotate(90)" />
	<rect class="cls-1" x="446.47" y="151.92" width="16.95" height="11.26" rx="2" ry="2" transform="translate(612.47 -297.4) rotate(90)" />
	<rect class="cls-1" x="472.05" y="151.92" width="16.95" height="11.26" rx="2" ry="2" transform="translate(638.05 -322.98) rotate(90)" />
	<rect class="cls-1" x="497.63" y="151.92" width="16.95" height="11.26" rx="2" ry="2" transform="translate(663.63 -348.56) rotate(90)" />
	<rect class="cls-1" x="523.21" y="151.92" width="16.95" height="11.26" rx="2" ry="2" transform="translate(689.21 -374.14) rotate(90)" />
	<rect class="cls-1" x="548.79" y="151.92" width="16.95" height="11.26" rx="2" ry="2" transform="translate(714.78 -399.72) rotate(90)" />
	<rect class="cls-1" x="574.37" y="151.92" width="16.95" height="11.26" rx="2" ry="2" transform="translate(740.36 -425.3) rotate(90)" />
	<rect class="cls-1" x="599.95" y="151.92" width="16.95" height="11.26" rx="2" ry="2" transform="translate(765.94 -450.89) rotate(90)" />
	<rect class="cls-1" x="625.53" y="151.92" width="16.95" height="11.26" rx="2" ry="2" transform="translate(791.52 -476.47) rotate(90)" />
	<rect class="cls-1" x="651.11" y="151.92" width="16.95" height="11.26" rx="2" ry="2" transform="translate(817.1 -502.05) rotate(90)" />
	<rect class="cls-1" x="676.7" y="151.92" width="16.95" height="11.26" rx="2" ry="2" transform="translate(842.68 -527.63) rotate(90)" />
	<rect class="cls-1" x="344.14" y="169.96" width="16.95" height="11.26" rx="2" ry="2" transform="translate(528.19 -177.04) rotate(90)" />
	<rect class="cls-1" x="369.73" y="169.96" width="16.95" height="11.26" rx="2" ry="2" transform="translate(553.77 -202.62) rotate(90)" />
	<rect class="cls-1" x="395.31" y="169.96" width="16.95" height="11.26" rx="2" ry="2" transform="translate(579.35 -228.2) rotate(90)" />
	<rect class="cls-1" x="420.89" y="169.96" width="16.95" height="11.26" rx="2" ry="2" transform="translate(604.93 -253.78) rotate(90)" />
	<rect class="cls-1" x="446.47" y="169.96" width="16.95" height="11.26" rx="2" ry="2" transform="translate(630.51 -279.36) rotate(90)" />
	<rect class="cls-1" x="472.05" y="169.96" width="16.95" height="11.26" rx="2" ry="2" transform="translate(656.09 -304.94) rotate(90)" />
	<rect class="cls-1" x="497.63" y="169.96" width="16.95" height="11.26" rx="2" ry="2" transform="translate(681.67 -330.52) rotate(90)" />
	<rect class="cls-1" x="523.21" y="169.96" width="16.95" height="11.26" rx="2" ry="2" transform="translate(707.25 -356.1) rotate(90)" />
	<rect class="cls-1" x="548.79" y="169.96" width="16.95" height="11.26" rx="2" ry="2" transform="translate(732.83 -381.68) rotate(90)" />
	<rect class="cls-1" x="574.37" y="169.96" width="16.95" height="11.26" rx="2" ry="2" transform="translate(758.4 -407.27) rotate(90)" />
	<rect class="cls-1" x="599.95" y="169.96" width="16.95" height="11.26" rx="2" ry="2" transform="translate(783.98 -432.85) rotate(90)" />
	<rect class="cls-1" x="625.53" y="169.96" width="16.95" height="11.26" rx="2" ry="2" transform="translate(809.56 -458.43) rotate(90)" />
	<rect class="cls-1" x="651.11" y="169.96" width="16.95" height="11.26" rx="2" ry="2" transform="translate(835.14 -484.01) rotate(90)" />
	<rect class="cls-1" x="676.7" y="169.96" width="16.95" height="11.26" rx="2" ry="2" transform="translate(860.72 -509.59) rotate(90)" />
	<rect class="cls-1" x="344.14" y="188" width="16.95" height="11.26" rx="2" ry="2" transform="translate(546.23 -159) rotate(90)" />
	<rect class="cls-1" x="369.73" y="188" width="16.95" height="11.26" rx="2" ry="2" transform="translate(571.81 -184.58) rotate(90)" />
	<rect class="cls-1" x="395.31" y="188" width="16.95" height="11.26" rx="2" ry="2" transform="translate(597.39 -210.16) rotate(90)" />
	<rect class="cls-1" x="420.89" y="188" width="16.95" height="11.26" rx="2" ry="2" transform="translate(622.97 -235.74) rotate(90)" />
	<rect class="cls-1" x="446.47" y="188" width="16.95" height="11.26" rx="2" ry="2" transform="translate(648.55 -261.32) rotate(90)" />
	<rect class="cls-1" x="472.05" y="188" width="16.95" height="11.26" rx="2" ry="2" transform="translate(674.13 -286.9) rotate(90)" />
	<rect class="cls-1" x="497.63" y="188" width="16.95" height="11.26" rx="2" ry="2" transform="translate(699.71 -312.48) rotate(90)" />
	<rect class="cls-1" x="523.21" y="188" width="16.95" height="11.26" rx="2" ry="2" transform="translate(725.29 -338.06) rotate(90)" />
	<rect class="cls-1" x="548.79" y="188" width="16.95" height="11.26" rx="2" ry="2" transform="translate(750.87 -363.64) rotate(90)" />
	<rect class="cls-1" x="574.37" y="188" width="16.95" height="11.26" rx="2" ry="2" transform="translate(776.45 -389.23) rotate(90)" />
	<rect class="cls-1" x="599.95" y="188" width="16.95" height="11.26" rx="2" ry="2" transform="translate(802.02 -414.81) rotate(90)" />
	<rect class="cls-1" x="625.53" y="188" width="16.95" height="11.26" rx="2" ry="2" transform="translate(827.6 -440.39) rotate(90)" />
	<rect class="cls-1" x="651.11" y="188" width="16.95" height="11.26" rx="2" ry="2" transform="translate(853.18 -465.97) rotate(90)" />
	<rect class="cls-1" x="676.7" y="188" width="16.95" height="11.26" rx="2" ry="2" transform="translate(878.76 -491.55) rotate(90)" />
	<rect class="cls-1" x="344.14" y="206.04" width="16.95" height="11.26" rx="2" ry="2" transform="translate(564.27 -140.96) rotate(90)" />
	<rect class="cls-1" x="369.73" y="206.04" width="16.95" height="11.26" rx="2" ry="2" transform="translate(589.85 -166.54) rotate(90)" />
	<rect class="cls-1" x="395.31" y="206.04" width="16.95" height="11.26" rx="2" ry="2" transform="translate(615.43 -192.12) rotate(90)" />
	<rect class="cls-1" x="420.89" y="206.04" width="16.95" height="11.26" rx="2" ry="2" transform="translate(641.01 -217.7) rotate(90)" />
	<rect class="cls-1" x="446.47" y="206.04" width="16.95" height="11.26" rx="2" ry="2" transform="translate(666.59 -243.28) rotate(90)" />
	<rect class="cls-1" x="472.05" y="206.04" width="16.95" height="11.26" rx="2" ry="2" transform="translate(692.17 -268.86) rotate(90)" />
	<rect class="cls-1" x="497.63" y="206.04" width="16.95" height="11.26" rx="2" ry="2" transform="translate(717.75 -294.44) rotate(90)" />
	<rect class="cls-1" x="523.21" y="206.04" width="16.95" height="11.26" rx="2" ry="2" transform="translate(743.33 -320.02) rotate(90)" />
	<rect class="cls-1" x="548.79" y="206.04" width="16.95" height="11.26" rx="2" ry="2" transform="translate(768.91 -345.61) rotate(90)" />
	<rect class="cls-1" x="574.37" y="206.04" width="16.95" height="11.26" rx="2" ry="2" transform="translate(794.49 -371.19) rotate(90)" />
	<rect class="cls-1" x="599.95" y="206.04" width="16.95" height="11.26" rx="2" ry="2" transform="translate(820.07 -396.77) rotate(90)" />
	<rect class="cls-1" x="625.53" y="206.04" width="16.95" height="11.26" rx="2" ry="2" transform="translate(845.64 -422.35) rotate(90)" />
	<rect class="cls-1" x="651.11" y="206.04" width="16.95" height="11.26" rx="2" ry="2" transform="translate(871.22 -447.93) rotate(90)" />
	<rect class="cls-1" x="676.7" y="206.04" width="16.95" height="11.26" rx="2" ry="2" transform="translate(896.8 -473.51) rotate(90)" />
	<rect class="cls-1" x="344.14" y="224.09" width="16.95" height="11.26" rx="2" ry="2" transform="translate(582.31 -122.92) rotate(90)" />
	<rect class="cls-1" x="369.73" y="224.09" width="16.95" height="11.26" rx="2" ry="2" transform="translate(607.89 -148.5) rotate(90)" />
	<rect class="cls-1" x="395.31" y="224.09" width="16.95" height="11.26" rx="2" ry="2" transform="translate(633.47 -174.08) rotate(90)" />
	<rect class="cls-1" x="420.89" y="224.09" width="16.95" height="11.26" rx="2" ry="2" transform="translate(659.05 -199.66) rotate(90)" />
	<rect class="cls-1" x="446.47" y="224.09" width="16.95" height="11.26" rx="2" ry="2" transform="translate(684.63 -225.24) rotate(90)" />
	<rect class="cls-1" x="472.05" y="224.09" width="16.95" height="11.26" rx="2" ry="2" transform="translate(710.21 -250.82) rotate(90)" />
	<rect class="cls-1" x="497.63" y="224.09" width="16.95" height="11.26" rx="2" ry="2" transform="translate(735.79 -276.4) rotate(90)" />
	<rect class="cls-1" x="523.21" y="224.09" width="16.95" height="11.26" rx="2" ry="2" transform="translate(761.37 -301.98) rotate(90)" />
	<rect class="cls-1" x="548.79" y="224.09" width="16.95" height="11.26" rx="2" ry="2" transform="translate(786.95 -327.57) rotate(90)" />
	<rect class="cls-1" x="574.37" y="224.09" width="16.95" height="11.26" rx="2" ry="2" transform="translate(812.53 -353.15) rotate(90)" />
	<rect class="cls-1" x="599.95" y="224.09" width="16.95" height="11.26" rx="2" ry="2" transform="translate(838.11 -378.73) rotate(90)" />
	<rect class="cls-1" x="625.53" y="224.09" width="16.95" height="11.26" rx="2" ry="2" transform="translate(863.69 -404.31) rotate(90)" />
	<rect class="cls-1" x="651.11" y="224.09" width="16.95" height="11.26" rx="2" ry="2" transform="translate(889.26 -429.89) rotate(90)" />
	<rect class="cls-1" x="676.7" y="224.09" width="16.95" height="11.26" rx="2" ry="2" transform="translate(914.84 -455.47) rotate(90)" />
	<rect class="cls-1" x="344.14" y="242.13" width="16.95" height="11.26" rx="2" ry="2" transform="translate(600.35 -104.88) rotate(90)" />
	<rect class="cls-1" x="369.73" y="242.13" width="16.95" height="11.26" rx="2" ry="2" transform="translate(625.93 -130.46) rotate(90)" />
	<rect class="cls-1" x="395.31" y="242.13" width="16.95" height="11.26" rx="2" ry="2" transform="translate(651.51 -156.04) rotate(90)" />
	<rect class="cls-1" x="420.89" y="242.13" width="16.95" height="11.26" rx="2" ry="2" transform="translate(677.09 -181.62) rotate(90)" />
	<rect class="cls-1" x="446.47" y="242.13" width="16.95" height="11.26" rx="2" ry="2" transform="translate(702.67 -207.2) rotate(90)" />
	<rect class="cls-1" x="472.05" y="242.13" width="16.95" height="11.26" rx="2" ry="2" transform="translate(728.25 -232.78) rotate(90)" />
	<rect class="cls-1" x="497.63" y="242.13" width="16.95" height="11.26" rx="2" ry="2" transform="translate(753.83 -258.36) rotate(90)" />
	<rect class="cls-1" x="523.21" y="242.13" width="16.95" height="11.26" rx="2" ry="2" transform="translate(779.41 -283.95) rotate(90)" />
	<rect class="cls-1" x="548.79" y="242.13" width="16.95" height="11.26" rx="2" ry="2" transform="translate(804.99 -309.53) rotate(90)" />
	<rect class="cls-1" x="574.37" y="242.13" width="16.95" height="11.26" rx="2" ry="2" transform="translate(830.57 -335.11) rotate(90)" />
	<rect class="cls-1" x="599.95" y="242.13" width="16.95" height="11.26" rx="2" ry="2" transform="translate(856.15 -360.69) rotate(90)" />
	<rect class="cls-1" x="625.53" y="242.13" width="16.95" height="11.26" rx="2" ry="2" transform="translate(881.73 -386.27) rotate(90)" />
	<rect class="cls-1" x="651.11" y="242.13" width="16.95" height="11.26" rx="2" ry="2" transform="translate(907.31 -411.85) rotate(90)" />
	<rect class="cls-1" x="676.7" y="242.13" width="16.95" height="11.26" rx="2" ry="2" transform="translate(932.88 -437.43) rotate(90)" />
	<rect class="cls-1" x="344.14" y="260.17" width="16.95" height="11.26" rx="2" ry="2" transform="translate(618.39 -86.84) rotate(90)" />
	<rect class="cls-1" x="369.73" y="260.17" width="16.95" height="11.26" rx="2" ry="2" transform="translate(643.97 -112.42) rotate(90)" />
	<rect class="cls-1" x="395.31" y="260.17" width="16.95" height="11.26" rx="2" ry="2" transform="translate(669.55 -138) rotate(90)" />
	<rect class="cls-1" x="420.89" y="260.17" width="16.95" height="11.26" rx="2" ry="2" transform="translate(695.13 -163.58) rotate(90)" />
	<rect class="cls-1" x="446.47" y="260.17" width="16.95" height="11.26" rx="2" ry="2" transform="translate(720.71 -189.16) rotate(90)" />
	<rect class="cls-1" x="472.05" y="260.17" width="16.95" height="11.26" rx="2" ry="2" transform="translate(746.29 -214.74) rotate(90)" />
	<rect class="cls-1" x="497.63" y="260.17" width="16.95" height="11.26" rx="2" ry="2" transform="translate(771.87 -240.32) rotate(90)" />
	<rect class="cls-1" x="523.21" y="260.17" width="16.95" height="11.26" rx="2" ry="2" transform="translate(797.45 -265.91) rotate(90)" />
	<rect class="cls-1" x="548.79" y="260.17" width="16.95" height="11.26" rx="2" ry="2" transform="translate(823.03 -291.49) rotate(90)" />
	<rect class="cls-1" x="574.37" y="260.17" width="16.95" height="11.26" rx="2" ry="2" transform="translate(848.61 -317.07) rotate(90)" />
	<rect class="cls-1" x="599.95" y="260.17" width="16.95" height="11.26" rx="2" ry="2" transform="translate(874.19 -342.65) rotate(90)" />
	<rect class="cls-1" x="625.53" y="260.17" width="16.95" height="11.26" rx="2" ry="2" transform="translate(899.77 -368.23) rotate(90)" />
	<rect class="cls-1" x="651.11" y="260.17" width="16.95" height="11.26" rx="2" ry="2" transform="translate(925.35 -393.81) rotate(90)" />
	<rect class="cls-1" x="676.7" y="260.17" width="16.95" height="11.26" rx="2" ry="2" transform="translate(950.93 -419.39) rotate(90)" />
	<rect class="cls-1" x="344.14" y="278.21" width="16.95" height="11.26" rx="2" ry="2" transform="translate(636.43 -68.8) rotate(90)" />
	<rect class="cls-1" x="369.73" y="278.21" width="16.95" height="11.26" rx="2" ry="2" transform="translate(662.01 -94.38) rotate(90)" />
	<rect class="cls-1" x="395.31" y="278.21" width="16.95" height="11.26" rx="2" ry="2" transform="translate(687.59 -119.96) rotate(90)" />
	<rect class="cls-1" x="420.89" y="278.21" width="16.95" height="11.26" rx="2" ry="2" transform="translate(713.17 -145.54) rotate(90)" />
	<rect class="cls-1" x="446.47" y="278.21" width="16.95" height="11.26" rx="2" ry="2" transform="translate(738.75 -171.12) rotate(90)" />
	<rect class="cls-1" x="472.05" y="278.21" width="16.95" height="11.26" rx="2" ry="2" transform="translate(764.33 -196.7) rotate(90)" />
	<rect class="cls-1" x="497.63" y="278.21" width="16.95" height="11.26" rx="2" ry="2" transform="translate(789.91 -222.29) rotate(90)" />
	<rect class="cls-1" x="523.21" y="278.21" width="16.95" height="11.26" rx="2" ry="2" transform="translate(815.49 -247.87) rotate(90)" />
	<rect class="cls-1" x="548.79" y="278.21" width="16.95" height="11.26" rx="2" ry="2" transform="translate(841.07 -273.45) rotate(90)" />
	<rect class="cls-1" x="574.37" y="278.21" width="16.95" height="11.26" rx="2" ry="2" transform="translate(866.65 -299.03) rotate(90)" />
	<rect class="cls-1" x="599.95" y="278.21" width="16.95" height="11.26" rx="2" ry="2" transform="translate(892.23 -324.61) rotate(90)" />
	<rect class="cls-1" x="625.53" y="278.21" width="16.95" height="11.26" rx="2" ry="2" transform="translate(917.81 -350.19) rotate(90)" />
	<rect class="cls-1" x="651.11" y="278.21" width="16.95" height="11.26" rx="2" ry="2" transform="translate(943.39 -375.77) rotate(90)" />
	<rect class="cls-1" x="676.7" y="278.21" width="16.95" height="11.26" rx="2" ry="2" transform="translate(968.97 -401.35) rotate(90)" />
	<rect class="cls-1" x="344.14" y="296.25" width="16.95" height="11.26" rx="2" ry="2" transform="translate(654.48 -50.76) rotate(90)" />
	<rect class="cls-1" x="369.73" y="296.25" width="16.95" height="11.26" rx="2" ry="2" transform="translate(680.05 -76.34) rotate(90)" />
	<rect class="cls-1" x="395.31" y="296.25" width="16.95" height="11.26" rx="2" ry="2" transform="translate(705.63 -101.92) rotate(90)" />
	<rect class="cls-1" x="420.89" y="296.25" width="16.95" height="11.26" rx="2" ry="2" transform="translate(731.21 -127.5) rotate(90)" />
	<rect class="cls-1" x="446.47" y="296.25" width="16.95" height="11.26" rx="2" ry="2" transform="translate(756.79 -153.08) rotate(90)" />
	<rect class="cls-1" x="472.05" y="296.25" width="16.95" height="11.26" rx="2" ry="2" transform="translate(782.37 -178.66) rotate(90)" />
	<rect class="cls-1" x="497.63" y="296.25" width="16.95" height="11.26" rx="2" ry="2" transform="translate(807.95 -204.25) rotate(90)" />
	<rect class="cls-1" x="523.21" y="296.25" width="16.95" height="11.26" rx="2" ry="2" transform="translate(833.53 -229.83) rotate(90)" />
	<rect class="cls-1" x="548.79" y="296.25" width="16.95" height="11.26" rx="2" ry="2" transform="translate(859.11 -255.41) rotate(90)" />
	<rect class="cls-1" x="574.37" y="296.25" width="16.95" height="11.26" rx="2" ry="2" transform="translate(884.69 -280.99) rotate(90)" />
	<rect class="cls-1" x="599.95" y="296.25" width="16.95" height="11.26" rx="2" ry="2" transform="translate(910.27 -306.57) rotate(90)" />
	<rect class="cls-1" x="625.53" y="296.25" width="16.95" height="11.26" rx="2" ry="2" transform="translate(935.85 -332.15) rotate(90)" />
	<rect class="cls-1" x="651.11" y="296.25" width="16.95" height="11.26" rx="2" ry="2" transform="translate(961.43 -357.73) rotate(90)" />
	<rect class="cls-1" x="676.7" y="296.25" width="16.95" height="11.26" rx="2" ry="2" transform="translate(987.01 -383.31) rotate(90)" />
	<rect class="cls-1" x="344.14" y="314.29" width="16.95" height="11.26" rx="2" ry="2" transform="translate(672.52 -32.72) rotate(90)" />
	<rect class="cls-1" x="369.73" y="314.29" width="16.95" height="11.26" rx="2" ry="2" transform="translate(698.1 -58.3) rotate(90)" />
	<rect class="cls-1" x="395.31" y="314.29" width="16.95" height="11.26" rx="2" ry="2" transform="translate(723.67 -83.88) rotate(90)" />
	<rect class="cls-1" x="420.89" y="314.29" width="16.95" height="11.26" rx="2" ry="2" transform="translate(749.25 -109.46) rotate(90)" />
	<rect class="cls-1" x="446.47" y="314.29" width="16.95" height="11.26" rx="2" ry="2" transform="translate(774.83 -135.04) rotate(90)" />
	<rect class="cls-1" x="472.05" y="314.29" width="16.95" height="11.26" rx="2" ry="2" transform="translate(800.41 -160.63) rotate(90)" />
	<rect class="cls-1" x="497.63" y="314.29" width="16.95" height="11.26" rx="2" ry="2" transform="translate(825.99 -186.21) rotate(90)" />
	<rect class="cls-1" x="523.21" y="314.29" width="16.95" height="11.26" rx="2" ry="2" transform="translate(851.57 -211.79) rotate(90)" />
	<rect class="cls-1" x="548.79" y="314.29" width="16.95" height="11.26" rx="2" ry="2" transform="translate(877.15 -237.37) rotate(90)" />
	<rect class="cls-1" x="574.37" y="314.29" width="16.95" height="11.26" rx="2" ry="2" transform="translate(902.73 -262.95) rotate(90)" />
	<rect class="cls-1" x="599.95" y="314.29" width="16.95" height="11.26" rx="2" ry="2" transform="translate(928.31 -288.53) rotate(90)" />
	<rect class="cls-1" x="625.53" y="314.29" width="16.95" height="11.26" rx="2" ry="2" transform="translate(953.89 -314.11) rotate(90)" />
	<rect class="cls-1" x="651.11" y="314.29" width="16.95" height="11.26" rx="2" ry="2" transform="translate(979.47 -339.69) rotate(90)" />
	<rect class="cls-1" x="676.7" y="314.29" width="16.95" height="11.26" rx="2" ry="2" transform="translate(1005.05 -365.27) rotate(90)" />
	<rect class="cls-1" x="344.14" y="332.33" width="16.95" height="11.26" rx="2" ry="2" transform="translate(690.56 -14.68) rotate(90)" />
	<rect class="cls-1" x="369.73" y="332.33" width="16.95" height="11.26" rx="2" ry="2" transform="translate(716.14 -40.26) rotate(90)" />
	<rect class="cls-1" x="395.31" y="332.33" width="16.95" height="11.26" rx="2" ry="2" transform="translate(741.72 -65.84) rotate(90)" />
	<rect class="cls-1" x="420.89" y="332.33" width="16.95" height="11.26" rx="2" ry="2" transform="translate(767.29 -91.42) rotate(90)" />
	<rect class="cls-1" x="446.47" y="332.33" width="16.95" height="11.26" rx="2" ry="2" transform="translate(792.87 -117) rotate(90)" />
	<rect class="cls-1" x="472.05" y="332.33" width="16.95" height="11.26" rx="2" ry="2" transform="translate(818.45 -142.59) rotate(90)" />
	<rect class="cls-1" x="497.63" y="332.33" width="16.95" height="11.26" rx="2" ry="2" transform="translate(844.03 -168.17) rotate(90)" />
	<rect class="cls-1" x="523.21" y="332.33" width="16.95" height="11.26" rx="2" ry="2" transform="translate(869.61 -193.75) rotate(90)" />
	<rect class="cls-1" x="548.79" y="332.33" width="16.95" height="11.26" rx="2" ry="2" transform="translate(895.19 -219.33) rotate(90)" />
	<rect class="cls-1" x="574.37" y="332.33" width="16.95" height="11.26" rx="2" ry="2" transform="translate(920.77 -244.91) rotate(90)" />
	<rect class="cls-1" x="599.95" y="332.33" width="16.95" height="11.26" rx="2" ry="2" transform="translate(946.35 -270.49) rotate(90)" />
	<rect class="cls-1" x="625.53" y="332.33" width="16.95" height="11.26" rx="2" ry="2" transform="translate(971.93 -296.07) rotate(90)" />
	<rect class="cls-1" x="651.11" y="332.33" width="16.95" height="11.26" rx="2" ry="2" transform="translate(997.51 -321.65) rotate(90)" />
	<rect class="cls-1" x="676.7" y="332.33" width="16.95" height="11.26" rx="2" ry="2" transform="translate(1023.09 -347.23) rotate(90)" />
	<rect class="cls-1" x="344.14" y="350.37" width="16.95" height="11.26" rx="2" ry="2" transform="translate(708.6 3.36) rotate(90)" />
	<rect class="cls-1" x="369.73" y="350.37" width="16.95" height="11.26" rx="2" ry="2" transform="translate(734.18 -22.22) rotate(90)" />
	<rect class="cls-1" x="395.31" y="350.37" width="16.95" height="11.26" rx="2" ry="2" transform="translate(759.76 -47.8) rotate(90)" />
	<rect class="cls-1" x="420.89" y="350.37" width="16.95" height="11.26" rx="2" ry="2" transform="translate(785.34 -73.38) rotate(90)" />
	<rect class="cls-1" x="446.47" y="350.37" width="16.95" height="11.26" rx="2" ry="2" transform="translate(810.91 -98.97) rotate(90)" />
	<rect class="cls-1" x="472.05" y="350.37" width="16.95" height="11.26" rx="2" ry="2" transform="translate(836.49 -124.55) rotate(90)" />
	<rect class="cls-1" x="497.63" y="350.37" width="16.95" height="11.26" rx="2" ry="2" transform="translate(862.07 -150.13) rotate(90)" />
	<rect class="cls-1" x="523.21" y="350.37" width="16.95" height="11.26" rx="2" ry="2" transform="translate(887.65 -175.71) rotate(90)" />
	<rect class="cls-1" x="548.79" y="350.37" width="16.95" height="11.26" rx="2" ry="2" transform="translate(913.23 -201.29) rotate(90)" />
	<rect class="cls-1" x="574.37" y="350.37" width="16.95" height="11.26" rx="2" ry="2" transform="translate(938.81 -226.87) rotate(90)" />
	<rect class="cls-1" x="599.95" y="350.37" width="16.95" height="11.26" rx="2" ry="2" transform="translate(964.39 -252.45) rotate(90)" />
	<rect class="cls-1" x="625.53" y="350.37" width="16.95" height="11.26" rx="2" ry="2" transform="translate(989.97 -278.03) rotate(90)" />
	<rect class="cls-1" x="651.11" y="350.37" width="16.95" height="11.26" rx="2" ry="2" transform="translate(1015.55 -303.61) rotate(90)" />
	<rect class="cls-1" x="676.7" y="350.37" width="16.95" height="11.26" rx="2" ry="2" transform="translate(1041.13 -329.19) rotate(90)" />
	<rect class="cls-1" x="344.14" y="368.41" width="16.95" height="11.26" rx="2" ry="2" transform="translate(726.64 21.4) rotate(90)" />
	<rect class="cls-1" x="369.73" y="368.41" width="16.95" height="11.26" rx="2" ry="2" transform="translate(752.22 -4.18) rotate(90)" />
	<rect class="cls-1" x="395.31" y="368.41" width="16.95" height="11.26" rx="2" ry="2" transform="translate(777.8 -29.76) rotate(90)" />
	<rect class="cls-1" x="420.89" y="368.41" width="16.95" height="11.26" rx="2" ry="2" transform="translate(803.38 -55.34) rotate(90)" />
	<rect class="cls-1" x="446.47" y="368.41" width="16.95" height="11.26" rx="2" ry="2" transform="translate(828.96 -80.93) rotate(90)" />
	<rect class="cls-1" x="472.05" y="368.41" width="16.95" height="11.26" rx="2" ry="2" transform="translate(854.53 -106.51) rotate(90)" />
	<rect class="cls-1" x="497.63" y="368.41" width="16.95" height="11.26" rx="2" ry="2" transform="translate(880.11 -132.09) rotate(90)" />
	<rect class="cls-1" x="523.21" y="368.41" width="16.95" height="11.26" rx="2" ry="2" transform="translate(905.69 -157.67) rotate(90)" />
	<rect class="cls-1" x="548.79" y="368.41" width="16.95" height="11.26" rx="2" ry="2" transform="translate(931.27 -183.25) rotate(90)" />
	<rect class="cls-1" x="574.37" y="368.41" width="16.95" height="11.26" rx="2" ry="2" transform="translate(956.85 -208.83) rotate(90)" />
	<rect class="cls-1" x="599.95" y="368.41" width="16.95" height="11.26" rx="2" ry="2" transform="translate(982.43 -234.41) rotate(90)" />
	<rect class="cls-1" x="625.53" y="368.41" width="16.95" height="11.26" rx="2" ry="2" transform="translate(1008.01 -259.99) rotate(90)" />
	<rect class="cls-1" x="651.11" y="368.41" width="16.95" height="11.26" rx="2" ry="2" transform="translate(1033.59 -285.57) rotate(90)" />
	<rect class="cls-1" x="676.7" y="368.41" width="16.95" height="11.26" rx="2" ry="2" transform="translate(1059.17 -311.15) rotate(90)" />
	<rect class="cls-1" x="344.14" y="386.45" width="16.95" height="11.26" rx="2" ry="2" transform="translate(744.68 39.44) rotate(90)" />
	<rect class="cls-1" x="369.73" y="386.45" width="16.95" height="11.26" rx="2" ry="2" transform="translate(770.26 13.86) rotate(90)" />
	<rect class="cls-1" x="395.31" y="386.45" width="16.95" height="11.26" rx="2" ry="2" transform="translate(795.84 -11.72) rotate(90)" />
	<rect class="cls-1" x="420.89" y="386.45" width="16.95" height="11.26" rx="2" ry="2" transform="translate(821.42 -37.31) rotate(90)" />
	<rect class="cls-1" x="446.47" y="386.45" width="16.95" height="11.26" rx="2" ry="2" transform="translate(847 -62.89) rotate(90)" />
	<rect class="cls-1" x="472.05" y="386.45" width="16.95" height="11.26" rx="2" ry="2" transform="translate(872.58 -88.47) rotate(90)" />
	<rect class="cls-1" x="497.63" y="386.45" width="16.95" height="11.26" rx="2" ry="2" transform="translate(898.15 -114.05) rotate(90)" />
	<rect class="cls-1" x="523.21" y="386.45" width="16.95" height="11.26" rx="2" ry="2" transform="translate(923.73 -139.63) rotate(90)" />
	<rect class="cls-1" x="548.79" y="386.45" width="16.95" height="11.26" rx="2" ry="2" transform="translate(949.31 -165.21) rotate(90)" />
	<rect class="cls-1" x="574.37" y="386.45" width="16.95" height="11.26" rx="2" ry="2" transform="translate(974.89 -190.79) rotate(90)" />
	<rect class="cls-1" x="599.95" y="386.45" width="16.95" height="11.26" rx="2" ry="2" transform="translate(1000.47 -216.37) rotate(90)" />
	<rect class="cls-1" x="625.53" y="386.45" width="16.95" height="11.26" rx="2" ry="2" transform="translate(1026.05 -241.95) rotate(90)" />
	<rect class="cls-1" x="651.11" y="386.45" width="16.95" height="11.26" rx="2" ry="2" transform="translate(1051.63 -267.53) rotate(90)" />
	<rect class="cls-1" x="676.7" y="386.45" width="16.95" height="11.26" rx="2" ry="2" transform="translate(1077.21 -293.11) rotate(90)" />
	<rect class="cls-1" x="344.14" y="404.49" width="16.95" height="11.26" rx="2" ry="2" transform="translate(762.72 57.48) rotate(90)" />
	<rect class="cls-1" x="369.73" y="404.49" width="16.95" height="11.26" rx="2" ry="2" transform="translate(788.3 31.9) rotate(90)" />
	<rect class="cls-1" x="395.31" y="404.49" width="16.95" height="11.26" rx="2" ry="2" transform="translate(813.88 6.32) rotate(90)" />
	<rect class="cls-1" x="420.89" y="404.49" width="16.95" height="11.26" rx="2" ry="2" transform="translate(839.46 -19.27) rotate(90)" />
	<rect class="cls-1" x="446.47" y="404.49" width="16.95" height="11.26" rx="2" ry="2" transform="translate(865.04 -44.85) rotate(90)" />
	<rect class="cls-1" x="472.05" y="404.49" width="16.95" height="11.26" rx="2" ry="2" transform="translate(890.62 -70.43) rotate(90)" />
	<rect class="cls-1" x="497.63" y="404.49" width="16.95" height="11.26" rx="2" ry="2" transform="translate(916.19 -96.01) rotate(90)" />
	<rect class="cls-1" x="523.21" y="404.49" width="16.95" height="11.26" rx="2" ry="2" transform="translate(941.77 -121.59) rotate(90)" />
	<rect class="cls-1" x="548.79" y="404.49" width="16.95" height="11.26" rx="2" ry="2" transform="translate(967.35 -147.17) rotate(90)" />
	<rect class="cls-1" x="574.37" y="404.49" width="16.95" height="11.26" rx="2" ry="2" transform="translate(992.93 -172.75) rotate(90)" />
	<rect class="cls-1" x="599.95" y="404.49" width="16.95" height="11.26" rx="2" ry="2" transform="translate(1018.51 -198.33) rotate(90)" />
	<rect class="cls-1" x="625.53" y="404.49" width="16.95" height="11.26" rx="2" ry="2" transform="translate(1044.09 -223.91) rotate(90)" />
	<rect class="cls-1" x="651.11" y="404.49" width="16.95" height="11.26" rx="2" ry="2" transform="translate(1069.67 -249.49) rotate(90)" />
	<rect class="cls-1" x="676.7" y="404.49" width="16.95" height="11.26" rx="2" ry="2" transform="translate(1095.25 -275.07) rotate(90)" />
	<rect class="cls-1" x="344.14" y="422.53" width="16.95" height="11.26" rx="2" ry="2" transform="translate(780.76 75.52) rotate(90)" />
	<rect class="cls-1" x="369.73" y="422.53" width="16.95" height="11.26" rx="2" ry="2" transform="translate(806.34 49.94) rotate(90)" />
	<rect class="cls-1" x="395.31" y="422.53" width="16.95" height="11.26" rx="2" ry="2" transform="translate(831.92 24.35) rotate(90)" />
	<rect class="cls-1" x="420.89" y="422.53" width="16.95" height="11.26" rx="2" ry="2" transform="translate(857.5 -1.23) rotate(90)" />
	<rect class="cls-1" x="446.47" y="422.53" width="16.95" height="11.26" rx="2" ry="2" transform="translate(883.08 -26.81) rotate(90)" />
	<rect class="cls-1" x="472.05" y="422.53" width="16.95" height="11.26" rx="2" ry="2" transform="translate(908.66 -52.39) rotate(90)" />
	<rect class="cls-1" x="497.63" y="422.53" width="16.95" height="11.26" rx="2" ry="2" transform="translate(934.24 -77.97) rotate(90)" />
	<rect class="cls-1" x="523.21" y="422.53" width="16.95" height="11.26" rx="2" ry="2" transform="translate(959.81 -103.55) rotate(90)" />
	<rect class="cls-1" x="548.79" y="422.53" width="16.95" height="11.26" rx="2" ry="2" transform="translate(985.39 -129.13) rotate(90)" />
	<rect class="cls-1" x="574.37" y="422.53" width="16.95" height="11.26" rx="2" ry="2" transform="translate(1010.97 -154.71) rotate(90)" />
	<rect class="cls-1" x="599.95" y="422.53" width="16.95" height="11.26" rx="2" ry="2" transform="translate(1036.55 -180.29) rotate(90)" />
	<rect class="cls-1" x="625.53" y="422.53" width="16.95" height="11.26" rx="2" ry="2" transform="translate(1062.13 -205.87) rotate(90)" />
	<rect class="cls-1" x="651.11" y="422.53" width="16.95" height="11.26" rx="2" ry="2" transform="translate(1087.71 -231.45) rotate(90)" />
	<rect class="cls-1" x="676.7" y="422.53" width="16.95" height="11.26" rx="2" ry="2" transform="translate(1113.29 -257.03) rotate(90)" />
	<rect class="cls-1" x="344.14" y="440.57" width="16.95" height="11.26" rx="2" ry="2" transform="translate(798.8 93.56) rotate(90)" />
	<rect class="cls-1" x="369.73" y="440.57" width="16.95" height="11.26" rx="2" ry="2" transform="translate(824.38 67.97) rotate(90)" />
	<rect class="cls-1" x="395.31" y="440.57" width="16.95" height="11.26" rx="2" ry="2" transform="translate(849.96 42.39) rotate(90)" />
	<rect class="cls-1" x="420.89" y="440.57" width="16.95" height="11.26" rx="2" ry="2" transform="translate(875.54 16.81) rotate(90)" />
	<rect class="cls-1" x="446.47" y="440.57" width="16.95" height="11.26" rx="2" ry="2" transform="translate(901.12 -8.77) rotate(90)" />
	<rect class="cls-1" x="472.05" y="440.57" width="16.95" height="11.26" rx="2" ry="2" transform="translate(926.7 -34.35) rotate(90)" />
	<rect class="cls-1" x="497.63" y="440.57" width="16.95" height="11.26" rx="2" ry="2" transform="translate(952.28 -59.93) rotate(90)" />
	<rect class="cls-1" x="523.21" y="440.57" width="16.95" height="11.26" rx="2" ry="2" transform="translate(977.86 -85.51) rotate(90)" />
	<rect class="cls-1" x="548.79" y="440.57" width="16.95" height="11.26" rx="2" ry="2" transform="translate(1003.43 -111.09) rotate(90)" />
	<rect class="cls-1" x="574.37" y="440.57" width="16.95" height="11.26" rx="2" ry="2" transform="translate(1029.01 -136.67) rotate(90)" />
	<rect class="cls-1" x="599.95" y="440.57" width="16.95" height="11.26" rx="2" ry="2" transform="translate(1054.59 -162.25) rotate(90)" />
	<rect class="cls-1" x="625.53" y="440.57" width="16.95" height="11.26" rx="2" ry="2" transform="translate(1080.17 -187.83) rotate(90)" />
	<rect class="cls-1" x="651.11" y="440.57" width="16.95" height="11.26" rx="2" ry="2" transform="translate(1105.75 -213.41) rotate(90)" />
	<rect class="cls-1" x="676.7" y="440.57" width="16.95" height="11.26" rx="2" ry="2" transform="translate(1131.33 -238.99) rotate(90)" />
	<rect class="cls-1" x="344.14" y="458.61" width="16.95" height="11.26" rx="2" ry="2" transform="translate(816.84 111.6) rotate(90)" />
	<rect class="cls-1" x="369.73" y="458.61" width="16.95" height="11.26" rx="2" ry="2" transform="translate(842.42 86.01) rotate(90)" />
	<rect class="cls-1" x="395.31" y="458.61" width="16.95" height="11.26" rx="2" ry="2" transform="translate(868 60.43) rotate(90)" />
	<rect class="cls-1" x="420.89" y="458.61" width="16.95" height="11.26" rx="2" ry="2" transform="translate(893.58 34.85) rotate(90)" />
	<rect class="cls-1" x="446.47" y="458.61" width="16.95" height="11.26" rx="2" ry="2" transform="translate(919.16 9.27) rotate(90)" />
	<rect class="cls-1" x="472.05" y="458.61" width="16.95" height="11.26" rx="2" ry="2" transform="translate(944.74 -16.31) rotate(90)" />
	<rect class="cls-1" x="497.63" y="458.61" width="16.95" height="11.26" rx="2" ry="2" transform="translate(970.32 -41.89) rotate(90)" />
	<rect class="cls-1" x="523.21" y="458.61" width="16.95" height="11.26" rx="2" ry="2" transform="translate(995.9 -67.47) rotate(90)" />
	<rect class="cls-1" x="548.79" y="458.61" width="16.95" height="11.26" rx="2" ry="2" transform="translate(1021.48 -93.05) rotate(90)" />
	<rect class="cls-1" x="574.37" y="458.61" width="16.95" height="11.26" rx="2" ry="2" transform="translate(1047.05 -118.63) rotate(90)" />
	<rect class="cls-1" x="599.95" y="458.61" width="16.95" height="11.26" rx="2" ry="2" transform="translate(1072.63 -144.21) rotate(90)" />
	<rect class="cls-1" x="625.53" y="458.61" width="16.95" height="11.26" rx="2" ry="2" transform="translate(1098.21 -169.79) rotate(90)" />
	<rect class="cls-1" x="651.11" y="458.61" width="16.95" height="11.26" rx="2" ry="2" transform="translate(1123.79 -195.37) rotate(90)" />
	<rect class="cls-1" x="676.7" y="458.61" width="16.95" height="11.26" rx="2" ry="2" transform="translate(1149.37 -220.96) rotate(90)" />
	<g id="text202716" class="cls-3">
		<text class="cls-2" transform="translate(757.89 232.78)">
			<tspan x="0" y="0">
				T
			</tspan>
		</text>
	</g>
	<g>
		<path id="path96984" class="cls-5" d="m680.81,35.74l3.02-7.71,2.9,7.71" />
		<path id="path96986" class="cls-5" d="m681.93,33.17h3.69" />
	</g>
	<g>
		<path id="path96988" class="cls-5" d="m657.02,35.74v-7.71h3.24l1.12.34.34.45.45.67v.78l-.45.67-.34.45-1.12.34h-3.24" />
		<path id="path96990" class="cls-5" d="m660.26,31.72l1.12.34.34.34.45.78v1.12l-.45.78-.34.34-1.12.34h-3.24" />
	</g>
	<path id="path96992" class="cls-5" d="m635.91,29.82l-.34-.67-.78-.78-.67-.34h-1.56l-.67.34-.78.78-.34.67-.34,1.12v1.9l.34,1.12.34.67.78.78.67.34h1.56l.67-.34.78-.78.34-.67" />
	<path id="path96994" class="cls-5" d="m605.86,35.74v-7.71h2.57l1.12.34.67.78.45.67.34,1.12v1.9l-.34,1.12-.45.67-.67.78-1.12.34h-2.57" />
	<g>
		<path id="path96996" class="cls-5" d="m580.45,35.74v-7.71h4.8" />
		<path id="path96998" class="cls-5" d="m580.45,31.72h2.9" />
		<path id="path97000" class="cls-5" d="m580.45,35.74h4.8" />
	</g>
	<g>
		<path id="path97002" class="cls-5" d="m554.86,35.74v-7.71h4.8" />
		<path id="path97004" class="cls-5" d="m554.86,31.72h3.02" />
	</g>
	<path id="path97006" class="cls-5" d="m533.25,29.32l-.34-.67-.78-.78-.78-.34h-1.45l-.67.34-.78.78-.34.67-.45,1.12v1.9l.45,1.12.34.67.78.78.67.34h1.45l.78-.34.78-.78.34-.67v-1.12h-1.9" />
	<g>
		<path id="path97008" class="cls-5" d="m503.52,35.24v-7.71" />
		<path id="path97010" class="cls-5" d="m508.66,27.53v7.71" />
		<path id="path97012" class="cls-5" d="m503.52,31.22h5.14" />
	</g>
	<path id="path97014" class="cls-5" d="m480.52,35.74v-7.71" />
	<path id="path97016" class="cls-5" d="m455.55,28.03v5.92l-.34,1.12-.45.34-.67.34h-.78l-.67-.34-.45-.34-.34-1.12v-.78" />
	<g>
		<path id="path97018" class="cls-5" d="m426.73,35.74v-7.71" />
		<path id="path97020" class="cls-5" d="m431.87,28.03l-5.14,5.14" />
		<path id="path97022" class="cls-5" d="m428.63,31.39l3.24,4.36" />
	</g>
	<path id="path97024" class="cls-5" d="m401.6,28.03v7.71h4.47" />
	<g>
		<path id="path97026" class="cls-5" d="m376.58,28.03v7.71h4.36" />
		<path id="path97028" class="cls-5" d="m382.83,28.03v7.71h4.36" />
	</g>
	<path id="path97030" class="cls-5" d="m351.44,35.74v-7.71l2.9,7.71,2.9-7.71v7.71" />
	<path id="path97032" class="cls-5" d="m326.31,35.74v-7.71l5.14,7.71v-7.71" />
	<polygon class="cls-4" points="306.7 782.36 610.71 782.36 610.71 537.66 743.67 537.66 743.67 17.7 306.7 17.7 306.7 782.36" />
</svg>
