<?xml version="1.0" encoding="UTF-8"?>
<svg id="Capa_2" xmlns="http://www.w3.org/2000/svg" viewBox="0 0 1075.56 792">
	<defs>
		<style>
			.cls-1{fill:#d9d9d9;}.cls-2{font-family:Arial-BoldMT, Arial;font-size:43.18px;font-weight:700;}.cls-2,.cls-3{isolation:isolate;}.cls-4{stroke:#3670b3;stroke-miterlimit:10;stroke-width:5px;}.cls-4,.cls-5{fill:none;}.cls-5{stroke:#000;stroke-linecap:round;stroke-linejoin:round;stroke-width:2px;}
		</style>
	</defs>
	<rect class="cls-1" x="568.4" y="39.28" width="16.95" height="11.26" rx="2" ry="2" transform="translate(621.75 -531.98) rotate(90)" />
	<rect class="cls-1" x="543.72" y="39.28" width="16.95" height="11.26" rx="2" ry="2" transform="translate(597.07 -507.29) rotate(90)" />
	<rect class="cls-1" x="519.03" y="39.28" width="16.95" height="11.26" rx="2" ry="2" transform="translate(572.38 -482.6) rotate(90)" />
	<rect class="cls-1" x="494.34" y="39.28" width="16.95" height="11.26" rx="2" ry="2" transform="translate(547.69 -457.91) rotate(90)" />
	<rect class="cls-1" x="469.66" y="39.28" width="16.95" height="11.26" rx="2" ry="2" transform="translate(523.01 -433.23) rotate(90)" />
	<rect class="cls-1" x="444.97" y="39.28" width="16.95" height="11.26" rx="2" ry="2" transform="translate(498.32 -408.54) rotate(90)" />
	<rect class="cls-1" x="420.28" y="39.28" width="16.95" height="11.26" rx="2" ry="2" transform="translate(473.64 -383.85) rotate(90)" />
	<rect class="cls-1" x="395.59" y="39.28" width="16.95" height="11.26" rx="2" ry="2" transform="translate(448.95 -359.17) rotate(90)" />
	<rect class="cls-1" x="370.91" y="39.28" width="16.95" height="11.26" rx="2" ry="2" transform="translate(424.27 -334.48) rotate(90)" />
	<rect class="cls-1" x="346.22" y="39.28" width="16.95" height="11.26" rx="2" ry="2" transform="translate(399.58 -309.79) rotate(90)" />
	<rect class="cls-1" x="321.53" y="39.28" width="16.95" height="11.26" rx="2" ry="2" transform="translate(374.89 -285.1) rotate(90)" />
	<rect class="cls-1" x="568.4" y="57.15" width="16.95" height="11.26" rx="2" ry="2" transform="translate(639.62 -514.1) rotate(90)" />
	<rect class="cls-1" x="543.72" y="57.15" width="16.95" height="11.26" rx="2" ry="2" transform="translate(614.94 -489.42) rotate(90)" />
	<rect class="cls-1" x="519.03" y="57.15" width="16.95" height="11.26" rx="2" ry="2" transform="translate(590.25 -464.73) rotate(90)" />
	<rect class="cls-1" x="494.34" y="57.15" width="16.95" height="11.26" rx="2" ry="2" transform="translate(565.57 -440.04) rotate(90)" />
	<rect class="cls-1" x="469.66" y="57.15" width="16.95" height="11.26" rx="2" ry="2" transform="translate(540.88 -415.36) rotate(90)" />
	<rect class="cls-1" x="444.97" y="57.15" width="16.95" height="11.26" rx="2" ry="2" transform="translate(516.2 -390.67) rotate(90)" />
	<rect class="cls-1" x="420.28" y="57.15" width="16.95" height="11.26" rx="2" ry="2" transform="translate(491.51 -365.98) rotate(90)" />
	<rect class="cls-1" x="395.59" y="57.15" width="16.95" height="11.26" rx="2" ry="2" transform="translate(466.82 -341.29) rotate(90)" />
	<rect class="cls-1" x="370.91" y="57.15" width="16.95" height="11.26" rx="2" ry="2" transform="translate(442.14 -316.61) rotate(90)" />
	<rect class="cls-1" x="346.22" y="57.15" width="16.95" height="11.26" rx="2" ry="2" transform="translate(417.45 -291.92) rotate(90)" />
	<rect class="cls-1" x="321.53" y="57.15" width="16.95" height="11.26" rx="2" ry="2" transform="translate(392.77 -267.23) rotate(90)" />
	<rect class="cls-1" x="568.4" y="75.02" width="16.95" height="11.26" rx="2" ry="2" transform="translate(657.5 -496.23) rotate(90)" />
	<rect class="cls-1" x="543.72" y="75.02" width="16.95" height="11.26" rx="2" ry="2" transform="translate(632.81 -471.54) rotate(90)" />
	<rect class="cls-1" x="519.03" y="75.02" width="16.95" height="11.26" rx="2" ry="2" transform="translate(608.13 -446.86) rotate(90)" />
	<rect class="cls-1" x="494.34" y="75.02" width="16.95" height="11.26" rx="2" ry="2" transform="translate(583.44 -422.17) rotate(90)" />
	<rect class="cls-1" x="469.66" y="75.02" width="16.95" height="11.26" rx="2" ry="2" transform="translate(558.75 -397.48) rotate(90)" />
	<rect class="cls-1" x="444.97" y="75.02" width="16.95" height="11.26" rx="2" ry="2" transform="translate(534.07 -372.8) rotate(90)" />
	<rect class="cls-1" x="420.28" y="75.02" width="16.95" height="11.26" rx="2" ry="2" transform="translate(509.38 -348.11) rotate(90)" />
	<rect class="cls-1" x="395.59" y="75.02" width="16.95" height="11.26" rx="2" ry="2" transform="translate(484.7 -323.42) rotate(90)" />
	<rect class="cls-1" x="370.91" y="75.02" width="16.95" height="11.26" rx="2" ry="2" transform="translate(460.01 -298.73) rotate(90)" />
	<rect class="cls-1" x="346.22" y="75.02" width="16.95" height="11.26" rx="2" ry="2" transform="translate(435.33 -274.05) rotate(90)" />
	<rect class="cls-1" x="321.53" y="75.02" width="16.95" height="11.26" rx="2" ry="2" transform="translate(410.64 -249.36) rotate(90)" />
	<rect class="cls-1" x="568.4" y="92.9" width="16.95" height="11.26" rx="2" ry="2" transform="translate(675.37 -478.36) rotate(90)" />
	<rect class="cls-1" x="543.72" y="92.9" width="16.95" height="11.26" rx="2" ry="2" transform="translate(650.68 -453.67) rotate(90)" />
	<rect class="cls-1" x="519.03" y="92.9" width="16.95" height="11.26" rx="2" ry="2" transform="translate(626 -428.99) rotate(90)" />
	<rect class="cls-1" x="494.34" y="92.9" width="16.95" height="11.26" rx="2" ry="2" transform="translate(601.31 -404.3) rotate(90)" />
	<rect class="cls-1" x="469.66" y="92.9" width="16.95" height="11.26" rx="2" ry="2" transform="translate(576.63 -379.61) rotate(90)" />
	<rect class="cls-1" x="444.97" y="92.9" width="16.95" height="11.26" rx="2" ry="2" transform="translate(551.94 -354.92) rotate(90)" />
	<rect class="cls-1" x="420.28" y="92.9" width="16.95" height="11.26" rx="2" ry="2" transform="translate(527.26 -330.24) rotate(90)" />
	<rect class="cls-1" x="395.59" y="92.9" width="16.95" height="11.26" rx="2" ry="2" transform="translate(502.57 -305.55) rotate(90)" />
	<rect class="cls-1" x="370.91" y="92.9" width="16.95" height="11.26" rx="2" ry="2" transform="translate(477.88 -280.86) rotate(90)" />
	<rect class="cls-1" x="346.22" y="92.9" width="16.95" height="11.26" rx="2" ry="2" transform="translate(453.2 -256.18) rotate(90)" />
	<rect class="cls-1" x="321.53" y="92.9" width="16.95" height="11.26" rx="2" ry="2" transform="translate(428.51 -231.49) rotate(90)" />
	<rect class="cls-1" x="568.4" y="110.77" width="16.95" height="11.26" rx="2" ry="2" transform="translate(693.24 -460.49) rotate(90)" />
	<rect class="cls-1" x="543.72" y="110.77" width="16.95" height="11.26" rx="2" ry="2" transform="translate(668.56 -435.8) rotate(90)" />
	<rect class="cls-1" x="519.03" y="110.77" width="16.95" height="11.26" rx="2" ry="2" transform="translate(643.87 -411.11) rotate(90)" />
	<rect class="cls-1" x="494.34" y="110.77" width="16.95" height="11.26" rx="2" ry="2" transform="translate(619.19 -386.43) rotate(90)" />
	<rect class="cls-1" x="469.66" y="110.77" width="16.95" height="11.26" rx="2" ry="2" transform="translate(594.5 -361.74) rotate(90)" />
	<rect class="cls-1" x="444.97" y="110.77" width="16.95" height="11.26" rx="2" ry="2" transform="translate(569.82 -337.05) rotate(90)" />
	<rect class="cls-1" x="420.28" y="110.77" width="16.95" height="11.26" rx="2" ry="2" transform="translate(545.13 -312.36) rotate(90)" />
	<rect class="cls-1" x="395.59" y="110.77" width="16.95" height="11.26" rx="2" ry="2" transform="translate(520.44 -287.68) rotate(90)" />
	<rect class="cls-1" x="370.91" y="110.77" width="16.95" height="11.26" rx="2" ry="2" transform="translate(495.76 -262.99) rotate(90)" />
	<rect class="cls-1" x="346.22" y="110.77" width="16.95" height="11.26" rx="2" ry="2" transform="translate(471.07 -238.3) rotate(90)" />
	<rect class="cls-1" x="321.53" y="110.77" width="16.95" height="11.26" rx="2" ry="2" transform="translate(446.39 -213.62) rotate(90)" />
	<rect class="cls-1" x="568.4" y="128.64" width="16.95" height="11.26" rx="2" ry="2" transform="translate(711.12 -442.62) rotate(90)" />
	<rect class="cls-1" x="543.72" y="128.64" width="16.95" height="11.26" rx="2" ry="2" transform="translate(686.43 -417.93) rotate(90)" />
	<rect class="cls-1" x="519.03" y="128.64" width="16.95" height="11.26" rx="2" ry="2" transform="translate(661.75 -393.24) rotate(90)" />
	<rect class="cls-1" x="494.34" y="128.64" width="16.95" height="11.26" rx="2" ry="2" transform="translate(637.06 -368.55) rotate(90)" />
	<rect class="cls-1" x="469.66" y="128.64" width="16.95" height="11.26" rx="2" ry="2" transform="translate(612.37 -343.87) rotate(90)" />
	<rect class="cls-1" x="444.97" y="128.64" width="16.95" height="11.26" rx="2" ry="2" transform="translate(587.69 -319.18) rotate(90)" />
	<rect class="cls-1" x="420.28" y="128.64" width="16.95" height="11.26" rx="2" ry="2" transform="translate(563 -294.49) rotate(90)" />
	<rect class="cls-1" x="395.59" y="128.64" width="16.95" height="11.26" rx="2" ry="2" transform="translate(538.32 -269.81) rotate(90)" />
	<rect class="cls-1" x="370.91" y="128.64" width="16.95" height="11.26" rx="2" ry="2" transform="translate(513.63 -245.12) rotate(90)" />
	<rect class="cls-1" x="346.22" y="128.64" width="16.95" height="11.26" rx="2" ry="2" transform="translate(488.95 -220.43) rotate(90)" />
	<rect class="cls-1" x="321.53" y="128.64" width="16.95" height="11.26" rx="2" ry="2" transform="translate(464.26 -195.74) rotate(90)" />
	<rect class="cls-1" x="568.4" y="146.52" width="16.95" height="11.26" rx="2" ry="2" transform="translate(728.99 -424.74) rotate(90)" />
	<rect class="cls-1" x="543.72" y="146.52" width="16.95" height="11.26" rx="2" ry="2" transform="translate(704.3 -400.06) rotate(90)" />
	<rect class="cls-1" x="519.03" y="146.52" width="16.95" height="11.26" rx="2" ry="2" transform="translate(679.62 -375.37) rotate(90)" />
	<rect class="cls-1" x="494.34" y="146.52" width="16.95" height="11.26" rx="2" ry="2" transform="translate(654.93 -350.68) rotate(90)" />
	<rect class="cls-1" x="469.66" y="146.52" width="16.95" height="11.26" rx="2" ry="2" transform="translate(630.25 -325.99) rotate(90)" />
	<rect class="cls-1" x="444.97" y="146.52" width="16.95" height="11.26" rx="2" ry="2" transform="translate(605.56 -301.31) rotate(90)" />
	<rect class="cls-1" x="420.28" y="146.52" width="16.95" height="11.26" rx="2" ry="2" transform="translate(580.88 -276.62) rotate(90)" />
	<rect class="cls-1" x="395.59" y="146.52" width="16.95" height="11.26" rx="2" ry="2" transform="translate(556.19 -251.93) rotate(90)" />
	<rect class="cls-1" x="370.91" y="146.52" width="16.95" height="11.26" rx="2" ry="2" transform="translate(531.5 -227.25) rotate(90)" />
	<rect class="cls-1" x="346.22" y="146.52" width="16.95" height="11.26" rx="2" ry="2" transform="translate(506.82 -202.56) rotate(90)" />
	<rect class="cls-1" x="321.53" y="146.52" width="16.95" height="11.26" rx="2" ry="2" transform="translate(482.13 -177.87) rotate(90)" />
	<rect class="cls-1" x="568.4" y="164.39" width="16.95" height="11.26" rx="2" ry="2" transform="translate(746.86 -406.87) rotate(90)" />
	<rect class="cls-1" x="543.72" y="164.39" width="16.95" height="11.26" rx="2" ry="2" transform="translate(722.18 -382.18) rotate(90)" />
	<rect class="cls-1" x="519.03" y="164.39" width="16.95" height="11.26" rx="2" ry="2" transform="translate(697.49 -357.5) rotate(90)" />
	<rect class="cls-1" x="494.34" y="164.39" width="16.95" height="11.26" rx="2" ry="2" transform="translate(672.81 -332.81) rotate(90)" />
	<rect class="cls-1" x="469.66" y="164.39" width="16.95" height="11.26" rx="2" ry="2" transform="translate(648.12 -308.12) rotate(90)" />
	<rect class="cls-1" x="444.97" y="164.39" width="16.95" height="11.26" rx="2" ry="2" transform="translate(623.43 -283.44) rotate(90)" />
	<rect class="cls-1" x="420.28" y="164.39" width="16.95" height="11.26" rx="2" ry="2" transform="translate(598.75 -258.75) rotate(90)" />
	<rect class="cls-1" x="395.59" y="164.39" width="16.95" height="11.26" rx="2" ry="2" transform="translate(574.06 -234.06) rotate(90)" />
	<rect class="cls-1" x="370.91" y="164.39" width="16.95" height="11.26" rx="2" ry="2" transform="translate(549.38 -209.37) rotate(90)" />
	<rect class="cls-1" x="346.22" y="164.39" width="16.95" height="11.26" rx="2" ry="2" transform="translate(524.69 -184.69) rotate(90)" />
	<rect class="cls-1" x="321.53" y="164.39" width="16.95" height="11.26" rx="2" ry="2" transform="translate(500.01 -160) rotate(90)" />
	<rect class="cls-1" x="568.4" y="182.26" width="16.95" height="11.26" rx="2" ry="2" transform="translate(764.74 -389) rotate(90)" />
	<rect class="cls-1" x="543.72" y="182.26" width="16.95" height="11.26" rx="2" ry="2" transform="translate(740.05 -364.31) rotate(90)" />
	<rect class="cls-1" x="519.03" y="182.26" width="16.95" height="11.26" rx="2" ry="2" transform="translate(715.36 -339.63) rotate(90)" />
	<rect class="cls-1" x="494.34" y="182.26" width="16.95" height="11.26" rx="2" ry="2" transform="translate(690.68 -314.94) rotate(90)" />
	<rect class="cls-1" x="469.66" y="182.26" width="16.95" height="11.26" rx="2" ry="2" transform="translate(665.99 -290.25) rotate(90)" />
	<rect class="cls-1" x="444.97" y="182.26" width="16.95" height="11.26" rx="2" ry="2" transform="translate(641.31 -265.56) rotate(90)" />
	<rect class="cls-1" x="420.28" y="182.26" width="16.95" height="11.26" rx="2" ry="2" transform="translate(616.62 -240.88) rotate(90)" />
	<rect class="cls-1" x="395.59" y="182.26" width="16.95" height="11.26" rx="2" ry="2" transform="translate(591.94 -216.19) rotate(90)" />
	<rect class="cls-1" x="370.91" y="182.26" width="16.95" height="11.26" rx="2" ry="2" transform="translate(567.25 -191.5) rotate(90)" />
	<rect class="cls-1" x="346.22" y="182.26" width="16.95" height="11.26" rx="2" ry="2" transform="translate(542.56 -166.82) rotate(90)" />
	<rect class="cls-1" x="321.53" y="182.26" width="16.95" height="11.26" rx="2" ry="2" transform="translate(517.88 -142.13) rotate(90)" />
	<rect class="cls-1" x="568.4" y="200.13" width="16.95" height="11.26" rx="2" ry="2" transform="translate(782.61 -371.13) rotate(90)" />
	<rect class="cls-1" x="543.72" y="200.13" width="16.95" height="11.26" rx="2" ry="2" transform="translate(757.92 -346.44) rotate(90)" />
	<rect class="cls-1" x="519.03" y="200.13" width="16.95" height="11.26" rx="2" ry="2" transform="translate(733.24 -321.75) rotate(90)" />
	<rect class="cls-1" x="494.34" y="200.13" width="16.95" height="11.26" rx="2" ry="2" transform="translate(708.55 -297.07) rotate(90)" />
	<rect class="cls-1" x="469.66" y="200.13" width="16.95" height="11.26" rx="2" ry="2" transform="translate(683.87 -272.38) rotate(90)" />
	<rect class="cls-1" x="444.97" y="200.13" width="16.95" height="11.26" rx="2" ry="2" transform="translate(659.18 -247.69) rotate(90)" />
	<rect class="cls-1" x="420.28" y="200.13" width="16.95" height="11.26" rx="2" ry="2" transform="translate(634.49 -223) rotate(90)" />
	<rect class="cls-1" x="395.59" y="200.13" width="16.95" height="11.26" rx="2" ry="2" transform="translate(609.81 -198.32) rotate(90)" />
	<rect class="cls-1" x="370.91" y="200.13" width="16.95" height="11.26" rx="2" ry="2" transform="translate(585.12 -173.63) rotate(90)" />
	<rect class="cls-1" x="346.22" y="200.13" width="16.95" height="11.26" rx="2" ry="2" transform="translate(560.44 -148.94) rotate(90)" />
	<rect class="cls-1" x="321.53" y="200.13" width="16.95" height="11.26" rx="2" ry="2" transform="translate(535.75 -124.26) rotate(90)" />
	<rect class="cls-1" x="568.4" y="218.01" width="16.95" height="11.26" rx="2" ry="2" transform="translate(800.48 -353.26) rotate(90)" />
	<rect class="cls-1" x="543.72" y="218.01" width="16.95" height="11.26" rx="2" ry="2" transform="translate(775.8 -328.57) rotate(90)" />
	<rect class="cls-1" x="519.03" y="218.01" width="16.95" height="11.26" rx="2" ry="2" transform="translate(751.11 -303.88) rotate(90)" />
	<rect class="cls-1" x="494.34" y="218.01" width="16.95" height="11.26" rx="2" ry="2" transform="translate(726.42 -279.19) rotate(90)" />
	<rect class="cls-1" x="469.66" y="218.01" width="16.95" height="11.26" rx="2" ry="2" transform="translate(701.74 -254.51) rotate(90)" />
	<rect class="cls-1" x="444.97" y="218.01" width="16.95" height="11.26" rx="2" ry="2" transform="translate(677.05 -229.82) rotate(90)" />
	<rect class="cls-1" x="420.28" y="218.01" width="16.95" height="11.26" rx="2" ry="2" transform="translate(652.37 -205.13) rotate(90)" />
	<rect class="cls-1" x="395.59" y="218.01" width="16.95" height="11.26" rx="2" ry="2" transform="translate(627.68 -180.45) rotate(90)" />
	<rect class="cls-1" x="370.91" y="218.01" width="16.95" height="11.26" rx="2" ry="2" transform="translate(603 -155.76) rotate(90)" />
	<rect class="cls-1" x="346.22" y="218.01" width="16.95" height="11.26" rx="2" ry="2" transform="translate(578.31 -131.07) rotate(90)" />
	<rect class="cls-1" x="321.53" y="218.01" width="16.95" height="11.26" rx="2" ry="2" transform="translate(553.62 -106.38) rotate(90)" />
	<rect class="cls-1" x="568.4" y="235.88" width="16.95" height="11.26" rx="2" ry="2" transform="translate(818.36 -335.38) rotate(90)" />
	<rect class="cls-1" x="543.72" y="235.88" width="16.95" height="11.26" rx="2" ry="2" transform="translate(793.67 -310.7) rotate(90)" />
	<rect class="cls-1" x="519.03" y="235.88" width="16.95" height="11.26" rx="2" ry="2" transform="translate(768.98 -286.01) rotate(90)" />
	<rect class="cls-1" x="494.34" y="235.88" width="16.95" height="11.26" rx="2" ry="2" transform="translate(744.3 -261.32) rotate(90)" />
	<rect class="cls-1" x="469.66" y="235.88" width="16.95" height="11.26" rx="2" ry="2" transform="translate(719.61 -236.63) rotate(90)" />
	<rect class="cls-1" x="444.97" y="235.88" width="16.95" height="11.26" rx="2" ry="2" transform="translate(694.93 -211.95) rotate(90)" />
	<rect class="cls-1" x="420.28" y="235.88" width="16.95" height="11.26" rx="2" ry="2" transform="translate(670.24 -187.26) rotate(90)" />
	<rect class="cls-1" x="395.59" y="235.88" width="16.95" height="11.26" rx="2" ry="2" transform="translate(645.56 -162.57) rotate(90)" />
	<rect class="cls-1" x="370.91" y="235.88" width="16.95" height="11.26" rx="2" ry="2" transform="translate(620.87 -137.89) rotate(90)" />
	<rect class="cls-1" x="346.22" y="235.88" width="16.95" height="11.26" rx="2" ry="2" transform="translate(596.18 -113.2) rotate(90)" />
	<rect class="cls-1" x="321.53" y="235.88" width="16.95" height="11.26" rx="2" ry="2" transform="translate(571.5 -88.51) rotate(90)" />
	<rect class="cls-1" x="568.4" y="253.75" width="16.95" height="11.26" rx="2" ry="2" transform="translate(836.23 -317.51) rotate(90)" />
	<rect class="cls-1" x="543.72" y="253.75" width="16.95" height="11.26" rx="2" ry="2" transform="translate(811.54 -292.82) rotate(90)" />
	<rect class="cls-1" x="519.03" y="253.75" width="16.95" height="11.26" rx="2" ry="2" transform="translate(786.86 -268.14) rotate(90)" />
	<rect class="cls-1" x="494.34" y="253.75" width="16.95" height="11.26" rx="2" ry="2" transform="translate(762.17 -243.45) rotate(90)" />
	<rect class="cls-1" x="469.66" y="253.75" width="16.95" height="11.26" rx="2" ry="2" transform="translate(737.49 -218.76) rotate(90)" />
	<rect class="cls-1" x="444.97" y="253.75" width="16.95" height="11.26" rx="2" ry="2" transform="translate(712.8 -194.08) rotate(90)" />
	<rect class="cls-1" x="420.28" y="253.75" width="16.95" height="11.26" rx="2" ry="2" transform="translate(688.11 -169.39) rotate(90)" />
	<rect class="cls-1" x="395.59" y="253.75" width="16.95" height="11.26" rx="2" ry="2" transform="translate(663.43 -144.7) rotate(90)" />
	<rect class="cls-1" x="370.91" y="253.75" width="16.95" height="11.26" rx="2" ry="2" transform="translate(638.74 -120.01) rotate(90)" />
	<rect class="cls-1" x="346.22" y="253.75" width="16.95" height="11.26" rx="2" ry="2" transform="translate(614.06 -95.33) rotate(90)" />
	<rect class="cls-1" x="321.53" y="253.75" width="16.95" height="11.26" rx="2" ry="2" transform="translate(589.37 -70.64) rotate(90)" />
	<rect class="cls-1" x="568.4" y="271.63" width="16.95" height="11.26" rx="2" ry="2" transform="translate(854.1 -299.64) rotate(90)" />
	<rect class="cls-1" x="543.72" y="271.63" width="16.95" height="11.26" rx="2" ry="2" transform="translate(829.42 -274.95) rotate(90)" />
	<rect class="cls-1" x="519.03" y="271.63" width="16.95" height="11.26" rx="2" ry="2" transform="translate(804.73 -250.27) rotate(90)" />
	<rect class="cls-1" x="494.34" y="271.63" width="16.95" height="11.26" rx="2" ry="2" transform="translate(780.04 -225.58) rotate(90)" />
	<rect class="cls-1" x="469.66" y="271.63" width="16.95" height="11.26" rx="2" ry="2" transform="translate(755.36 -200.89) rotate(90)" />
	<rect class="cls-1" x="669.26" y="271.63" width="16.95" height="11.26" rx="2" ry="2" transform="translate(954.96 -400.5) rotate(90)" />
	<rect class="cls-1" x="644.58" y="271.63" width="16.95" height="11.26" rx="2" ry="2" transform="translate(930.27 -375.81) rotate(90)" />
	<rect class="cls-1" x="693.96" y="271.63" width="16.95" height="11.26" rx="2" ry="2" transform="translate(979.65 -425.19) rotate(90)" />
	<rect class="cls-1" x="619.89" y="271.63" width="16.95" height="11.26" rx="2" ry="2" transform="translate(905.58 -351.13) rotate(90)" />
	<rect class="cls-1" x="595.2" y="271.63" width="16.95" height="11.26" rx="2" ry="2" transform="translate(880.9 -326.44) rotate(90)" />
	<rect class="cls-1" x="444.97" y="271.63" width="16.95" height="11.26" rx="2" ry="2" transform="translate(730.67 -176.2) rotate(90)" />
	<rect class="cls-1" x="420.28" y="271.63" width="16.95" height="11.26" rx="2" ry="2" transform="translate(705.99 -151.52) rotate(90)" />
	<rect class="cls-1" x="395.59" y="271.63" width="16.95" height="11.26" rx="2" ry="2" transform="translate(681.3 -126.83) rotate(90)" />
	<rect class="cls-1" x="370.91" y="271.63" width="16.95" height="11.26" rx="2" ry="2" transform="translate(656.62 -102.14) rotate(90)" />
	<rect class="cls-1" x="346.22" y="271.63" width="16.95" height="11.26" rx="2" ry="2" transform="translate(631.93 -77.46) rotate(90)" />
	<rect class="cls-1" x="321.53" y="271.63" width="16.95" height="11.26" rx="2" ry="2" transform="translate(607.24 -52.77) rotate(90)" />
	<rect class="cls-1" x="321.53" y="289.5" width="16.95" height="11.26" rx="2" ry="2" transform="translate(625.12 -34.9) rotate(90)" />
	<rect class="cls-1" x="321.53" y="307.37" width="16.95" height="11.26" rx="2" ry="2" transform="translate(642.99 -17.02) rotate(90)" />
	<rect class="cls-1" x="568.4" y="325.25" width="16.95" height="11.26" rx="2" ry="2" transform="translate(907.72 -246.02) rotate(90)" />
	<rect class="cls-1" x="543.72" y="325.25" width="16.95" height="11.26" rx="2" ry="2" transform="translate(883.03 -221.34) rotate(90)" />
	<rect class="cls-1" x="519.03" y="325.25" width="16.95" height="11.26" rx="2" ry="2" transform="translate(858.35 -196.65) rotate(90)" />
	<rect class="cls-1" x="494.34" y="325.25" width="16.95" height="11.26" rx="2" ry="2" transform="translate(833.66 -171.96) rotate(90)" />
	<rect class="cls-1" x="469.66" y="325.25" width="16.95" height="11.26" rx="2" ry="2" transform="translate(808.98 -147.27) rotate(90)" />
	<rect class="cls-1" x="444.97" y="325.25" width="16.95" height="11.26" rx="2" ry="2" transform="translate(784.29 -122.59) rotate(90)" />
	<rect class="cls-1" x="420.28" y="325.25" width="16.95" height="11.26" rx="2" ry="2" transform="translate(759.61 -97.9) rotate(90)" />
	<rect class="cls-1" x="395.59" y="325.25" width="16.95" height="11.26" rx="2" ry="2" transform="translate(734.92 -73.21) rotate(90)" />
	<rect class="cls-1" x="370.91" y="325.25" width="16.95" height="11.26" rx="2" ry="2" transform="translate(710.23 -48.53) rotate(90)" />
	<rect class="cls-1" x="346.22" y="325.25" width="16.95" height="11.26" rx="2" ry="2" transform="translate(685.55 -23.84) rotate(90)" />
	<rect class="cls-1" x="321.53" y="325.25" width="16.95" height="11.26" rx="2" ry="2" transform="translate(660.86 .85) rotate(90)" />
	<rect class="cls-1" x="568.4" y="343.12" width="16.95" height="11.26" rx="2" ry="2" transform="translate(925.59 -228.15) rotate(90)" />
	<rect class="cls-1" x="543.72" y="343.12" width="16.95" height="11.26" rx="2" ry="2" transform="translate(900.91 -203.46) rotate(90)" />
	<rect class="cls-1" x="519.03" y="343.12" width="16.95" height="11.26" rx="2" ry="2" transform="translate(876.22 -178.78) rotate(90)" />
	<rect class="cls-1" x="494.34" y="343.12" width="16.95" height="11.26" rx="2" ry="2" transform="translate(851.54 -154.09) rotate(90)" />
	<rect class="cls-1" x="469.66" y="343.12" width="16.95" height="11.26" rx="2" ry="2" transform="translate(826.85 -129.4) rotate(90)" />
	<rect class="cls-1" x="444.97" y="343.12" width="16.95" height="11.26" rx="2" ry="2" transform="translate(802.16 -104.72) rotate(90)" />
	<rect class="cls-1" x="420.28" y="343.12" width="16.95" height="11.26" rx="2" ry="2" transform="translate(777.48 -80.03) rotate(90)" />
	<rect class="cls-1" x="395.59" y="343.12" width="16.95" height="11.26" rx="2" ry="2" transform="translate(752.79 -55.34) rotate(90)" />
	<rect class="cls-1" x="370.91" y="343.12" width="16.95" height="11.26" rx="2" ry="2" transform="translate(728.11 -30.65) rotate(90)" />
	<rect class="cls-1" x="346.22" y="343.12" width="16.95" height="11.26" rx="2" ry="2" transform="translate(703.42 -5.97) rotate(90)" />
	<rect class="cls-1" x="321.53" y="343.12" width="16.95" height="11.26" rx="2" ry="2" transform="translate(678.74 18.72) rotate(90)" />
	<rect class="cls-1" x="568.4" y="360.99" width="16.95" height="11.26" rx="2" ry="2" transform="translate(943.47 -210.28) rotate(90)" />
	<rect class="cls-1" x="543.72" y="360.99" width="16.95" height="11.26" rx="2" ry="2" transform="translate(918.78 -185.59) rotate(90)" />
	<rect class="cls-1" x="519.03" y="360.99" width="16.95" height="11.26" rx="2" ry="2" transform="translate(894.1 -160.91) rotate(90)" />
	<rect class="cls-1" x="494.34" y="360.99" width="16.95" height="11.26" rx="2" ry="2" transform="translate(869.41 -136.22) rotate(90)" />
	<rect class="cls-1" x="469.66" y="360.99" width="16.95" height="11.26" rx="2" ry="2" transform="translate(844.72 -111.53) rotate(90)" />
	<rect class="cls-1" x="444.97" y="360.99" width="16.95" height="11.26" rx="2" ry="2" transform="translate(820.04 -86.84) rotate(90)" />
	<rect class="cls-1" x="420.28" y="360.99" width="16.95" height="11.26" rx="2" ry="2" transform="translate(795.35 -62.16) rotate(90)" />
	<rect class="cls-1" x="395.59" y="360.99" width="16.95" height="11.26" rx="2" ry="2" transform="translate(770.67 -37.47) rotate(90)" />
	<rect class="cls-1" x="370.91" y="360.99" width="16.95" height="11.26" rx="2" ry="2" transform="translate(745.98 -12.78) rotate(90)" />
	<rect class="cls-1" x="346.22" y="360.99" width="16.95" height="11.26" rx="2" ry="2" transform="translate(721.3 11.91) rotate(90)" />
	<rect class="cls-1" x="321.53" y="360.99" width="16.95" height="11.26" rx="2" ry="2" transform="translate(696.61 36.59) rotate(90)" />
	<rect class="cls-1" x="568.4" y="378.87" width="16.95" height="11.26" rx="2" ry="2" transform="translate(961.34 -192.41) rotate(90)" />
	<rect class="cls-1" x="543.72" y="378.87" width="16.95" height="11.26" rx="2" ry="2" transform="translate(936.65 -167.72) rotate(90)" />
	<rect class="cls-1" x="519.03" y="378.87" width="16.95" height="11.26" rx="2" ry="2" transform="translate(911.97 -143.03) rotate(90)" />
	<rect class="cls-1" x="494.34" y="378.87" width="16.95" height="11.26" rx="2" ry="2" transform="translate(887.28 -118.35) rotate(90)" />
	<rect class="cls-1" x="469.66" y="378.87" width="16.95" height="11.26" rx="2" ry="2" transform="translate(862.6 -93.66) rotate(90)" />
	<rect class="cls-1" x="444.97" y="378.87" width="16.95" height="11.26" rx="2" ry="2" transform="translate(837.91 -68.97) rotate(90)" />
	<rect class="cls-1" x="420.28" y="378.87" width="16.95" height="11.26" rx="2" ry="2" transform="translate(813.23 -44.28) rotate(90)" />
	<rect class="cls-1" x="395.59" y="378.87" width="16.95" height="11.26" rx="2" ry="2" transform="translate(788.54 -19.6) rotate(90)" />
	<rect class="cls-1" x="370.91" y="378.87" width="16.95" height="11.26" rx="2" ry="2" transform="translate(763.85 5.09) rotate(90)" />
	<rect class="cls-1" x="346.22" y="378.87" width="16.95" height="11.26" rx="2" ry="2" transform="translate(739.17 29.78) rotate(90)" />
	<rect class="cls-1" x="321.53" y="378.87" width="16.95" height="11.26" rx="2" ry="2" transform="translate(714.48 54.46) rotate(90)" />
	<rect class="cls-1" x="568.4" y="396.74" width="16.95" height="11.26" rx="2" ry="2" transform="translate(979.21 -174.54) rotate(90)" />
	<rect class="cls-1" x="543.72" y="396.74" width="16.95" height="11.26" rx="2" ry="2" transform="translate(954.53 -149.85) rotate(90)" />
	<rect class="cls-1" x="519.03" y="396.74" width="16.95" height="11.26" rx="2" ry="2" transform="translate(929.84 -125.16) rotate(90)" />
	<rect class="cls-1" x="494.34" y="396.74" width="16.95" height="11.26" rx="2" ry="2" transform="translate(905.16 -100.47) rotate(90)" />
	<rect class="cls-1" x="469.66" y="396.74" width="16.95" height="11.26" rx="2" ry="2" transform="translate(880.47 -75.79) rotate(90)" />
	<rect class="cls-1" x="444.97" y="396.74" width="16.95" height="11.26" rx="2" ry="2" transform="translate(855.78 -51.1) rotate(90)" />
	<rect class="cls-1" x="420.28" y="396.74" width="16.95" height="11.26" rx="2" ry="2" transform="translate(831.1 -26.41) rotate(90)" />
	<rect class="cls-1" x="395.59" y="396.74" width="16.95" height="11.26" rx="2" ry="2" transform="translate(806.41 -1.73) rotate(90)" />
	<rect class="cls-1" x="370.91" y="396.74" width="16.95" height="11.26" rx="2" ry="2" transform="translate(781.73 22.96) rotate(90)" />
	<rect class="cls-1" x="346.22" y="396.74" width="16.95" height="11.26" rx="2" ry="2" transform="translate(757.04 47.65) rotate(90)" />
	<rect class="cls-1" x="321.53" y="396.74" width="16.95" height="11.26" rx="2" ry="2" transform="translate(732.36 72.34) rotate(90)" />
	<rect class="cls-1" x="568.4" y="414.61" width="16.95" height="11.26" rx="2" ry="2" transform="translate(997.09 -156.66) rotate(90)" />
	<rect class="cls-1" x="543.72" y="414.61" width="16.95" height="11.26" rx="2" ry="2" transform="translate(972.4 -131.98) rotate(90)" />
	<rect class="cls-1" x="519.03" y="414.61" width="16.95" height="11.26" rx="2" ry="2" transform="translate(947.71 -107.29) rotate(90)" />
	<rect class="cls-1" x="494.34" y="414.61" width="16.95" height="11.26" rx="2" ry="2" transform="translate(923.03 -82.6) rotate(90)" />
	<rect class="cls-1" x="469.66" y="414.61" width="16.95" height="11.26" rx="2" ry="2" transform="translate(898.34 -57.91) rotate(90)" />
	<rect class="cls-1" x="444.97" y="414.61" width="16.95" height="11.26" rx="2" ry="2" transform="translate(873.66 -33.23) rotate(90)" />
	<rect class="cls-1" x="420.28" y="414.61" width="16.95" height="11.26" rx="2" ry="2" transform="translate(848.97 -8.54) rotate(90)" />
	<rect class="cls-1" x="395.59" y="414.61" width="16.95" height="11.26" rx="2" ry="2" transform="translate(824.29 16.15) rotate(90)" />
	<rect class="cls-1" x="370.91" y="414.61" width="16.95" height="11.26" rx="2" ry="2" transform="translate(799.6 40.83) rotate(90)" />
	<rect class="cls-1" x="346.22" y="414.61" width="16.95" height="11.26" rx="2" ry="2" transform="translate(774.91 65.52) rotate(90)" />
	<rect class="cls-1" x="321.53" y="414.61" width="16.95" height="11.26" rx="2" ry="2" transform="translate(750.23 90.21) rotate(90)" />
	<rect class="cls-1" x="568.4" y="432.48" width="16.95" height="11.26" rx="2" ry="2" transform="translate(1014.96 -138.79) rotate(90)" />
	<rect class="cls-1" x="543.72" y="432.48" width="16.95" height="11.26" rx="2" ry="2" transform="translate(990.27 -114.1) rotate(90)" />
	<rect class="cls-1" x="519.03" y="432.48" width="16.95" height="11.26" rx="2" ry="2" transform="translate(965.59 -89.42) rotate(90)" />
	<rect class="cls-1" x="494.34" y="432.48" width="16.95" height="11.26" rx="2" ry="2" transform="translate(940.9 -64.73) rotate(90)" />
	<rect class="cls-1" x="469.66" y="432.48" width="16.95" height="11.26" rx="2" ry="2" transform="translate(916.22 -40.04) rotate(90)" />
	<rect class="cls-1" x="444.97" y="432.48" width="16.95" height="11.26" rx="2" ry="2" transform="translate(891.53 -15.36) rotate(90)" />
	<rect class="cls-1" x="420.28" y="432.48" width="16.95" height="11.26" rx="2" ry="2" transform="translate(866.84 9.33) rotate(90)" />
	<rect class="cls-1" x="395.59" y="432.48" width="16.95" height="11.26" rx="2" ry="2" transform="translate(842.16 34.02) rotate(90)" />
	<rect class="cls-1" x="370.91" y="432.48" width="16.95" height="11.26" rx="2" ry="2" transform="translate(817.47 58.71) rotate(90)" />
	<rect class="cls-1" x="346.22" y="432.48" width="16.95" height="11.26" rx="2" ry="2" transform="translate(792.79 83.39) rotate(90)" />
	<rect class="cls-1" x="321.53" y="432.48" width="16.95" height="11.26" rx="2" ry="2" transform="translate(768.1 108.08) rotate(90)" />
	<rect class="cls-1" x="568.4" y="450.36" width="16.95" height="11.26" rx="2" ry="2" transform="translate(1032.83 -120.92) rotate(90)" />
	<rect class="cls-1" x="543.72" y="450.36" width="16.95" height="11.26" rx="2" ry="2" transform="translate(1008.15 -96.23) rotate(90)" />
	<rect class="cls-1" x="519.03" y="450.36" width="16.95" height="11.26" rx="2" ry="2" transform="translate(983.46 -71.55) rotate(90)" />
	<rect class="cls-1" x="494.34" y="450.36" width="16.95" height="11.26" rx="2" ry="2" transform="translate(958.77 -46.86) rotate(90)" />
	<rect class="cls-1" x="469.66" y="450.36" width="16.95" height="11.26" rx="2" ry="2" transform="translate(934.09 -22.17) rotate(90)" />
	<rect class="cls-1" x="444.97" y="450.36" width="16.95" height="11.26" rx="2" ry="2" transform="translate(909.4 2.52) rotate(90)" />
	<rect class="cls-1" x="420.28" y="450.36" width="16.95" height="11.26" rx="2" ry="2" transform="translate(884.72 27.2) rotate(90)" />
	<rect class="cls-1" x="395.59" y="450.36" width="16.95" height="11.26" rx="2" ry="2" transform="translate(860.03 51.89) rotate(90)" />
	<rect class="cls-1" x="370.91" y="450.36" width="16.95" height="11.26" rx="2" ry="2" transform="translate(835.35 76.58) rotate(90)" />
	<rect class="cls-1" x="346.22" y="450.36" width="16.95" height="11.26" rx="2" ry="2" transform="translate(810.66 101.27) rotate(90)" />
	<rect class="cls-1" x="321.53" y="450.36" width="16.95" height="11.26" rx="2" ry="2" transform="translate(785.97 125.95) rotate(90)" />
	<rect class="cls-1" x="568.4" y="468.23" width="16.95" height="11.26" rx="2" ry="2" transform="translate(1050.7 -103.05) rotate(90)" />
	<rect class="cls-1" x="543.72" y="468.23" width="16.95" height="11.26" rx="2" ry="2" transform="translate(1026.02 -78.36) rotate(90)" />
	<rect class="cls-1" x="519.03" y="468.23" width="16.95" height="11.26" rx="2" ry="2" transform="translate(1001.33 -53.67) rotate(90)" />
	<rect class="cls-1" x="494.34" y="468.23" width="16.95" height="11.26" rx="2" ry="2" transform="translate(976.65 -28.99) rotate(90)" />
	<rect class="cls-1" x="469.66" y="468.23" width="16.95" height="11.26" rx="2" ry="2" transform="translate(951.96 -4.3) rotate(90)" />
	<rect class="cls-1" x="444.97" y="468.23" width="16.95" height="11.26" rx="2" ry="2" transform="translate(927.28 20.39) rotate(90)" />
	<rect class="cls-1" x="420.28" y="468.23" width="16.95" height="11.26" rx="2" ry="2" transform="translate(902.59 45.08) rotate(90)" />
	<rect class="cls-1" x="395.59" y="468.23" width="16.95" height="11.26" rx="2" ry="2" transform="translate(877.9 69.76) rotate(90)" />
	<rect class="cls-1" x="370.91" y="468.23" width="16.95" height="11.26" rx="2" ry="2" transform="translate(853.22 94.45) rotate(90)" />
	<rect class="cls-1" x="346.22" y="468.23" width="16.95" height="11.26" rx="2" ry="2" transform="translate(828.53 119.14) rotate(90)" />
	<rect class="cls-1" x="321.53" y="468.23" width="16.95" height="11.26" rx="2" ry="2" transform="translate(803.85 143.82) rotate(90)" />
	<rect class="cls-1" x="568.4" y="486.1" width="16.95" height="11.26" rx="2" ry="2" transform="translate(1068.58 -85.18) rotate(90)" />
	<rect class="cls-1" x="543.72" y="486.1" width="16.95" height="11.26" rx="2" ry="2" transform="translate(1043.89 -60.49) rotate(90)" />
	<rect class="cls-1" x="519.03" y="486.1" width="16.95" height="11.26" rx="2" ry="2" transform="translate(1019.21 -35.8) rotate(90)" />
	<rect class="cls-1" x="494.34" y="486.1" width="16.95" height="11.26" rx="2" ry="2" transform="translate(994.52 -11.11) rotate(90)" />
	<rect class="cls-1" x="469.66" y="486.1" width="16.95" height="11.26" rx="2" ry="2" transform="translate(969.84 13.57) rotate(90)" />
	<rect class="cls-1" x="444.97" y="486.1" width="16.95" height="11.26" rx="2" ry="2" transform="translate(945.15 38.26) rotate(90)" />
	<rect class="cls-1" x="420.28" y="486.1" width="16.95" height="11.26" rx="2" ry="2" transform="translate(920.46 62.95) rotate(90)" />
	<rect class="cls-1" x="395.59" y="486.1" width="16.95" height="11.26" rx="2" ry="2" transform="translate(895.78 87.63) rotate(90)" />
	<rect class="cls-1" x="370.91" y="486.1" width="16.95" height="11.26" rx="2" ry="2" transform="translate(871.09 112.32) rotate(90)" />
	<rect class="cls-1" x="346.22" y="486.1" width="16.95" height="11.26" rx="2" ry="2" transform="translate(846.41 137.01) rotate(90)" />
	<rect class="cls-1" x="321.53" y="486.1" width="16.95" height="11.26" rx="2" ry="2" transform="translate(821.72 161.7) rotate(90)" />
	<rect class="cls-1" x="568.4" y="503.98" width="16.95" height="11.26" rx="2" ry="2" transform="translate(1086.45 -67.3) rotate(90)" />
	<rect class="cls-1" x="543.72" y="503.98" width="16.95" height="11.26" rx="2" ry="2" transform="translate(1061.77 -42.62) rotate(90)" />
	<rect class="cls-1" x="519.03" y="503.98" width="16.95" height="11.26" rx="2" ry="2" transform="translate(1037.08 -17.93) rotate(90)" />
	<rect class="cls-1" x="494.34" y="503.98" width="16.95" height="11.26" rx="2" ry="2" transform="translate(1012.39 6.76) rotate(90)" />
	<rect class="cls-1" x="469.66" y="503.98" width="16.95" height="11.26" rx="2" ry="2" transform="translate(987.71 31.45) rotate(90)" />
	<rect class="cls-1" x="444.97" y="503.98" width="16.95" height="11.26" rx="2" ry="2" transform="translate(963.02 56.13) rotate(90)" />
	<rect class="cls-1" x="420.28" y="503.98" width="16.95" height="11.26" rx="2" ry="2" transform="translate(938.34 80.82) rotate(90)" />
	<rect class="cls-1" x="395.59" y="503.98" width="16.95" height="11.26" rx="2" ry="2" transform="translate(913.65 105.51) rotate(90)" />
	<rect class="cls-1" x="370.91" y="503.98" width="16.95" height="11.26" rx="2" ry="2" transform="translate(888.97 130.19) rotate(90)" />
	<rect class="cls-1" x="346.22" y="503.98" width="16.95" height="11.26" rx="2" ry="2" transform="translate(864.28 154.88) rotate(90)" />
	<rect class="cls-1" x="321.53" y="503.98" width="16.95" height="11.26" rx="2" ry="2" transform="translate(839.59 179.57) rotate(90)" />
	<rect class="cls-1" x="568.4" y="521.85" width="16.95" height="11.26" rx="2" ry="2" transform="translate(1104.32 -49.43) rotate(90)" />
	<rect class="cls-1" x="543.72" y="521.85" width="16.95" height="11.26" rx="2" ry="2" transform="translate(1079.64 -24.74) rotate(90)" />
	<rect class="cls-1" x="519.03" y="521.85" width="16.95" height="11.26" rx="2" ry="2" transform="translate(1054.95 -.06) rotate(90)" />
	<rect class="cls-1" x="494.34" y="521.85" width="16.95" height="11.26" rx="2" ry="2" transform="translate(1030.27 24.63) rotate(90)" />
	<rect class="cls-1" x="469.66" y="521.85" width="16.95" height="11.26" rx="2" ry="2" transform="translate(1005.58 49.32) rotate(90)" />
	<rect class="cls-1" x="444.97" y="521.85" width="16.95" height="11.26" rx="2" ry="2" transform="translate(980.9 74) rotate(90)" />
	<rect class="cls-1" x="420.28" y="521.85" width="16.95" height="11.26" rx="2" ry="2" transform="translate(956.21 98.69) rotate(90)" />
	<rect class="cls-1" x="395.59" y="521.85" width="16.95" height="11.26" rx="2" ry="2" transform="translate(931.52 123.38) rotate(90)" />
	<rect class="cls-1" x="370.91" y="521.85" width="16.95" height="11.26" rx="2" ry="2" transform="translate(906.84 148.07) rotate(90)" />
	<rect class="cls-1" x="346.22" y="521.85" width="16.95" height="11.26" rx="2" ry="2" transform="translate(882.15 172.75) rotate(90)" />
	<rect class="cls-1" x="321.53" y="521.85" width="16.95" height="11.26" rx="2" ry="2" transform="translate(857.47 197.44) rotate(90)" />
	<rect class="cls-1" x="568.4" y="539.72" width="16.95" height="11.26" rx="2" ry="2" transform="translate(1122.2 -31.56) rotate(90)" />
	<rect class="cls-1" x="543.72" y="539.72" width="16.95" height="11.26" rx="2" ry="2" transform="translate(1097.51 -6.87) rotate(90)" />
	<rect class="cls-1" x="519.03" y="539.72" width="16.95" height="11.26" rx="2" ry="2" transform="translate(1072.83 17.82) rotate(90)" />
	<rect class="cls-1" x="494.34" y="539.72" width="16.95" height="11.26" rx="2" ry="2" transform="translate(1048.14 42.5) rotate(90)" />
	<rect class="cls-1" x="469.66" y="539.72" width="16.95" height="11.26" rx="2" ry="2" transform="translate(1023.45 67.19) rotate(90)" />
	<rect class="cls-1" x="444.97" y="539.72" width="16.95" height="11.26" rx="2" ry="2" transform="translate(998.77 91.88) rotate(90)" />
	<rect class="cls-1" x="420.28" y="539.72" width="16.95" height="11.26" rx="2" ry="2" transform="translate(974.08 116.56) rotate(90)" />
	<rect class="cls-1" x="395.59" y="539.72" width="16.95" height="11.26" rx="2" ry="2" transform="translate(949.4 141.25) rotate(90)" />
	<rect class="cls-1" x="370.91" y="539.72" width="16.95" height="11.26" rx="2" ry="2" transform="translate(924.71 165.94) rotate(90)" />
	<rect class="cls-1" x="346.22" y="539.72" width="16.95" height="11.26" rx="2" ry="2" transform="translate(900.03 190.63) rotate(90)" />
	<rect class="cls-1" x="321.53" y="539.72" width="16.95" height="11.26" rx="2" ry="2" transform="translate(875.34 215.31) rotate(90)" />
	<rect class="cls-1" x="568.4" y="557.6" width="16.95" height="11.26" rx="2" ry="2" transform="translate(1140.07 -13.69) rotate(90)" />
	<rect class="cls-1" x="543.72" y="557.6" width="16.95" height="11.26" rx="2" ry="2" transform="translate(1115.38 11) rotate(90)" />
	<rect class="cls-1" x="519.03" y="557.6" width="16.95" height="11.26" rx="2" ry="2" transform="translate(1090.7 35.69) rotate(90)" />
	<rect class="cls-1" x="494.34" y="557.6" width="16.95" height="11.26" rx="2" ry="2" transform="translate(1066.01 60.37) rotate(90)" />
	<rect class="cls-1" x="469.66" y="557.6" width="16.95" height="11.26" rx="2" ry="2" transform="translate(1041.33 85.06) rotate(90)" />
	<rect class="cls-1" x="444.97" y="557.6" width="16.95" height="11.26" rx="2" ry="2" transform="translate(1016.64 109.75) rotate(90)" />
	<rect class="cls-1" x="420.28" y="557.6" width="16.95" height="11.26" rx="2" ry="2" transform="translate(991.96 134.44) rotate(90)" />
	<rect class="cls-1" x="395.59" y="557.6" width="16.95" height="11.26" rx="2" ry="2" transform="translate(967.27 159.12) rotate(90)" />
	<rect class="cls-1" x="370.91" y="557.6" width="16.95" height="11.26" rx="2" ry="2" transform="translate(942.58 183.81) rotate(90)" />
	<rect class="cls-1" x="346.22" y="557.6" width="16.95" height="11.26" rx="2" ry="2" transform="translate(917.9 208.5) rotate(90)" />
	<rect class="cls-1" x="321.53" y="557.6" width="16.95" height="11.26" rx="2" ry="2" transform="translate(893.21 233.18) rotate(90)" />
	<rect class="cls-1" x="568.4" y="575.47" width="16.95" height="11.26" rx="2" ry="2" transform="translate(1157.94 4.18) rotate(90)" />
	<rect class="cls-1" x="543.72" y="575.47" width="16.95" height="11.26" rx="2" ry="2" transform="translate(1133.26 28.87) rotate(90)" />
	<rect class="cls-1" x="519.03" y="575.47" width="16.95" height="11.26" rx="2" ry="2" transform="translate(1108.57 53.56) rotate(90)" />
	<rect class="cls-1" x="494.34" y="575.47" width="16.95" height="11.26" rx="2" ry="2" transform="translate(1083.89 78.25) rotate(90)" />
	<rect class="cls-1" x="469.66" y="575.47" width="16.95" height="11.26" rx="2" ry="2" transform="translate(1059.2 102.93) rotate(90)" />
	<rect class="cls-1" x="444.97" y="575.47" width="16.95" height="11.26" rx="2" ry="2" transform="translate(1034.51 127.62) rotate(90)" />
	<rect class="cls-1" x="420.28" y="575.47" width="16.95" height="11.26" rx="2" ry="2" transform="translate(1009.83 152.31) rotate(90)" />
	<rect class="cls-1" x="395.59" y="575.47" width="16.95" height="11.26" rx="2" ry="2" transform="translate(985.14 176.99) rotate(90)" />
	<rect class="cls-1" x="370.91" y="575.47" width="16.95" height="11.26" rx="2" ry="2" transform="translate(960.46 201.68) rotate(90)" />
	<rect class="cls-1" x="346.22" y="575.47" width="16.95" height="11.26" rx="2" ry="2" transform="translate(935.77 226.37) rotate(90)" />
	<rect class="cls-1" x="321.53" y="575.47" width="16.95" height="11.26" rx="2" ry="2" transform="translate(911.09 251.06) rotate(90)" />
	<rect class="cls-1" x="568.4" y="593.34" width="16.95" height="11.26" rx="2" ry="2" transform="translate(1175.82 22.06) rotate(90)" />
	<rect class="cls-1" x="543.72" y="593.34" width="16.95" height="11.26" rx="2" ry="2" transform="translate(1151.13 46.74) rotate(90)" />
	<rect class="cls-1" x="519.03" y="593.34" width="16.95" height="11.26" rx="2" ry="2" transform="translate(1126.44 71.43) rotate(90)" />
	<rect class="cls-1" x="494.34" y="593.34" width="16.95" height="11.26" rx="2" ry="2" transform="translate(1101.76 96.12) rotate(90)" />
	<rect class="cls-1" x="469.66" y="593.34" width="16.95" height="11.26" rx="2" ry="2" transform="translate(1077.07 120.81) rotate(90)" />
	<rect class="cls-1" x="444.97" y="593.34" width="16.95" height="11.26" rx="2" ry="2" transform="translate(1052.39 145.49) rotate(90)" />
	<rect class="cls-1" x="420.28" y="593.34" width="16.95" height="11.26" rx="2" ry="2" transform="translate(1027.7 170.18) rotate(90)" />
	<rect class="cls-1" x="395.59" y="593.34" width="16.95" height="11.26" rx="2" ry="2" transform="translate(1003.02 194.87) rotate(90)" />
	<rect class="cls-1" x="370.91" y="593.34" width="16.95" height="11.26" rx="2" ry="2" transform="translate(978.33 219.55) rotate(90)" />
	<rect class="cls-1" x="346.22" y="593.34" width="16.95" height="11.26" rx="2" ry="2" transform="translate(953.64 244.24) rotate(90)" />
	<rect class="cls-1" x="321.53" y="593.34" width="16.95" height="11.26" rx="2" ry="2" transform="translate(928.96 268.93) rotate(90)" />
	<rect class="cls-1" x="568.4" y="611.22" width="16.95" height="11.26" rx="2" ry="2" transform="translate(1193.69 39.93) rotate(90)" />
	<rect class="cls-1" x="543.72" y="611.22" width="16.95" height="11.26" rx="2" ry="2" transform="translate(1169 64.62) rotate(90)" />
	<rect class="cls-1" x="519.03" y="611.22" width="16.95" height="11.26" rx="2" ry="2" transform="translate(1144.32 89.3) rotate(90)" />
	<rect class="cls-1" x="494.34" y="611.22" width="16.95" height="11.26" rx="2" ry="2" transform="translate(1119.63 113.99) rotate(90)" />
	<rect class="cls-1" x="469.66" y="611.22" width="16.95" height="11.26" rx="2" ry="2" transform="translate(1094.95 138.68) rotate(90)" />
	<rect class="cls-1" x="444.97" y="611.22" width="16.95" height="11.26" rx="2" ry="2" transform="translate(1070.26 163.36) rotate(90)" />
	<rect class="cls-1" x="420.28" y="611.22" width="16.95" height="11.26" rx="2" ry="2" transform="translate(1045.58 188.05) rotate(90)" />
	<rect class="cls-1" x="395.59" y="611.22" width="16.95" height="11.26" rx="2" ry="2" transform="translate(1020.89 212.74) rotate(90)" />
	<rect class="cls-1" x="370.91" y="611.22" width="16.95" height="11.26" rx="2" ry="2" transform="translate(996.2 237.43) rotate(90)" />
	<rect class="cls-1" x="346.22" y="611.22" width="16.95" height="11.26" rx="2" ry="2" transform="translate(971.52 262.11) rotate(90)" />
	<rect class="cls-1" x="321.53" y="611.22" width="16.95" height="11.26" rx="2" ry="2" transform="translate(946.83 286.8) rotate(90)" />
	<rect class="cls-1" x="568.4" y="629.09" width="16.95" height="11.26" rx="2" ry="2" transform="translate(1211.56 57.8) rotate(90)" />
	<rect class="cls-1" x="543.72" y="629.09" width="16.95" height="11.26" rx="2" ry="2" transform="translate(1186.88 82.49) rotate(90)" />
	<rect class="cls-1" x="519.03" y="629.09" width="16.95" height="11.26" rx="2" ry="2" transform="translate(1162.19 107.18) rotate(90)" />
	<rect class="cls-1" x="494.34" y="629.09" width="16.95" height="11.26" rx="2" ry="2" transform="translate(1137.51 131.86) rotate(90)" />
	<rect class="cls-1" x="469.66" y="629.09" width="16.95" height="11.26" rx="2" ry="2" transform="translate(1112.82 156.55) rotate(90)" />
	<rect class="cls-1" x="444.97" y="629.09" width="16.95" height="11.26" rx="2" ry="2" transform="translate(1088.13 181.24) rotate(90)" />
	<rect class="cls-1" x="420.28" y="629.09" width="16.95" height="11.26" rx="2" ry="2" transform="translate(1063.45 205.92) rotate(90)" />
	<rect class="cls-1" x="395.59" y="629.09" width="16.95" height="11.26" rx="2" ry="2" transform="translate(1038.76 230.61) rotate(90)" />
	<rect class="cls-1" x="370.91" y="629.09" width="16.95" height="11.26" rx="2" ry="2" transform="translate(1014.08 255.3) rotate(90)" />
	<rect class="cls-1" x="346.22" y="629.09" width="16.95" height="11.26" rx="2" ry="2" transform="translate(989.39 279.99) rotate(90)" />
	<rect class="cls-1" x="321.53" y="629.09" width="16.95" height="11.26" rx="2" ry="2" transform="translate(964.71 304.67) rotate(90)" />
	<rect class="cls-1" x="568.4" y="646.96" width="16.95" height="11.26" rx="2" ry="2" transform="translate(1229.44 75.67) rotate(90)" />
	<rect class="cls-1" x="543.72" y="646.96" width="16.95" height="11.26" rx="2" ry="2" transform="translate(1204.75 100.36) rotate(90)" />
	<rect class="cls-1" x="519.03" y="646.96" width="16.95" height="11.26" rx="2" ry="2" transform="translate(1180.06 125.05) rotate(90)" />
	<rect class="cls-1" x="494.34" y="646.96" width="16.95" height="11.26" rx="2" ry="2" transform="translate(1155.38 149.73) rotate(90)" />
	<rect class="cls-1" x="469.66" y="646.96" width="16.95" height="11.26" rx="2" ry="2" transform="translate(1130.69 174.42) rotate(90)" />
	<rect class="cls-1" x="444.97" y="646.96" width="16.95" height="11.26" rx="2" ry="2" transform="translate(1106.01 199.11) rotate(90)" />
	<rect class="cls-1" x="420.28" y="646.96" width="16.95" height="11.26" rx="2" ry="2" transform="translate(1081.32 223.8) rotate(90)" />
	<rect class="cls-1" x="395.59" y="646.96" width="16.95" height="11.26" rx="2" ry="2" transform="translate(1056.64 248.48) rotate(90)" />
	<rect class="cls-1" x="370.91" y="646.96" width="16.95" height="11.26" rx="2" ry="2" transform="translate(1031.95 273.17) rotate(90)" />
	<rect class="cls-1" x="346.22" y="646.96" width="16.95" height="11.26" rx="2" ry="2" transform="translate(1007.26 297.86) rotate(90)" />
	<rect class="cls-1" x="321.53" y="646.96" width="16.95" height="11.26" rx="2" ry="2" transform="translate(982.58 322.54) rotate(90)" />
	<rect class="cls-1" x="568.4" y="664.83" width="16.95" height="11.26" rx="2" ry="2" transform="translate(1247.31 93.54) rotate(90)" />
	<rect class="cls-1" x="543.72" y="664.83" width="16.95" height="11.26" rx="2" ry="2" transform="translate(1222.62 118.23) rotate(90)" />
	<rect class="cls-1" x="519.03" y="664.83" width="16.95" height="11.26" rx="2" ry="2" transform="translate(1197.94 142.92) rotate(90)" />
	<rect class="cls-1" x="494.34" y="664.83" width="16.95" height="11.26" rx="2" ry="2" transform="translate(1173.25 167.61) rotate(90)" />
	<rect class="cls-1" x="469.66" y="664.83" width="16.95" height="11.26" rx="2" ry="2" transform="translate(1148.57 192.29) rotate(90)" />
	<rect class="cls-1" x="444.97" y="664.83" width="16.95" height="11.26" rx="2" ry="2" transform="translate(1123.88 216.98) rotate(90)" />
	<rect class="cls-1" x="420.28" y="664.83" width="16.95" height="11.26" rx="2" ry="2" transform="translate(1099.19 241.67) rotate(90)" />
	<rect class="cls-1" x="395.59" y="664.83" width="16.95" height="11.26" rx="2" ry="2" transform="translate(1074.51 266.35) rotate(90)" />
	<rect class="cls-1" x="370.91" y="664.83" width="16.95" height="11.26" rx="2" ry="2" transform="translate(1049.82 291.04) rotate(90)" />
	<rect class="cls-1" x="346.22" y="664.83" width="16.95" height="11.26" rx="2" ry="2" transform="translate(1025.14 315.73) rotate(90)" />
	<rect class="cls-1" x="321.53" y="664.83" width="16.95" height="11.26" rx="2" ry="2" transform="translate(1000.45 340.42) rotate(90)" />
	<rect class="cls-1" x="568.4" y="682.71" width="16.95" height="11.26" rx="2" ry="2" transform="translate(1265.18 111.42) rotate(90)" />
	<rect class="cls-1" x="543.72" y="682.71" width="16.95" height="11.26" rx="2" ry="2" transform="translate(1240.5 136.1) rotate(90)" />
	<rect class="cls-1" x="519.03" y="682.71" width="16.95" height="11.26" rx="2" ry="2" transform="translate(1215.81 160.79) rotate(90)" />
	<rect class="cls-1" x="494.34" y="682.71" width="16.95" height="11.26" rx="2" ry="2" transform="translate(1191.12 185.48) rotate(90)" />
	<rect class="cls-1" x="469.66" y="682.71" width="16.95" height="11.26" rx="2" ry="2" transform="translate(1166.44 210.17) rotate(90)" />
	<rect class="cls-1" x="444.97" y="682.71" width="16.95" height="11.26" rx="2" ry="2" transform="translate(1141.75 234.85) rotate(90)" />
	<rect class="cls-1" x="420.28" y="682.71" width="16.95" height="11.26" rx="2" ry="2" transform="translate(1117.07 259.54) rotate(90)" />
	<rect class="cls-1" x="395.59" y="682.71" width="16.95" height="11.26" rx="2" ry="2" transform="translate(1092.38 284.23) rotate(90)" />
	<rect class="cls-1" x="370.91" y="682.71" width="16.95" height="11.26" rx="2" ry="2" transform="translate(1067.7 308.91) rotate(90)" />
	<rect class="cls-1" x="346.22" y="682.71" width="16.95" height="11.26" rx="2" ry="2" transform="translate(1043.01 333.6) rotate(90)" />
	<rect class="cls-1" x="321.53" y="682.71" width="16.95" height="11.26" rx="2" ry="2" transform="translate(1018.32 358.29) rotate(90)" />
	<rect class="cls-1" x="568.4" y="700.58" width="16.95" height="11.26" rx="2" ry="2" transform="translate(1283.05 129.29) rotate(90)" />
	<rect class="cls-1" x="543.72" y="700.58" width="16.95" height="11.26" rx="2" ry="2" transform="translate(1258.37 153.98) rotate(90)" />
	<rect class="cls-1" x="519.03" y="700.58" width="16.95" height="11.26" rx="2" ry="2" transform="translate(1233.68 178.66) rotate(90)" />
	<rect class="cls-1" x="494.34" y="700.58" width="16.95" height="11.26" rx="2" ry="2" transform="translate(1209 203.35) rotate(90)" />
	<rect class="cls-1" x="469.66" y="700.58" width="16.95" height="11.26" rx="2" ry="2" transform="translate(1184.31 228.04) rotate(90)" />
	<rect class="cls-1" x="444.97" y="700.58" width="16.95" height="11.26" rx="2" ry="2" transform="translate(1159.63 252.72) rotate(90)" />
	<rect class="cls-1" x="420.28" y="700.58" width="16.95" height="11.26" rx="2" ry="2" transform="translate(1134.94 277.41) rotate(90)" />
	<rect class="cls-1" x="395.59" y="700.58" width="16.95" height="11.26" rx="2" ry="2" transform="translate(1110.25 302.1) rotate(90)" />
	<rect class="cls-1" x="370.91" y="700.58" width="16.95" height="11.26" rx="2" ry="2" transform="translate(1085.57 326.79) rotate(90)" />
	<rect class="cls-1" x="346.22" y="700.58" width="16.95" height="11.26" rx="2" ry="2" transform="translate(1060.88 351.47) rotate(90)" />
	<rect class="cls-1" x="321.53" y="700.58" width="16.95" height="11.26" rx="2" ry="2" transform="translate(1036.2 376.16) rotate(90)" />
	<rect class="cls-1" x="568.4" y="718.45" width="16.95" height="11.26" rx="2" ry="2" transform="translate(1300.93 147.16) rotate(90)" />
	<rect class="cls-1" x="543.72" y="718.45" width="16.95" height="11.26" rx="2" ry="2" transform="translate(1276.24 171.85) rotate(90)" />
	<rect class="cls-1" x="519.03" y="718.45" width="16.95" height="11.26" rx="2" ry="2" transform="translate(1251.56 196.54) rotate(90)" />
	<rect class="cls-1" x="494.34" y="718.45" width="16.95" height="11.26" rx="2" ry="2" transform="translate(1226.87 221.22) rotate(90)" />
	<rect class="cls-1" x="469.66" y="718.45" width="16.95" height="11.26" rx="2" ry="2" transform="translate(1202.18 245.91) rotate(90)" />
	<rect class="cls-1" x="444.97" y="718.45" width="16.95" height="11.26" rx="2" ry="2" transform="translate(1177.5 270.6) rotate(90)" />
	<rect class="cls-1" x="420.28" y="718.45" width="16.95" height="11.26" rx="2" ry="2" transform="translate(1152.81 295.28) rotate(90)" />
	<rect class="cls-1" x="395.59" y="718.45" width="16.95" height="11.26" rx="2" ry="2" transform="translate(1128.13 319.97) rotate(90)" />
	<rect class="cls-1" x="370.91" y="718.45" width="16.95" height="11.26" rx="2" ry="2" transform="translate(1103.44 344.66) rotate(90)" />
	<rect class="cls-1" x="346.22" y="718.45" width="16.95" height="11.26" rx="2" ry="2" transform="translate(1078.76 369.35) rotate(90)" />
	<rect class="cls-1" x="321.53" y="718.45" width="16.95" height="11.26" rx="2" ry="2" transform="translate(1054.07 394.03) rotate(90)" />
	<rect class="cls-1" x="568.4" y="736.33" width="16.95" height="11.26" rx="2" ry="2" transform="translate(1318.8 165.03) rotate(90)" />
	<rect class="cls-1" x="543.72" y="736.33" width="16.95" height="11.26" rx="2" ry="2" transform="translate(1294.12 189.72) rotate(90)" />
	<rect class="cls-1" x="519.03" y="736.33" width="16.95" height="11.26" rx="2" ry="2" transform="translate(1269.43 214.41) rotate(90)" />
	<rect class="cls-1" x="494.34" y="736.33" width="16.95" height="11.26" rx="2" ry="2" transform="translate(1244.74 239.09) rotate(90)" />
	<rect class="cls-1" x="469.66" y="736.33" width="16.95" height="11.26" rx="2" ry="2" transform="translate(1220.06 263.78) rotate(90)" />
	<rect class="cls-1" x="444.97" y="736.33" width="16.95" height="11.26" rx="2" ry="2" transform="translate(1195.37 288.47) rotate(90)" />
	<rect class="cls-1" x="420.28" y="736.33" width="16.95" height="11.26" rx="2" ry="2" transform="translate(1170.69 313.16) rotate(90)" />
	<rect class="cls-1" x="395.59" y="736.33" width="16.95" height="11.26" rx="2" ry="2" transform="translate(1146 337.84) rotate(90)" />
	<rect class="cls-1" x="370.91" y="736.33" width="16.95" height="11.26" rx="2" ry="2" transform="translate(1121.32 362.53) rotate(90)" />
	<rect class="cls-1" x="346.22" y="736.33" width="16.95" height="11.26" rx="2" ry="2" transform="translate(1096.63 387.22) rotate(90)" />
	<rect class="cls-1" x="321.53" y="736.33" width="16.95" height="11.26" rx="2" ry="2" transform="translate(1071.94 411.9) rotate(90)" />
	<rect class="cls-1" x="568.4" y="754.2" width="16.95" height="11.26" rx="2" ry="2" transform="translate(1336.67 182.9) rotate(90)" />
	<rect class="cls-1" x="543.72" y="754.2" width="16.95" height="11.26" rx="2" ry="2" transform="translate(1311.99 207.59) rotate(90)" />
	<rect class="cls-1" x="593.2" y="325.25" width="16.95" height="11.26" rx="2" ry="2" transform="translate(932.52 -270.82) rotate(90)" />
	<rect class="cls-1" x="593.2" y="343.12" width="16.95" height="11.26" rx="2" ry="2" transform="translate(950.39 -252.95) rotate(90)" />
	<rect class="cls-1" x="593.2" y="360.99" width="16.95" height="11.26" rx="2" ry="2" transform="translate(968.27 -235.08) rotate(90)" />
	<rect class="cls-1" x="593.2" y="378.87" width="16.95" height="11.26" rx="2" ry="2" transform="translate(986.14 -217.21) rotate(90)" />
	<rect class="cls-1" x="593.2" y="396.74" width="16.95" height="11.26" rx="2" ry="2" transform="translate(1004.01 -199.34) rotate(90)" />
	<rect class="cls-1" x="593.2" y="414.61" width="16.95" height="11.26" rx="2" ry="2" transform="translate(1021.88 -181.46) rotate(90)" />
	<rect class="cls-1" x="593.2" y="432.48" width="16.95" height="11.26" rx="2" ry="2" transform="translate(1039.76 -163.59) rotate(90)" />
	<rect class="cls-1" x="593.2" y="450.36" width="16.95" height="11.26" rx="2" ry="2" transform="translate(1057.63 -145.72) rotate(90)" />
	<rect class="cls-1" x="593.2" y="468.23" width="16.95" height="11.26" rx="2" ry="2" transform="translate(1075.5 -127.85) rotate(90)" />
	<rect class="cls-1" x="593.2" y="486.1" width="16.95" height="11.26" rx="2" ry="2" transform="translate(1093.38 -109.98) rotate(90)" />
	<rect class="cls-1" x="593.2" y="503.98" width="16.95" height="11.26" rx="2" ry="2" transform="translate(1111.25 -92.1) rotate(90)" />
	<rect class="cls-1" x="593.2" y="521.85" width="16.95" height="11.26" rx="2" ry="2" transform="translate(1129.12 -74.23) rotate(90)" />
	<rect class="cls-1" x="593.2" y="539.72" width="16.95" height="11.26" rx="2" ry="2" transform="translate(1147 -56.36) rotate(90)" />
	<rect class="cls-1" x="593.2" y="557.6" width="16.95" height="11.26" rx="2" ry="2" transform="translate(1164.87 -38.49) rotate(90)" />
	<rect class="cls-1" x="593.2" y="575.47" width="16.95" height="11.26" rx="2" ry="2" transform="translate(1182.74 -20.62) rotate(90)" />
	<rect class="cls-1" x="593.2" y="593.34" width="16.95" height="11.26" rx="2" ry="2" transform="translate(1200.61 -2.74) rotate(90)" />
	<rect class="cls-1" x="593.2" y="611.22" width="16.95" height="11.26" rx="2" ry="2" transform="translate(1218.49 15.13) rotate(90)" />
	<rect class="cls-1" x="593.2" y="629.09" width="16.95" height="11.26" rx="2" ry="2" transform="translate(1236.36 33) rotate(90)" />
	<rect class="cls-1" x="593.2" y="646.96" width="16.95" height="11.26" rx="2" ry="2" transform="translate(1254.23 50.87) rotate(90)" />
	<rect class="cls-1" x="593.2" y="664.83" width="16.95" height="11.26" rx="2" ry="2" transform="translate(1272.11 68.74) rotate(90)" />
	<rect class="cls-1" x="593.2" y="682.71" width="16.95" height="11.26" rx="2" ry="2" transform="translate(1289.98 86.62) rotate(90)" />
	<rect class="cls-1" x="593.2" y="700.58" width="16.95" height="11.26" rx="2" ry="2" transform="translate(1307.85 104.49) rotate(90)" />
	<rect class="cls-1" x="593.2" y="718.45" width="16.95" height="11.26" rx="2" ry="2" transform="translate(1325.73 122.36) rotate(90)" />
	<rect class="cls-1" x="593.2" y="736.33" width="16.95" height="11.26" rx="2" ry="2" transform="translate(1343.6 140.23) rotate(90)" />
	<rect class="cls-1" x="593.2" y="754.2" width="16.95" height="11.26" rx="2" ry="2" transform="translate(1361.47 158.1) rotate(90)" />
	<rect class="cls-1" x="618" y="325.25" width="16.95" height="11.26" rx="2" ry="2" transform="translate(957.32 -295.62) rotate(90)" />
	<rect class="cls-1" x="618" y="343.12" width="16.95" height="11.26" rx="2" ry="2" transform="translate(975.19 -277.75) rotate(90)" />
	<rect class="cls-1" x="618" y="360.99" width="16.95" height="11.26" rx="2" ry="2" transform="translate(993.06 -259.88) rotate(90)" />
	<rect class="cls-1" x="618" y="378.87" width="16.95" height="11.26" rx="2" ry="2" transform="translate(1010.94 -242.01) rotate(90)" />
	<rect class="cls-1" x="618" y="396.74" width="16.95" height="11.26" rx="2" ry="2" transform="translate(1028.81 -224.14) rotate(90)" />
	<rect class="cls-1" x="618" y="414.61" width="16.95" height="11.26" rx="2" ry="2" transform="translate(1046.68 -206.26) rotate(90)" />
	<rect class="cls-1" x="618" y="432.48" width="16.95" height="11.26" rx="2" ry="2" transform="translate(1064.56 -188.39) rotate(90)" />
	<rect class="cls-1" x="618" y="450.36" width="16.95" height="11.26" rx="2" ry="2" transform="translate(1082.43 -170.52) rotate(90)" />
	<rect class="cls-1" x="618" y="468.23" width="16.95" height="11.26" rx="2" ry="2" transform="translate(1100.3 -152.65) rotate(90)" />
	<rect class="cls-1" x="618" y="486.1" width="16.95" height="11.26" rx="2" ry="2" transform="translate(1118.18 -134.78) rotate(90)" />
	<rect class="cls-1" x="618" y="503.98" width="16.95" height="11.26" rx="2" ry="2" transform="translate(1136.05 -116.9) rotate(90)" />
	<rect class="cls-1" x="618" y="521.85" width="16.95" height="11.26" rx="2" ry="2" transform="translate(1153.92 -99.03) rotate(90)" />
	<rect class="cls-1" x="618" y="539.72" width="16.95" height="11.26" rx="2" ry="2" transform="translate(1171.79 -81.16) rotate(90)" />
	<rect class="cls-1" x="618" y="557.6" width="16.95" height="11.26" rx="2" ry="2" transform="translate(1189.67 -63.29) rotate(90)" />
	<rect class="cls-1" x="618" y="575.47" width="16.95" height="11.26" rx="2" ry="2" transform="translate(1207.54 -45.42) rotate(90)" />
	<rect class="cls-1" x="618" y="593.34" width="16.95" height="11.26" rx="2" ry="2" transform="translate(1225.41 -27.54) rotate(90)" />
	<rect class="cls-1" x="618" y="611.22" width="16.95" height="11.26" rx="2" ry="2" transform="translate(1243.29 -9.67) rotate(90)" />
	<rect class="cls-1" x="618" y="629.09" width="16.95" height="11.26" rx="2" ry="2" transform="translate(1261.16 8.2) rotate(90)" />
	<rect class="cls-1" x="618" y="646.96" width="16.95" height="11.26" rx="2" ry="2" transform="translate(1279.03 26.07) rotate(90)" />
	<rect class="cls-1" x="618" y="664.83" width="16.95" height="11.26" rx="2" ry="2" transform="translate(1296.91 43.94) rotate(90)" />
	<rect class="cls-1" x="618" y="682.71" width="16.95" height="11.26" rx="2" ry="2" transform="translate(1314.78 61.82) rotate(90)" />
	<rect class="cls-1" x="618" y="700.58" width="16.95" height="11.26" rx="2" ry="2" transform="translate(1332.65 79.69) rotate(90)" />
	<rect class="cls-1" x="618" y="718.45" width="16.95" height="11.26" rx="2" ry="2" transform="translate(1350.52 97.56) rotate(90)" />
	<rect class="cls-1" x="618" y="736.33" width="16.95" height="11.26" rx="2" ry="2" transform="translate(1368.4 115.43) rotate(90)" />
	<rect class="cls-1" x="618" y="754.2" width="16.95" height="11.26" rx="2" ry="2" transform="translate(1386.27 133.3) rotate(90)" />
	<rect class="cls-1" x="642.8" y="325.25" width="16.95" height="11.26" rx="2" ry="2" transform="translate(982.12 -320.42) rotate(90)" />
	<rect class="cls-1" x="642.8" y="343.12" width="16.95" height="11.26" rx="2" ry="2" transform="translate(999.99 -302.55) rotate(90)" />
	<rect class="cls-1" x="642.8" y="360.99" width="16.95" height="11.26" rx="2" ry="2" transform="translate(1017.86 -284.68) rotate(90)" />
	<rect class="cls-1" x="642.8" y="378.87" width="16.95" height="11.26" rx="2" ry="2" transform="translate(1035.74 -266.81) rotate(90)" />
	<rect class="cls-1" x="642.8" y="396.74" width="16.95" height="11.26" rx="2" ry="2" transform="translate(1053.61 -248.94) rotate(90)" />
	<rect class="cls-1" x="642.8" y="414.61" width="16.95" height="11.26" rx="2" ry="2" transform="translate(1071.48 -231.06) rotate(90)" />
	<rect class="cls-1" x="642.8" y="432.48" width="16.95" height="11.26" rx="2" ry="2" transform="translate(1089.35 -213.19) rotate(90)" />
	<rect class="cls-1" x="642.8" y="450.36" width="16.95" height="11.26" rx="2" ry="2" transform="translate(1107.23 -195.32) rotate(90)" />
	<rect class="cls-1" x="642.8" y="468.23" width="16.95" height="11.26" rx="2" ry="2" transform="translate(1125.1 -177.45) rotate(90)" />
	<rect class="cls-1" x="642.8" y="486.1" width="16.95" height="11.26" rx="2" ry="2" transform="translate(1142.97 -159.58) rotate(90)" />
	<rect class="cls-1" x="642.8" y="503.98" width="16.95" height="11.26" rx="2" ry="2" transform="translate(1160.85 -141.7) rotate(90)" />
	<rect class="cls-1" x="642.8" y="521.85" width="16.95" height="11.26" rx="2" ry="2" transform="translate(1178.72 -123.83) rotate(90)" />
	<rect class="cls-1" x="642.8" y="539.72" width="16.95" height="11.26" rx="2" ry="2" transform="translate(1196.59 -105.96) rotate(90)" />
	<rect class="cls-1" x="642.8" y="557.6" width="16.95" height="11.26" rx="2" ry="2" transform="translate(1214.47 -88.09) rotate(90)" />
	<rect class="cls-1" x="642.8" y="575.47" width="16.95" height="11.26" rx="2" ry="2" transform="translate(1232.34 -70.22) rotate(90)" />
	<rect class="cls-1" x="642.8" y="593.34" width="16.95" height="11.26" rx="2" ry="2" transform="translate(1250.21 -52.34) rotate(90)" />
	<rect class="cls-1" x="642.8" y="611.22" width="16.95" height="11.26" rx="2" ry="2" transform="translate(1268.09 -34.47) rotate(90)" />
	<rect class="cls-1" x="642.8" y="629.09" width="16.95" height="11.26" rx="2" ry="2" transform="translate(1285.96 -16.6) rotate(90)" />
	<rect class="cls-1" x="642.8" y="646.96" width="16.95" height="11.26" rx="2" ry="2" transform="translate(1303.83 1.27) rotate(90)" />
	<rect class="cls-1" x="642.8" y="664.83" width="16.95" height="11.26" rx="2" ry="2" transform="translate(1321.7 19.14) rotate(90)" />
	<rect class="cls-1" x="642.8" y="682.71" width="16.95" height="11.26" rx="2" ry="2" transform="translate(1339.58 37.02) rotate(90)" />
	<rect class="cls-1" x="642.8" y="700.58" width="16.95" height="11.26" rx="2" ry="2" transform="translate(1357.45 54.89) rotate(90)" />
	<rect class="cls-1" x="642.8" y="718.45" width="16.95" height="11.26" rx="2" ry="2" transform="translate(1375.32 72.76) rotate(90)" />
	<rect class="cls-1" x="642.8" y="736.33" width="16.95" height="11.26" rx="2" ry="2" transform="translate(1393.2 90.63) rotate(90)" />
	<rect class="cls-1" x="642.8" y="754.2" width="16.95" height="11.26" rx="2" ry="2" transform="translate(1411.07 108.5) rotate(90)" />
	<rect class="cls-1" x="667.6" y="325.25" width="16.95" height="11.26" rx="2" ry="2" transform="translate(1006.91 -345.22) rotate(90)" />
	<rect class="cls-1" x="667.6" y="343.12" width="16.95" height="11.26" rx="2" ry="2" transform="translate(1024.79 -327.35) rotate(90)" />
	<rect class="cls-1" x="667.6" y="360.99" width="16.95" height="11.26" rx="2" ry="2" transform="translate(1042.66 -309.48) rotate(90)" />
	<rect class="cls-1" x="667.6" y="378.87" width="16.95" height="11.26" rx="2" ry="2" transform="translate(1060.53 -291.61) rotate(90)" />
	<rect class="cls-1" x="667.6" y="396.74" width="16.95" height="11.26" rx="2" ry="2" transform="translate(1078.41 -273.74) rotate(90)" />
	<rect class="cls-1" x="667.6" y="414.61" width="16.95" height="11.26" rx="2" ry="2" transform="translate(1096.28 -255.86) rotate(90)" />
	<rect class="cls-1" x="667.6" y="432.48" width="16.95" height="11.26" rx="2" ry="2" transform="translate(1114.15 -237.99) rotate(90)" />
	<rect class="cls-1" x="667.6" y="450.36" width="16.95" height="11.26" rx="2" ry="2" transform="translate(1132.03 -220.12) rotate(90)" />
	<rect class="cls-1" x="667.6" y="468.23" width="16.95" height="11.26" rx="2" ry="2" transform="translate(1149.9 -202.25) rotate(90)" />
	<rect class="cls-1" x="667.6" y="486.1" width="16.95" height="11.26" rx="2" ry="2" transform="translate(1167.77 -184.38) rotate(90)" />
	<rect class="cls-1" x="667.6" y="503.98" width="16.95" height="11.26" rx="2" ry="2" transform="translate(1185.65 -166.5) rotate(90)" />
	<rect class="cls-1" x="667.6" y="521.85" width="16.95" height="11.26" rx="2" ry="2" transform="translate(1203.52 -148.63) rotate(90)" />
	<rect class="cls-1" x="667.6" y="539.72" width="16.95" height="11.26" rx="2" ry="2" transform="translate(1221.39 -130.76) rotate(90)" />
	<rect class="cls-1" x="667.6" y="557.6" width="16.95" height="11.26" rx="2" ry="2" transform="translate(1239.26 -112.89) rotate(90)" />
	<rect class="cls-1" x="667.6" y="575.47" width="16.95" height="11.26" rx="2" ry="2" transform="translate(1257.14 -95.02) rotate(90)" />
	<rect class="cls-1" x="667.6" y="593.34" width="16.95" height="11.26" rx="2" ry="2" transform="translate(1275.01 -77.14) rotate(90)" />
	<rect class="cls-1" x="667.6" y="611.22" width="16.95" height="11.26" rx="2" ry="2" transform="translate(1292.88 -59.27) rotate(90)" />
	<rect class="cls-1" x="667.6" y="629.09" width="16.95" height="11.26" rx="2" ry="2" transform="translate(1310.76 -41.4) rotate(90)" />
	<rect class="cls-1" x="667.6" y="646.96" width="16.95" height="11.26" rx="2" ry="2" transform="translate(1328.63 -23.53) rotate(90)" />
	<rect class="cls-1" x="667.6" y="664.83" width="16.95" height="11.26" rx="2" ry="2" transform="translate(1346.5 -5.66) rotate(90)" />
	<rect class="cls-1" x="667.6" y="682.71" width="16.95" height="11.26" rx="2" ry="2" transform="translate(1364.38 12.22) rotate(90)" />
	<rect class="cls-1" x="667.6" y="700.58" width="16.95" height="11.26" rx="2" ry="2" transform="translate(1382.25 30.09) rotate(90)" />
	<rect class="cls-1" x="667.6" y="718.45" width="16.95" height="11.26" rx="2" ry="2" transform="translate(1400.12 47.96) rotate(90)" />
	<rect class="cls-1" x="667.6" y="736.33" width="16.95" height="11.26" rx="2" ry="2" transform="translate(1418 65.83) rotate(90)" />
	<rect class="cls-1" x="667.6" y="754.2" width="16.95" height="11.26" rx="2" ry="2" transform="translate(1435.87 83.7) rotate(90)" />
	<rect class="cls-1" x="519.03" y="754.2" width="16.95" height="11.26" rx="2" ry="2" transform="translate(1287.3 232.28) rotate(90)" />
	<rect class="cls-1" x="494.34" y="754.2" width="16.95" height="11.26" rx="2" ry="2" transform="translate(1262.62 256.97) rotate(90)" />
	<rect class="cls-1" x="469.66" y="754.2" width="16.95" height="11.26" rx="2" ry="2" transform="translate(1237.93 281.65) rotate(90)" />
	<rect class="cls-1" x="444.97" y="754.2" width="16.95" height="11.26" rx="2" ry="2" transform="translate(1213.25 306.34) rotate(90)" />
	<rect class="cls-1" x="420.28" y="754.2" width="16.95" height="11.26" rx="2" ry="2" transform="translate(1188.56 331.03) rotate(90)" />
	<rect class="cls-1" x="395.59" y="754.2" width="16.95" height="11.26" rx="2" ry="2" transform="translate(1163.87 355.72) rotate(90)" />
	<rect class="cls-1" x="370.91" y="754.2" width="16.95" height="11.26" rx="2" ry="2" transform="translate(1139.19 380.4) rotate(90)" />
	<rect class="cls-1" x="346.22" y="754.2" width="16.95" height="11.26" rx="2" ry="2" transform="translate(1114.5 405.09) rotate(90)" />
	<rect class="cls-1" x="321.53" y="754.2" width="16.95" height="11.26" rx="2" ry="2" transform="translate(1089.82 429.78) rotate(90)" />
	<polygon class="cls-4" points="778.24 327.82 730.03 327.82 732.03 776.87 307.88 778.3 307.88 13.67 601.38 13.67 602.24 240.14 778.24 240.14 778.24 327.82" />
	<g>
		<path id="path97034" class="cls-5" d="m678.13,261.34l3.02-7.82,2.9,7.82" />
		<path id="path97036" class="cls-5" d="m679.25,258.77h3.69" />
	</g>
	<g>
		<path id="path97038" class="cls-5" d="m653.11,261.34v-7.82h3.24l1.12.45.34.34.45.78v.67l-.45.78-.34.34-1.12.34h-3.24" />
		<path id="path97040" class="cls-5" d="m656.35,257.21l1.12.45.34.34.45.78v1.01l-.45.78-.34.34-1.12.45h-3.24" />
	</g>
	<path id="path97042" class="cls-5" d="m633.45,255.42l-.34-.78-.78-.67-.67-.45h-1.56l-.67.45-.78.67-.34.78-.34,1.12v1.79l.34,1.12.34.78.78.67.67.45h1.56l.67-.45.78-.67.34-.78" />
	<path id="path97044" class="cls-5" d="m602.84,261.34v-7.82h2.57l1.12.45.67.67.45.78.34,1.12v1.79l-.34,1.12-.45.78-.67.67-1.12.45h-2.57" />
	<g>
		<path id="path97052" class="cls-5" d="m552.57,33.51v-7.82h4.8" />
		<path id="path97054" class="cls-5" d="m552.57,29.37h3.02" />
	</g>
	<path id="path97056" class="cls-5" d="m533.02,27.59l-.34-.78-.78-.67-.78-.45h-1.45l-.67.45-.78.67-.34.78-.45,1.12v1.79l.45,1.12.34.78.78.67.67.45h1.45l.78-.45.78-.67.34-.78v-1.12h-1.9" />
	<g>
		<path id="path97058" class="cls-5" d="m502.42,33.51v-7.82" />
		<path id="path97060" class="cls-5" d="m507.55,25.69v7.82" />
		<path id="path97062" class="cls-5" d="m502.42,29.37h5.14" />
	</g>
	<path id="path97064" class="cls-5" d="m477.28,33.51v-7.82" />
	<path id="path97066" class="cls-5" d="m455.83,25.69v5.92l-.34,1.12-.45.34-.67.45h-.78l-.67-.45-.45-.34-.34-1.12v-.67" />
	<g>
		<path id="path97068" class="cls-5" d="m427.01,33.51v-7.82" />
		<path id="path97070" class="cls-5" d="m432.15,25.69l-5.14,5.25" />
		<path id="path97072" class="cls-5" d="m428.91,29.04l3.24,4.47" />
	</g>
	<path id="path97074" class="cls-5" d="m401.88,25.69v7.82h4.47" />
	<g>
		<path id="path97076" class="cls-5" d="m376.86,25.69v7.82h4.36" />
		<path id="path97078" class="cls-5" d="m383.11,25.69v7.82h4.36" />
	</g>
	<path id="path97080" class="cls-5" d="m351.72,33.51v-7.82l2.9,7.82,2.9-7.82v7.82" />
	<path id="path97082" class="cls-5" d="m326.59,33.51v-7.82l5.14,7.82v-7.82" />
	<g>
		<g>
			<path id="path97046" class="cls-5" d="m577.71,33.51v-7.82h4.8" />
			<path id="path97048" class="cls-5" d="m577.71,29.37h2.9" />
		</g>
		<path id="path97050" class="cls-5" d="m577.71,33.51h4.8" />
	</g>
	<path id="path97050-2" class="cls-5" d="m577.71,33.51h4.8" />
	<g id="text145334" class="cls-3">
		<text class="cls-2" transform="translate(752.86 523.01)">
			<tspan x="0" y="0">
				U
			</tspan>
		</text>
	</g>
</svg>
