<?xml version="1.0" encoding="utf-8"?>
<!-- Generator: Adobe Illustrator 27.2.0, SVG Export Plug-In . SVG Version: 6.00 Build 0)  -->
<svg version="1.1" xmlns="http://www.w3.org/2000/svg" xmlns:xlink="http://www.w3.org/1999/xlink" x="0px" y="0px"
	 viewBox="0 0 1075.6 792" style="enable-background:new 0 0 1075.6 792;" xml:space="preserve">
  <style type="text/css">
    .st0{display:none;}
    .st1{display:inline;}
    .st2{fill:none;stroke:#DD6E00;stroke-width:2;stroke-linecap:round;stroke-linejoin:round;stroke-miterlimit:10;}
    .st3{fill:none;stroke:#0000FF;stroke-width:2;stroke-linecap:round;stroke-linejoin:round;stroke-miterlimit:10;}
    .st4{fill:none;stroke:#000000;stroke-width:2;stroke-linecap:round;stroke-linejoin:round;stroke-miterlimit:10;}
    .st5{fill:none;stroke:#BABABA;stroke-width:2;stroke-linecap:round;stroke-linejoin:round;stroke-miterlimit:10;}
    .st6{fill:none;stroke:#989898;stroke-width:2;stroke-linecap:round;stroke-linejoin:round;stroke-miterlimit:10;}
    .st7{fill:none;stroke:#FFFF00;stroke-width:2;stroke-linecap:round;stroke-linejoin:round;stroke-miterlimit:10;}
    .st8{fill:none;stroke:#FF0000;stroke-width:2;stroke-linecap:round;stroke-linejoin:round;stroke-miterlimit:10;}
    .st9{fill:none;stroke:#E69835;stroke-width:6;stroke-miterlimit:10;}
    .st10{fill:none;stroke:#D75A31;stroke-width:6;stroke-miterlimit:10;}
    .st11{fill:none;stroke:#AE2C2B;stroke-width:6;stroke-miterlimit:10;}
    .st12{fill:none;stroke:#FF6700;stroke-width:6;stroke-miterlimit:10;}
    .st13{fill:none;stroke:#50FFFF;stroke-width:6;stroke-miterlimit:10;}
    .st14{fill:none;stroke:#CB85E5;stroke-width:6;stroke-miterlimit:10;}
    .st15{fill:none;stroke:#7980B2;stroke-width:6;stroke-miterlimit:10;}
    .st16{fill:none;stroke:#3E2B1A;stroke-width:6;stroke-miterlimit:10;}
    .st17{fill:none;stroke:#42944B;stroke-width:6;stroke-miterlimit:10;}
    .st18{fill:none;stroke:#9D9D9C;stroke-width:6;stroke-miterlimit:10;}
    .st19{fill:none;stroke:#C39F6F;stroke-width:6;stroke-miterlimit:10;}
    .st20{fill:none;stroke:#F7EB50;stroke-width:6;stroke-miterlimit:10;}
    .st21{fill:#89277D;}
    .st22{fill:none;stroke:#0000FF;stroke-linecap:round;stroke-linejoin:round;}
    .st23{fill:#3670B3;}
    .st24{fill:#489F9A;}
    .st25{fill:#D22D7D;}
    .st26{fill:#2B6438;}
    .st27{fill:#00FFCE;}
    .st28{fill:#869363;}
    .st29{fill:#CB85E5;}
    .st30{fill:#FF6700;}
    .st31{fill:#7980B2;}
    .st32{fill:#F7EB50;}
    .st33{fill:#E69835;}
    .st34{fill:#D75A31;}
    .st35{fill:#AE2C2B;}
    .st36{fill:#786A5A;}
    .st37{fill:#282359;}
    .st38{fill:#9EC043;}
    .st39{fill:#469CDD;}
    .st40{fill:#5E287E;}
    .st41{fill:none;stroke:#5E287E;stroke-width:6;stroke-miterlimit:10;}
    .st42{fill:#D43673;}
    .st43{fill:#C39F6F;}
    .st44{fill:#9D9D9C;}
    .st45{fill:#42944B;}
    .st46{fill:#3E2B1A;}
    .st47{fill:#13514C;}
    .st48{fill:#425968;}
    .st49{fill:#536D01;}
    .st50{fill:#A87F1A;}
    .st51{fill:#50FFFF;}
    .st52{fill:none;stroke:#D43673;stroke-width:6;stroke-miterlimit:10;}
    .st53{fill:#D9D9D9;}
    .st54{fill:none;stroke:#1D1D1B;stroke-width:10;stroke-linecap:round;stroke-linejoin:round;stroke-miterlimit:10;}
    .st55{font-family:'Arial-BoldMT';}
    .st56{font-size:146.6502px;}
    .st57{fill:none;stroke:#1D1D1B;stroke-width:3;stroke-linecap:round;stroke-linejoin:round;stroke-miterlimit:10;}
    .st58{fill:none;stroke:#1D1D1B;stroke-width:6;stroke-linecap:round;stroke-linejoin:round;stroke-miterlimit:10;}
    .st59{fill:none;stroke:#1D1D1B;stroke-width:2;stroke-linecap:round;stroke-linejoin:round;stroke-miterlimit:10;}
  </style>
  <g id="Capa_1" class="st0">
  </g>
  <g id="Contorno_color">
    <polygon class="st12" points="140,251.4 140,109.7 57.3,109.7 57.3,660.8 122.2,660.8 140,660.8 899.6,660.8 899.6,251.4 	"/>
  </g>
  <g id="Asientos">
    <g>
      <g>
        <path class="st53" d="M842.2,325.2v-43.5c0-3.7,3-6.8,6.8-6.8h22.4c3.7,0,6.8,3,6.8,6.8v43.5c0,3.7-3,6.8-6.8,6.8H849
          C845.3,331.9,842.2,328.9,842.2,325.2z"/>
        <path class="st53" d="M842.2,386.3v-43.5c0-3.7,3-6.8,6.8-6.8h22.4c3.7,0,6.8,3,6.8,6.8v43.5c0,3.7-3,6.8-6.8,6.8H849
          C845.3,393,842.2,390,842.2,386.3z"/>
        <path class="st53" d="M842.2,446.6v-43.5c0-3.7,3-6.8,6.8-6.8h22.4c3.7,0,6.8,3,6.8,6.8v43.5c0,3.7-3,6.8-6.8,6.8H849
          C845.3,453.3,842.2,450.3,842.2,446.6z"/>
        <path class="st53" d="M842.2,507.6v-43.5c0-3.7,3-6.8,6.8-6.8h22.4c3.7,0,6.8,3,6.8,6.8v43.5c0,3.7-3,6.8-6.8,6.8H849
          C845.3,514.4,842.2,511.4,842.2,507.6z"/>
        <path class="st53" d="M842.2,568.7v-43.5c0-3.7,3-6.8,6.8-6.8h22.4c3.7,0,6.8,3,6.8,6.8v43.5c0,3.7-3,6.8-6.8,6.8H849
          C845.3,575.5,842.2,572.4,842.2,568.7z"/>
      </g>
      <g>
        <path class="st53" d="M758.9,325.2v-43.5c0-3.7,3-6.8,6.8-6.8H788c3.7,0,6.8,3,6.8,6.8v43.5c0,3.7-3,6.8-6.8,6.8h-22.4
          C761.9,331.9,758.9,328.9,758.9,325.2z"/>
        <path class="st53" d="M758.9,386.3v-43.5c0-3.7,3-6.8,6.8-6.8H788c3.7,0,6.8,3,6.8,6.8v43.5c0,3.7-3,6.8-6.8,6.8h-22.4
          C761.9,393,758.9,390,758.9,386.3z"/>
        <path class="st53" d="M758.9,446.6v-43.5c0-3.7,3-6.8,6.8-6.8H788c3.7,0,6.8,3,6.8,6.8v43.5c0,3.7-3,6.8-6.8,6.8h-22.4
          C761.9,453.3,758.9,450.3,758.9,446.6z"/>
        <path class="st53" d="M758.9,507.6v-43.5c0-3.7,3-6.8,6.8-6.8H788c3.7,0,6.8,3,6.8,6.8v43.5c0,3.7-3,6.8-6.8,6.8h-22.4
          C761.9,514.4,758.9,511.4,758.9,507.6z"/>
        <path class="st53" d="M758.9,568.7v-43.5c0-3.7,3-6.8,6.8-6.8H788c3.7,0,6.8,3,6.8,6.8v43.5c0,3.7-3,6.8-6.8,6.8h-22.4
          C761.9,575.5,758.9,572.4,758.9,568.7z"/>
      </g>
      <g>
        <path class="st53" d="M672.7,325.2v-43.5c0-3.7,3-6.8,6.8-6.8h22.4c3.7,0,6.8,3,6.8,6.8v43.5c0,3.7-3,6.8-6.8,6.8h-22.4
          C675.8,331.9,672.7,328.9,672.7,325.2z"/>
        <path class="st53" d="M672.7,386.3v-43.5c0-3.7,3-6.8,6.8-6.8h22.4c3.7,0,6.8,3,6.8,6.8v43.5c0,3.7-3,6.8-6.8,6.8h-22.4
          C675.8,393,672.7,390,672.7,386.3z"/>
        <path class="st53" d="M672.7,446.6v-43.5c0-3.7,3-6.8,6.8-6.8h22.4c3.7,0,6.8,3,6.8,6.8v43.5c0,3.7-3,6.8-6.8,6.8h-22.4
          C675.8,453.3,672.7,450.3,672.7,446.6z"/>
        <path class="st53" d="M672.7,507.6v-43.5c0-3.7,3-6.8,6.8-6.8h22.4c3.7,0,6.8,3,6.8,6.8v43.5c0,3.7-3,6.8-6.8,6.8h-22.4
          C675.8,514.4,672.7,511.4,672.7,507.6z"/>
        <path class="st53" d="M672.7,568.7v-43.5c0-3.7,3-6.8,6.8-6.8h22.4c3.7,0,6.8,3,6.8,6.8v43.5c0,3.7-3,6.8-6.8,6.8h-22.4
          C675.8,575.5,672.7,572.4,672.7,568.7z"/>
      </g>
      <g>
        <path class="st53" d="M586.3,325.2v-43.5c0-3.7,3-6.8,6.8-6.8h22.4c3.7,0,6.8,3,6.8,6.8v43.5c0,3.7-3,6.8-6.8,6.8h-22.4
          C589.4,331.9,586.3,328.9,586.3,325.2z"/>
        <path class="st53" d="M586.3,386.3v-43.5c0-3.7,3-6.8,6.8-6.8h22.4c3.7,0,6.8,3,6.8,6.8v43.5c0,3.7-3,6.8-6.8,6.8h-22.4
          C589.4,393,586.3,390,586.3,386.3z"/>
        <path class="st53" d="M586.3,446.6v-43.5c0-3.7,3-6.8,6.8-6.8h22.4c3.7,0,6.8,3,6.8,6.8v43.5c0,3.7-3,6.8-6.8,6.8h-22.4
          C589.4,453.3,586.3,450.3,586.3,446.6z"/>
        <path class="st53" d="M586.3,507.6v-43.5c0-3.7,3-6.8,6.8-6.8h22.4c3.7,0,6.8,3,6.8,6.8v43.5c0,3.7-3,6.8-6.8,6.8h-22.4
          C589.4,514.4,586.3,511.4,586.3,507.6z"/>
        <path class="st53" d="M586.3,568.7v-43.5c0-3.7,3-6.8,6.8-6.8h22.4c3.7,0,6.8,3,6.8,6.8v43.5c0,3.7-3,6.8-6.8,6.8h-22.4
          C589.4,575.5,586.3,572.4,586.3,568.7z"/>
      </g>
      <g>
        <path class="st53" d="M503,325.2v-43.5c0-3.7,3-6.8,6.8-6.8h22.4c3.7,0,6.8,3,6.8,6.8v43.5c0,3.7-3,6.8-6.8,6.8h-22.4
          C506,331.9,503,328.9,503,325.2z"/>
        <path class="st53" d="M503,386.3v-43.5c0-3.7,3-6.8,6.8-6.8h22.4c3.7,0,6.8,3,6.8,6.8v43.5c0,3.7-3,6.8-6.8,6.8h-22.4
          C506,393,503,390,503,386.3z"/>
        <path class="st53" d="M503,446.6v-43.5c0-3.7,3-6.8,6.8-6.8h22.4c3.7,0,6.8,3,6.8,6.8v43.5c0,3.7-3,6.8-6.8,6.8h-22.4
          C506,453.3,503,450.3,503,446.6z"/>
        <path class="st53" d="M503,507.6v-43.5c0-3.7,3-6.8,6.8-6.8h22.4c3.7,0,6.8,3,6.8,6.8v43.5c0,3.7-3,6.8-6.8,6.8h-22.4
          C506,514.4,503,511.4,503,507.6z"/>
        <path class="st53" d="M503,568.7v-43.5c0-3.7,3-6.8,6.8-6.8h22.4c3.7,0,6.8,3,6.8,6.8v43.5c0,3.7-3,6.8-6.8,6.8h-22.4
          C506,575.5,503,572.4,503,568.7z"/>
      </g>
      <g>
        <path class="st53" d="M416.6,325.2v-43.5c0-3.7,3-6.8,6.8-6.8h22.4c3.7,0,6.8,3,6.8,6.8v43.5c0,3.7-3,6.8-6.8,6.8h-22.4
          C419.6,331.9,416.6,328.9,416.6,325.2z"/>
        <path class="st53" d="M416.6,386.3v-43.5c0-3.7,3-6.8,6.8-6.8h22.4c3.7,0,6.8,3,6.8,6.8v43.5c0,3.7-3,6.8-6.8,6.8h-22.4
          C419.6,393,416.6,390,416.6,386.3z"/>
        <path class="st53" d="M416.6,446.6v-43.5c0-3.7,3-6.8,6.8-6.8h22.4c3.7,0,6.8,3,6.8,6.8v43.5c0,3.7-3,6.8-6.8,6.8h-22.4
          C419.6,453.3,416.6,450.3,416.6,446.6z"/>
        <path class="st53" d="M416.6,507.6v-43.5c0-3.7,3-6.8,6.8-6.8h22.4c3.7,0,6.8,3,6.8,6.8v43.5c0,3.7-3,6.8-6.8,6.8h-22.4
          C419.6,514.4,416.6,511.4,416.6,507.6z"/>
        <path class="st53" d="M416.6,568.7v-43.5c0-3.7,3-6.8,6.8-6.8h22.4c3.7,0,6.8,3,6.8,6.8v43.5c0,3.7-3,6.8-6.8,6.8h-22.4
          C419.6,575.5,416.6,572.4,416.6,568.7z"/>
      </g>
      <g>
        <path class="st53" d="M332.6,325.2v-43.5c0-3.7,3-6.8,6.8-6.8h22.4c3.7,0,6.8,3,6.8,6.8v43.5c0,3.7-3,6.8-6.8,6.8h-22.4
          C335.7,331.9,332.6,328.9,332.6,325.2z"/>
        <path class="st53" d="M332.6,386.3v-43.5c0-3.7,3-6.8,6.8-6.8h22.4c3.7,0,6.8,3,6.8,6.8v43.5c0,3.7-3,6.8-6.8,6.8h-22.4
          C335.7,393,332.6,390,332.6,386.3z"/>
        <path class="st53" d="M332.6,446.6v-43.5c0-3.7,3-6.8,6.8-6.8h22.4c3.7,0,6.8,3,6.8,6.8v43.5c0,3.7-3,6.8-6.8,6.8h-22.4
          C335.7,453.3,332.6,450.3,332.6,446.6z"/>
        <path class="st53" d="M332.6,507.6v-43.5c0-3.7,3-6.8,6.8-6.8h22.4c3.7,0,6.8,3,6.8,6.8v43.5c0,3.7-3,6.8-6.8,6.8h-22.4
          C335.7,514.4,332.6,511.4,332.6,507.6z"/>
        <path class="st53" d="M332.6,568.7v-43.5c0-3.7,3-6.8,6.8-6.8h22.4c3.7,0,6.8,3,6.8,6.8v43.5c0,3.7-3,6.8-6.8,6.8h-22.4
          C335.7,575.5,332.6,572.4,332.6,568.7z"/>
      </g>
      <g>
        <path class="st53" d="M247.2,325.2v-43.5c0-3.7,3-6.8,6.8-6.8h22.4c3.7,0,6.8,3,6.8,6.8v43.5c0,3.7-3,6.8-6.8,6.8H254
          C250.3,331.9,247.2,328.9,247.2,325.2z"/>
        <path class="st53" d="M247.2,386.3v-43.5c0-3.7,3-6.8,6.8-6.8h22.4c3.7,0,6.8,3,6.8,6.8v43.5c0,3.7-3,6.8-6.8,6.8H254
          C250.3,393,247.2,390,247.2,386.3z"/>
        <path class="st53" d="M247.2,446.6v-43.5c0-3.7,3-6.8,6.8-6.8h22.4c3.7,0,6.8,3,6.8,6.8v43.5c0,3.7-3,6.8-6.8,6.8H254
          C250.3,453.3,247.2,450.3,247.2,446.6z"/>
        <path class="st53" d="M247.2,507.6v-43.5c0-3.7,3-6.8,6.8-6.8h22.4c3.7,0,6.8,3,6.8,6.8v43.5c0,3.7-3,6.8-6.8,6.8H254
          C250.3,514.4,247.2,511.4,247.2,507.6z"/>
        <path class="st53" d="M247.2,568.7v-43.5c0-3.7,3-6.8,6.8-6.8h22.4c3.7,0,6.8,3,6.8,6.8v43.5c0,3.7-3,6.8-6.8,6.8H254
          C250.3,575.5,247.2,572.4,247.2,568.7z"/>
      </g>
      <g>
        <path class="st53" d="M162,325.2v-43.5c0-3.7,3-6.8,6.8-6.8h22.4c3.7,0,6.8,3,6.8,6.8v43.5c0,3.7-3,6.8-6.8,6.8h-22.4
          C165,331.9,162,328.9,162,325.2z"/>
        <path class="st53" d="M162,386.3v-43.5c0-3.7,3-6.8,6.8-6.8h22.4c3.7,0,6.8,3,6.8,6.8v43.5c0,3.7-3,6.8-6.8,6.8h-22.4
          C165,393,162,390,162,386.3z"/>
        <path class="st53" d="M162,446.6v-43.5c0-3.7,3-6.8,6.8-6.8h22.4c3.7,0,6.8,3,6.8,6.8v43.5c0,3.7-3,6.8-6.8,6.8h-22.4
          C165,453.3,162,450.3,162,446.6z"/>
        <path class="st53" d="M162,507.6v-43.5c0-3.7,3-6.8,6.8-6.8h22.4c3.7,0,6.8,3,6.8,6.8v43.5c0,3.7-3,6.8-6.8,6.8h-22.4
          C165,514.4,162,511.4,162,507.6z"/>
        <path class="st53" d="M162,568.7v-43.5c0-3.7,3-6.8,6.8-6.8h22.4c3.7,0,6.8,3,6.8,6.8v43.5c0,3.7-3,6.8-6.8,6.8h-22.4
          C165,575.5,162,572.4,162,568.7z"/>
      </g>
      <g>
        <path class="st53" d="M79.6,325.2v-43.5c0-3.7,3-6.8,6.8-6.8h22.4c3.7,0,6.8,3,6.8,6.8v43.5c0,3.7-3,6.8-6.8,6.8H86.3
          C82.6,331.9,79.6,328.9,79.6,325.2z"/>
        <path class="st53" d="M79.6,386.3v-43.5c0-3.7,3-6.8,6.8-6.8h22.4c3.7,0,6.8,3,6.8,6.8v43.5c0,3.7-3,6.8-6.8,6.8H86.3
          C82.6,393,79.6,390,79.6,386.3z"/>
        <path class="st53" d="M79.6,446.6v-43.5c0-3.7,3-6.8,6.8-6.8h22.4c3.7,0,6.8,3,6.8,6.8v43.5c0,3.7-3,6.8-6.8,6.8H86.3
          C82.6,453.3,79.6,450.3,79.6,446.6z"/>
        <path class="st53" d="M79.6,507.6v-43.5c0-3.7,3-6.8,6.8-6.8h22.4c3.7,0,6.8,3,6.8,6.8v43.5c0,3.7-3,6.8-6.8,6.8H86.3
          C82.6,514.4,79.6,511.4,79.6,507.6z"/>
        <path class="st53" d="M79.6,568.7v-43.5c0-3.7,3-6.8,6.8-6.8h22.4c3.7,0,6.8,3,6.8,6.8v43.5c0,3.7-3,6.8-6.8,6.8H86.3
          C82.6,575.5,79.6,572.4,79.6,568.7z"/>
      </g>
      <g>
        <path class="st53" d="M79.6,202.6v-43.5c0-3.7,3-6.8,6.8-6.8h22.4c3.7,0,6.8,3,6.8,6.8v43.5c0,3.7-3,6.8-6.8,6.8H86.3
          C82.6,209.4,79.6,206.3,79.6,202.6z"/>
        <path class="st53" d="M79.6,263.7v-43.5c0-3.7,3-6.8,6.8-6.8h22.4c3.7,0,6.8,3,6.8,6.8v43.5c0,3.7-3,6.8-6.8,6.8H86.3
          C82.6,270.4,79.6,267.4,79.6,263.7z"/>
      </g>
    </g>
  </g>
  <g id="Letras">
    <text transform="matrix(1 0 0 1 913.5477 490.4663)" class="st55 st56">A</text>
    <g>
      <path id="path100202_00000069396579667118104190000008399522535308461489_" class="st57" d="M849.8,626.6l7.8-20.6l8.1,20.6"/>
      <path id="path100204_00000046322225529570936970000018364117054617168257_" class="st57" d="M852.8,619.7h9.9"/>
    </g>
    <g>
      <path id="path100206_00000109746313378387828510000015717424216411817345_" class="st57" d="M770.5,626.6v-20.6h9l3,0.9l0.9,0.9
        l0.9,2.1v2.1l-0.9,1.8l-0.9,0.9l-3,1.2h-9"/>
      <path id="path100208_00000056420733250021625700000011851804025765051269_" class="st57" d="M779.4,615.8l3,0.9l0.9,0.9l0.9,2.1v3
        l-0.9,1.8l-0.9,1.2l-3,0.9h-9"/>
    </g>
    <g>
      <path id="path100210_00000018194986034401946460000017890281406970548361_" class="st57" d="M695.9,610.7l-0.9-1.8l-2.1-2.1
        l-2.1-0.9h-3.9l-1.8,0.9l-2.1,2.1l-0.9,1.8l-1.2,3v5.1l1.2,3l0.9,1.8l2.1,2.1l1.8,0.9h3.9l2.1-0.9l2.1-2.1l0.9-1.8"/>
    </g>
    <g>
      <path id="path100212_00000183968741201772444000000003437944471213243528_" class="st57" d="M594.6,626.6v-20.6h6.9l3,0.9l1.8,2.1
        l0.9,1.8l1.2,3v5.1l-1.2,3l-0.9,1.8l-1.8,2.1l-3,0.9H594.6"/>
    </g>
    <g>
      <path id="path100214_00000015318327845936787700000009725883093831398537_" class="st57" d="M515.1,626.6v-20.6H528"/>
      <path id="path100216_00000098216734210519954280000016155815198623955876_" class="st57" d="M515.1,615.8h7.8"/>
      <path id="path100218_00000175309819607972099610000014319755394561776014_" class="st57" d="M515.1,626.6H528"/>
    </g>
    <g>
      <path id="path100220_00000127024776813517394800000013660195156277437336_" class="st57" d="M428.8,626.6v-20.6h12.9"/>
      <path id="path100222_00000042001163537914036260000008572447568420892806_" class="st57" d="M428.8,615.8h7.8"/>
    </g>
    <g>
      <path id="path100224_00000176723103405565101050000013929628566313088150_" class="st57" d="M354.8,610.7l-1.2-1.8l-1.8-2.1
        l-2.1-0.9h-3.9l-2.1,0.9l-1.8,2.1l-1.2,1.8l-0.9,3v5.1l0.9,3l1.2,1.8l1.8,2.1l2.1,0.9h3.9l2.1-0.9l1.8-2.1l1.2-1.8v-3h-5.1"/>
    </g>
    <g>
      <path id="path100226_00000038379941107680943440000004726605183576223642_" class="st57" d="M255.5,626.6v-20.6"/>
      <path id="path100228_00000156572885689508783900000016099626632737145009_" class="st57" d="M269.3,605.9v20.6"/>
      <path id="path100230_00000178917534729004303200000017132969895420419505_" class="st57" d="M255.5,615.8h13.8"/>
    </g>
    <path id="path100232_00000127732828515174179780000002640551537010396549_" class="st57" d="M176.5,626.6v-20.6"/>
    <path id="path100234_00000173148119484149842770000002358223776211516059_" class="st57" d="M102,605.9v15.8l-1.2,2.7l-0.9,1.2
      l-2.1,0.9H96l-2.1-0.9l-0.9-1.2l-0.9-2.7v-2.1"/>
  </g>
</svg>
