<?xml version="1.0" encoding="utf-8"?>
<!-- Generator: Adobe Illustrator 27.2.0, SVG Export Plug-In . SVG Version: 6.00 Build 0)  -->
<svg version="1.1" xmlns="http://www.w3.org/2000/svg" xmlns:xlink="http://www.w3.org/1999/xlink" x="0px" y="0px"
	 viewBox="0 0 1075.6 792" style="enable-background:new 0 0 1075.6 792;" xml:space="preserve">
  <style type="text/css">
    .st0{display:none;}
    .st1{display:inline;}
    .st2{fill:none;stroke:#DD6E00;stroke-width:2;stroke-linecap:round;stroke-linejoin:round;stroke-miterlimit:10;}
    .st3{fill:none;stroke:#0000FF;stroke-width:2;stroke-linecap:round;stroke-linejoin:round;stroke-miterlimit:10;}
    .st4{fill:none;stroke:#000000;stroke-width:2;stroke-linecap:round;stroke-linejoin:round;stroke-miterlimit:10;}
    .st5{fill:none;stroke:#BABABA;stroke-width:2;stroke-linecap:round;stroke-linejoin:round;stroke-miterlimit:10;}
    .st6{fill:none;stroke:#989898;stroke-width:2;stroke-linecap:round;stroke-linejoin:round;stroke-miterlimit:10;}
    .st7{fill:none;stroke:#FFFF00;stroke-width:2;stroke-linecap:round;stroke-linejoin:round;stroke-miterlimit:10;}
    .st8{fill:none;stroke:#FF0000;stroke-width:2;stroke-linecap:round;stroke-linejoin:round;stroke-miterlimit:10;}
    .st9{fill:none;stroke:#E69835;stroke-width:6;stroke-miterlimit:10;}
    .st10{fill:none;stroke:#D75A31;stroke-width:6;stroke-miterlimit:10;}
    .st11{fill:none;stroke:#AE2C2B;stroke-width:6;stroke-miterlimit:10;}
    .st12{fill:none;stroke:#FF6700;stroke-width:6;stroke-miterlimit:10;}
    .st13{fill:none;stroke:#50FFFF;stroke-width:6;stroke-miterlimit:10;}
    .st14{fill:none;stroke:#CB85E5;stroke-width:6;stroke-miterlimit:10;}
    .st15{fill:none;stroke:#7980B2;stroke-width:6;stroke-miterlimit:10;}
    .st16{fill:none;stroke:#3E2B1A;stroke-width:6;stroke-miterlimit:10;}
    .st17{fill:none;stroke:#42944B;stroke-width:6;stroke-miterlimit:10;}
    .st18{fill:none;stroke:#9D9D9C;stroke-width:6;stroke-miterlimit:10;}
    .st19{fill:none;stroke:#C39F6F;stroke-width:6;stroke-miterlimit:10;}
    .st20{fill:none;stroke:#F7EB50;stroke-width:6;stroke-miterlimit:10;}
    .st21{fill:#89277D;}
    .st22{fill:none;stroke:#0000FF;stroke-linecap:round;stroke-linejoin:round;}
    .st23{fill:#3670B3;}
    .st24{fill:#489F9A;}
    .st25{fill:#D22D7D;}
    .st26{fill:#2B6438;}
    .st27{fill:#00FFCE;}
    .st28{fill:#869363;}
    .st29{fill:#CB85E5;}
    .st30{fill:#FF6700;}
    .st31{fill:#7980B2;}
    .st32{fill:#F7EB50;}
    .st33{fill:#E69835;}
    .st34{fill:#D75A31;}
    .st35{fill:#AE2C2B;}
    .st36{fill:#786A5A;}
    .st37{fill:#282359;}
    .st38{fill:#9EC043;}
    .st39{fill:#469CDD;}
    .st40{fill:#5E287E;}
    .st41{fill:none;stroke:#5E287E;stroke-width:6;stroke-miterlimit:10;}
    .st42{fill:#D43673;}
    .st43{fill:#C39F6F;}
    .st44{fill:#9D9D9C;}
    .st45{fill:#42944B;}
    .st46{fill:#3E2B1A;}
    .st47{fill:#13514C;}
    .st48{fill:#425968;}
    .st49{fill:#536D01;}
    .st50{fill:#A87F1A;}
    .st51{fill:#50FFFF;}
    .st52{fill:none;stroke:#D43673;stroke-width:6;stroke-miterlimit:10;}
    .st53{fill:#D9D9D9;}
    .st54{fill:none;stroke:#1D1D1B;stroke-width:10;stroke-linecap:round;stroke-linejoin:round;stroke-miterlimit:10;}
    .st55{fill:none;stroke:#1D1D1B;stroke-width:3;stroke-linecap:round;stroke-linejoin:round;stroke-miterlimit:10;}
    .st56{font-family:'Arial-BoldMT';}
    .st57{font-size:86.1336px;}
    .st58{fill:none;stroke:#1D1D1B;stroke-width:6;stroke-linecap:round;stroke-linejoin:round;stroke-miterlimit:10;}
    .st59{fill:none;stroke:#1D1D1B;stroke-width:2;stroke-linecap:round;stroke-linejoin:round;stroke-miterlimit:10;}
  </style>
  <g id="Capa_1" class="st0">
  </g>
  <g id="Contorno_color">
    <polygon class="st13" points="305.3,91.6 305.3,18.9 256.9,18.9 256.9,774.3 294.8,774.3 305.3,774.3 749.9,774.3 749.9,91.6 	"/>
  </g>
  <g id="Asientos">
    <g>
      <g>
        <path class="st53" d="M312.3,719.1v-25.8c0-2.2,1.8-4.1,4.1-4.1h13.8c2.2,0,4.1,1.8,4.1,4.1v25.8c0,2.2-1.8,4.1-4.1,4.1h-13.8
          C314.2,723.1,312.3,721.3,312.3,719.1z"/>
      </g>
      <g>
        <path class="st53" d="M312.3,684.5v-25.8c0-2.2,1.8-4.1,4.1-4.1h13.8c2.2,0,4.1,1.8,4.1,4.1v25.8c0,2.2-1.8,4.1-4.1,4.1h-13.8
          C314.2,688.6,312.3,686.8,312.3,684.5z"/>
      </g>
      <g>
        <path class="st53" d="M312.3,650v-25.8c0-2.2,1.8-4.1,4.1-4.1h13.8c2.2,0,4.1,1.8,4.1,4.1V650c0,2.2-1.8,4.1-4.1,4.1h-13.8
          C314.2,654.1,312.3,652.2,312.3,650z"/>
      </g>
      <g>
        <path class="st53" d="M312.3,615.4v-25.8c0-2.2,1.8-4.1,4.1-4.1h13.8c2.2,0,4.1,1.8,4.1,4.1v25.8c0,2.2-1.8,4.1-4.1,4.1h-13.8
          C314.2,619.5,312.3,617.7,312.3,615.4z"/>
      </g>
      <g>
        <path class="st53" d="M312.3,580.9v-25.8c0-2.2,1.8-4.1,4.1-4.1h13.8c2.2,0,4.1,1.8,4.1,4.1v25.8c0,2.2-1.8,4.1-4.1,4.1h-13.8
          C314.2,585,312.3,583.1,312.3,580.9z"/>
      </g>
      <g>
        <path class="st53" d="M312.3,546.4v-25.8c0-2.2,1.8-4.1,4.1-4.1h13.8c2.2,0,4.1,1.8,4.1,4.1v25.8c0,2.2-1.8,4.1-4.1,4.1h-13.8
          C314.2,550.4,312.3,548.6,312.3,546.4z"/>
      </g>
      <g>
        <path class="st53" d="M312.3,511.8v-25.8c0-2.2,1.8-4.1,4.1-4.1h13.8c2.2,0,4.1,1.8,4.1,4.1v25.8c0,2.2-1.8,4.1-4.1,4.1h-13.8
          C314.2,515.9,312.3,514.1,312.3,511.8z"/>
      </g>
      <g>
        <path class="st53" d="M312.3,477.3v-25.8c0-2.2,1.8-4.1,4.1-4.1h13.8c2.2,0,4.1,1.8,4.1,4.1v25.8c0,2.2-1.8,4.1-4.1,4.1h-13.8
          C314.2,481.4,312.3,479.5,312.3,477.3z"/>
      </g>
      <g>
        <path class="st53" d="M312.3,442.7V417c0-2.2,1.8-4.1,4.1-4.1h13.8c2.2,0,4.1,1.8,4.1,4.1v25.8c0,2.2-1.8,4.1-4.1,4.1h-13.8
          C314.2,446.8,312.3,445,312.3,442.7z"/>
      </g>
      <g>
        <path class="st53" d="M312.3,408.2v-25.8c0-2.2,1.8-4.1,4.1-4.1h13.8c2.2,0,4.1,1.8,4.1,4.1v25.8c0,2.2-1.8,4.1-4.1,4.1h-13.8
          C314.2,412.3,312.3,410.5,312.3,408.2z"/>
      </g>
      <g>
        <path class="st53" d="M312.3,373.7v-25.8c0-2.2,1.8-4.1,4.1-4.1h13.8c2.2,0,4.1,1.8,4.1,4.1v25.8c0,2.2-1.8,4.1-4.1,4.1h-13.8
          C314.2,377.8,312.3,375.9,312.3,373.7z"/>
      </g>
      <g>
        <path class="st53" d="M312.3,339.1v-25.8c0-2.2,1.8-4.1,4.1-4.1h13.8c2.2,0,4.1,1.8,4.1,4.1v25.8c0,2.2-1.8,4.1-4.1,4.1h-13.8
          C314.2,343.2,312.3,341.4,312.3,339.1z"/>
      </g>
      <g>
        <path class="st53" d="M312.3,304.6v-25.8c0-2.2,1.8-4.1,4.1-4.1h13.8c2.2,0,4.1,1.8,4.1,4.1v25.8c0,2.2-1.8,4.1-4.1,4.1h-13.8
          C314.2,308.7,312.3,306.8,312.3,304.6z"/>
      </g>
      <g>
        <path class="st53" d="M312.3,270.1v-25.8c0-2.2,1.8-4.1,4.1-4.1h13.8c2.2,0,4.1,1.8,4.1,4.1v25.8c0,2.2-1.8,4.1-4.1,4.1h-13.8
          C314.2,274.1,312.3,272.3,312.3,270.1z"/>
      </g>
      <g>
        <path class="st53" d="M312.3,235.5v-25.8c0-2.2,1.8-4.1,4.1-4.1h13.8c2.2,0,4.1,1.8,4.1,4.1v25.8c0,2.2-1.8,4.1-4.1,4.1h-13.8
          C314.2,239.6,312.3,237.8,312.3,235.5z"/>
      </g>
      <g>
        <path class="st53" d="M312.3,201v-25.8c0-2.2,1.8-4.1,4.1-4.1h13.8c2.2,0,4.1,1.8,4.1,4.1V201c0,2.2-1.8,4.1-4.1,4.1h-13.8
          C314.2,205.1,312.3,203.2,312.3,201z"/>
      </g>
      <g>
        <path class="st53" d="M312.3,166.4v-25.8c0-2.2,1.8-4.1,4.1-4.1h13.8c2.2,0,4.1,1.8,4.1,4.1v25.8c0,2.2-1.8,4.1-4.1,4.1h-13.8
          C314.2,170.5,312.3,168.7,312.3,166.4z"/>
      </g>
      <g>
        <path class="st53" d="M312.3,131.9v-25.8c0-2.2,1.8-4.1,4.1-4.1h13.8c2.2,0,4.1,1.8,4.1,4.1v25.8c0,2.2-1.8,4.1-4.1,4.1h-13.8
          C314.2,136,312.3,134.1,312.3,131.9z"/>
      </g>
    </g>
    <g>
      <g>
        <path class="st53" d="M267.6,719.1v-25.8c0-2.2,1.8-4.1,4.1-4.1h13.8c2.2,0,4.1,1.8,4.1,4.1v25.8c0,2.2-1.8,4.1-4.1,4.1h-13.8
          C269.5,723.1,267.6,721.3,267.6,719.1z"/>
      </g>
      <g>
        <path class="st53" d="M267.6,754.7V729c0-2.2,1.8-4.1,4.1-4.1h13.8c2.2,0,4.1,1.8,4.1,4.1v25.8c0,2.2-1.8,4.1-4.1,4.1h-13.8
          C269.5,758.8,267.6,757,267.6,754.7z"/>
      </g>
      <g>
        <path class="st53" d="M267.6,684.5v-25.8c0-2.2,1.8-4.1,4.1-4.1h13.8c2.2,0,4.1,1.8,4.1,4.1v25.8c0,2.2-1.8,4.1-4.1,4.1h-13.8
          C269.5,688.6,267.6,686.8,267.6,684.5z"/>
      </g>
      <g>
        <path class="st53" d="M267.6,650v-25.8c0-2.2,1.8-4.1,4.1-4.1h13.8c2.2,0,4.1,1.8,4.1,4.1V650c0,2.2-1.8,4.1-4.1,4.1h-13.8
          C269.5,654.1,267.6,652.2,267.6,650z"/>
      </g>
      <g>
        <path class="st53" d="M267.6,615.4v-25.8c0-2.2,1.8-4.1,4.1-4.1h13.8c2.2,0,4.1,1.8,4.1,4.1v25.8c0,2.2-1.8,4.1-4.1,4.1h-13.8
          C269.5,619.5,267.6,617.7,267.6,615.4z"/>
      </g>
      <g>
        <path class="st53" d="M267.6,580.9v-25.8c0-2.2,1.8-4.1,4.1-4.1h13.8c2.2,0,4.1,1.8,4.1,4.1v25.8c0,2.2-1.8,4.1-4.1,4.1h-13.8
          C269.5,585,267.6,583.1,267.6,580.9z"/>
      </g>
      <g>
        <path class="st53" d="M267.6,546.4v-25.8c0-2.2,1.8-4.1,4.1-4.1h13.8c2.2,0,4.1,1.8,4.1,4.1v25.8c0,2.2-1.8,4.1-4.1,4.1h-13.8
          C269.5,550.4,267.6,548.6,267.6,546.4z"/>
      </g>
      <g>
        <path class="st53" d="M267.6,511.8v-25.8c0-2.2,1.8-4.1,4.1-4.1h13.8c2.2,0,4.1,1.8,4.1,4.1v25.8c0,2.2-1.8,4.1-4.1,4.1h-13.8
          C269.5,515.9,267.6,514.1,267.6,511.8z"/>
      </g>
      <g>
        <path class="st53" d="M267.6,477.3v-25.8c0-2.2,1.8-4.1,4.1-4.1h13.8c2.2,0,4.1,1.8,4.1,4.1v25.8c0,2.2-1.8,4.1-4.1,4.1h-13.8
          C269.5,481.4,267.6,479.5,267.6,477.3z"/>
      </g>
      <g>
        <path class="st53" d="M267.6,442.7V417c0-2.2,1.8-4.1,4.1-4.1h13.8c2.2,0,4.1,1.8,4.1,4.1v25.8c0,2.2-1.8,4.1-4.1,4.1h-13.8
          C269.5,446.8,267.6,445,267.6,442.7z"/>
      </g>
      <g>
        <path class="st53" d="M267.6,408.2v-25.8c0-2.2,1.8-4.1,4.1-4.1h13.8c2.2,0,4.1,1.8,4.1,4.1v25.8c0,2.2-1.8,4.1-4.1,4.1h-13.8
          C269.5,412.3,267.6,410.5,267.6,408.2z"/>
      </g>
      <g>
        <path class="st53" d="M267.6,373.7v-25.8c0-2.2,1.8-4.1,4.1-4.1h13.8c2.2,0,4.1,1.8,4.1,4.1v25.8c0,2.2-1.8,4.1-4.1,4.1h-13.8
          C269.5,377.8,267.6,375.9,267.6,373.7z"/>
      </g>
      <g>
        <path class="st53" d="M267.6,339.1v-25.8c0-2.2,1.8-4.1,4.1-4.1h13.8c2.2,0,4.1,1.8,4.1,4.1v25.8c0,2.2-1.8,4.1-4.1,4.1h-13.8
          C269.5,343.2,267.6,341.4,267.6,339.1z"/>
      </g>
      <g>
        <path class="st53" d="M267.6,304.6v-25.8c0-2.2,1.8-4.1,4.1-4.1h13.8c2.2,0,4.1,1.8,4.1,4.1v25.8c0,2.2-1.8,4.1-4.1,4.1h-13.8
          C269.5,308.7,267.6,306.8,267.6,304.6z"/>
      </g>
      <g>
        <path class="st53" d="M267.6,270.1v-25.8c0-2.2,1.8-4.1,4.1-4.1h13.8c2.2,0,4.1,1.8,4.1,4.1v25.8c0,2.2-1.8,4.1-4.1,4.1h-13.8
          C269.5,274.1,267.6,272.3,267.6,270.1z"/>
      </g>
      <g>
        <path class="st53" d="M267.6,235.5v-25.8c0-2.2,1.8-4.1,4.1-4.1h13.8c2.2,0,4.1,1.8,4.1,4.1v25.8c0,2.2-1.8,4.1-4.1,4.1h-13.8
          C269.5,239.6,267.6,237.8,267.6,235.5z"/>
      </g>
      <g>
        <path class="st53" d="M267.6,201v-25.8c0-2.2,1.8-4.1,4.1-4.1h13.8c2.2,0,4.1,1.8,4.1,4.1V201c0,2.2-1.8,4.1-4.1,4.1h-13.8
          C269.5,205.1,267.6,203.2,267.6,201z"/>
      </g>
      <g>
        <path class="st53" d="M267.6,166.4v-25.8c0-2.2,1.8-4.1,4.1-4.1h13.8c2.2,0,4.1,1.8,4.1,4.1v25.8c0,2.2-1.8,4.1-4.1,4.1h-13.8
          C269.5,170.5,267.6,168.7,267.6,166.4z"/>
      </g>
      <g>
        <path class="st53" d="M267.6,131.9v-25.8c0-2.2,1.8-4.1,4.1-4.1h13.8c2.2,0,4.1,1.8,4.1,4.1v25.8c0,2.2-1.8,4.1-4.1,4.1h-13.8
          C269.5,136,267.6,134.1,267.6,131.9z"/>
      </g>
      <g>
        <path class="st53" d="M267.6,96.8V71c0-2.2,1.8-4.1,4.1-4.1h13.8c2.2,0,4.1,1.8,4.1,4.1v25.8c0,2.2-1.8,4.1-4.1,4.1h-13.8
          C269.5,100.8,267.6,99,267.6,96.8z"/>
      </g>
      <g>
        <path class="st53" d="M267.6,62.2V36.5c0-2.2,1.8-4.1,4.1-4.1h13.8c2.2,0,4.1,1.8,4.1,4.1v25.8c0,2.2-1.8,4.1-4.1,4.1h-13.8
          C269.5,66.3,267.6,64.5,267.6,62.2z"/>
      </g>
    </g>
    <g>
      <g>
        <path class="st53" d="M363.7,719.1v-25.8c0-2.2,1.8-4.1,4.1-4.1h13.8c2.2,0,4.1,1.8,4.1,4.1v25.8c0,2.2-1.8,4.1-4.1,4.1h-13.8
          C365.5,723.1,363.7,721.3,363.7,719.1z"/>
      </g>
      <g>
        <path class="st53" d="M363.7,684.5v-25.8c0-2.2,1.8-4.1,4.1-4.1h13.8c2.2,0,4.1,1.8,4.1,4.1v25.8c0,2.2-1.8,4.1-4.1,4.1h-13.8
          C365.5,688.6,363.7,686.8,363.7,684.5z"/>
      </g>
      <g>
        <path class="st53" d="M363.7,650v-25.8c0-2.2,1.8-4.1,4.1-4.1h13.8c2.2,0,4.1,1.8,4.1,4.1V650c0,2.2-1.8,4.1-4.1,4.1h-13.8
          C365.5,654.1,363.7,652.2,363.7,650z"/>
      </g>
      <g>
        <path class="st53" d="M363.7,615.4v-25.8c0-2.2,1.8-4.1,4.1-4.1h13.8c2.2,0,4.1,1.8,4.1,4.1v25.8c0,2.2-1.8,4.1-4.1,4.1h-13.8
          C365.5,619.5,363.7,617.7,363.7,615.4z"/>
      </g>
      <g>
        <path class="st53" d="M363.7,580.9v-25.8c0-2.2,1.8-4.1,4.1-4.1h13.8c2.2,0,4.1,1.8,4.1,4.1v25.8c0,2.2-1.8,4.1-4.1,4.1h-13.8
          C365.5,585,363.7,583.1,363.7,580.9z"/>
      </g>
      <g>
        <path class="st53" d="M363.7,546.4v-25.8c0-2.2,1.8-4.1,4.1-4.1h13.8c2.2,0,4.1,1.8,4.1,4.1v25.8c0,2.2-1.8,4.1-4.1,4.1h-13.8
          C365.5,550.4,363.7,548.6,363.7,546.4z"/>
      </g>
      <g>
        <path class="st53" d="M363.7,511.8v-25.8c0-2.2,1.8-4.1,4.1-4.1h13.8c2.2,0,4.1,1.8,4.1,4.1v25.8c0,2.2-1.8,4.1-4.1,4.1h-13.8
          C365.5,515.9,363.7,514.1,363.7,511.8z"/>
      </g>
      <g>
        <path class="st53" d="M363.7,477.3v-25.8c0-2.2,1.8-4.1,4.1-4.1h13.8c2.2,0,4.1,1.8,4.1,4.1v25.8c0,2.2-1.8,4.1-4.1,4.1h-13.8
          C365.5,481.4,363.7,479.5,363.7,477.3z"/>
      </g>
      <g>
        <path class="st53" d="M363.7,442.7V417c0-2.2,1.8-4.1,4.1-4.1h13.8c2.2,0,4.1,1.8,4.1,4.1v25.8c0,2.2-1.8,4.1-4.1,4.1h-13.8
          C365.5,446.8,363.7,445,363.7,442.7z"/>
      </g>
      <g>
        <path class="st53" d="M363.7,408.2v-25.8c0-2.2,1.8-4.1,4.1-4.1h13.8c2.2,0,4.1,1.8,4.1,4.1v25.8c0,2.2-1.8,4.1-4.1,4.1h-13.8
          C365.5,412.3,363.7,410.5,363.7,408.2z"/>
      </g>
      <g>
        <path class="st53" d="M363.7,373.7v-25.8c0-2.2,1.8-4.1,4.1-4.1h13.8c2.2,0,4.1,1.8,4.1,4.1v25.8c0,2.2-1.8,4.1-4.1,4.1h-13.8
          C365.5,377.8,363.7,375.9,363.7,373.7z"/>
      </g>
      <g>
        <path class="st53" d="M363.7,339.1v-25.8c0-2.2,1.8-4.1,4.1-4.1h13.8c2.2,0,4.1,1.8,4.1,4.1v25.8c0,2.2-1.8,4.1-4.1,4.1h-13.8
          C365.5,343.2,363.7,341.4,363.7,339.1z"/>
      </g>
      <g>
        <path class="st53" d="M363.7,304.6v-25.8c0-2.2,1.8-4.1,4.1-4.1h13.8c2.2,0,4.1,1.8,4.1,4.1v25.8c0,2.2-1.8,4.1-4.1,4.1h-13.8
          C365.5,308.7,363.7,306.8,363.7,304.6z"/>
      </g>
      <g>
        <path class="st53" d="M363.7,270.1v-25.8c0-2.2,1.8-4.1,4.1-4.1h13.8c2.2,0,4.1,1.8,4.1,4.1v25.8c0,2.2-1.8,4.1-4.1,4.1h-13.8
          C365.5,274.1,363.7,272.3,363.7,270.1z"/>
      </g>
      <g>
        <path class="st53" d="M363.7,235.5v-25.8c0-2.2,1.8-4.1,4.1-4.1h13.8c2.2,0,4.1,1.8,4.1,4.1v25.8c0,2.2-1.8,4.1-4.1,4.1h-13.8
          C365.5,239.6,363.7,237.8,363.7,235.5z"/>
      </g>
      <g>
        <path class="st53" d="M363.7,201v-25.8c0-2.2,1.8-4.1,4.1-4.1h13.8c2.2,0,4.1,1.8,4.1,4.1V201c0,2.2-1.8,4.1-4.1,4.1h-13.8
          C365.5,205.1,363.7,203.2,363.7,201z"/>
      </g>
      <g>
        <path class="st53" d="M363.7,166.4v-25.8c0-2.2,1.8-4.1,4.1-4.1h13.8c2.2,0,4.1,1.8,4.1,4.1v25.8c0,2.2-1.8,4.1-4.1,4.1h-13.8
          C365.5,170.5,363.7,168.7,363.7,166.4z"/>
      </g>
      <g>
        <path class="st53" d="M363.7,131.9v-25.8c0-2.2,1.8-4.1,4.1-4.1h13.8c2.2,0,4.1,1.8,4.1,4.1v25.8c0,2.2-1.8,4.1-4.1,4.1h-13.8
          C365.5,136,363.7,134.1,363.7,131.9z"/>
      </g>
    </g>
    <g>
      <g>
        <path class="st53" d="M413.5,719.1v-25.8c0-2.2,1.8-4.1,4.1-4.1h13.8c2.2,0,4.1,1.8,4.1,4.1v25.8c0,2.2-1.8,4.1-4.1,4.1h-13.8
          C415.4,723.1,413.5,721.3,413.5,719.1z"/>
      </g>
      <g>
        <path class="st53" d="M413.5,684.5v-25.8c0-2.2,1.8-4.1,4.1-4.1h13.8c2.2,0,4.1,1.8,4.1,4.1v25.8c0,2.2-1.8,4.1-4.1,4.1h-13.8
          C415.4,688.6,413.5,686.8,413.5,684.5z"/>
      </g>
      <g>
        <path class="st53" d="M413.5,650v-25.8c0-2.2,1.8-4.1,4.1-4.1h13.8c2.2,0,4.1,1.8,4.1,4.1V650c0,2.2-1.8,4.1-4.1,4.1h-13.8
          C415.4,654.1,413.5,652.2,413.5,650z"/>
      </g>
      <g>
        <path class="st53" d="M413.5,615.4v-25.8c0-2.2,1.8-4.1,4.1-4.1h13.8c2.2,0,4.1,1.8,4.1,4.1v25.8c0,2.2-1.8,4.1-4.1,4.1h-13.8
          C415.4,619.5,413.5,617.7,413.5,615.4z"/>
      </g>
      <g>
        <path class="st53" d="M413.5,580.9v-25.8c0-2.2,1.8-4.1,4.1-4.1h13.8c2.2,0,4.1,1.8,4.1,4.1v25.8c0,2.2-1.8,4.1-4.1,4.1h-13.8
          C415.4,585,413.5,583.1,413.5,580.9z"/>
      </g>
      <g>
        <path class="st53" d="M413.5,546.4v-25.8c0-2.2,1.8-4.1,4.1-4.1h13.8c2.2,0,4.1,1.8,4.1,4.1v25.8c0,2.2-1.8,4.1-4.1,4.1h-13.8
          C415.4,550.4,413.5,548.6,413.5,546.4z"/>
      </g>
      <g>
        <path class="st53" d="M413.5,511.8v-25.8c0-2.2,1.8-4.1,4.1-4.1h13.8c2.2,0,4.1,1.8,4.1,4.1v25.8c0,2.2-1.8,4.1-4.1,4.1h-13.8
          C415.4,515.9,413.5,514.1,413.5,511.8z"/>
      </g>
      <g>
        <path class="st53" d="M413.5,477.3v-25.8c0-2.2,1.8-4.1,4.1-4.1h13.8c2.2,0,4.1,1.8,4.1,4.1v25.8c0,2.2-1.8,4.1-4.1,4.1h-13.8
          C415.4,481.4,413.5,479.5,413.5,477.3z"/>
      </g>
      <g>
        <path class="st53" d="M413.5,442.7V417c0-2.2,1.8-4.1,4.1-4.1h13.8c2.2,0,4.1,1.8,4.1,4.1v25.8c0,2.2-1.8,4.1-4.1,4.1h-13.8
          C415.4,446.8,413.5,445,413.5,442.7z"/>
      </g>
      <g>
        <path class="st53" d="M413.5,408.2v-25.8c0-2.2,1.8-4.1,4.1-4.1h13.8c2.2,0,4.1,1.8,4.1,4.1v25.8c0,2.2-1.8,4.1-4.1,4.1h-13.8
          C415.4,412.3,413.5,410.5,413.5,408.2z"/>
      </g>
      <g>
        <path class="st53" d="M413.5,373.7v-25.8c0-2.2,1.8-4.1,4.1-4.1h13.8c2.2,0,4.1,1.8,4.1,4.1v25.8c0,2.2-1.8,4.1-4.1,4.1h-13.8
          C415.4,377.8,413.5,375.9,413.5,373.7z"/>
      </g>
      <g>
        <path class="st53" d="M413.5,339.1v-25.8c0-2.2,1.8-4.1,4.1-4.1h13.8c2.2,0,4.1,1.8,4.1,4.1v25.8c0,2.2-1.8,4.1-4.1,4.1h-13.8
          C415.4,343.2,413.5,341.4,413.5,339.1z"/>
      </g>
      <g>
        <path class="st53" d="M413.5,304.6v-25.8c0-2.2,1.8-4.1,4.1-4.1h13.8c2.2,0,4.1,1.8,4.1,4.1v25.8c0,2.2-1.8,4.1-4.1,4.1h-13.8
          C415.4,308.7,413.5,306.8,413.5,304.6z"/>
      </g>
      <g>
        <path class="st53" d="M413.5,270.1v-25.8c0-2.2,1.8-4.1,4.1-4.1h13.8c2.2,0,4.1,1.8,4.1,4.1v25.8c0,2.2-1.8,4.1-4.1,4.1h-13.8
          C415.4,274.1,413.5,272.3,413.5,270.1z"/>
      </g>
      <g>
        <path class="st53" d="M413.5,235.5v-25.8c0-2.2,1.8-4.1,4.1-4.1h13.8c2.2,0,4.1,1.8,4.1,4.1v25.8c0,2.2-1.8,4.1-4.1,4.1h-13.8
          C415.4,239.6,413.5,237.8,413.5,235.5z"/>
      </g>
      <g>
        <path class="st53" d="M413.5,201v-25.8c0-2.2,1.8-4.1,4.1-4.1h13.8c2.2,0,4.1,1.8,4.1,4.1V201c0,2.2-1.8,4.1-4.1,4.1h-13.8
          C415.4,205.1,413.5,203.2,413.5,201z"/>
      </g>
      <g>
        <path class="st53" d="M413.5,166.4v-25.8c0-2.2,1.8-4.1,4.1-4.1h13.8c2.2,0,4.1,1.8,4.1,4.1v25.8c0,2.2-1.8,4.1-4.1,4.1h-13.8
          C415.4,170.5,413.5,168.7,413.5,166.4z"/>
      </g>
      <g>
        <path class="st53" d="M413.5,131.9v-25.8c0-2.2,1.8-4.1,4.1-4.1h13.8c2.2,0,4.1,1.8,4.1,4.1v25.8c0,2.2-1.8,4.1-4.1,4.1h-13.8
          C415.4,136,413.5,134.1,413.5,131.9z"/>
      </g>
    </g>
    <g>
      <g>
        <path class="st53" d="M464.9,719.1v-25.8c0-2.2,1.8-4.1,4.1-4.1h13.8c2.2,0,4.1,1.8,4.1,4.1v25.8c0,2.2-1.8,4.1-4.1,4.1H469
          C466.7,723.1,464.9,721.3,464.9,719.1z"/>
      </g>
      <g>
        <path class="st53" d="M464.9,684.5v-25.8c0-2.2,1.8-4.1,4.1-4.1h13.8c2.2,0,4.1,1.8,4.1,4.1v25.8c0,2.2-1.8,4.1-4.1,4.1H469
          C466.7,688.6,464.9,686.8,464.9,684.5z"/>
      </g>
      <g>
        <path class="st53" d="M464.9,650v-25.8c0-2.2,1.8-4.1,4.1-4.1h13.8c2.2,0,4.1,1.8,4.1,4.1V650c0,2.2-1.8,4.1-4.1,4.1H469
          C466.7,654.1,464.9,652.2,464.9,650z"/>
      </g>
      <g>
        <path class="st53" d="M464.9,615.4v-25.8c0-2.2,1.8-4.1,4.1-4.1h13.8c2.2,0,4.1,1.8,4.1,4.1v25.8c0,2.2-1.8,4.1-4.1,4.1H469
          C466.7,619.5,464.9,617.7,464.9,615.4z"/>
      </g>
      <g>
        <path class="st53" d="M464.9,580.9v-25.8c0-2.2,1.8-4.1,4.1-4.1h13.8c2.2,0,4.1,1.8,4.1,4.1v25.8c0,2.2-1.8,4.1-4.1,4.1H469
          C466.7,585,464.9,583.1,464.9,580.9z"/>
      </g>
      <g>
        <path class="st53" d="M464.9,546.4v-25.8c0-2.2,1.8-4.1,4.1-4.1h13.8c2.2,0,4.1,1.8,4.1,4.1v25.8c0,2.2-1.8,4.1-4.1,4.1H469
          C466.7,550.4,464.9,548.6,464.9,546.4z"/>
      </g>
      <g>
        <path class="st53" d="M464.9,511.8v-25.8c0-2.2,1.8-4.1,4.1-4.1h13.8c2.2,0,4.1,1.8,4.1,4.1v25.8c0,2.2-1.8,4.1-4.1,4.1H469
          C466.7,515.9,464.9,514.1,464.9,511.8z"/>
      </g>
      <g>
        <path class="st53" d="M464.9,477.3v-25.8c0-2.2,1.8-4.1,4.1-4.1h13.8c2.2,0,4.1,1.8,4.1,4.1v25.8c0,2.2-1.8,4.1-4.1,4.1H469
          C466.7,481.4,464.9,479.5,464.9,477.3z"/>
      </g>
      <g>
        <path class="st53" d="M464.9,442.7V417c0-2.2,1.8-4.1,4.1-4.1h13.8c2.2,0,4.1,1.8,4.1,4.1v25.8c0,2.2-1.8,4.1-4.1,4.1H469
          C466.7,446.8,464.9,445,464.9,442.7z"/>
      </g>
      <g>
        <path class="st53" d="M464.9,408.2v-25.8c0-2.2,1.8-4.1,4.1-4.1h13.8c2.2,0,4.1,1.8,4.1,4.1v25.8c0,2.2-1.8,4.1-4.1,4.1H469
          C466.7,412.3,464.9,410.5,464.9,408.2z"/>
      </g>
      <g>
        <path class="st53" d="M464.9,373.7v-25.8c0-2.2,1.8-4.1,4.1-4.1h13.8c2.2,0,4.1,1.8,4.1,4.1v25.8c0,2.2-1.8,4.1-4.1,4.1H469
          C466.7,377.8,464.9,375.9,464.9,373.7z"/>
      </g>
      <g>
        <path class="st53" d="M464.9,339.1v-25.8c0-2.2,1.8-4.1,4.1-4.1h13.8c2.2,0,4.1,1.8,4.1,4.1v25.8c0,2.2-1.8,4.1-4.1,4.1H469
          C466.7,343.2,464.9,341.4,464.9,339.1z"/>
      </g>
      <g>
        <path class="st53" d="M464.9,304.6v-25.8c0-2.2,1.8-4.1,4.1-4.1h13.8c2.2,0,4.1,1.8,4.1,4.1v25.8c0,2.2-1.8,4.1-4.1,4.1H469
          C466.7,308.7,464.9,306.8,464.9,304.6z"/>
      </g>
      <g>
        <path class="st53" d="M464.9,270.1v-25.8c0-2.2,1.8-4.1,4.1-4.1h13.8c2.2,0,4.1,1.8,4.1,4.1v25.8c0,2.2-1.8,4.1-4.1,4.1H469
          C466.7,274.1,464.9,272.3,464.9,270.1z"/>
      </g>
      <g>
        <path class="st53" d="M464.9,235.5v-25.8c0-2.2,1.8-4.1,4.1-4.1h13.8c2.2,0,4.1,1.8,4.1,4.1v25.8c0,2.2-1.8,4.1-4.1,4.1H469
          C466.7,239.6,464.9,237.8,464.9,235.5z"/>
      </g>
      <g>
        <path class="st53" d="M464.9,201v-25.8c0-2.2,1.8-4.1,4.1-4.1h13.8c2.2,0,4.1,1.8,4.1,4.1V201c0,2.2-1.8,4.1-4.1,4.1H469
          C466.7,205.1,464.9,203.2,464.9,201z"/>
      </g>
      <g>
        <path class="st53" d="M464.9,166.4v-25.8c0-2.2,1.8-4.1,4.1-4.1h13.8c2.2,0,4.1,1.8,4.1,4.1v25.8c0,2.2-1.8,4.1-4.1,4.1H469
          C466.7,170.5,464.9,168.7,464.9,166.4z"/>
      </g>
      <g>
        <path class="st53" d="M464.9,131.9v-25.8c0-2.2,1.8-4.1,4.1-4.1h13.8c2.2,0,4.1,1.8,4.1,4.1v25.8c0,2.2-1.8,4.1-4.1,4.1H469
          C466.7,136,464.9,134.1,464.9,131.9z"/>
      </g>
    </g>
    <g>
      <g>
        <path class="st53" d="M514.3,719.1v-25.8c0-2.2,1.8-4.1,4.1-4.1h13.8c2.2,0,4.1,1.8,4.1,4.1v25.8c0,2.2-1.8,4.1-4.1,4.1h-13.8
          C516.2,723.1,514.3,721.3,514.3,719.1z"/>
      </g>
      <g>
        <path class="st53" d="M514.3,684.5v-25.8c0-2.2,1.8-4.1,4.1-4.1h13.8c2.2,0,4.1,1.8,4.1,4.1v25.8c0,2.2-1.8,4.1-4.1,4.1h-13.8
          C516.2,688.6,514.3,686.8,514.3,684.5z"/>
      </g>
      <g>
        <path class="st53" d="M514.3,650v-25.8c0-2.2,1.8-4.1,4.1-4.1h13.8c2.2,0,4.1,1.8,4.1,4.1V650c0,2.2-1.8,4.1-4.1,4.1h-13.8
          C516.2,654.1,514.3,652.2,514.3,650z"/>
      </g>
      <g>
        <path class="st53" d="M514.3,615.4v-25.8c0-2.2,1.8-4.1,4.1-4.1h13.8c2.2,0,4.1,1.8,4.1,4.1v25.8c0,2.2-1.8,4.1-4.1,4.1h-13.8
          C516.2,619.5,514.3,617.7,514.3,615.4z"/>
      </g>
      <g>
        <path class="st53" d="M514.3,580.9v-25.8c0-2.2,1.8-4.1,4.1-4.1h13.8c2.2,0,4.1,1.8,4.1,4.1v25.8c0,2.2-1.8,4.1-4.1,4.1h-13.8
          C516.2,585,514.3,583.1,514.3,580.9z"/>
      </g>
      <g>
        <path class="st53" d="M514.3,546.4v-25.8c0-2.2,1.8-4.1,4.1-4.1h13.8c2.2,0,4.1,1.8,4.1,4.1v25.8c0,2.2-1.8,4.1-4.1,4.1h-13.8
          C516.2,550.4,514.3,548.6,514.3,546.4z"/>
      </g>
      <g>
        <path class="st53" d="M514.3,511.8v-25.8c0-2.2,1.8-4.1,4.1-4.1h13.8c2.2,0,4.1,1.8,4.1,4.1v25.8c0,2.2-1.8,4.1-4.1,4.1h-13.8
          C516.2,515.9,514.3,514.1,514.3,511.8z"/>
      </g>
      <g>
        <path class="st53" d="M514.3,477.3v-25.8c0-2.2,1.8-4.1,4.1-4.1h13.8c2.2,0,4.1,1.8,4.1,4.1v25.8c0,2.2-1.8,4.1-4.1,4.1h-13.8
          C516.2,481.4,514.3,479.5,514.3,477.3z"/>
      </g>
      <g>
        <path class="st53" d="M514.3,442.7V417c0-2.2,1.8-4.1,4.1-4.1h13.8c2.2,0,4.1,1.8,4.1,4.1v25.8c0,2.2-1.8,4.1-4.1,4.1h-13.8
          C516.2,446.8,514.3,445,514.3,442.7z"/>
      </g>
      <g>
        <path class="st53" d="M514.3,408.2v-25.8c0-2.2,1.8-4.1,4.1-4.1h13.8c2.2,0,4.1,1.8,4.1,4.1v25.8c0,2.2-1.8,4.1-4.1,4.1h-13.8
          C516.2,412.3,514.3,410.5,514.3,408.2z"/>
      </g>
      <g>
        <path class="st53" d="M514.3,373.7v-25.8c0-2.2,1.8-4.1,4.1-4.1h13.8c2.2,0,4.1,1.8,4.1,4.1v25.8c0,2.2-1.8,4.1-4.1,4.1h-13.8
          C516.2,377.8,514.3,375.9,514.3,373.7z"/>
      </g>
      <g>
        <path class="st53" d="M514.3,339.1v-25.8c0-2.2,1.8-4.1,4.1-4.1h13.8c2.2,0,4.1,1.8,4.1,4.1v25.8c0,2.2-1.8,4.1-4.1,4.1h-13.8
          C516.2,343.2,514.3,341.4,514.3,339.1z"/>
      </g>
      <g>
        <path class="st53" d="M514.3,304.6v-25.8c0-2.2,1.8-4.1,4.1-4.1h13.8c2.2,0,4.1,1.8,4.1,4.1v25.8c0,2.2-1.8,4.1-4.1,4.1h-13.8
          C516.2,308.7,514.3,306.8,514.3,304.6z"/>
      </g>
      <g>
        <path class="st53" d="M514.3,270.1v-25.8c0-2.2,1.8-4.1,4.1-4.1h13.8c2.2,0,4.1,1.8,4.1,4.1v25.8c0,2.2-1.8,4.1-4.1,4.1h-13.8
          C516.2,274.1,514.3,272.3,514.3,270.1z"/>
      </g>
      <g>
        <path class="st53" d="M514.3,235.5v-25.8c0-2.2,1.8-4.1,4.1-4.1h13.8c2.2,0,4.1,1.8,4.1,4.1v25.8c0,2.2-1.8,4.1-4.1,4.1h-13.8
          C516.2,239.6,514.3,237.8,514.3,235.5z"/>
      </g>
      <g>
        <path class="st53" d="M514.3,201v-25.8c0-2.2,1.8-4.1,4.1-4.1h13.8c2.2,0,4.1,1.8,4.1,4.1V201c0,2.2-1.8,4.1-4.1,4.1h-13.8
          C516.2,205.1,514.3,203.2,514.3,201z"/>
      </g>
      <g>
        <path class="st53" d="M514.3,166.4v-25.8c0-2.2,1.8-4.1,4.1-4.1h13.8c2.2,0,4.1,1.8,4.1,4.1v25.8c0,2.2-1.8,4.1-4.1,4.1h-13.8
          C516.2,170.5,514.3,168.7,514.3,166.4z"/>
      </g>
      <g>
        <path class="st53" d="M514.3,131.9v-25.8c0-2.2,1.8-4.1,4.1-4.1h13.8c2.2,0,4.1,1.8,4.1,4.1v25.8c0,2.2-1.8,4.1-4.1,4.1h-13.8
          C516.2,136,514.3,134.1,514.3,131.9z"/>
      </g>
    </g>
    <g>
      <g>
        <path class="st53" d="M565.7,719.1v-25.8c0-2.2,1.8-4.1,4.1-4.1h13.8c2.2,0,4.1,1.8,4.1,4.1v25.8c0,2.2-1.8,4.1-4.1,4.1h-13.8
          C567.5,723.1,565.7,721.3,565.7,719.1z"/>
      </g>
      <g>
        <path class="st53" d="M565.7,684.5v-25.8c0-2.2,1.8-4.1,4.1-4.1h13.8c2.2,0,4.1,1.8,4.1,4.1v25.8c0,2.2-1.8,4.1-4.1,4.1h-13.8
          C567.5,688.6,565.7,686.8,565.7,684.5z"/>
      </g>
      <g>
        <path class="st53" d="M565.7,650v-25.8c0-2.2,1.8-4.1,4.1-4.1h13.8c2.2,0,4.1,1.8,4.1,4.1V650c0,2.2-1.8,4.1-4.1,4.1h-13.8
          C567.5,654.1,565.7,652.2,565.7,650z"/>
      </g>
      <g>
        <path class="st53" d="M565.7,615.4v-25.8c0-2.2,1.8-4.1,4.1-4.1h13.8c2.2,0,4.1,1.8,4.1,4.1v25.8c0,2.2-1.8,4.1-4.1,4.1h-13.8
          C567.5,619.5,565.7,617.7,565.7,615.4z"/>
      </g>
      <g>
        <path class="st53" d="M565.7,580.9v-25.8c0-2.2,1.8-4.1,4.1-4.1h13.8c2.2,0,4.1,1.8,4.1,4.1v25.8c0,2.2-1.8,4.1-4.1,4.1h-13.8
          C567.5,585,565.7,583.1,565.7,580.9z"/>
      </g>
      <g>
        <path class="st53" d="M565.7,546.4v-25.8c0-2.2,1.8-4.1,4.1-4.1h13.8c2.2,0,4.1,1.8,4.1,4.1v25.8c0,2.2-1.8,4.1-4.1,4.1h-13.8
          C567.5,550.4,565.7,548.6,565.7,546.4z"/>
      </g>
      <g>
        <path class="st53" d="M565.7,511.8v-25.8c0-2.2,1.8-4.1,4.1-4.1h13.8c2.2,0,4.1,1.8,4.1,4.1v25.8c0,2.2-1.8,4.1-4.1,4.1h-13.8
          C567.5,515.9,565.7,514.1,565.7,511.8z"/>
      </g>
      <g>
        <path class="st53" d="M565.7,477.3v-25.8c0-2.2,1.8-4.1,4.1-4.1h13.8c2.2,0,4.1,1.8,4.1,4.1v25.8c0,2.2-1.8,4.1-4.1,4.1h-13.8
          C567.5,481.4,565.7,479.5,565.7,477.3z"/>
      </g>
      <g>
        <path class="st53" d="M565.7,442.7V417c0-2.2,1.8-4.1,4.1-4.1h13.8c2.2,0,4.1,1.8,4.1,4.1v25.8c0,2.2-1.8,4.1-4.1,4.1h-13.8
          C567.5,446.8,565.7,445,565.7,442.7z"/>
      </g>
      <g>
        <path class="st53" d="M565.7,408.2v-25.8c0-2.2,1.8-4.1,4.1-4.1h13.8c2.2,0,4.1,1.8,4.1,4.1v25.8c0,2.2-1.8,4.1-4.1,4.1h-13.8
          C567.5,412.3,565.7,410.5,565.7,408.2z"/>
      </g>
      <g>
        <path class="st53" d="M565.7,373.7v-25.8c0-2.2,1.8-4.1,4.1-4.1h13.8c2.2,0,4.1,1.8,4.1,4.1v25.8c0,2.2-1.8,4.1-4.1,4.1h-13.8
          C567.5,377.8,565.7,375.9,565.7,373.7z"/>
      </g>
      <g>
        <path class="st53" d="M565.7,339.1v-25.8c0-2.2,1.8-4.1,4.1-4.1h13.8c2.2,0,4.1,1.8,4.1,4.1v25.8c0,2.2-1.8,4.1-4.1,4.1h-13.8
          C567.5,343.2,565.7,341.4,565.7,339.1z"/>
      </g>
      <g>
        <path class="st53" d="M565.7,304.6v-25.8c0-2.2,1.8-4.1,4.1-4.1h13.8c2.2,0,4.1,1.8,4.1,4.1v25.8c0,2.2-1.8,4.1-4.1,4.1h-13.8
          C567.5,308.7,565.7,306.8,565.7,304.6z"/>
      </g>
      <g>
        <path class="st53" d="M565.7,270.1v-25.8c0-2.2,1.8-4.1,4.1-4.1h13.8c2.2,0,4.1,1.8,4.1,4.1v25.8c0,2.2-1.8,4.1-4.1,4.1h-13.8
          C567.5,274.1,565.7,272.3,565.7,270.1z"/>
      </g>
      <g>
        <path class="st53" d="M565.7,235.5v-25.8c0-2.2,1.8-4.1,4.1-4.1h13.8c2.2,0,4.1,1.8,4.1,4.1v25.8c0,2.2-1.8,4.1-4.1,4.1h-13.8
          C567.5,239.6,565.7,237.8,565.7,235.5z"/>
      </g>
      <g>
        <path class="st53" d="M565.7,201v-25.8c0-2.2,1.8-4.1,4.1-4.1h13.8c2.2,0,4.1,1.8,4.1,4.1V201c0,2.2-1.8,4.1-4.1,4.1h-13.8
          C567.5,205.1,565.7,203.2,565.7,201z"/>
      </g>
      <g>
        <path class="st53" d="M565.7,166.4v-25.8c0-2.2,1.8-4.1,4.1-4.1h13.8c2.2,0,4.1,1.8,4.1,4.1v25.8c0,2.2-1.8,4.1-4.1,4.1h-13.8
          C567.5,170.5,565.7,168.7,565.7,166.4z"/>
      </g>
      <g>
        <path class="st53" d="M565.7,131.9v-25.8c0-2.2,1.8-4.1,4.1-4.1h13.8c2.2,0,4.1,1.8,4.1,4.1v25.8c0,2.2-1.8,4.1-4.1,4.1h-13.8
          C567.5,136,565.7,134.1,565.7,131.9z"/>
      </g>
    </g>
    <g>
      <g>
        <path class="st53" d="M615.6,719.1v-25.8c0-2.2,1.8-4.1,4.1-4.1h13.8c2.2,0,4.1,1.8,4.1,4.1v25.8c0,2.2-1.8,4.1-4.1,4.1h-13.8
          C617.4,723.1,615.6,721.3,615.6,719.1z"/>
      </g>
      <g>
        <path class="st53" d="M615.6,684.5v-25.8c0-2.2,1.8-4.1,4.1-4.1h13.8c2.2,0,4.1,1.8,4.1,4.1v25.8c0,2.2-1.8,4.1-4.1,4.1h-13.8
          C617.4,688.6,615.6,686.8,615.6,684.5z"/>
      </g>
      <g>
        <path class="st53" d="M615.6,650v-25.8c0-2.2,1.8-4.1,4.1-4.1h13.8c2.2,0,4.1,1.8,4.1,4.1V650c0,2.2-1.8,4.1-4.1,4.1h-13.8
          C617.4,654.1,615.6,652.2,615.6,650z"/>
      </g>
      <g>
        <path class="st53" d="M615.6,615.4v-25.8c0-2.2,1.8-4.1,4.1-4.1h13.8c2.2,0,4.1,1.8,4.1,4.1v25.8c0,2.2-1.8,4.1-4.1,4.1h-13.8
          C617.4,619.5,615.6,617.7,615.6,615.4z"/>
      </g>
      <g>
        <path class="st53" d="M615.6,580.9v-25.8c0-2.2,1.8-4.1,4.1-4.1h13.8c2.2,0,4.1,1.8,4.1,4.1v25.8c0,2.2-1.8,4.1-4.1,4.1h-13.8
          C617.4,585,615.6,583.1,615.6,580.9z"/>
      </g>
      <g>
        <path class="st53" d="M615.6,546.4v-25.8c0-2.2,1.8-4.1,4.1-4.1h13.8c2.2,0,4.1,1.8,4.1,4.1v25.8c0,2.2-1.8,4.1-4.1,4.1h-13.8
          C617.4,550.4,615.6,548.6,615.6,546.4z"/>
      </g>
      <g>
        <path class="st53" d="M615.6,511.8v-25.8c0-2.2,1.8-4.1,4.1-4.1h13.8c2.2,0,4.1,1.8,4.1,4.1v25.8c0,2.2-1.8,4.1-4.1,4.1h-13.8
          C617.4,515.9,615.6,514.1,615.6,511.8z"/>
      </g>
      <g>
        <path class="st53" d="M615.6,477.3v-25.8c0-2.2,1.8-4.1,4.1-4.1h13.8c2.2,0,4.1,1.8,4.1,4.1v25.8c0,2.2-1.8,4.1-4.1,4.1h-13.8
          C617.4,481.4,615.6,479.5,615.6,477.3z"/>
      </g>
      <g>
        <path class="st53" d="M615.6,442.7V417c0-2.2,1.8-4.1,4.1-4.1h13.8c2.2,0,4.1,1.8,4.1,4.1v25.8c0,2.2-1.8,4.1-4.1,4.1h-13.8
          C617.4,446.8,615.6,445,615.6,442.7z"/>
      </g>
      <g>
        <path class="st53" d="M615.6,408.2v-25.8c0-2.2,1.8-4.1,4.1-4.1h13.8c2.2,0,4.1,1.8,4.1,4.1v25.8c0,2.2-1.8,4.1-4.1,4.1h-13.8
          C617.4,412.3,615.6,410.5,615.6,408.2z"/>
      </g>
      <g>
        <path class="st53" d="M615.6,373.7v-25.8c0-2.2,1.8-4.1,4.1-4.1h13.8c2.2,0,4.1,1.8,4.1,4.1v25.8c0,2.2-1.8,4.1-4.1,4.1h-13.8
          C617.4,377.8,615.6,375.9,615.6,373.7z"/>
      </g>
      <g>
        <path class="st53" d="M615.6,339.1v-25.8c0-2.2,1.8-4.1,4.1-4.1h13.8c2.2,0,4.1,1.8,4.1,4.1v25.8c0,2.2-1.8,4.1-4.1,4.1h-13.8
          C617.4,343.2,615.6,341.4,615.6,339.1z"/>
      </g>
      <g>
        <path class="st53" d="M615.6,304.6v-25.8c0-2.2,1.8-4.1,4.1-4.1h13.8c2.2,0,4.1,1.8,4.1,4.1v25.8c0,2.2-1.8,4.1-4.1,4.1h-13.8
          C617.4,308.7,615.6,306.8,615.6,304.6z"/>
      </g>
      <g>
        <path class="st53" d="M615.6,270.1v-25.8c0-2.2,1.8-4.1,4.1-4.1h13.8c2.2,0,4.1,1.8,4.1,4.1v25.8c0,2.2-1.8,4.1-4.1,4.1h-13.8
          C617.4,274.1,615.6,272.3,615.6,270.1z"/>
      </g>
      <g>
        <path class="st53" d="M615.6,235.5v-25.8c0-2.2,1.8-4.1,4.1-4.1h13.8c2.2,0,4.1,1.8,4.1,4.1v25.8c0,2.2-1.8,4.1-4.1,4.1h-13.8
          C617.4,239.6,615.6,237.8,615.6,235.5z"/>
      </g>
      <g>
        <path class="st53" d="M615.6,201v-25.8c0-2.2,1.8-4.1,4.1-4.1h13.8c2.2,0,4.1,1.8,4.1,4.1V201c0,2.2-1.8,4.1-4.1,4.1h-13.8
          C617.4,205.1,615.6,203.2,615.6,201z"/>
      </g>
      <g>
        <path class="st53" d="M615.6,166.4v-25.8c0-2.2,1.8-4.1,4.1-4.1h13.8c2.2,0,4.1,1.8,4.1,4.1v25.8c0,2.2-1.8,4.1-4.1,4.1h-13.8
          C617.4,170.5,615.6,168.7,615.6,166.4z"/>
      </g>
      <g>
        <path class="st53" d="M615.6,131.9v-25.8c0-2.2,1.8-4.1,4.1-4.1h13.8c2.2,0,4.1,1.8,4.1,4.1v25.8c0,2.2-1.8,4.1-4.1,4.1h-13.8
          C617.4,136,615.6,134.1,615.6,131.9z"/>
      </g>
    </g>
    <g>
      <g>
        <path class="st53" d="M666.9,719.1v-25.8c0-2.2,1.8-4.1,4.1-4.1h13.8c2.2,0,4.1,1.8,4.1,4.1v25.8c0,2.2-1.8,4.1-4.1,4.1H671
          C668.7,723.1,666.9,721.3,666.9,719.1z"/>
      </g>
      <g>
        <path class="st53" d="M666.9,684.5v-25.8c0-2.2,1.8-4.1,4.1-4.1h13.8c2.2,0,4.1,1.8,4.1,4.1v25.8c0,2.2-1.8,4.1-4.1,4.1H671
          C668.7,688.6,666.9,686.8,666.9,684.5z"/>
      </g>
      <g>
        <path class="st53" d="M666.9,650v-25.8c0-2.2,1.8-4.1,4.1-4.1h13.8c2.2,0,4.1,1.8,4.1,4.1V650c0,2.2-1.8,4.1-4.1,4.1H671
          C668.7,654.1,666.9,652.2,666.9,650z"/>
      </g>
      <g>
        <path class="st53" d="M666.9,615.4v-25.8c0-2.2,1.8-4.1,4.1-4.1h13.8c2.2,0,4.1,1.8,4.1,4.1v25.8c0,2.2-1.8,4.1-4.1,4.1H671
          C668.7,619.5,666.9,617.7,666.9,615.4z"/>
      </g>
      <g>
        <path class="st53" d="M666.9,580.9v-25.8c0-2.2,1.8-4.1,4.1-4.1h13.8c2.2,0,4.1,1.8,4.1,4.1v25.8c0,2.2-1.8,4.1-4.1,4.1H671
          C668.7,585,666.9,583.1,666.9,580.9z"/>
      </g>
      <g>
        <path class="st53" d="M666.9,546.4v-25.8c0-2.2,1.8-4.1,4.1-4.1h13.8c2.2,0,4.1,1.8,4.1,4.1v25.8c0,2.2-1.8,4.1-4.1,4.1H671
          C668.7,550.4,666.9,548.6,666.9,546.4z"/>
      </g>
      <g>
        <path class="st53" d="M666.9,511.8v-25.8c0-2.2,1.8-4.1,4.1-4.1h13.8c2.2,0,4.1,1.8,4.1,4.1v25.8c0,2.2-1.8,4.1-4.1,4.1H671
          C668.7,515.9,666.9,514.1,666.9,511.8z"/>
      </g>
      <g>
        <path class="st53" d="M666.9,477.3v-25.8c0-2.2,1.8-4.1,4.1-4.1h13.8c2.2,0,4.1,1.8,4.1,4.1v25.8c0,2.2-1.8,4.1-4.1,4.1H671
          C668.7,481.4,666.9,479.5,666.9,477.3z"/>
      </g>
      <g>
        <path class="st53" d="M666.9,442.7V417c0-2.2,1.8-4.1,4.1-4.1h13.8c2.2,0,4.1,1.8,4.1,4.1v25.8c0,2.2-1.8,4.1-4.1,4.1H671
          C668.7,446.8,666.9,445,666.9,442.7z"/>
      </g>
      <g>
        <path class="st53" d="M666.9,408.2v-25.8c0-2.2,1.8-4.1,4.1-4.1h13.8c2.2,0,4.1,1.8,4.1,4.1v25.8c0,2.2-1.8,4.1-4.1,4.1H671
          C668.7,412.3,666.9,410.5,666.9,408.2z"/>
      </g>
      <g>
        <path class="st53" d="M666.9,373.7v-25.8c0-2.2,1.8-4.1,4.1-4.1h13.8c2.2,0,4.1,1.8,4.1,4.1v25.8c0,2.2-1.8,4.1-4.1,4.1H671
          C668.7,377.8,666.9,375.9,666.9,373.7z"/>
      </g>
      <g>
        <path class="st53" d="M666.9,339.1v-25.8c0-2.2,1.8-4.1,4.1-4.1h13.8c2.2,0,4.1,1.8,4.1,4.1v25.8c0,2.2-1.8,4.1-4.1,4.1H671
          C668.7,343.2,666.9,341.4,666.9,339.1z"/>
      </g>
      <g>
        <path class="st53" d="M666.9,304.6v-25.8c0-2.2,1.8-4.1,4.1-4.1h13.8c2.2,0,4.1,1.8,4.1,4.1v25.8c0,2.2-1.8,4.1-4.1,4.1H671
          C668.7,308.7,666.9,306.8,666.9,304.6z"/>
      </g>
      <g>
        <path class="st53" d="M666.9,270.1v-25.8c0-2.2,1.8-4.1,4.1-4.1h13.8c2.2,0,4.1,1.8,4.1,4.1v25.8c0,2.2-1.8,4.1-4.1,4.1H671
          C668.7,274.1,666.9,272.3,666.9,270.1z"/>
      </g>
      <g>
        <path class="st53" d="M666.9,235.5v-25.8c0-2.2,1.8-4.1,4.1-4.1h13.8c2.2,0,4.1,1.8,4.1,4.1v25.8c0,2.2-1.8,4.1-4.1,4.1H671
          C668.7,239.6,666.9,237.8,666.9,235.5z"/>
      </g>
      <g>
        <path class="st53" d="M666.9,201v-25.8c0-2.2,1.8-4.1,4.1-4.1h13.8c2.2,0,4.1,1.8,4.1,4.1V201c0,2.2-1.8,4.1-4.1,4.1H671
          C668.7,205.1,666.9,203.2,666.9,201z"/>
      </g>
      <g>
        <path class="st53" d="M666.9,166.4v-25.8c0-2.2,1.8-4.1,4.1-4.1h13.8c2.2,0,4.1,1.8,4.1,4.1v25.8c0,2.2-1.8,4.1-4.1,4.1H671
          C668.7,170.5,666.9,168.7,666.9,166.4z"/>
      </g>
      <g>
        <path class="st53" d="M666.9,131.9v-25.8c0-2.2,1.8-4.1,4.1-4.1h13.8c2.2,0,4.1,1.8,4.1,4.1v25.8c0,2.2-1.8,4.1-4.1,4.1H671
          C668.7,136,666.9,134.1,666.9,131.9z"/>
      </g>
    </g>
    <g>
      <g>
        <path class="st53" d="M716.4,719.1v-25.8c0-2.2,1.8-4.1,4.1-4.1h13.8c2.2,0,4.1,1.8,4.1,4.1v25.8c0,2.2-1.8,4.1-4.1,4.1h-13.8
          C718.2,723.1,716.4,721.3,716.4,719.1z"/>
      </g>
      <g>
        <path class="st53" d="M716.4,684.5v-25.8c0-2.2,1.8-4.1,4.1-4.1h13.8c2.2,0,4.1,1.8,4.1,4.1v25.8c0,2.2-1.8,4.1-4.1,4.1h-13.8
          C718.2,688.6,716.4,686.8,716.4,684.5z"/>
      </g>
      <g>
        <path class="st53" d="M716.4,650v-25.8c0-2.2,1.8-4.1,4.1-4.1h13.8c2.2,0,4.1,1.8,4.1,4.1V650c0,2.2-1.8,4.1-4.1,4.1h-13.8
          C718.2,654.1,716.4,652.2,716.4,650z"/>
      </g>
      <g>
        <path class="st53" d="M716.4,615.4v-25.8c0-2.2,1.8-4.1,4.1-4.1h13.8c2.2,0,4.1,1.8,4.1,4.1v25.8c0,2.2-1.8,4.1-4.1,4.1h-13.8
          C718.2,619.5,716.4,617.7,716.4,615.4z"/>
      </g>
      <g>
        <path class="st53" d="M716.4,580.9v-25.8c0-2.2,1.8-4.1,4.1-4.1h13.8c2.2,0,4.1,1.8,4.1,4.1v25.8c0,2.2-1.8,4.1-4.1,4.1h-13.8
          C718.2,585,716.4,583.1,716.4,580.9z"/>
      </g>
      <g>
        <path class="st53" d="M716.4,546.4v-25.8c0-2.2,1.8-4.1,4.1-4.1h13.8c2.2,0,4.1,1.8,4.1,4.1v25.8c0,2.2-1.8,4.1-4.1,4.1h-13.8
          C718.2,550.4,716.4,548.6,716.4,546.4z"/>
      </g>
      <g>
        <path class="st53" d="M716.4,511.8v-25.8c0-2.2,1.8-4.1,4.1-4.1h13.8c2.2,0,4.1,1.8,4.1,4.1v25.8c0,2.2-1.8,4.1-4.1,4.1h-13.8
          C718.2,515.9,716.4,514.1,716.4,511.8z"/>
      </g>
      <g>
        <path class="st53" d="M716.4,477.3v-25.8c0-2.2,1.8-4.1,4.1-4.1h13.8c2.2,0,4.1,1.8,4.1,4.1v25.8c0,2.2-1.8,4.1-4.1,4.1h-13.8
          C718.2,481.4,716.4,479.5,716.4,477.3z"/>
      </g>
      <g>
        <path class="st53" d="M716.4,442.7V417c0-2.2,1.8-4.1,4.1-4.1h13.8c2.2,0,4.1,1.8,4.1,4.1v25.8c0,2.2-1.8,4.1-4.1,4.1h-13.8
          C718.2,446.8,716.4,445,716.4,442.7z"/>
      </g>
      <g>
        <path class="st53" d="M716.4,408.2v-25.8c0-2.2,1.8-4.1,4.1-4.1h13.8c2.2,0,4.1,1.8,4.1,4.1v25.8c0,2.2-1.8,4.1-4.1,4.1h-13.8
          C718.2,412.3,716.4,410.5,716.4,408.2z"/>
      </g>
      <g>
        <path class="st53" d="M716.4,373.7v-25.8c0-2.2,1.8-4.1,4.1-4.1h13.8c2.2,0,4.1,1.8,4.1,4.1v25.8c0,2.2-1.8,4.1-4.1,4.1h-13.8
          C718.2,377.8,716.4,375.9,716.4,373.7z"/>
      </g>
      <g>
        <path class="st53" d="M716.4,339.1v-25.8c0-2.2,1.8-4.1,4.1-4.1h13.8c2.2,0,4.1,1.8,4.1,4.1v25.8c0,2.2-1.8,4.1-4.1,4.1h-13.8
          C718.2,343.2,716.4,341.4,716.4,339.1z"/>
      </g>
      <g>
        <path class="st53" d="M716.4,304.6v-25.8c0-2.2,1.8-4.1,4.1-4.1h13.8c2.2,0,4.1,1.8,4.1,4.1v25.8c0,2.2-1.8,4.1-4.1,4.1h-13.8
          C718.2,308.7,716.4,306.8,716.4,304.6z"/>
      </g>
      <g>
        <path class="st53" d="M716.4,270.1v-25.8c0-2.2,1.8-4.1,4.1-4.1h13.8c2.2,0,4.1,1.8,4.1,4.1v25.8c0,2.2-1.8,4.1-4.1,4.1h-13.8
          C718.2,274.1,716.4,272.3,716.4,270.1z"/>
      </g>
      <g>
        <path class="st53" d="M716.4,235.5v-25.8c0-2.2,1.8-4.1,4.1-4.1h13.8c2.2,0,4.1,1.8,4.1,4.1v25.8c0,2.2-1.8,4.1-4.1,4.1h-13.8
          C718.2,239.6,716.4,237.8,716.4,235.5z"/>
      </g>
      <g>
        <path class="st53" d="M716.4,201v-25.8c0-2.2,1.8-4.1,4.1-4.1h13.8c2.2,0,4.1,1.8,4.1,4.1V201c0,2.2-1.8,4.1-4.1,4.1h-13.8
          C718.2,205.1,716.4,203.2,716.4,201z"/>
      </g>
      <g>
        <path class="st53" d="M716.4,166.4v-25.8c0-2.2,1.8-4.1,4.1-4.1h13.8c2.2,0,4.1,1.8,4.1,4.1v25.8c0,2.2-1.8,4.1-4.1,4.1h-13.8
          C718.2,170.5,716.4,168.7,716.4,166.4z"/>
      </g>
      <g>
        <path class="st53" d="M716.4,131.9v-25.8c0-2.2,1.8-4.1,4.1-4.1h13.8c2.2,0,4.1,1.8,4.1,4.1v25.8c0,2.2-1.8,4.1-4.1,4.1h-13.8
          C718.2,136,716.4,134.1,716.4,131.9z"/>
      </g>
    </g>
  </g>
  <g id="Letras">
    <g>
      <path id="path100202_00000181086381333046671780000016166839524284408458_" class="st55" d="M721.4,745.4l5.8-15.4l6,15.4"/>
      <path id="path100204_00000180366650999279194090000005582029800147506876_" class="st55" d="M723.7,740.3h7.4"/>
    </g>
    <g>
      <path id="path100206_00000092442759073445609190000016796193961595905669_" class="st55" d="M672.8,745.4V730h6.7l2.2,0.7l0.7,0.7
        l0.7,1.6v1.6l-0.7,1.3l-0.7,0.7l-2.2,0.9h-6.7"/>
      <path id="path100208_00000075126178594095100920000011115380446810656687_" class="st55" d="M679.4,737.4l2.2,0.7l0.7,0.7l0.7,1.6
        v2.2l-0.7,1.3l-0.7,0.9l-2.2,0.7h-6.7"/>
    </g>
    <g>
      <path id="path100210_00000125597021791702726200000008792988615803388826_" class="st55" d="M632.1,733.6l-0.7-1.3l-1.6-1.6
        l-1.6-0.7h-2.9l-1.3,0.7l-1.6,1.6l-0.7,1.3l-0.9,2.2v3.8l0.9,2.2l0.7,1.3l1.6,1.6l1.3,0.7h2.9l1.6-0.7l1.6-1.6l0.7-1.3"/>
    </g>
    <g>
      <path id="path100212_00000178904314572668712290000016556379795776513969_" class="st55" d="M571.5,745.4V730h5.1l2.2,0.7l1.3,1.6
        l0.7,1.3l0.9,2.2v3.8l-0.9,2.2l-0.7,1.3l-1.3,1.6l-2.2,0.7H571.5"/>
    </g>
    <g>
      <path id="path100214_00000111882954443578075820000008359801381361304483_" class="st55" d="M520.5,745.4V730h9.6"/>
      <path id="path100216_00000100347310795080139070000011037257244665066629_" class="st55" d="M520.5,737.4h5.8"/>
      <path id="path100218_00000171692742756684684330000015580900068344700562_" class="st55" d="M520.5,745.4h9.6"/>
    </g>
    <g>
      <path id="path100220_00000160172589358764083050000007950618972174687160_" class="st55" d="M471.1,745.4V730h9.6"/>
      <path id="path100222_00000016758432485054212870000001025067446496527547_" class="st55" d="M471.1,737.4h5.8"/>
    </g>
    <g>
      <path id="path100224_00000061465529502677195960000009174428792030449043_" class="st55" d="M430.1,733.6l-0.9-1.3l-1.3-1.6
        l-1.6-0.7h-2.9l-1.6,0.7l-1.3,1.6l-0.9,1.3l-0.7,2.2v3.8l0.7,2.2l0.9,1.3l1.3,1.6l1.6,0.7h2.9l1.6-0.7l1.3-1.6l0.9-1.3v-2.2h-3.8"
        />
    </g>
    <g>
      <path id="path100226_00000166642000727865336830000017484109648167112629_" class="st55" d="M369.5,745.4V730"/>
      <path id="path100228_00000165226503183724026180000012675035599310513552_" class="st55" d="M379.8,730v15.4"/>
      <path id="path100230_00000164490708885767252040000008568221125396192942_" class="st55" d="M369.5,737.4h10.3"/>
    </g>
    <path id="path100232_00000049900228082454172970000015935400118788649396_" class="st55" d="M323.3,745.4V730"/>
    <path id="path100234_00000008151044145388412880000009308742387103550123_" class="st55" d="M306.6,741.8v11.8l-0.9,2l-0.7,0.9
      l-1.6,0.7h-1.3l-1.6-0.7l-0.7-0.9l-0.7-2v-1.6"/>
    <text transform="matrix(1 0 0 1 754.241 415.8359)" class="st56 st57">B</text>
  </g>
</svg>
