<?xml version="1.0" encoding="utf-8"?>
<!-- Generator: Adobe Illustrator 27.2.0, SVG Export Plug-In . SVG Version: 6.00 Build 0)  -->
<svg version="1.1" xmlns="http://www.w3.org/2000/svg" xmlns:xlink="http://www.w3.org/1999/xlink" x="0px" y="0px"
	 viewBox="0 0 1075.6 792" style="enable-background:new 0 0 1075.6 792;" xml:space="preserve">
    <style type="text/css">
      .st0{display:none;}
      .st1{display:inline;}
      .st2{fill:none;stroke:#DD6E00;stroke-width:2;stroke-linecap:round;stroke-linejoin:round;stroke-miterlimit:10;}
      .st3{fill:none;stroke:#0000FF;stroke-width:2;stroke-linecap:round;stroke-linejoin:round;stroke-miterlimit:10;}
      .st4{fill:none;stroke:#000000;stroke-width:2;stroke-linecap:round;stroke-linejoin:round;stroke-miterlimit:10;}
      .st5{fill:none;stroke:#BABABA;stroke-width:2;stroke-linecap:round;stroke-linejoin:round;stroke-miterlimit:10;}
      .st6{fill:none;stroke:#989898;stroke-width:2;stroke-linecap:round;stroke-linejoin:round;stroke-miterlimit:10;}
      .st7{fill:none;stroke:#FFFF00;stroke-width:2;stroke-linecap:round;stroke-linejoin:round;stroke-miterlimit:10;}
      .st8{fill:none;stroke:#FF0000;stroke-width:2;stroke-linecap:round;stroke-linejoin:round;stroke-miterlimit:10;}
      .st9{fill:none;stroke:#E69835;stroke-width:6;stroke-miterlimit:10;}
      .st10{fill:none;stroke:#D75A31;stroke-width:6;stroke-miterlimit:10;}
      .st11{fill:none;stroke:#AE2C2B;stroke-width:6;stroke-miterlimit:10;}
      .st12{fill:none;stroke:#FF6700;stroke-width:6;stroke-miterlimit:10;}
      .st13{fill:none;stroke:#50FFFF;stroke-width:6;stroke-miterlimit:10;}
      .st14{fill:none;stroke:#CB85E5;stroke-width:6;stroke-miterlimit:10;}
      .st15{fill:none;stroke:#7980B2;stroke-width:6;stroke-miterlimit:10;}
      .st16{fill:none;stroke:#3E2B1A;stroke-width:6;stroke-miterlimit:10;}
      .st17{fill:none;stroke:#42944B;stroke-width:6;stroke-miterlimit:10;}
      .st18{fill:none;stroke:#9D9D9C;stroke-width:6;stroke-miterlimit:10;}
      .st19{fill:none;stroke:#C39F6F;stroke-width:6;stroke-miterlimit:10;}
      .st20{fill:none;stroke:#F7EB50;stroke-width:6;stroke-miterlimit:10;}
      .st21{fill:#89277D;}
      .st22{fill:none;stroke:#0000FF;stroke-linecap:round;stroke-linejoin:round;}
      .st23{fill:#3670B3;}
      .st24{fill:#489F9A;}
      .st25{fill:#D22D7D;}
      .st26{fill:#2B6438;}
      .st27{fill:#00FFCE;}
      .st28{fill:#869363;}
      .st29{fill:#CB85E5;}
      .st30{fill:#FF6700;}
      .st31{fill:#7980B2;}
      .st32{fill:#F7EB50;}
      .st33{fill:#E69835;}
      .st34{fill:#D75A31;}
      .st35{fill:#AE2C2B;}
      .st36{fill:#786A5A;}
      .st37{fill:#282359;}
      .st38{fill:#9EC043;}
      .st39{fill:#469CDD;}
      .st40{fill:#5E287E;}
      .st41{fill:none;stroke:#5E287E;stroke-width:6;stroke-miterlimit:10;}
      .st42{fill:#D43673;}
      .st43{fill:#C39F6F;}
      .st44{fill:#9D9D9C;}
      .st45{fill:#42944B;}
      .st46{fill:#3E2B1A;}
      .st47{fill:#13514C;}
      .st48{fill:#425968;}
      .st49{fill:#536D01;}
      .st50{fill:#A87F1A;}
      .st51{fill:#50FFFF;}
      .st52{fill:none;stroke:#D43673;stroke-width:6;stroke-miterlimit:10;}
      .st53{fill:#D9D9D9;}
      .st54{fill:none;stroke:#1D1D1B;stroke-width:10;stroke-linecap:round;stroke-linejoin:round;stroke-miterlimit:10;}
      .st55{font-family:'Arial-BoldMT';}
      .st56{font-size:236.8715px;}
      .st57{fill:none;stroke:#1D1D1B;stroke-width:3;stroke-linecap:round;stroke-linejoin:round;stroke-miterlimit:10;}
      .st58{fill:none;stroke:#1D1D1B;stroke-width:6;stroke-linecap:round;stroke-linejoin:round;stroke-miterlimit:10;}
      .st59{fill:none;stroke:#1D1D1B;stroke-width:2;stroke-linecap:round;stroke-linejoin:round;stroke-miterlimit:10;}
    </style>
    <g id="Capa_1" class="st0">
    </g>
    <g id="Contorno_color">
      <polyline class="st20" points="916.6,63 916.6,396.6 161.7,396.6 161.7,63 	"/>
    </g>
    <g id="Asientos">
      <g>
        <path class="st53" d="M417.9,207.5H302c-6.6,0-12-5.4-12-12v-64.2c0-6.6,5.4-12,12-12h115.9c6.6,0,12,5.4,12,12v64.2
          C429.9,202.1,424.5,207.5,417.9,207.5z"/>
        <path class="st53" d="M567.8,207.5H451.9c-6.6,0-12-5.4-12-12v-64.2c0-6.6,5.4-12,12-12h115.9c6.6,0,12,5.4,12,12v64.2
          C579.8,202.1,574.4,207.5,567.8,207.5z"/>
        <path class="st53" d="M715.8,207.5H599.9c-6.6,0-12-5.4-12-12v-64.2c0-6.6,5.4-12,12-12h115.9c6.6,0,12,5.4,12,12v64.2
          C727.8,202.1,722.4,207.5,715.8,207.5z"/>
        <path class="st53" d="M865.7,207.5H749.9c-6.6,0-12-5.4-12-12v-64.2c0-6.6,5.4-12,12-12h115.9c6.6,0,12,5.4,12,12v64.2
          C877.7,202.1,872.3,207.5,865.7,207.5z"/>
        <path class="st53" d="M417.9,363.2H302c-6.6,0-12-5.4-12-12V287c0-6.6,5.4-12,12-12h115.9c6.6,0,12,5.4,12,12v64.2
          C429.9,357.8,424.5,363.2,417.9,363.2z"/>
        <path class="st53" d="M567.8,363.2H451.9c-6.6,0-12-5.4-12-12V287c0-6.6,5.4-12,12-12h115.9c6.6,0,12,5.4,12,12v64.2
          C579.8,357.8,574.4,363.2,567.8,363.2z"/>
        <path class="st53" d="M715.8,363.2H599.9c-6.6,0-12-5.4-12-12V287c0-6.6,5.4-12,12-12h115.9c6.6,0,12,5.4,12,12v64.2
          C727.8,357.8,722.4,363.2,715.8,363.2z"/>
        <path class="st53" d="M865.7,363.2H749.9c-6.6,0-12-5.4-12-12V287c0-6.6,5.4-12,12-12h115.9c6.6,0,12,5.4,12,12v64.2
          C877.7,357.8,872.3,363.2,865.7,363.2z"/>
      </g>
    </g>
    <g id="Letras">
      <g>
        <path id="path211632_00000130606362266761559540000011543322565993751981_" class="st54" d="M251.8,342.3l-66.1-25.9l66.1-24.9"/>
        <path id="path211634_00000142892799848737365150000014857365407444630444_" class="st54" d="M229.8,332.7v-31.6"/>
        <path id="path211636_00000083085337814604043980000018121089080300198550_" class="st54" d="M249,183.3h-66.1v-28.7l2.9-9.6
          l2.9-2.9l6.7-2.9h5.7l6.7,2.9l2.9,2.9l2.9,9.6v28.7"/>
        <path id="path211638_00000149339619119097256460000012933755049087758466_" class="st54" d="M213.5,154.5l3.8-9.6l2.9-2.9l6.7-2.9
          h9.6l5.7,2.9l2.9,2.9l3.8,9.6v28.7"/>
        <text transform="matrix(1 0 0 1 463.5587 636.4072)" class="st55 st56">S</text>
      </g>
    </g>
</svg>
