<?xml version="1.0" encoding="utf-8"?>
<!-- Generator: Adobe Illustrator 27.2.0, SVG Export Plug-In . SVG Version: 6.00 Build 0)  -->
<svg version="1.1" xmlns="http://www.w3.org/2000/svg" xmlns:xlink="http://www.w3.org/1999/xlink" x="0px" y="0px"
	 viewBox="0 0 1075.6 792" style="enable-background:new 0 0 1075.6 792;" xml:space="preserve">
  <style type="text/css">
    .st0{display:none;}
    .st1{display:inline;}
    .st2{fill:none;stroke:#DD6E00;stroke-width:2;stroke-linecap:round;stroke-linejoin:round;stroke-miterlimit:10;}
    .st3{fill:none;stroke:#0000FF;stroke-width:2;stroke-linecap:round;stroke-linejoin:round;stroke-miterlimit:10;}
    .st4{fill:none;stroke:#000000;stroke-width:2;stroke-linecap:round;stroke-linejoin:round;stroke-miterlimit:10;}
    .st5{fill:none;stroke:#BABABA;stroke-width:2;stroke-linecap:round;stroke-linejoin:round;stroke-miterlimit:10;}
    .st6{fill:none;stroke:#989898;stroke-width:2;stroke-linecap:round;stroke-linejoin:round;stroke-miterlimit:10;}
    .st7{fill:none;stroke:#FFFF00;stroke-width:2;stroke-linecap:round;stroke-linejoin:round;stroke-miterlimit:10;}
    .st8{fill:none;stroke:#FF0000;stroke-width:2;stroke-linecap:round;stroke-linejoin:round;stroke-miterlimit:10;}
    .st9{fill:none;stroke:#E69835;stroke-width:6;stroke-miterlimit:10;}
    .st10{fill:none;stroke:#D75A31;stroke-width:6;stroke-miterlimit:10;}
    .st11{fill:none;stroke:#AE2C2B;stroke-width:6;stroke-miterlimit:10;}
    .st12{fill:none;stroke:#FF6700;stroke-width:6;stroke-miterlimit:10;}
    .st13{fill:none;stroke:#50FFFF;stroke-width:6;stroke-miterlimit:10;}
    .st14{fill:none;stroke:#CB85E5;stroke-width:6;stroke-miterlimit:10;}
    .st15{fill:none;stroke:#7980B2;stroke-width:6;stroke-miterlimit:10;}
    .st16{fill:none;stroke:#3E2B1A;stroke-width:6;stroke-miterlimit:10;}
    .st17{fill:none;stroke:#42944B;stroke-width:6;stroke-miterlimit:10;}
    .st18{fill:none;stroke:#9D9D9C;stroke-width:6;stroke-miterlimit:10;}
    .st19{fill:none;stroke:#C39F6F;stroke-width:6;stroke-miterlimit:10;}
    .st20{fill:none;stroke:#F7EB50;stroke-width:6;stroke-miterlimit:10;}
    .st21{fill:#89277D;}
    .st22{fill:none;stroke:#0000FF;stroke-linecap:round;stroke-linejoin:round;}
    .st23{fill:#3670B3;}
    .st24{fill:#489F9A;}
    .st25{fill:#D22D7D;}
    .st26{fill:#2B6438;}
    .st27{fill:#00FFCE;}
    .st28{fill:#869363;}
    .st29{fill:#CB85E5;}
    .st30{fill:#FF6700;}
    .st31{fill:#7980B2;}
    .st32{fill:#F7EB50;}
    .st33{fill:#E69835;}
    .st34{fill:#D75A31;}
    .st35{fill:#AE2C2B;}
    .st36{fill:#786A5A;}
    .st37{fill:#282359;}
    .st38{fill:#9EC043;}
    .st39{fill:#469CDD;}
    .st40{fill:#5E287E;}
    .st41{fill:none;stroke:#5E287E;stroke-width:6;stroke-miterlimit:10;}
    .st42{fill:#D43673;}
    .st43{fill:#C39F6F;}
    .st44{fill:#9D9D9C;}
    .st45{fill:#42944B;}
    .st46{fill:#3E2B1A;}
    .st47{fill:#13514C;}
    .st48{fill:#425968;}
    .st49{fill:#536D01;}
    .st50{fill:#A87F1A;}
    .st51{fill:#50FFFF;}
    .st52{fill:none;stroke:#D43673;stroke-width:6;stroke-miterlimit:10;}
    .st53{fill:#D9D9D9;}
    .st54{fill:none;stroke:#1D1D1B;stroke-width:10;stroke-linecap:round;stroke-linejoin:round;stroke-miterlimit:10;}
    .st55{fill:none;stroke:#1D1D1B;stroke-width:3;stroke-linecap:round;stroke-linejoin:round;stroke-miterlimit:10;}
    .st56{font-family:'Arial-BoldMT';}
    .st57{font-size:86.1539px;}
    .st58{fill:none;stroke:#1D1D1B;stroke-width:6;stroke-linecap:round;stroke-linejoin:round;stroke-miterlimit:10;}
    .st59{fill:none;stroke:#1D1D1B;stroke-width:2;stroke-linecap:round;stroke-linejoin:round;stroke-miterlimit:10;}
  </style>
  <g id="Capa_1" class="st0">
  </g>
  <g id="Contorno_color">
    <polygon class="st14" points="294.2,94.3 294.2,21.9 246.3,21.9 246.3,774.3 283.9,774.3 294.2,774.3 734.6,774.3 734.6,94.3 	"/>
  </g>
  <g id="Asientos">
    <g>
      <g>
        <path class="st53" d="M302.7,719.1v-25.8c0-2.2,1.8-4.1,4.1-4.1h13.8c2.2,0,4.1,1.8,4.1,4.1v25.8c0,2.2-1.8,4.1-4.1,4.1h-13.8
          C304.6,723.1,302.7,721.3,302.7,719.1z"/>
      </g>
      <g>
        <path class="st53" d="M302.7,684.5v-25.8c0-2.2,1.8-4.1,4.1-4.1h13.8c2.2,0,4.1,1.8,4.1,4.1v25.8c0,2.2-1.8,4.1-4.1,4.1h-13.8
          C304.6,688.6,302.7,686.8,302.7,684.5z"/>
      </g>
      <g>
        <path class="st53" d="M302.7,650v-25.8c0-2.2,1.8-4.1,4.1-4.1h13.8c2.2,0,4.1,1.8,4.1,4.1V650c0,2.2-1.8,4.1-4.1,4.1h-13.8
          C304.6,654.1,302.7,652.2,302.7,650z"/>
      </g>
      <g>
        <path class="st53" d="M302.7,615.4v-25.8c0-2.2,1.8-4.1,4.1-4.1h13.8c2.2,0,4.1,1.8,4.1,4.1v25.8c0,2.2-1.8,4.1-4.1,4.1h-13.8
          C304.6,619.5,302.7,617.7,302.7,615.4z"/>
      </g>
      <g>
        <path class="st53" d="M302.7,580.9v-25.8c0-2.2,1.8-4.1,4.1-4.1h13.8c2.2,0,4.1,1.8,4.1,4.1v25.8c0,2.2-1.8,4.1-4.1,4.1h-13.8
          C304.6,585,302.7,583.1,302.7,580.9z"/>
      </g>
      <g>
        <path class="st53" d="M302.7,546.4v-25.8c0-2.2,1.8-4.1,4.1-4.1h13.8c2.2,0,4.1,1.8,4.1,4.1v25.8c0,2.2-1.8,4.1-4.1,4.1h-13.8
          C304.6,550.4,302.7,548.6,302.7,546.4z"/>
      </g>
      <g>
        <path class="st53" d="M302.7,511.8v-25.8c0-2.2,1.8-4.1,4.1-4.1h13.8c2.2,0,4.1,1.8,4.1,4.1v25.8c0,2.2-1.8,4.1-4.1,4.1h-13.8
          C304.6,515.9,302.7,514.1,302.7,511.8z"/>
      </g>
      <g>
        <path class="st53" d="M302.7,477.3v-25.8c0-2.2,1.8-4.1,4.1-4.1h13.8c2.2,0,4.1,1.8,4.1,4.1v25.8c0,2.2-1.8,4.1-4.1,4.1h-13.8
          C304.6,481.4,302.7,479.5,302.7,477.3z"/>
      </g>
      <g>
        <path class="st53" d="M302.7,442.7V417c0-2.2,1.8-4.1,4.1-4.1h13.8c2.2,0,4.1,1.8,4.1,4.1v25.8c0,2.2-1.8,4.1-4.1,4.1h-13.8
          C304.6,446.8,302.7,445,302.7,442.7z"/>
      </g>
      <g>
        <path class="st53" d="M302.7,408.2v-25.8c0-2.2,1.8-4.1,4.1-4.1h13.8c2.2,0,4.1,1.8,4.1,4.1v25.8c0,2.2-1.8,4.1-4.1,4.1h-13.8
          C304.6,412.3,302.7,410.5,302.7,408.2z"/>
      </g>
      <g>
        <path class="st53" d="M302.7,373.7v-25.8c0-2.2,1.8-4.1,4.1-4.1h13.8c2.2,0,4.1,1.8,4.1,4.1v25.8c0,2.2-1.8,4.1-4.1,4.1h-13.8
          C304.6,377.8,302.7,375.9,302.7,373.7z"/>
      </g>
      <g>
        <path class="st53" d="M302.7,339.1v-25.8c0-2.2,1.8-4.1,4.1-4.1h13.8c2.2,0,4.1,1.8,4.1,4.1v25.8c0,2.2-1.8,4.1-4.1,4.1h-13.8
          C304.6,343.2,302.7,341.4,302.7,339.1z"/>
      </g>
      <g>
        <path class="st53" d="M302.7,304.6v-25.8c0-2.2,1.8-4.1,4.1-4.1h13.8c2.2,0,4.1,1.8,4.1,4.1v25.8c0,2.2-1.8,4.1-4.1,4.1h-13.8
          C304.6,308.7,302.7,306.8,302.7,304.6z"/>
      </g>
      <g>
        <path class="st53" d="M302.7,270.1v-25.8c0-2.2,1.8-4.1,4.1-4.1h13.8c2.2,0,4.1,1.8,4.1,4.1v25.8c0,2.2-1.8,4.1-4.1,4.1h-13.8
          C304.6,274.1,302.7,272.3,302.7,270.1z"/>
      </g>
      <g>
        <path class="st53" d="M302.7,235.5v-25.8c0-2.2,1.8-4.1,4.1-4.1h13.8c2.2,0,4.1,1.8,4.1,4.1v25.8c0,2.2-1.8,4.1-4.1,4.1h-13.8
          C304.6,239.6,302.7,237.8,302.7,235.5z"/>
      </g>
      <g>
        <path class="st53" d="M302.7,201v-25.8c0-2.2,1.8-4.1,4.1-4.1h13.8c2.2,0,4.1,1.8,4.1,4.1V201c0,2.2-1.8,4.1-4.1,4.1h-13.8
          C304.6,205.1,302.7,203.2,302.7,201z"/>
      </g>
      <g>
        <path class="st53" d="M302.7,166.4v-25.8c0-2.2,1.8-4.1,4.1-4.1h13.8c2.2,0,4.1,1.8,4.1,4.1v25.8c0,2.2-1.8,4.1-4.1,4.1h-13.8
          C304.6,170.5,302.7,168.7,302.7,166.4z"/>
      </g>
      <g>
        <path class="st53" d="M302.7,131.9v-25.8c0-2.2,1.8-4.1,4.1-4.1h13.8c2.2,0,4.1,1.8,4.1,4.1v25.8c0,2.2-1.8,4.1-4.1,4.1h-13.8
          C304.6,136,302.7,134.1,302.7,131.9z"/>
      </g>
    </g>
    <g>
      <g>
        <path class="st53" d="M258.1,719.1v-25.8c0-2.2,1.8-4.1,4.1-4.1h13.8c2.2,0,4.1,1.8,4.1,4.1v25.8c0,2.2-1.8,4.1-4.1,4.1h-13.8
          C259.9,723.1,258.1,721.3,258.1,719.1z"/>
      </g>
      <g>
        <path class="st53" d="M258.1,754.7V729c0-2.2,1.8-4.1,4.1-4.1h13.8c2.2,0,4.1,1.8,4.1,4.1v25.8c0,2.2-1.8,4.1-4.1,4.1h-13.8
          C259.9,758.8,258.1,757,258.1,754.7z"/>
      </g>
      <g>
        <path class="st53" d="M258.1,684.5v-25.8c0-2.2,1.8-4.1,4.1-4.1h13.8c2.2,0,4.1,1.8,4.1,4.1v25.8c0,2.2-1.8,4.1-4.1,4.1h-13.8
          C259.9,688.6,258.1,686.8,258.1,684.5z"/>
      </g>
      <g>
        <path class="st53" d="M258.1,650v-25.8c0-2.2,1.8-4.1,4.1-4.1h13.8c2.2,0,4.1,1.8,4.1,4.1V650c0,2.2-1.8,4.1-4.1,4.1h-13.8
          C259.9,654.1,258.1,652.2,258.1,650z"/>
      </g>
      <g>
        <path class="st53" d="M258.1,615.4v-25.8c0-2.2,1.8-4.1,4.1-4.1h13.8c2.2,0,4.1,1.8,4.1,4.1v25.8c0,2.2-1.8,4.1-4.1,4.1h-13.8
          C259.9,619.5,258.1,617.7,258.1,615.4z"/>
      </g>
      <g>
        <path class="st53" d="M258.1,580.9v-25.8c0-2.2,1.8-4.1,4.1-4.1h13.8c2.2,0,4.1,1.8,4.1,4.1v25.8c0,2.2-1.8,4.1-4.1,4.1h-13.8
          C259.9,585,258.1,583.1,258.1,580.9z"/>
      </g>
      <g>
        <path class="st53" d="M258.1,546.4v-25.8c0-2.2,1.8-4.1,4.1-4.1h13.8c2.2,0,4.1,1.8,4.1,4.1v25.8c0,2.2-1.8,4.1-4.1,4.1h-13.8
          C259.9,550.4,258.1,548.6,258.1,546.4z"/>
      </g>
      <g>
        <path class="st53" d="M258.1,511.8v-25.8c0-2.2,1.8-4.1,4.1-4.1h13.8c2.2,0,4.1,1.8,4.1,4.1v25.8c0,2.2-1.8,4.1-4.1,4.1h-13.8
          C259.9,515.9,258.1,514.1,258.1,511.8z"/>
      </g>
      <g>
        <path class="st53" d="M258.1,477.3v-25.8c0-2.2,1.8-4.1,4.1-4.1h13.8c2.2,0,4.1,1.8,4.1,4.1v25.8c0,2.2-1.8,4.1-4.1,4.1h-13.8
          C259.9,481.4,258.1,479.5,258.1,477.3z"/>
      </g>
      <g>
        <path class="st53" d="M258.1,442.7V417c0-2.2,1.8-4.1,4.1-4.1h13.8c2.2,0,4.1,1.8,4.1,4.1v25.8c0,2.2-1.8,4.1-4.1,4.1h-13.8
          C259.9,446.8,258.1,445,258.1,442.7z"/>
      </g>
      <g>
        <path class="st53" d="M258.1,408.2v-25.8c0-2.2,1.8-4.1,4.1-4.1h13.8c2.2,0,4.1,1.8,4.1,4.1v25.8c0,2.2-1.8,4.1-4.1,4.1h-13.8
          C259.9,412.3,258.1,410.5,258.1,408.2z"/>
      </g>
      <g>
        <path class="st53" d="M258.1,373.7v-25.8c0-2.2,1.8-4.1,4.1-4.1h13.8c2.2,0,4.1,1.8,4.1,4.1v25.8c0,2.2-1.8,4.1-4.1,4.1h-13.8
          C259.9,377.8,258.1,375.9,258.1,373.7z"/>
      </g>
      <g>
        <path class="st53" d="M258.1,339.1v-25.8c0-2.2,1.8-4.1,4.1-4.1h13.8c2.2,0,4.1,1.8,4.1,4.1v25.8c0,2.2-1.8,4.1-4.1,4.1h-13.8
          C259.9,343.2,258.1,341.4,258.1,339.1z"/>
      </g>
      <g>
        <path class="st53" d="M258.1,304.6v-25.8c0-2.2,1.8-4.1,4.1-4.1h13.8c2.2,0,4.1,1.8,4.1,4.1v25.8c0,2.2-1.8,4.1-4.1,4.1h-13.8
          C259.9,308.7,258.1,306.8,258.1,304.6z"/>
      </g>
      <g>
        <path class="st53" d="M258.1,270.1v-25.8c0-2.2,1.8-4.1,4.1-4.1h13.8c2.2,0,4.1,1.8,4.1,4.1v25.8c0,2.2-1.8,4.1-4.1,4.1h-13.8
          C259.9,274.1,258.1,272.3,258.1,270.1z"/>
      </g>
      <g>
        <path class="st53" d="M258.1,235.5v-25.8c0-2.2,1.8-4.1,4.1-4.1h13.8c2.2,0,4.1,1.8,4.1,4.1v25.8c0,2.2-1.8,4.1-4.1,4.1h-13.8
          C259.9,239.6,258.1,237.8,258.1,235.5z"/>
      </g>
      <g>
        <path class="st53" d="M258.1,201v-25.8c0-2.2,1.8-4.1,4.1-4.1h13.8c2.2,0,4.1,1.8,4.1,4.1V201c0,2.2-1.8,4.1-4.1,4.1h-13.8
          C259.9,205.1,258.1,203.2,258.1,201z"/>
      </g>
      <g>
        <path class="st53" d="M258.1,166.4v-25.8c0-2.2,1.8-4.1,4.1-4.1h13.8c2.2,0,4.1,1.8,4.1,4.1v25.8c0,2.2-1.8,4.1-4.1,4.1h-13.8
          C259.9,170.5,258.1,168.7,258.1,166.4z"/>
      </g>
      <g>
        <path class="st53" d="M258.1,131.9v-25.8c0-2.2,1.8-4.1,4.1-4.1h13.8c2.2,0,4.1,1.8,4.1,4.1v25.8c0,2.2-1.8,4.1-4.1,4.1h-13.8
          C259.9,136,258.1,134.1,258.1,131.9z"/>
      </g>
      <g>
        <path class="st53" d="M258.1,96.8V71c0-2.2,1.8-4.1,4.1-4.1h13.8c2.2,0,4.1,1.8,4.1,4.1v25.8c0,2.2-1.8,4.1-4.1,4.1h-13.8
          C259.9,100.8,258.1,99,258.1,96.8z"/>
      </g>
      <g>
        <path class="st53" d="M258.1,62.2V36.5c0-2.2,1.8-4.1,4.1-4.1h13.8c2.2,0,4.1,1.8,4.1,4.1v25.8c0,2.2-1.8,4.1-4.1,4.1h-13.8
          C259.9,66.3,258.1,64.5,258.1,62.2z"/>
      </g>
    </g>
    <g>
      <g>
        <path class="st53" d="M354.1,719.1v-25.8c0-2.2,1.8-4.1,4.1-4.1H372c2.2,0,4.1,1.8,4.1,4.1v25.8c0,2.2-1.8,4.1-4.1,4.1h-13.8
          C355.9,723.1,354.1,721.3,354.1,719.1z"/>
      </g>
      <g>
        <path class="st53" d="M354.1,684.5v-25.8c0-2.2,1.8-4.1,4.1-4.1H372c2.2,0,4.1,1.8,4.1,4.1v25.8c0,2.2-1.8,4.1-4.1,4.1h-13.8
          C355.9,688.6,354.1,686.8,354.1,684.5z"/>
      </g>
      <g>
        <path class="st53" d="M354.1,650v-25.8c0-2.2,1.8-4.1,4.1-4.1H372c2.2,0,4.1,1.8,4.1,4.1V650c0,2.2-1.8,4.1-4.1,4.1h-13.8
          C355.9,654.1,354.1,652.2,354.1,650z"/>
      </g>
      <g>
        <path class="st53" d="M354.1,615.4v-25.8c0-2.2,1.8-4.1,4.1-4.1H372c2.2,0,4.1,1.8,4.1,4.1v25.8c0,2.2-1.8,4.1-4.1,4.1h-13.8
          C355.9,619.5,354.1,617.7,354.1,615.4z"/>
      </g>
      <g>
        <path class="st53" d="M354.1,580.9v-25.8c0-2.2,1.8-4.1,4.1-4.1H372c2.2,0,4.1,1.8,4.1,4.1v25.8c0,2.2-1.8,4.1-4.1,4.1h-13.8
          C355.9,585,354.1,583.1,354.1,580.9z"/>
      </g>
      <g>
        <path class="st53" d="M354.1,546.4v-25.8c0-2.2,1.8-4.1,4.1-4.1H372c2.2,0,4.1,1.8,4.1,4.1v25.8c0,2.2-1.8,4.1-4.1,4.1h-13.8
          C355.9,550.4,354.1,548.6,354.1,546.4z"/>
      </g>
      <g>
        <path class="st53" d="M354.1,511.8v-25.8c0-2.2,1.8-4.1,4.1-4.1H372c2.2,0,4.1,1.8,4.1,4.1v25.8c0,2.2-1.8,4.1-4.1,4.1h-13.8
          C355.9,515.9,354.1,514.1,354.1,511.8z"/>
      </g>
      <g>
        <path class="st53" d="M354.1,477.3v-25.8c0-2.2,1.8-4.1,4.1-4.1H372c2.2,0,4.1,1.8,4.1,4.1v25.8c0,2.2-1.8,4.1-4.1,4.1h-13.8
          C355.9,481.4,354.1,479.5,354.1,477.3z"/>
      </g>
      <g>
        <path class="st53" d="M354.1,442.7V417c0-2.2,1.8-4.1,4.1-4.1H372c2.2,0,4.1,1.8,4.1,4.1v25.8c0,2.2-1.8,4.1-4.1,4.1h-13.8
          C355.9,446.8,354.1,445,354.1,442.7z"/>
      </g>
      <g>
        <path class="st53" d="M354.1,408.2v-25.8c0-2.2,1.8-4.1,4.1-4.1H372c2.2,0,4.1,1.8,4.1,4.1v25.8c0,2.2-1.8,4.1-4.1,4.1h-13.8
          C355.9,412.3,354.1,410.5,354.1,408.2z"/>
      </g>
      <g>
        <path class="st53" d="M354.1,373.7v-25.8c0-2.2,1.8-4.1,4.1-4.1H372c2.2,0,4.1,1.8,4.1,4.1v25.8c0,2.2-1.8,4.1-4.1,4.1h-13.8
          C355.9,377.8,354.1,375.9,354.1,373.7z"/>
      </g>
      <g>
        <path class="st53" d="M354.1,339.1v-25.8c0-2.2,1.8-4.1,4.1-4.1H372c2.2,0,4.1,1.8,4.1,4.1v25.8c0,2.2-1.8,4.1-4.1,4.1h-13.8
          C355.9,343.2,354.1,341.4,354.1,339.1z"/>
      </g>
      <g>
        <path class="st53" d="M354.1,304.6v-25.8c0-2.2,1.8-4.1,4.1-4.1H372c2.2,0,4.1,1.8,4.1,4.1v25.8c0,2.2-1.8,4.1-4.1,4.1h-13.8
          C355.9,308.7,354.1,306.8,354.1,304.6z"/>
      </g>
      <g>
        <path class="st53" d="M354.1,270.1v-25.8c0-2.2,1.8-4.1,4.1-4.1H372c2.2,0,4.1,1.8,4.1,4.1v25.8c0,2.2-1.8,4.1-4.1,4.1h-13.8
          C355.9,274.1,354.1,272.3,354.1,270.1z"/>
      </g>
      <g>
        <path class="st53" d="M354.1,235.5v-25.8c0-2.2,1.8-4.1,4.1-4.1H372c2.2,0,4.1,1.8,4.1,4.1v25.8c0,2.2-1.8,4.1-4.1,4.1h-13.8
          C355.9,239.6,354.1,237.8,354.1,235.5z"/>
      </g>
      <g>
        <path class="st53" d="M354.1,201v-25.8c0-2.2,1.8-4.1,4.1-4.1H372c2.2,0,4.1,1.8,4.1,4.1V201c0,2.2-1.8,4.1-4.1,4.1h-13.8
          C355.9,205.1,354.1,203.2,354.1,201z"/>
      </g>
      <g>
        <path class="st53" d="M354.1,166.4v-25.8c0-2.2,1.8-4.1,4.1-4.1H372c2.2,0,4.1,1.8,4.1,4.1v25.8c0,2.2-1.8,4.1-4.1,4.1h-13.8
          C355.9,170.5,354.1,168.7,354.1,166.4z"/>
      </g>
      <g>
        <path class="st53" d="M354.1,131.9v-25.8c0-2.2,1.8-4.1,4.1-4.1H372c2.2,0,4.1,1.8,4.1,4.1v25.8c0,2.2-1.8,4.1-4.1,4.1h-13.8
          C355.9,136,354.1,134.1,354.1,131.9z"/>
      </g>
    </g>
    <g>
      <g>
        <path class="st53" d="M404,719.1v-25.8c0-2.2,1.8-4.1,4.1-4.1h13.8c2.2,0,4.1,1.8,4.1,4.1v25.8c0,2.2-1.8,4.1-4.1,4.1H408
          C405.8,723.1,404,721.3,404,719.1z"/>
      </g>
      <g>
        <path class="st53" d="M404,684.5v-25.8c0-2.2,1.8-4.1,4.1-4.1h13.8c2.2,0,4.1,1.8,4.1,4.1v25.8c0,2.2-1.8,4.1-4.1,4.1H408
          C405.8,688.6,404,686.8,404,684.5z"/>
      </g>
      <g>
        <path class="st53" d="M404,650v-25.8c0-2.2,1.8-4.1,4.1-4.1h13.8c2.2,0,4.1,1.8,4.1,4.1V650c0,2.2-1.8,4.1-4.1,4.1H408
          C405.8,654.1,404,652.2,404,650z"/>
      </g>
      <g>
        <path class="st53" d="M404,615.4v-25.8c0-2.2,1.8-4.1,4.1-4.1h13.8c2.2,0,4.1,1.8,4.1,4.1v25.8c0,2.2-1.8,4.1-4.1,4.1H408
          C405.8,619.5,404,617.7,404,615.4z"/>
      </g>
      <g>
        <path class="st53" d="M404,580.9v-25.8c0-2.2,1.8-4.1,4.1-4.1h13.8c2.2,0,4.1,1.8,4.1,4.1v25.8c0,2.2-1.8,4.1-4.1,4.1H408
          C405.8,585,404,583.1,404,580.9z"/>
      </g>
      <g>
        <path class="st53" d="M404,546.4v-25.8c0-2.2,1.8-4.1,4.1-4.1h13.8c2.2,0,4.1,1.8,4.1,4.1v25.8c0,2.2-1.8,4.1-4.1,4.1H408
          C405.8,550.4,404,548.6,404,546.4z"/>
      </g>
      <g>
        <path class="st53" d="M404,511.8v-25.8c0-2.2,1.8-4.1,4.1-4.1h13.8c2.2,0,4.1,1.8,4.1,4.1v25.8c0,2.2-1.8,4.1-4.1,4.1H408
          C405.8,515.9,404,514.1,404,511.8z"/>
      </g>
      <g>
        <path class="st53" d="M404,477.3v-25.8c0-2.2,1.8-4.1,4.1-4.1h13.8c2.2,0,4.1,1.8,4.1,4.1v25.8c0,2.2-1.8,4.1-4.1,4.1H408
          C405.8,481.4,404,479.5,404,477.3z"/>
      </g>
      <g>
        <path class="st53" d="M404,442.7V417c0-2.2,1.8-4.1,4.1-4.1h13.8c2.2,0,4.1,1.8,4.1,4.1v25.8c0,2.2-1.8,4.1-4.1,4.1H408
          C405.8,446.8,404,445,404,442.7z"/>
      </g>
      <g>
        <path class="st53" d="M404,408.2v-25.8c0-2.2,1.8-4.1,4.1-4.1h13.8c2.2,0,4.1,1.8,4.1,4.1v25.8c0,2.2-1.8,4.1-4.1,4.1H408
          C405.8,412.3,404,410.5,404,408.2z"/>
      </g>
      <g>
        <path class="st53" d="M404,373.7v-25.8c0-2.2,1.8-4.1,4.1-4.1h13.8c2.2,0,4.1,1.8,4.1,4.1v25.8c0,2.2-1.8,4.1-4.1,4.1H408
          C405.8,377.8,404,375.9,404,373.7z"/>
      </g>
      <g>
        <path class="st53" d="M404,339.1v-25.8c0-2.2,1.8-4.1,4.1-4.1h13.8c2.2,0,4.1,1.8,4.1,4.1v25.8c0,2.2-1.8,4.1-4.1,4.1H408
          C405.8,343.2,404,341.4,404,339.1z"/>
      </g>
      <g>
        <path class="st53" d="M404,304.6v-25.8c0-2.2,1.8-4.1,4.1-4.1h13.8c2.2,0,4.1,1.8,4.1,4.1v25.8c0,2.2-1.8,4.1-4.1,4.1H408
          C405.8,308.7,404,306.8,404,304.6z"/>
      </g>
      <g>
        <path class="st53" d="M404,270.1v-25.8c0-2.2,1.8-4.1,4.1-4.1h13.8c2.2,0,4.1,1.8,4.1,4.1v25.8c0,2.2-1.8,4.1-4.1,4.1H408
          C405.8,274.1,404,272.3,404,270.1z"/>
      </g>
      <g>
        <path class="st53" d="M404,235.5v-25.8c0-2.2,1.8-4.1,4.1-4.1h13.8c2.2,0,4.1,1.8,4.1,4.1v25.8c0,2.2-1.8,4.1-4.1,4.1H408
          C405.8,239.6,404,237.8,404,235.5z"/>
      </g>
      <g>
        <path class="st53" d="M404,201v-25.8c0-2.2,1.8-4.1,4.1-4.1h13.8c2.2,0,4.1,1.8,4.1,4.1V201c0,2.2-1.8,4.1-4.1,4.1H408
          C405.8,205.1,404,203.2,404,201z"/>
      </g>
      <g>
        <path class="st53" d="M404,166.4v-25.8c0-2.2,1.8-4.1,4.1-4.1h13.8c2.2,0,4.1,1.8,4.1,4.1v25.8c0,2.2-1.8,4.1-4.1,4.1H408
          C405.8,170.5,404,168.7,404,166.4z"/>
      </g>
      <g>
        <path class="st53" d="M404,131.9v-25.8c0-2.2,1.8-4.1,4.1-4.1h13.8c2.2,0,4.1,1.8,4.1,4.1v25.8c0,2.2-1.8,4.1-4.1,4.1H408
          C405.8,136,404,134.1,404,131.9z"/>
      </g>
    </g>
    <g>
      <g>
        <path class="st53" d="M455.3,719.1v-25.8c0-2.2,1.8-4.1,4.1-4.1h13.8c2.2,0,4.1,1.8,4.1,4.1v25.8c0,2.2-1.8,4.1-4.1,4.1h-13.8
          C457.1,723.1,455.3,721.3,455.3,719.1z"/>
      </g>
      <g>
        <path class="st53" d="M455.3,684.5v-25.8c0-2.2,1.8-4.1,4.1-4.1h13.8c2.2,0,4.1,1.8,4.1,4.1v25.8c0,2.2-1.8,4.1-4.1,4.1h-13.8
          C457.1,688.6,455.3,686.8,455.3,684.5z"/>
      </g>
      <g>
        <path class="st53" d="M455.3,650v-25.8c0-2.2,1.8-4.1,4.1-4.1h13.8c2.2,0,4.1,1.8,4.1,4.1V650c0,2.2-1.8,4.1-4.1,4.1h-13.8
          C457.1,654.1,455.3,652.2,455.3,650z"/>
      </g>
      <g>
        <path class="st53" d="M455.3,615.4v-25.8c0-2.2,1.8-4.1,4.1-4.1h13.8c2.2,0,4.1,1.8,4.1,4.1v25.8c0,2.2-1.8,4.1-4.1,4.1h-13.8
          C457.1,619.5,455.3,617.7,455.3,615.4z"/>
      </g>
      <g>
        <path class="st53" d="M455.3,580.9v-25.8c0-2.2,1.8-4.1,4.1-4.1h13.8c2.2,0,4.1,1.8,4.1,4.1v25.8c0,2.2-1.8,4.1-4.1,4.1h-13.8
          C457.1,585,455.3,583.1,455.3,580.9z"/>
      </g>
      <g>
        <path class="st53" d="M455.3,546.4v-25.8c0-2.2,1.8-4.1,4.1-4.1h13.8c2.2,0,4.1,1.8,4.1,4.1v25.8c0,2.2-1.8,4.1-4.1,4.1h-13.8
          C457.1,550.4,455.3,548.6,455.3,546.4z"/>
      </g>
      <g>
        <path class="st53" d="M455.3,511.8v-25.8c0-2.2,1.8-4.1,4.1-4.1h13.8c2.2,0,4.1,1.8,4.1,4.1v25.8c0,2.2-1.8,4.1-4.1,4.1h-13.8
          C457.1,515.9,455.3,514.1,455.3,511.8z"/>
      </g>
      <g>
        <path class="st53" d="M455.3,477.3v-25.8c0-2.2,1.8-4.1,4.1-4.1h13.8c2.2,0,4.1,1.8,4.1,4.1v25.8c0,2.2-1.8,4.1-4.1,4.1h-13.8
          C457.1,481.4,455.3,479.5,455.3,477.3z"/>
      </g>
      <g>
        <path class="st53" d="M455.3,442.7V417c0-2.2,1.8-4.1,4.1-4.1h13.8c2.2,0,4.1,1.8,4.1,4.1v25.8c0,2.2-1.8,4.1-4.1,4.1h-13.8
          C457.1,446.8,455.3,445,455.3,442.7z"/>
      </g>
      <g>
        <path class="st53" d="M455.3,408.2v-25.8c0-2.2,1.8-4.1,4.1-4.1h13.8c2.2,0,4.1,1.8,4.1,4.1v25.8c0,2.2-1.8,4.1-4.1,4.1h-13.8
          C457.1,412.3,455.3,410.5,455.3,408.2z"/>
      </g>
      <g>
        <path class="st53" d="M455.3,373.7v-25.8c0-2.2,1.8-4.1,4.1-4.1h13.8c2.2,0,4.1,1.8,4.1,4.1v25.8c0,2.2-1.8,4.1-4.1,4.1h-13.8
          C457.1,377.8,455.3,375.9,455.3,373.7z"/>
      </g>
      <g>
        <path class="st53" d="M455.3,339.1v-25.8c0-2.2,1.8-4.1,4.1-4.1h13.8c2.2,0,4.1,1.8,4.1,4.1v25.8c0,2.2-1.8,4.1-4.1,4.1h-13.8
          C457.1,343.2,455.3,341.4,455.3,339.1z"/>
      </g>
      <g>
        <path class="st53" d="M455.3,304.6v-25.8c0-2.2,1.8-4.1,4.1-4.1h13.8c2.2,0,4.1,1.8,4.1,4.1v25.8c0,2.2-1.8,4.1-4.1,4.1h-13.8
          C457.1,308.7,455.3,306.8,455.3,304.6z"/>
      </g>
      <g>
        <path class="st53" d="M455.3,270.1v-25.8c0-2.2,1.8-4.1,4.1-4.1h13.8c2.2,0,4.1,1.8,4.1,4.1v25.8c0,2.2-1.8,4.1-4.1,4.1h-13.8
          C457.1,274.1,455.3,272.3,455.3,270.1z"/>
      </g>
      <g>
        <path class="st53" d="M455.3,235.5v-25.8c0-2.2,1.8-4.1,4.1-4.1h13.8c2.2,0,4.1,1.8,4.1,4.1v25.8c0,2.2-1.8,4.1-4.1,4.1h-13.8
          C457.1,239.6,455.3,237.8,455.3,235.5z"/>
      </g>
      <g>
        <path class="st53" d="M455.3,201v-25.8c0-2.2,1.8-4.1,4.1-4.1h13.8c2.2,0,4.1,1.8,4.1,4.1V201c0,2.2-1.8,4.1-4.1,4.1h-13.8
          C457.1,205.1,455.3,203.2,455.3,201z"/>
      </g>
      <g>
        <path class="st53" d="M455.3,166.4v-25.8c0-2.2,1.8-4.1,4.1-4.1h13.8c2.2,0,4.1,1.8,4.1,4.1v25.8c0,2.2-1.8,4.1-4.1,4.1h-13.8
          C457.1,170.5,455.3,168.7,455.3,166.4z"/>
      </g>
      <g>
        <path class="st53" d="M455.3,131.9v-25.8c0-2.2,1.8-4.1,4.1-4.1h13.8c2.2,0,4.1,1.8,4.1,4.1v25.8c0,2.2-1.8,4.1-4.1,4.1h-13.8
          C457.1,136,455.3,134.1,455.3,131.9z"/>
      </g>
    </g>
    <g>
      <g>
        <path class="st53" d="M504.7,719.1v-25.8c0-2.2,1.8-4.1,4.1-4.1h13.8c2.2,0,4.1,1.8,4.1,4.1v25.8c0,2.2-1.8,4.1-4.1,4.1h-13.8
          C506.6,723.1,504.7,721.3,504.7,719.1z"/>
      </g>
      <g>
        <path class="st53" d="M504.7,684.5v-25.8c0-2.2,1.8-4.1,4.1-4.1h13.8c2.2,0,4.1,1.8,4.1,4.1v25.8c0,2.2-1.8,4.1-4.1,4.1h-13.8
          C506.6,688.6,504.7,686.8,504.7,684.5z"/>
      </g>
      <g>
        <path class="st53" d="M504.7,650v-25.8c0-2.2,1.8-4.1,4.1-4.1h13.8c2.2,0,4.1,1.8,4.1,4.1V650c0,2.2-1.8,4.1-4.1,4.1h-13.8
          C506.6,654.1,504.7,652.2,504.7,650z"/>
      </g>
      <g>
        <path class="st53" d="M504.7,615.4v-25.8c0-2.2,1.8-4.1,4.1-4.1h13.8c2.2,0,4.1,1.8,4.1,4.1v25.8c0,2.2-1.8,4.1-4.1,4.1h-13.8
          C506.6,619.5,504.7,617.7,504.7,615.4z"/>
      </g>
      <g>
        <path class="st53" d="M504.7,580.9v-25.8c0-2.2,1.8-4.1,4.1-4.1h13.8c2.2,0,4.1,1.8,4.1,4.1v25.8c0,2.2-1.8,4.1-4.1,4.1h-13.8
          C506.6,585,504.7,583.1,504.7,580.9z"/>
      </g>
      <g>
        <path class="st53" d="M504.7,546.4v-25.8c0-2.2,1.8-4.1,4.1-4.1h13.8c2.2,0,4.1,1.8,4.1,4.1v25.8c0,2.2-1.8,4.1-4.1,4.1h-13.8
          C506.6,550.4,504.7,548.6,504.7,546.4z"/>
      </g>
      <g>
        <path class="st53" d="M504.7,511.8v-25.8c0-2.2,1.8-4.1,4.1-4.1h13.8c2.2,0,4.1,1.8,4.1,4.1v25.8c0,2.2-1.8,4.1-4.1,4.1h-13.8
          C506.6,515.9,504.7,514.1,504.7,511.8z"/>
      </g>
      <g>
        <path class="st53" d="M504.7,477.3v-25.8c0-2.2,1.8-4.1,4.1-4.1h13.8c2.2,0,4.1,1.8,4.1,4.1v25.8c0,2.2-1.8,4.1-4.1,4.1h-13.8
          C506.6,481.4,504.7,479.5,504.7,477.3z"/>
      </g>
      <g>
        <path class="st53" d="M504.7,442.7V417c0-2.2,1.8-4.1,4.1-4.1h13.8c2.2,0,4.1,1.8,4.1,4.1v25.8c0,2.2-1.8,4.1-4.1,4.1h-13.8
          C506.6,446.8,504.7,445,504.7,442.7z"/>
      </g>
      <g>
        <path class="st53" d="M504.7,408.2v-25.8c0-2.2,1.8-4.1,4.1-4.1h13.8c2.2,0,4.1,1.8,4.1,4.1v25.8c0,2.2-1.8,4.1-4.1,4.1h-13.8
          C506.6,412.3,504.7,410.5,504.7,408.2z"/>
      </g>
      <g>
        <path class="st53" d="M504.7,373.7v-25.8c0-2.2,1.8-4.1,4.1-4.1h13.8c2.2,0,4.1,1.8,4.1,4.1v25.8c0,2.2-1.8,4.1-4.1,4.1h-13.8
          C506.6,377.8,504.7,375.9,504.7,373.7z"/>
      </g>
      <g>
        <path class="st53" d="M504.7,339.1v-25.8c0-2.2,1.8-4.1,4.1-4.1h13.8c2.2,0,4.1,1.8,4.1,4.1v25.8c0,2.2-1.8,4.1-4.1,4.1h-13.8
          C506.6,343.2,504.7,341.4,504.7,339.1z"/>
      </g>
      <g>
        <path class="st53" d="M504.7,304.6v-25.8c0-2.2,1.8-4.1,4.1-4.1h13.8c2.2,0,4.1,1.8,4.1,4.1v25.8c0,2.2-1.8,4.1-4.1,4.1h-13.8
          C506.6,308.7,504.7,306.8,504.7,304.6z"/>
      </g>
      <g>
        <path class="st53" d="M504.7,270.1v-25.8c0-2.2,1.8-4.1,4.1-4.1h13.8c2.2,0,4.1,1.8,4.1,4.1v25.8c0,2.2-1.8,4.1-4.1,4.1h-13.8
          C506.6,274.1,504.7,272.3,504.7,270.1z"/>
      </g>
      <g>
        <path class="st53" d="M504.7,235.5v-25.8c0-2.2,1.8-4.1,4.1-4.1h13.8c2.2,0,4.1,1.8,4.1,4.1v25.8c0,2.2-1.8,4.1-4.1,4.1h-13.8
          C506.6,239.6,504.7,237.8,504.7,235.5z"/>
      </g>
      <g>
        <path class="st53" d="M504.7,201v-25.8c0-2.2,1.8-4.1,4.1-4.1h13.8c2.2,0,4.1,1.8,4.1,4.1V201c0,2.2-1.8,4.1-4.1,4.1h-13.8
          C506.6,205.1,504.7,203.2,504.7,201z"/>
      </g>
      <g>
        <path class="st53" d="M504.7,166.4v-25.8c0-2.2,1.8-4.1,4.1-4.1h13.8c2.2,0,4.1,1.8,4.1,4.1v25.8c0,2.2-1.8,4.1-4.1,4.1h-13.8
          C506.6,170.5,504.7,168.7,504.7,166.4z"/>
      </g>
      <g>
        <path class="st53" d="M504.7,131.9v-25.8c0-2.2,1.8-4.1,4.1-4.1h13.8c2.2,0,4.1,1.8,4.1,4.1v25.8c0,2.2-1.8,4.1-4.1,4.1h-13.8
          C506.6,136,504.7,134.1,504.7,131.9z"/>
      </g>
    </g>
    <g>
      <g>
        <path class="st53" d="M556.1,719.1v-25.8c0-2.2,1.8-4.1,4.1-4.1H574c2.2,0,4.1,1.8,4.1,4.1v25.8c0,2.2-1.8,4.1-4.1,4.1h-13.8
          C557.9,723.1,556.1,721.3,556.1,719.1z"/>
      </g>
      <g>
        <path class="st53" d="M556.1,684.5v-25.8c0-2.2,1.8-4.1,4.1-4.1H574c2.2,0,4.1,1.8,4.1,4.1v25.8c0,2.2-1.8,4.1-4.1,4.1h-13.8
          C557.9,688.6,556.1,686.8,556.1,684.5z"/>
      </g>
      <g>
        <path class="st53" d="M556.1,650v-25.8c0-2.2,1.8-4.1,4.1-4.1H574c2.2,0,4.1,1.8,4.1,4.1V650c0,2.2-1.8,4.1-4.1,4.1h-13.8
          C557.9,654.1,556.1,652.2,556.1,650z"/>
      </g>
      <g>
        <path class="st53" d="M556.1,615.4v-25.8c0-2.2,1.8-4.1,4.1-4.1H574c2.2,0,4.1,1.8,4.1,4.1v25.8c0,2.2-1.8,4.1-4.1,4.1h-13.8
          C557.9,619.5,556.1,617.7,556.1,615.4z"/>
      </g>
      <g>
        <path class="st53" d="M556.1,580.9v-25.8c0-2.2,1.8-4.1,4.1-4.1H574c2.2,0,4.1,1.8,4.1,4.1v25.8c0,2.2-1.8,4.1-4.1,4.1h-13.8
          C557.9,585,556.1,583.1,556.1,580.9z"/>
      </g>
      <g>
        <path class="st53" d="M556.1,546.4v-25.8c0-2.2,1.8-4.1,4.1-4.1H574c2.2,0,4.1,1.8,4.1,4.1v25.8c0,2.2-1.8,4.1-4.1,4.1h-13.8
          C557.9,550.4,556.1,548.6,556.1,546.4z"/>
      </g>
      <g>
        <path class="st53" d="M556.1,511.8v-25.8c0-2.2,1.8-4.1,4.1-4.1H574c2.2,0,4.1,1.8,4.1,4.1v25.8c0,2.2-1.8,4.1-4.1,4.1h-13.8
          C557.9,515.9,556.1,514.1,556.1,511.8z"/>
      </g>
      <g>
        <path class="st53" d="M556.1,477.3v-25.8c0-2.2,1.8-4.1,4.1-4.1H574c2.2,0,4.1,1.8,4.1,4.1v25.8c0,2.2-1.8,4.1-4.1,4.1h-13.8
          C557.9,481.4,556.1,479.5,556.1,477.3z"/>
      </g>
      <g>
        <path class="st53" d="M556.1,442.7V417c0-2.2,1.8-4.1,4.1-4.1H574c2.2,0,4.1,1.8,4.1,4.1v25.8c0,2.2-1.8,4.1-4.1,4.1h-13.8
          C557.9,446.8,556.1,445,556.1,442.7z"/>
      </g>
      <g>
        <path class="st53" d="M556.1,408.2v-25.8c0-2.2,1.8-4.1,4.1-4.1H574c2.2,0,4.1,1.8,4.1,4.1v25.8c0,2.2-1.8,4.1-4.1,4.1h-13.8
          C557.9,412.3,556.1,410.5,556.1,408.2z"/>
      </g>
      <g>
        <path class="st53" d="M556.1,373.7v-25.8c0-2.2,1.8-4.1,4.1-4.1H574c2.2,0,4.1,1.8,4.1,4.1v25.8c0,2.2-1.8,4.1-4.1,4.1h-13.8
          C557.9,377.8,556.1,375.9,556.1,373.7z"/>
      </g>
      <g>
        <path class="st53" d="M556.1,339.1v-25.8c0-2.2,1.8-4.1,4.1-4.1H574c2.2,0,4.1,1.8,4.1,4.1v25.8c0,2.2-1.8,4.1-4.1,4.1h-13.8
          C557.9,343.2,556.1,341.4,556.1,339.1z"/>
      </g>
      <g>
        <path class="st53" d="M556.1,304.6v-25.8c0-2.2,1.8-4.1,4.1-4.1H574c2.2,0,4.1,1.8,4.1,4.1v25.8c0,2.2-1.8,4.1-4.1,4.1h-13.8
          C557.9,308.7,556.1,306.8,556.1,304.6z"/>
      </g>
      <g>
        <path class="st53" d="M556.1,270.1v-25.8c0-2.2,1.8-4.1,4.1-4.1H574c2.2,0,4.1,1.8,4.1,4.1v25.8c0,2.2-1.8,4.1-4.1,4.1h-13.8
          C557.9,274.1,556.1,272.3,556.1,270.1z"/>
      </g>
      <g>
        <path class="st53" d="M556.1,235.5v-25.8c0-2.2,1.8-4.1,4.1-4.1H574c2.2,0,4.1,1.8,4.1,4.1v25.8c0,2.2-1.8,4.1-4.1,4.1h-13.8
          C557.9,239.6,556.1,237.8,556.1,235.5z"/>
      </g>
      <g>
        <path class="st53" d="M556.1,201v-25.8c0-2.2,1.8-4.1,4.1-4.1H574c2.2,0,4.1,1.8,4.1,4.1V201c0,2.2-1.8,4.1-4.1,4.1h-13.8
          C557.9,205.1,556.1,203.2,556.1,201z"/>
      </g>
      <g>
        <path class="st53" d="M556.1,166.4v-25.8c0-2.2,1.8-4.1,4.1-4.1H574c2.2,0,4.1,1.8,4.1,4.1v25.8c0,2.2-1.8,4.1-4.1,4.1h-13.8
          C557.9,170.5,556.1,168.7,556.1,166.4z"/>
      </g>
      <g>
        <path class="st53" d="M556.1,131.9v-25.8c0-2.2,1.8-4.1,4.1-4.1H574c2.2,0,4.1,1.8,4.1,4.1v25.8c0,2.2-1.8,4.1-4.1,4.1h-13.8
          C557.9,136,556.1,134.1,556.1,131.9z"/>
      </g>
    </g>
    <g>
      <g>
        <path class="st53" d="M606,719.1v-25.8c0-2.2,1.8-4.1,4.1-4.1h13.8c2.2,0,4.1,1.8,4.1,4.1v25.8c0,2.2-1.8,4.1-4.1,4.1H610
          C607.8,723.1,606,721.3,606,719.1z"/>
      </g>
      <g>
        <path class="st53" d="M606,684.5v-25.8c0-2.2,1.8-4.1,4.1-4.1h13.8c2.2,0,4.1,1.8,4.1,4.1v25.8c0,2.2-1.8,4.1-4.1,4.1H610
          C607.8,688.6,606,686.8,606,684.5z"/>
      </g>
      <g>
        <path class="st53" d="M606,650v-25.8c0-2.2,1.8-4.1,4.1-4.1h13.8c2.2,0,4.1,1.8,4.1,4.1V650c0,2.2-1.8,4.1-4.1,4.1H610
          C607.8,654.1,606,652.2,606,650z"/>
      </g>
      <g>
        <path class="st53" d="M606,615.4v-25.8c0-2.2,1.8-4.1,4.1-4.1h13.8c2.2,0,4.1,1.8,4.1,4.1v25.8c0,2.2-1.8,4.1-4.1,4.1H610
          C607.8,619.5,606,617.7,606,615.4z"/>
      </g>
      <g>
        <path class="st53" d="M606,580.9v-25.8c0-2.2,1.8-4.1,4.1-4.1h13.8c2.2,0,4.1,1.8,4.1,4.1v25.8c0,2.2-1.8,4.1-4.1,4.1H610
          C607.8,585,606,583.1,606,580.9z"/>
      </g>
      <g>
        <path class="st53" d="M606,546.4v-25.8c0-2.2,1.8-4.1,4.1-4.1h13.8c2.2,0,4.1,1.8,4.1,4.1v25.8c0,2.2-1.8,4.1-4.1,4.1H610
          C607.8,550.4,606,548.6,606,546.4z"/>
      </g>
      <g>
        <path class="st53" d="M606,511.8v-25.8c0-2.2,1.8-4.1,4.1-4.1h13.8c2.2,0,4.1,1.8,4.1,4.1v25.8c0,2.2-1.8,4.1-4.1,4.1H610
          C607.8,515.9,606,514.1,606,511.8z"/>
      </g>
      <g>
        <path class="st53" d="M606,477.3v-25.8c0-2.2,1.8-4.1,4.1-4.1h13.8c2.2,0,4.1,1.8,4.1,4.1v25.8c0,2.2-1.8,4.1-4.1,4.1H610
          C607.8,481.4,606,479.5,606,477.3z"/>
      </g>
      <g>
        <path class="st53" d="M606,442.7V417c0-2.2,1.8-4.1,4.1-4.1h13.8c2.2,0,4.1,1.8,4.1,4.1v25.8c0,2.2-1.8,4.1-4.1,4.1H610
          C607.8,446.8,606,445,606,442.7z"/>
      </g>
      <g>
        <path class="st53" d="M606,408.2v-25.8c0-2.2,1.8-4.1,4.1-4.1h13.8c2.2,0,4.1,1.8,4.1,4.1v25.8c0,2.2-1.8,4.1-4.1,4.1H610
          C607.8,412.3,606,410.5,606,408.2z"/>
      </g>
      <g>
        <path class="st53" d="M606,373.7v-25.8c0-2.2,1.8-4.1,4.1-4.1h13.8c2.2,0,4.1,1.8,4.1,4.1v25.8c0,2.2-1.8,4.1-4.1,4.1H610
          C607.8,377.8,606,375.9,606,373.7z"/>
      </g>
      <g>
        <path class="st53" d="M606,339.1v-25.8c0-2.2,1.8-4.1,4.1-4.1h13.8c2.2,0,4.1,1.8,4.1,4.1v25.8c0,2.2-1.8,4.1-4.1,4.1H610
          C607.8,343.2,606,341.4,606,339.1z"/>
      </g>
      <g>
        <path class="st53" d="M606,304.6v-25.8c0-2.2,1.8-4.1,4.1-4.1h13.8c2.2,0,4.1,1.8,4.1,4.1v25.8c0,2.2-1.8,4.1-4.1,4.1H610
          C607.8,308.7,606,306.8,606,304.6z"/>
      </g>
      <g>
        <path class="st53" d="M606,270.1v-25.8c0-2.2,1.8-4.1,4.1-4.1h13.8c2.2,0,4.1,1.8,4.1,4.1v25.8c0,2.2-1.8,4.1-4.1,4.1H610
          C607.8,274.1,606,272.3,606,270.1z"/>
      </g>
      <g>
        <path class="st53" d="M606,235.5v-25.8c0-2.2,1.8-4.1,4.1-4.1h13.8c2.2,0,4.1,1.8,4.1,4.1v25.8c0,2.2-1.8,4.1-4.1,4.1H610
          C607.8,239.6,606,237.8,606,235.5z"/>
      </g>
      <g>
        <path class="st53" d="M606,201v-25.8c0-2.2,1.8-4.1,4.1-4.1h13.8c2.2,0,4.1,1.8,4.1,4.1V201c0,2.2-1.8,4.1-4.1,4.1H610
          C607.8,205.1,606,203.2,606,201z"/>
      </g>
      <g>
        <path class="st53" d="M606,166.4v-25.8c0-2.2,1.8-4.1,4.1-4.1h13.8c2.2,0,4.1,1.8,4.1,4.1v25.8c0,2.2-1.8,4.1-4.1,4.1H610
          C607.8,170.5,606,168.7,606,166.4z"/>
      </g>
      <g>
        <path class="st53" d="M606,131.9v-25.8c0-2.2,1.8-4.1,4.1-4.1h13.8c2.2,0,4.1,1.8,4.1,4.1v25.8c0,2.2-1.8,4.1-4.1,4.1H610
          C607.8,136,606,134.1,606,131.9z"/>
      </g>
    </g>
    <g>
      <g>
        <path class="st53" d="M657.3,719.1v-25.8c0-2.2,1.8-4.1,4.1-4.1h13.8c2.2,0,4.1,1.8,4.1,4.1v25.8c0,2.2-1.8,4.1-4.1,4.1h-13.8
          C659.2,723.1,657.3,721.3,657.3,719.1z"/>
      </g>
      <g>
        <path class="st53" d="M657.3,684.5v-25.8c0-2.2,1.8-4.1,4.1-4.1h13.8c2.2,0,4.1,1.8,4.1,4.1v25.8c0,2.2-1.8,4.1-4.1,4.1h-13.8
          C659.2,688.6,657.3,686.8,657.3,684.5z"/>
      </g>
      <g>
        <path class="st53" d="M657.3,650v-25.8c0-2.2,1.8-4.1,4.1-4.1h13.8c2.2,0,4.1,1.8,4.1,4.1V650c0,2.2-1.8,4.1-4.1,4.1h-13.8
          C659.2,654.1,657.3,652.2,657.3,650z"/>
      </g>
      <g>
        <path class="st53" d="M657.3,615.4v-25.8c0-2.2,1.8-4.1,4.1-4.1h13.8c2.2,0,4.1,1.8,4.1,4.1v25.8c0,2.2-1.8,4.1-4.1,4.1h-13.8
          C659.2,619.5,657.3,617.7,657.3,615.4z"/>
      </g>
      <g>
        <path class="st53" d="M657.3,580.9v-25.8c0-2.2,1.8-4.1,4.1-4.1h13.8c2.2,0,4.1,1.8,4.1,4.1v25.8c0,2.2-1.8,4.1-4.1,4.1h-13.8
          C659.2,585,657.3,583.1,657.3,580.9z"/>
      </g>
      <g>
        <path class="st53" d="M657.3,546.4v-25.8c0-2.2,1.8-4.1,4.1-4.1h13.8c2.2,0,4.1,1.8,4.1,4.1v25.8c0,2.2-1.8,4.1-4.1,4.1h-13.8
          C659.2,550.4,657.3,548.6,657.3,546.4z"/>
      </g>
      <g>
        <path class="st53" d="M657.3,511.8v-25.8c0-2.2,1.8-4.1,4.1-4.1h13.8c2.2,0,4.1,1.8,4.1,4.1v25.8c0,2.2-1.8,4.1-4.1,4.1h-13.8
          C659.2,515.9,657.3,514.1,657.3,511.8z"/>
      </g>
      <g>
        <path class="st53" d="M657.3,477.3v-25.8c0-2.2,1.8-4.1,4.1-4.1h13.8c2.2,0,4.1,1.8,4.1,4.1v25.8c0,2.2-1.8,4.1-4.1,4.1h-13.8
          C659.2,481.4,657.3,479.5,657.3,477.3z"/>
      </g>
      <g>
        <path class="st53" d="M657.3,442.7V417c0-2.2,1.8-4.1,4.1-4.1h13.8c2.2,0,4.1,1.8,4.1,4.1v25.8c0,2.2-1.8,4.1-4.1,4.1h-13.8
          C659.2,446.8,657.3,445,657.3,442.7z"/>
      </g>
      <g>
        <path class="st53" d="M657.3,408.2v-25.8c0-2.2,1.8-4.1,4.1-4.1h13.8c2.2,0,4.1,1.8,4.1,4.1v25.8c0,2.2-1.8,4.1-4.1,4.1h-13.8
          C659.2,412.3,657.3,410.5,657.3,408.2z"/>
      </g>
      <g>
        <path class="st53" d="M657.3,373.7v-25.8c0-2.2,1.8-4.1,4.1-4.1h13.8c2.2,0,4.1,1.8,4.1,4.1v25.8c0,2.2-1.8,4.1-4.1,4.1h-13.8
          C659.2,377.8,657.3,375.9,657.3,373.7z"/>
      </g>
      <g>
        <path class="st53" d="M657.3,339.1v-25.8c0-2.2,1.8-4.1,4.1-4.1h13.8c2.2,0,4.1,1.8,4.1,4.1v25.8c0,2.2-1.8,4.1-4.1,4.1h-13.8
          C659.2,343.2,657.3,341.4,657.3,339.1z"/>
      </g>
      <g>
        <path class="st53" d="M657.3,304.6v-25.8c0-2.2,1.8-4.1,4.1-4.1h13.8c2.2,0,4.1,1.8,4.1,4.1v25.8c0,2.2-1.8,4.1-4.1,4.1h-13.8
          C659.2,308.7,657.3,306.8,657.3,304.6z"/>
      </g>
      <g>
        <path class="st53" d="M657.3,270.1v-25.8c0-2.2,1.8-4.1,4.1-4.1h13.8c2.2,0,4.1,1.8,4.1,4.1v25.8c0,2.2-1.8,4.1-4.1,4.1h-13.8
          C659.2,274.1,657.3,272.3,657.3,270.1z"/>
      </g>
      <g>
        <path class="st53" d="M657.3,235.5v-25.8c0-2.2,1.8-4.1,4.1-4.1h13.8c2.2,0,4.1,1.8,4.1,4.1v25.8c0,2.2-1.8,4.1-4.1,4.1h-13.8
          C659.2,239.6,657.3,237.8,657.3,235.5z"/>
      </g>
      <g>
        <path class="st53" d="M657.3,201v-25.8c0-2.2,1.8-4.1,4.1-4.1h13.8c2.2,0,4.1,1.8,4.1,4.1V201c0,2.2-1.8,4.1-4.1,4.1h-13.8
          C659.2,205.1,657.3,203.2,657.3,201z"/>
      </g>
      <g>
        <path class="st53" d="M657.3,166.4v-25.8c0-2.2,1.8-4.1,4.1-4.1h13.8c2.2,0,4.1,1.8,4.1,4.1v25.8c0,2.2-1.8,4.1-4.1,4.1h-13.8
          C659.2,170.5,657.3,168.7,657.3,166.4z"/>
      </g>
      <g>
        <path class="st53" d="M657.3,131.9v-25.8c0-2.2,1.8-4.1,4.1-4.1h13.8c2.2,0,4.1,1.8,4.1,4.1v25.8c0,2.2-1.8,4.1-4.1,4.1h-13.8
          C659.2,136,657.3,134.1,657.3,131.9z"/>
      </g>
    </g>
    <g>
      <g>
        <path class="st53" d="M706.8,719.1v-25.8c0-2.2,1.8-4.1,4.1-4.1h13.8c2.2,0,4.1,1.8,4.1,4.1v25.8c0,2.2-1.8,4.1-4.1,4.1h-13.8
          C708.6,723.1,706.8,721.3,706.8,719.1z"/>
      </g>
      <g>
        <path class="st53" d="M706.8,684.5v-25.8c0-2.2,1.8-4.1,4.1-4.1h13.8c2.2,0,4.1,1.8,4.1,4.1v25.8c0,2.2-1.8,4.1-4.1,4.1h-13.8
          C708.6,688.6,706.8,686.8,706.8,684.5z"/>
      </g>
      <g>
        <path class="st53" d="M706.8,650v-25.8c0-2.2,1.8-4.1,4.1-4.1h13.8c2.2,0,4.1,1.8,4.1,4.1V650c0,2.2-1.8,4.1-4.1,4.1h-13.8
          C708.6,654.1,706.8,652.2,706.8,650z"/>
      </g>
      <g>
        <path class="st53" d="M706.8,615.4v-25.8c0-2.2,1.8-4.1,4.1-4.1h13.8c2.2,0,4.1,1.8,4.1,4.1v25.8c0,2.2-1.8,4.1-4.1,4.1h-13.8
          C708.6,619.5,706.8,617.7,706.8,615.4z"/>
      </g>
      <g>
        <path class="st53" d="M706.8,580.9v-25.8c0-2.2,1.8-4.1,4.1-4.1h13.8c2.2,0,4.1,1.8,4.1,4.1v25.8c0,2.2-1.8,4.1-4.1,4.1h-13.8
          C708.6,585,706.8,583.1,706.8,580.9z"/>
      </g>
      <g>
        <path class="st53" d="M706.8,546.4v-25.8c0-2.2,1.8-4.1,4.1-4.1h13.8c2.2,0,4.1,1.8,4.1,4.1v25.8c0,2.2-1.8,4.1-4.1,4.1h-13.8
          C708.6,550.4,706.8,548.6,706.8,546.4z"/>
      </g>
      <g>
        <path class="st53" d="M706.8,511.8v-25.8c0-2.2,1.8-4.1,4.1-4.1h13.8c2.2,0,4.1,1.8,4.1,4.1v25.8c0,2.2-1.8,4.1-4.1,4.1h-13.8
          C708.6,515.9,706.8,514.1,706.8,511.8z"/>
      </g>
      <g>
        <path class="st53" d="M706.8,477.3v-25.8c0-2.2,1.8-4.1,4.1-4.1h13.8c2.2,0,4.1,1.8,4.1,4.1v25.8c0,2.2-1.8,4.1-4.1,4.1h-13.8
          C708.6,481.4,706.8,479.5,706.8,477.3z"/>
      </g>
      <g>
        <path class="st53" d="M706.8,442.7V417c0-2.2,1.8-4.1,4.1-4.1h13.8c2.2,0,4.1,1.8,4.1,4.1v25.8c0,2.2-1.8,4.1-4.1,4.1h-13.8
          C708.6,446.8,706.8,445,706.8,442.7z"/>
      </g>
      <g>
        <path class="st53" d="M706.8,408.2v-25.8c0-2.2,1.8-4.1,4.1-4.1h13.8c2.2,0,4.1,1.8,4.1,4.1v25.8c0,2.2-1.8,4.1-4.1,4.1h-13.8
          C708.6,412.3,706.8,410.5,706.8,408.2z"/>
      </g>
      <g>
        <path class="st53" d="M706.8,373.7v-25.8c0-2.2,1.8-4.1,4.1-4.1h13.8c2.2,0,4.1,1.8,4.1,4.1v25.8c0,2.2-1.8,4.1-4.1,4.1h-13.8
          C708.6,377.8,706.8,375.9,706.8,373.7z"/>
      </g>
      <g>
        <path class="st53" d="M706.8,339.1v-25.8c0-2.2,1.8-4.1,4.1-4.1h13.8c2.2,0,4.1,1.8,4.1,4.1v25.8c0,2.2-1.8,4.1-4.1,4.1h-13.8
          C708.6,343.2,706.8,341.4,706.8,339.1z"/>
      </g>
      <g>
        <path class="st53" d="M706.8,304.6v-25.8c0-2.2,1.8-4.1,4.1-4.1h13.8c2.2,0,4.1,1.8,4.1,4.1v25.8c0,2.2-1.8,4.1-4.1,4.1h-13.8
          C708.6,308.7,706.8,306.8,706.8,304.6z"/>
      </g>
      <g>
        <path class="st53" d="M706.8,270.1v-25.8c0-2.2,1.8-4.1,4.1-4.1h13.8c2.2,0,4.1,1.8,4.1,4.1v25.8c0,2.2-1.8,4.1-4.1,4.1h-13.8
          C708.6,274.1,706.8,272.3,706.8,270.1z"/>
      </g>
      <g>
        <path class="st53" d="M706.8,235.5v-25.8c0-2.2,1.8-4.1,4.1-4.1h13.8c2.2,0,4.1,1.8,4.1,4.1v25.8c0,2.2-1.8,4.1-4.1,4.1h-13.8
          C708.6,239.6,706.8,237.8,706.8,235.5z"/>
      </g>
      <g>
        <path class="st53" d="M706.8,201v-25.8c0-2.2,1.8-4.1,4.1-4.1h13.8c2.2,0,4.1,1.8,4.1,4.1V201c0,2.2-1.8,4.1-4.1,4.1h-13.8
          C708.6,205.1,706.8,203.2,706.8,201z"/>
      </g>
      <g>
        <path class="st53" d="M706.8,166.4v-25.8c0-2.2,1.8-4.1,4.1-4.1h13.8c2.2,0,4.1,1.8,4.1,4.1v25.8c0,2.2-1.8,4.1-4.1,4.1h-13.8
          C708.6,170.5,706.8,168.7,706.8,166.4z"/>
      </g>
      <g>
        <path class="st53" d="M706.8,131.9v-25.8c0-2.2,1.8-4.1,4.1-4.1h13.8c2.2,0,4.1,1.8,4.1,4.1v25.8c0,2.2-1.8,4.1-4.1,4.1h-13.8
          C708.6,136,706.8,134.1,706.8,131.9z"/>
      </g>
    </g>
  </g>
  <g id="Letras">
    <text transform="matrix(1 0 0 1 759.5629 439.9033)" class="st56 st57">C</text>
    <g>
      <path id="path100202_00000183249556270269863200000013459807092269746836_" class="st55" d="M711.4,745.4l5.8-15.4l6,15.4"/>
      <path id="path100204_00000065786951783706767480000000884578520205236403_" class="st55" d="M713.7,740.3h7.4"/>
    </g>
    <g>
      <path id="path100206_00000120556923986817426130000008126294554510611104_" class="st55" d="M662.8,745.4V730h6.7l2.2,0.7l0.7,0.7
        l0.7,1.6v1.6l-0.7,1.3l-0.7,0.7l-2.2,0.9h-6.7"/>
      <path id="path100208_00000147208328155910130310000007827001913375071136_" class="st55" d="M669.4,737.4l2.2,0.7l0.7,0.7l0.7,1.6
        v2.2l-0.7,1.3l-0.7,0.9l-2.2,0.7h-6.7"/>
    </g>
    <g>
      <path id="path100210_00000062876458096133691570000016153809147491661499_" class="st55" d="M622.1,733.6l-0.7-1.3l-1.6-1.6
        l-1.6-0.7h-2.9l-1.3,0.7l-1.6,1.6l-0.7,1.3l-0.9,2.2v3.8l0.9,2.2l0.7,1.3l1.6,1.6l1.3,0.7h2.9l1.6-0.7l1.6-1.6l0.7-1.3"/>
    </g>
    <g>
      <path id="path100212_00000067222724187805438230000016895250987223991434_" class="st55" d="M561.5,745.4V730h5.1l2.2,0.7l1.3,1.6
        l0.7,1.3l0.9,2.2v3.8l-0.9,2.2l-0.7,1.3l-1.3,1.6l-2.2,0.7H561.5"/>
    </g>
    <g>
      <path id="path100214_00000054978904902837337790000016751834976493216403_" class="st55" d="M510.5,745.4V730h9.6"/>
      <path id="path100216_00000173150458479405867590000005813420525441679539_" class="st55" d="M510.5,737.4h5.8"/>
      <path id="path100218_00000183928984963463101590000003140268863478991235_" class="st55" d="M510.5,745.4h9.6"/>
    </g>
    <g>
      <path id="path100220_00000154404647915197995080000000063611490265119665_" class="st55" d="M461.1,745.4V730h9.6"/>
      <path id="path100222_00000007391733906140927100000002572444676626097079_" class="st55" d="M461.1,737.4h5.8"/>
    </g>
    <g>
      <path id="path100224_00000101072941163035917850000001171671604611660199_" class="st55" d="M420.1,733.6l-0.9-1.3l-1.3-1.6
        l-1.6-0.7h-2.9l-1.6,0.7l-1.3,1.6l-0.9,1.3l-0.7,2.2v3.8l0.7,2.2l0.9,1.3l1.3,1.6l1.6,0.7h2.9l1.6-0.7l1.3-1.6l0.9-1.3v-2.2h-3.8"
        />
    </g>
    <g>
      <path id="path100226_00000176020108845560237010000009859153525213029256_" class="st55" d="M359.5,745.4V730"/>
      <path id="path100228_00000129918426299421128920000016260870520966363806_" class="st55" d="M369.8,730v15.4"/>
      <path id="path100230_00000134217478618179824910000003686371227230960316_" class="st55" d="M359.5,737.4h10.3"/>
    </g>
    <path id="path100232_00000079480270565996992220000012932865512718610586_" class="st55" d="M313.3,745.4V730"/>
    <path id="path100234_00000034771294497151846360000010539687289115586477_" class="st55" d="M296.6,741.8v11.8l-0.9,2l-0.7,0.9
      l-1.6,0.7h-1.3l-1.6-0.7l-0.7-0.9l-0.7-2v-1.6"/>
  </g>
</svg>
