<?xml version="1.0" encoding="utf-8"?>
<!-- Generator: Adobe Illustrator 27.2.0, SVG Export Plug-In . SVG Version: 6.00 Build 0)  -->
<svg version="1.1" xmlns="http://www.w3.org/2000/svg" xmlns:xlink="http://www.w3.org/1999/xlink" x="0px" y="0px"
	 viewBox="0 0 1075.6 792" style="enable-background:new 0 0 1075.6 792;" xml:space="preserve">
  <style type="text/css">
    .st0{display:none;}
    .st1{display:inline;}
    .st2{fill:none;stroke:#DD6E00;stroke-width:2;stroke-linecap:round;stroke-linejoin:round;stroke-miterlimit:10;}
    .st3{fill:none;stroke:#0000FF;stroke-width:2;stroke-linecap:round;stroke-linejoin:round;stroke-miterlimit:10;}
    .st4{fill:none;stroke:#000000;stroke-width:2;stroke-linecap:round;stroke-linejoin:round;stroke-miterlimit:10;}
    .st5{fill:none;stroke:#BABABA;stroke-width:2;stroke-linecap:round;stroke-linejoin:round;stroke-miterlimit:10;}
    .st6{fill:none;stroke:#989898;stroke-width:2;stroke-linecap:round;stroke-linejoin:round;stroke-miterlimit:10;}
    .st7{fill:none;stroke:#FFFF00;stroke-width:2;stroke-linecap:round;stroke-linejoin:round;stroke-miterlimit:10;}
    .st8{fill:none;stroke:#FF0000;stroke-width:2;stroke-linecap:round;stroke-linejoin:round;stroke-miterlimit:10;}
    .st9{fill:none;stroke:#E69835;stroke-width:6;stroke-miterlimit:10;}
    .st10{fill:none;stroke:#D75A31;stroke-width:6;stroke-miterlimit:10;}
    .st11{fill:none;stroke:#AE2C2B;stroke-width:6;stroke-miterlimit:10;}
    .st12{fill:none;stroke:#FF6700;stroke-width:6;stroke-miterlimit:10;}
    .st13{fill:none;stroke:#50FFFF;stroke-width:6;stroke-miterlimit:10;}
    .st14{fill:none;stroke:#CB85E5;stroke-width:6;stroke-miterlimit:10;}
    .st15{fill:none;stroke:#7980B2;stroke-width:6;stroke-miterlimit:10;}
    .st16{fill:none;stroke:#3E2B1A;stroke-width:6;stroke-miterlimit:10;}
    .st17{fill:none;stroke:#42944B;stroke-width:6;stroke-miterlimit:10;}
    .st18{fill:none;stroke:#9D9D9C;stroke-width:6;stroke-miterlimit:10;}
    .st19{fill:none;stroke:#C39F6F;stroke-width:6;stroke-miterlimit:10;}
    .st20{fill:none;stroke:#F7EB50;stroke-width:6;stroke-miterlimit:10;}
    .st21{fill:#89277D;}
    .st22{fill:none;stroke:#0000FF;stroke-linecap:round;stroke-linejoin:round;}
    .st23{fill:#3670B3;}
    .st24{fill:#489F9A;}
    .st25{fill:#D22D7D;}
    .st26{fill:#2B6438;}
    .st27{fill:#00FFCE;}
    .st28{fill:#869363;}
    .st29{fill:#CB85E5;}
    .st30{fill:#FF6700;}
    .st31{fill:#7980B2;}
    .st32{fill:#F7EB50;}
    .st33{fill:#E69835;}
    .st34{fill:#D75A31;}
    .st35{fill:#AE2C2B;}
    .st36{fill:#786A5A;}
    .st37{fill:#282359;}
    .st38{fill:#9EC043;}
    .st39{fill:#469CDD;}
    .st40{fill:#5E287E;}
    .st41{fill:none;stroke:#5E287E;stroke-width:6;stroke-miterlimit:10;}
    .st42{fill:#D43673;}
    .st43{fill:#C39F6F;}
    .st44{fill:#9D9D9C;}
    .st45{fill:#42944B;}
    .st46{fill:#3E2B1A;}
    .st47{fill:#13514C;}
    .st48{fill:#425968;}
    .st49{fill:#536D01;}
    .st50{fill:#A87F1A;}
    .st51{fill:#50FFFF;}
    .st52{fill:none;stroke:#D43673;stroke-width:6;stroke-miterlimit:10;}
    .st53{fill:#D9D9D9;}
    .st54{fill:none;stroke:#1D1D1B;stroke-width:10;stroke-linecap:round;stroke-linejoin:round;stroke-miterlimit:10;}
    .st55{fill:none;stroke:#1D1D1B;stroke-width:3;stroke-linecap:round;stroke-linejoin:round;stroke-miterlimit:10;}
    .st56{fill:none;stroke:#1D1D1B;stroke-width:6;stroke-linecap:round;stroke-linejoin:round;stroke-miterlimit:10;}
    .st57{fill:none;stroke:#1D1D1B;stroke-width:2;stroke-linecap:round;stroke-linejoin:round;stroke-miterlimit:10;}
    .st58{font-family:'Arial-BoldMT';}
    .st59{font-size:236.8715px;}
  </style>
  <g id="Capa_1" class="st0">
  </g>
  <g id="Contorno_color">
    <path id="path211862-2" class="st9" d="M175,394.9V64.5h760.8v330.4H175z"/>
  </g>
  <g id="Asientos">
    <path class="st53" d="M436,205.3H320.1c-6.6,0-12-5.4-12-12v-64.2c0-6.6,5.4-12,12-12H436c6.6,0,12,5.4,12,12v64.2
      C448,199.9,442.6,205.3,436,205.3z"/>
    <path class="st53" d="M585.9,205.3H470c-6.6,0-12-5.4-12-12v-64.2c0-6.6,5.4-12,12-12h115.9c6.6,0,12,5.4,12,12v64.2
      C597.9,199.9,592.5,205.3,585.9,205.3z"/>
    <path class="st53" d="M733.9,205.3H618c-6.6,0-12-5.4-12-12v-64.2c0-6.6,5.4-12,12-12h115.9c6.6,0,12,5.4,12,12v64.2
      C745.9,199.9,740.5,205.3,733.9,205.3z"/>
    <path class="st53" d="M883.8,205.3H768c-6.6,0-12-5.4-12-12v-64.2c0-6.6,5.4-12,12-12h115.9c6.6,0,12,5.4,12,12v64.2
      C895.8,199.9,890.4,205.3,883.8,205.3z"/>
    <path class="st53" d="M436,361H320.1c-6.6,0-12-5.4-12-12v-64.2c0-6.6,5.4-12,12-12H436c6.6,0,12,5.4,12,12V349
      C448,355.6,442.6,361,436,361z"/>
    <path class="st53" d="M585.9,361H470c-6.6,0-12-5.4-12-12v-64.2c0-6.6,5.4-12,12-12h115.9c6.6,0,12,5.4,12,12V349
      C597.9,355.6,592.5,361,585.9,361z"/>
    <path class="st53" d="M733.9,361H618c-6.6,0-12-5.4-12-12v-64.2c0-6.6,5.4-12,12-12h115.9c6.6,0,12,5.4,12,12V349
      C745.9,355.6,740.5,361,733.9,361z"/>
    <path class="st53" d="M883.8,361H768c-6.6,0-12-5.4-12-12v-64.2c0-6.6,5.4-12,12-12h115.9c6.6,0,12,5.4,12,12V349
      C895.8,355.6,890.4,361,883.8,361z"/>
  </g>
  <g id="Letras">
    <g>
      <path id="path211632_00000171000004064989348990000013801865334921444226_" class="st54" d="M267.9,342.3l-66.1-25.9l66.1-24.9"/>
      <path id="path211634_00000031179559409408801890000016858852928912170914_" class="st54" d="M245.8,332.7v-31.6"/>
      <path id="path211636_00000134231981808654451600000005924594262881749155_" class="st54" d="M265,183.3h-66.1v-28.7l2.9-9.6
        l2.9-2.9l6.7-2.9h5.7l6.7,2.9l2.9,2.9l2.9,9.6v28.7"/>
      <path id="path211638_00000086658652370183343940000013579005065416308145_" class="st54" d="M229.6,154.5l3.8-9.6l2.9-2.9l6.7-2.9
        h9.6l5.7,2.9l2.9,2.9l3.8,9.6v28.7"/>
      <text transform="matrix(1 0 0 1 479.6086 636.4072)" class="st58 st59">X</text>
    </g>
  </g>
</svg>
