<?xml version="1.0" encoding="utf-8"?>
<!-- Generator: Adobe Illustrator 27.2.0, SVG Export Plug-In . SVG Version: 6.00 Build 0)  -->
<svg version="1.1" xmlns="http://www.w3.org/2000/svg" xmlns:xlink="http://www.w3.org/1999/xlink" x="0px" y="0px"
	 viewBox="0 0 1075.6 792" style="enable-background:new 0 0 1075.6 792;" xml:space="preserve">
  <style type="text/css">
    .st0{display:none;}
    .st1{display:inline;}
    .st2{fill:none;stroke:#DD6E00;stroke-width:2;stroke-linecap:round;stroke-linejoin:round;stroke-miterlimit:10;}
    .st3{fill:none;stroke:#0000FF;stroke-width:2;stroke-linecap:round;stroke-linejoin:round;stroke-miterlimit:10;}
    .st4{fill:none;stroke:#000000;stroke-width:2;stroke-linecap:round;stroke-linejoin:round;stroke-miterlimit:10;}
    .st5{fill:none;stroke:#BABABA;stroke-width:2;stroke-linecap:round;stroke-linejoin:round;stroke-miterlimit:10;}
    .st6{fill:none;stroke:#989898;stroke-width:2;stroke-linecap:round;stroke-linejoin:round;stroke-miterlimit:10;}
    .st7{fill:none;stroke:#FFFF00;stroke-width:2;stroke-linecap:round;stroke-linejoin:round;stroke-miterlimit:10;}
    .st8{fill:none;stroke:#FF0000;stroke-width:2;stroke-linecap:round;stroke-linejoin:round;stroke-miterlimit:10;}
    .st9{fill:none;stroke:#E69835;stroke-width:6;stroke-miterlimit:10;}
    .st10{fill:none;stroke:#D75A31;stroke-width:6;stroke-miterlimit:10;}
    .st11{fill:none;stroke:#AE2C2B;stroke-width:6;stroke-miterlimit:10;}
    .st12{fill:none;stroke:#FF6700;stroke-width:6;stroke-miterlimit:10;}
    .st13{fill:none;stroke:#50FFFF;stroke-width:6;stroke-miterlimit:10;}
    .st14{fill:none;stroke:#CB85E5;stroke-width:6;stroke-miterlimit:10;}
    .st15{fill:none;stroke:#7980B2;stroke-width:6;stroke-miterlimit:10;}
    .st16{fill:none;stroke:#3E2B1A;stroke-width:6;stroke-miterlimit:10;}
    .st17{fill:none;stroke:#42944B;stroke-width:6;stroke-miterlimit:10;}
    .st18{fill:none;stroke:#9D9D9C;stroke-width:6;stroke-miterlimit:10;}
    .st19{fill:none;stroke:#C39F6F;stroke-width:6;stroke-miterlimit:10;}
    .st20{fill:none;stroke:#F7EB50;stroke-width:6;stroke-miterlimit:10;}
    .st21{fill:#89277D;}
    .st22{fill:none;stroke:#0000FF;stroke-linecap:round;stroke-linejoin:round;}
    .st23{fill:#3670B3;}
    .st24{fill:#489F9A;}
    .st25{fill:#D22D7D;}
    .st26{fill:#2B6438;}
    .st27{fill:#00FFCE;}
    .st28{fill:#869363;}
    .st29{fill:#CB85E5;}
    .st30{fill:#FF6700;}
    .st31{fill:#7980B2;}
    .st32{fill:#F7EB50;}
    .st33{fill:#E69835;}
    .st34{fill:#D75A31;}
    .st35{fill:#AE2C2B;}
    .st36{fill:#786A5A;}
    .st37{fill:#282359;}
    .st38{fill:#9EC043;}
    .st39{fill:#469CDD;}
    .st40{fill:#5E287E;}
    .st41{fill:none;stroke:#5E287E;stroke-width:6;stroke-miterlimit:10;}
    .st42{fill:#D43673;}
    .st43{fill:#C39F6F;}
    .st44{fill:#9D9D9C;}
    .st45{fill:#42944B;}
    .st46{fill:#3E2B1A;}
    .st47{fill:#13514C;}
    .st48{fill:#425968;}
    .st49{fill:#536D01;}
    .st50{fill:#A87F1A;}
    .st51{fill:#50FFFF;}
    .st52{fill:none;stroke:#D43673;stroke-width:6;stroke-miterlimit:10;}
    .st53{fill:#D9D9D9;}
    .st54{fill:none;stroke:#1D1D1B;stroke-width:10;stroke-linecap:round;stroke-linejoin:round;stroke-miterlimit:10;}
    .st55{font-family:'Arial-BoldMT';}
    .st56{font-size:117.8056px;}
    .st57{fill:none;stroke:#1D1D1B;stroke-width:3;stroke-linecap:round;stroke-linejoin:round;stroke-miterlimit:10;}
    .st58{fill:none;stroke:#1D1D1B;stroke-width:6;stroke-linecap:round;stroke-linejoin:round;stroke-miterlimit:10;}
    .st59{fill:none;stroke:#1D1D1B;stroke-width:2;stroke-linecap:round;stroke-linejoin:round;stroke-miterlimit:10;}
  </style>
  <g id="Capa_1" class="st0">
  </g>
  <g id="Contorno_color">
    <polyline class="st16" points="318.7,553.9 318.7,44.9 756.9,44.9 756.9,553.9 	"/>
  </g>
  <g id="Asientos">
    <g>
      <path class="st53" d="M463.4,142.5h-93.7c-6.6,0-12-5.4-12-12V88.1c0-6.6,5.4-12,12-12h93.7c6.6,0,12,5.4,12,12v42.5
        C475.4,137.1,470,142.5,463.4,142.5z"/>
      <path class="st53" d="M589.6,142.5h-93.7c-6.6,0-12-5.4-12-12V88.1c0-6.6,5.4-12,12-12h93.7c6.6,0,12,5.4,12,12v42.5
        C601.6,137.1,596.2,142.5,589.6,142.5z"/>
      <path class="st53" d="M714.2,142.5h-93.7c-6.6,0-12-5.4-12-12V88.1c0-6.6,5.4-12,12-12h93.7c6.6,0,12,5.4,12,12v42.5
        C726.2,137.1,720.8,142.5,714.2,142.5z"/>
    </g>
    <g>
      <path class="st53" d="M463.4,254.5h-93.7c-6.6,0-12-5.4-12-12V200c0-6.6,5.4-12,12-12h93.7c6.6,0,12,5.4,12,12v42.5
        C475.4,249.1,470,254.5,463.4,254.5z"/>
      <path class="st53" d="M589.6,254.5h-93.7c-6.6,0-12-5.4-12-12V200c0-6.6,5.4-12,12-12h93.7c6.6,0,12,5.4,12,12v42.5
        C601.6,249.1,596.2,254.5,589.6,254.5z"/>
      <path class="st53" d="M714.2,254.5h-93.7c-6.6,0-12-5.4-12-12V200c0-6.6,5.4-12,12-12h93.7c6.6,0,12,5.4,12,12v42.5
        C726.2,249.1,720.8,254.5,714.2,254.5z"/>
    </g>
    <g>
      <path class="st53" d="M463.4,367.3h-93.7c-6.6,0-12-5.4-12-12v-42.5c0-6.6,5.4-12,12-12h93.7c6.6,0,12,5.4,12,12v42.5
        C475.4,361.9,470,367.3,463.4,367.3z"/>
      <path class="st53" d="M589.6,367.3h-93.7c-6.6,0-12-5.4-12-12v-42.5c0-6.6,5.4-12,12-12h93.7c6.6,0,12,5.4,12,12v42.5
        C601.6,361.9,596.2,367.3,589.6,367.3z"/>
      <path class="st53" d="M714.2,367.3h-93.7c-6.6,0-12-5.4-12-12v-42.5c0-6.6,5.4-12,12-12h93.7c6.6,0,12,5.4,12,12v42.5
        C726.2,361.9,720.8,367.3,714.2,367.3z"/>
    </g>
    <g>
      <path class="st53" d="M463.4,479.2h-93.7c-6.6,0-12-5.4-12-12v-42.5c0-6.6,5.4-12,12-12h93.7c6.6,0,12,5.4,12,12v42.5
        C475.4,473.8,470,479.2,463.4,479.2z"/>
      <path class="st53" d="M589.6,479.2h-93.7c-6.6,0-12-5.4-12-12v-42.5c0-6.6,5.4-12,12-12h93.7c6.6,0,12,5.4,12,12v42.5
        C601.6,473.8,596.2,479.2,589.6,479.2z"/>
      <path class="st53" d="M714.2,479.2h-93.7c-6.6,0-12-5.4-12-12v-42.5c0-6.6,5.4-12,12-12h93.7c6.6,0,12,5.4,12,12v42.5
        C726.2,473.8,720.8,479.2,714.2,479.2z"/>
    </g>
  </g>
  <g id="Letras">
    <g>
      <text transform="matrix(1 0 0 1 499.0758 706.9311)" class="st55 st56">O</text>
    </g>
  </g>
</svg>
