<?xml version="1.0" encoding="utf-8"?>
<!-- Generator: Adobe Illustrator 27.2.0, SVG Export Plug-In . SVG Version: 6.00 Build 0)  -->
<svg version="1.1" xmlns="http://www.w3.org/2000/svg" xmlns:xlink="http://www.w3.org/1999/xlink" x="0px" y="0px"
	 viewBox="0 0 1075.6 792" style="enable-background:new 0 0 1075.6 792;" xml:space="preserve">
    <style type="text/css">
      .st0{display:none;}
      .st1{display:inline;}
      .st2{fill:none;stroke:#DD6E00;stroke-width:2;stroke-linecap:round;stroke-linejoin:round;stroke-miterlimit:10;}
      .st3{fill:none;stroke:#0000FF;stroke-width:2;stroke-linecap:round;stroke-linejoin:round;stroke-miterlimit:10;}
      .st4{fill:none;stroke:#000000;stroke-width:2;stroke-linecap:round;stroke-linejoin:round;stroke-miterlimit:10;}
      .st5{fill:none;stroke:#BABABA;stroke-width:2;stroke-linecap:round;stroke-linejoin:round;stroke-miterlimit:10;}
      .st6{fill:none;stroke:#989898;stroke-width:2;stroke-linecap:round;stroke-linejoin:round;stroke-miterlimit:10;}
      .st7{fill:none;stroke:#FFFF00;stroke-width:2;stroke-linecap:round;stroke-linejoin:round;stroke-miterlimit:10;}
      .st8{fill:none;stroke:#FF0000;stroke-width:2;stroke-linecap:round;stroke-linejoin:round;stroke-miterlimit:10;}
      .st9{fill:none;stroke:#E69835;stroke-width:6;stroke-miterlimit:10;}
      .st10{fill:none;stroke:#D75A31;stroke-width:6;stroke-miterlimit:10;}
      .st11{fill:none;stroke:#AE2C2B;stroke-width:6;stroke-miterlimit:10;}
      .st12{fill:none;stroke:#FF6700;stroke-width:6;stroke-miterlimit:10;}
      .st13{fill:none;stroke:#50FFFF;stroke-width:6;stroke-miterlimit:10;}
      .st14{fill:none;stroke:#CB85E5;stroke-width:6;stroke-miterlimit:10;}
      .st15{fill:none;stroke:#7980B2;stroke-width:6;stroke-miterlimit:10;}
      .st16{fill:none;stroke:#3E2B1A;stroke-width:6;stroke-miterlimit:10;}
      .st17{fill:none;stroke:#42944B;stroke-width:6;stroke-miterlimit:10;}
      .st18{fill:none;stroke:#9D9D9C;stroke-width:6;stroke-miterlimit:10;}
      .st19{fill:none;stroke:#C39F6F;stroke-width:6;stroke-miterlimit:10;}
      .st20{fill:none;stroke:#F7EB50;stroke-width:6;stroke-miterlimit:10;}
      .st21{fill:#89277D;}
      .st22{fill:none;stroke:#0000FF;stroke-linecap:round;stroke-linejoin:round;}
      .st23{fill:#3670B3;}
      .st24{fill:#489F9A;}
      .st25{fill:#D22D7D;}
      .st26{fill:#2B6438;}
      .st27{fill:#00FFCE;}
      .st28{fill:#869363;}
      .st29{fill:#CB85E5;}
      .st30{fill:#FF6700;}
      .st31{fill:#7980B2;}
      .st32{fill:#F7EB50;}
      .st33{fill:#E69835;}
      .st34{fill:#D75A31;}
      .st35{fill:#AE2C2B;}
      .st36{fill:#786A5A;}
      .st37{fill:#282359;}
      .st38{fill:#9EC043;}
      .st39{fill:#469CDD;}
      .st40{fill:#5E287E;}
      .st41{fill:none;stroke:#5E287E;stroke-width:6;stroke-miterlimit:10;}
      .st42{fill:#D43673;}
      .st43{fill:#C39F6F;}
      .st44{fill:#9D9D9C;}
      .st45{fill:#42944B;}
      .st46{fill:#3E2B1A;}
      .st47{fill:#13514C;}
      .st48{fill:#425968;}
      .st49{fill:#536D01;}
      .st50{fill:#A87F1A;}
      .st51{fill:#50FFFF;}
      .st52{fill:none;stroke:#D43673;stroke-width:6;stroke-miterlimit:10;}
      .st53{fill:#D9D9D9;}
      .st54{fill:none;stroke:#1D1D1B;stroke-width:10;stroke-linecap:round;stroke-linejoin:round;stroke-miterlimit:10;}
      .st55{fill:none;stroke:#1D1D1B;stroke-width:3;stroke-linecap:round;stroke-linejoin:round;stroke-miterlimit:10;}
      .st56{fill:none;stroke:#1D1D1B;stroke-width:6;stroke-linecap:round;stroke-linejoin:round;stroke-miterlimit:10;}
      .st57{font-family:'Arial-BoldMT';}
      .st58{font-size:152.5587px;}
      .st59{fill:none;stroke:#1D1D1B;stroke-width:2;stroke-linecap:round;stroke-linejoin:round;stroke-miterlimit:10;}
    </style>
    <g id="Capa_1" class="st0">
    </g>
    <g id="Contorno_color">
      <polygon class="st15" points="905.1,668.9 111.6,668.9 111,741.9 44.1,741.9 44.1,122.5 905.1,122.5 	"/>
    </g>
    <g id="Asientos">
      <g>
        <g>
          <path class="st53" d="M852.6,359.2v-42.3c0-3.7,3-6.8,6.8-6.8h22.4c3.7,0,6.8,3,6.8,6.8v42.3c0,3.7-3,6.8-6.8,6.8h-22.4
            C855.6,365.9,852.6,362.9,852.6,359.2z"/>
          <path class="st53" d="M852.6,419v-42.3c0-3.7,3-6.8,6.8-6.8h22.4c3.7,0,6.8,3,6.8,6.8V419c0,3.7-3,6.8-6.8,6.8h-22.4
            C855.6,425.8,852.6,422.7,852.6,419z"/>
          <path class="st53" d="M852.6,478.1v-42.3c0-3.7,3-6.8,6.8-6.8h22.4c3.7,0,6.8,3,6.8,6.8v42.3c0,3.7-3,6.8-6.8,6.8h-22.4
            C855.6,484.9,852.6,481.8,852.6,478.1z"/>
          <path class="st53" d="M852.6,180.7v-42.3c0-3.7,3-6.8,6.8-6.8h22.4c3.7,0,6.8,3,6.8,6.8v42.3c0,3.7-3,6.8-6.8,6.8h-22.4
            C855.6,187.4,852.6,184.4,852.6,180.7z"/>
          <path class="st53" d="M852.6,240.6v-42.3c0-3.7,3-6.8,6.8-6.8h22.4c3.7,0,6.8,3,6.8,6.8v42.3c0,3.7-3,6.8-6.8,6.8h-22.4
            C855.6,247.3,852.6,244.3,852.6,240.6z"/>
          <path class="st53" d="M852.6,299.7v-42.3c0-3.7,3-6.8,6.8-6.8h22.4c3.7,0,6.8,3,6.8,6.8v42.3c0,3.7-3,6.8-6.8,6.8h-22.4
            C855.6,306.4,852.6,303.4,852.6,299.7z"/>
          <path class="st53" d="M852.6,538v-42.3c0-3.7,3-6.8,6.8-6.8h22.4c3.7,0,6.8,3,6.8,6.8V538c0,3.7-3,6.8-6.8,6.8h-22.4
            C855.6,544.8,852.6,541.7,852.6,538z"/>
          <path class="st53" d="M852.6,597.9v-42.3c0-3.7,3-6.8,6.8-6.8h22.4c3.7,0,6.8,3,6.8,6.8v42.3c0,3.7-3,6.8-6.8,6.8h-22.4
            C855.6,604.6,852.6,601.6,852.6,597.9z"/>
        </g>
      </g>
      <g>
        <g>
          <path class="st53" d="M767.8,359.2v-42.3c0-3.7,3-6.8,6.8-6.8H797c3.7,0,6.8,3,6.8,6.8v42.3c0,3.7-3,6.8-6.8,6.8h-22.4
            C770.9,365.9,767.8,362.9,767.8,359.2z"/>
          <path class="st53" d="M767.8,419v-42.3c0-3.7,3-6.8,6.8-6.8H797c3.7,0,6.8,3,6.8,6.8V419c0,3.7-3,6.8-6.8,6.8h-22.4
            C770.9,425.8,767.8,422.7,767.8,419z"/>
          <path class="st53" d="M767.8,478.1v-42.3c0-3.7,3-6.8,6.8-6.8H797c3.7,0,6.8,3,6.8,6.8v42.3c0,3.7-3,6.8-6.8,6.8h-22.4
            C770.9,484.9,767.8,481.8,767.8,478.1z"/>
          <path class="st53" d="M767.8,180.7v-42.3c0-3.7,3-6.8,6.8-6.8H797c3.7,0,6.8,3,6.8,6.8v42.3c0,3.7-3,6.8-6.8,6.8h-22.4
            C770.9,187.4,767.8,184.4,767.8,180.7z"/>
          <path class="st53" d="M767.8,240.6v-42.3c0-3.7,3-6.8,6.8-6.8H797c3.7,0,6.8,3,6.8,6.8v42.3c0,3.7-3,6.8-6.8,6.8h-22.4
            C770.9,247.3,767.8,244.3,767.8,240.6z"/>
          <path class="st53" d="M767.8,299.7v-42.3c0-3.7,3-6.8,6.8-6.8H797c3.7,0,6.8,3,6.8,6.8v42.3c0,3.7-3,6.8-6.8,6.8h-22.4
            C770.9,306.4,767.8,303.4,767.8,299.7z"/>
          <path class="st53" d="M767.8,538v-42.3c0-3.7,3-6.8,6.8-6.8H797c3.7,0,6.8,3,6.8,6.8V538c0,3.7-3,6.8-6.8,6.8h-22.4
            C770.9,544.8,767.8,541.7,767.8,538z"/>
          <path class="st53" d="M767.8,597.9v-42.3c0-3.7,3-6.8,6.8-6.8H797c3.7,0,6.8,3,6.8,6.8v42.3c0,3.7-3,6.8-6.8,6.8h-22.4
            C770.9,604.6,767.8,601.6,767.8,597.9z"/>
        </g>
      </g>
      <g>
        <g>
          <path class="st53" d="M679,359.2v-42.3c0-3.7,3-6.8,6.8-6.8h22.4c3.7,0,6.8,3,6.8,6.8v42.3c0,3.7-3,6.8-6.8,6.8h-22.4
            C682.1,365.9,679,362.9,679,359.2z"/>
          <path class="st53" d="M679,419v-42.3c0-3.7,3-6.8,6.8-6.8h22.4c3.7,0,6.8,3,6.8,6.8V419c0,3.7-3,6.8-6.8,6.8h-22.4
            C682.1,425.8,679,422.7,679,419z"/>
          <path class="st53" d="M679,478.1v-42.3c0-3.7,3-6.8,6.8-6.8h22.4c3.7,0,6.8,3,6.8,6.8v42.3c0,3.7-3,6.8-6.8,6.8h-22.4
            C682.1,484.9,679,481.8,679,478.1z"/>
          <path class="st53" d="M679,180.7v-42.3c0-3.7,3-6.8,6.8-6.8h22.4c3.7,0,6.8,3,6.8,6.8v42.3c0,3.7-3,6.8-6.8,6.8h-22.4
            C682.1,187.4,679,184.4,679,180.7z"/>
          <path class="st53" d="M679,240.6v-42.3c0-3.7,3-6.8,6.8-6.8h22.4c3.7,0,6.8,3,6.8,6.8v42.3c0,3.7-3,6.8-6.8,6.8h-22.4
            C682.1,247.3,679,244.3,679,240.6z"/>
          <path class="st53" d="M679,299.7v-42.3c0-3.7,3-6.8,6.8-6.8h22.4c3.7,0,6.8,3,6.8,6.8v42.3c0,3.7-3,6.8-6.8,6.8h-22.4
            C682.1,306.4,679,303.4,679,299.7z"/>
          <path class="st53" d="M679,538v-42.3c0-3.7,3-6.8,6.8-6.8h22.4c3.7,0,6.8,3,6.8,6.8V538c0,3.7-3,6.8-6.8,6.8h-22.4
            C682.1,544.8,679,541.7,679,538z"/>
          <path class="st53" d="M679,597.9v-42.3c0-3.7,3-6.8,6.8-6.8h22.4c3.7,0,6.8,3,6.8,6.8v42.3c0,3.7-3,6.8-6.8,6.8h-22.4
            C682.1,604.6,679,601.6,679,597.9z"/>
        </g>
      </g>
      <g>
        <g>
          <path class="st53" d="M590.2,359.2v-42.3c0-3.7,3-6.8,6.8-6.8h22.4c3.7,0,6.8,3,6.8,6.8v42.3c0,3.7-3,6.8-6.8,6.8H597
            C593.3,365.9,590.2,362.9,590.2,359.2z"/>
          <path class="st53" d="M590.2,419v-42.3c0-3.7,3-6.8,6.8-6.8h22.4c3.7,0,6.8,3,6.8,6.8V419c0,3.7-3,6.8-6.8,6.8H597
            C593.3,425.8,590.2,422.7,590.2,419z"/>
          <path class="st53" d="M590.2,478.1v-42.3c0-3.7,3-6.8,6.8-6.8h22.4c3.7,0,6.8,3,6.8,6.8v42.3c0,3.7-3,6.8-6.8,6.8H597
            C593.3,484.9,590.2,481.8,590.2,478.1z"/>
          <path class="st53" d="M590.2,180.7v-42.3c0-3.7,3-6.8,6.8-6.8h22.4c3.7,0,6.8,3,6.8,6.8v42.3c0,3.7-3,6.8-6.8,6.8H597
            C593.3,187.4,590.2,184.4,590.2,180.7z"/>
          <path class="st53" d="M590.2,240.6v-42.3c0-3.7,3-6.8,6.8-6.8h22.4c3.7,0,6.8,3,6.8,6.8v42.3c0,3.7-3,6.8-6.8,6.8H597
            C593.3,247.3,590.2,244.3,590.2,240.6z"/>
          <path class="st53" d="M590.2,299.7v-42.3c0-3.7,3-6.8,6.8-6.8h22.4c3.7,0,6.8,3,6.8,6.8v42.3c0,3.7-3,6.8-6.8,6.8H597
            C593.3,306.4,590.2,303.4,590.2,299.7z"/>
          <path class="st53" d="M590.2,538v-42.3c0-3.7,3-6.8,6.8-6.8h22.4c3.7,0,6.8,3,6.8,6.8V538c0,3.7-3,6.8-6.8,6.8H597
            C593.3,544.8,590.2,541.7,590.2,538z"/>
          <path class="st53" d="M590.2,597.9v-42.3c0-3.7,3-6.8,6.8-6.8h22.4c3.7,0,6.8,3,6.8,6.8v42.3c0,3.7-3,6.8-6.8,6.8H597
            C593.3,604.6,590.2,601.6,590.2,597.9z"/>
        </g>
      </g>
      <g>
        <g>
          <path class="st53" d="M501.2,359.2v-42.3c0-3.7,3-6.8,6.8-6.8h22.4c3.7,0,6.8,3,6.8,6.8v42.3c0,3.7-3,6.8-6.8,6.8H508
            C504.3,365.9,501.2,362.9,501.2,359.2z"/>
          <path class="st53" d="M501.2,419v-42.3c0-3.7,3-6.8,6.8-6.8h22.4c3.7,0,6.8,3,6.8,6.8V419c0,3.7-3,6.8-6.8,6.8H508
            C504.3,425.8,501.2,422.7,501.2,419z"/>
          <path class="st53" d="M501.2,478.1v-42.3c0-3.7,3-6.8,6.8-6.8h22.4c3.7,0,6.8,3,6.8,6.8v42.3c0,3.7-3,6.8-6.8,6.8H508
            C504.3,484.9,501.2,481.8,501.2,478.1z"/>
          <path class="st53" d="M501.2,180.7v-42.3c0-3.7,3-6.8,6.8-6.8h22.4c3.7,0,6.8,3,6.8,6.8v42.3c0,3.7-3,6.8-6.8,6.8H508
            C504.3,187.4,501.2,184.4,501.2,180.7z"/>
          <path class="st53" d="M501.2,240.6v-42.3c0-3.7,3-6.8,6.8-6.8h22.4c3.7,0,6.8,3,6.8,6.8v42.3c0,3.7-3,6.8-6.8,6.8H508
            C504.3,247.3,501.2,244.3,501.2,240.6z"/>
          <path class="st53" d="M501.2,299.7v-42.3c0-3.7,3-6.8,6.8-6.8h22.4c3.7,0,6.8,3,6.8,6.8v42.3c0,3.7-3,6.8-6.8,6.8H508
            C504.3,306.4,501.2,303.4,501.2,299.7z"/>
          <path class="st53" d="M501.2,538v-42.3c0-3.7,3-6.8,6.8-6.8h22.4c3.7,0,6.8,3,6.8,6.8V538c0,3.7-3,6.8-6.8,6.8H508
            C504.3,544.8,501.2,541.7,501.2,538z"/>
          <path class="st53" d="M501.2,597.9v-42.3c0-3.7,3-6.8,6.8-6.8h22.4c3.7,0,6.8,3,6.8,6.8v42.3c0,3.7-3,6.8-6.8,6.8H508
            C504.3,604.6,501.2,601.6,501.2,597.9z"/>
        </g>
      </g>
      <g>
        <g>
          <path class="st53" d="M413.6,359.2v-42.3c0-3.7,3-6.8,6.8-6.8h22.4c3.7,0,6.8,3,6.8,6.8v42.3c0,3.7-3,6.8-6.8,6.8h-22.4
            C416.7,365.9,413.6,362.9,413.6,359.2z"/>
          <path class="st53" d="M413.6,419v-42.3c0-3.7,3-6.8,6.8-6.8h22.4c3.7,0,6.8,3,6.8,6.8V419c0,3.7-3,6.8-6.8,6.8h-22.4
            C416.7,425.8,413.6,422.7,413.6,419z"/>
          <path class="st53" d="M413.6,478.1v-42.3c0-3.7,3-6.8,6.8-6.8h22.4c3.7,0,6.8,3,6.8,6.8v42.3c0,3.7-3,6.8-6.8,6.8h-22.4
            C416.7,484.9,413.6,481.8,413.6,478.1z"/>
          <path class="st53" d="M413.6,180.7v-42.3c0-3.7,3-6.8,6.8-6.8h22.4c3.7,0,6.8,3,6.8,6.8v42.3c0,3.7-3,6.8-6.8,6.8h-22.4
            C416.7,187.4,413.6,184.4,413.6,180.7z"/>
          <path class="st53" d="M413.6,240.6v-42.3c0-3.7,3-6.8,6.8-6.8h22.4c3.7,0,6.8,3,6.8,6.8v42.3c0,3.7-3,6.8-6.8,6.8h-22.4
            C416.7,247.3,413.6,244.3,413.6,240.6z"/>
          <path class="st53" d="M413.6,299.7v-42.3c0-3.7,3-6.8,6.8-6.8h22.4c3.7,0,6.8,3,6.8,6.8v42.3c0,3.7-3,6.8-6.8,6.8h-22.4
            C416.7,306.4,413.6,303.4,413.6,299.7z"/>
          <path class="st53" d="M413.6,538v-42.3c0-3.7,3-6.8,6.8-6.8h22.4c3.7,0,6.8,3,6.8,6.8V538c0,3.7-3,6.8-6.8,6.8h-22.4
            C416.7,544.8,413.6,541.7,413.6,538z"/>
          <path class="st53" d="M413.6,597.9v-42.3c0-3.7,3-6.8,6.8-6.8h22.4c3.7,0,6.8,3,6.8,6.8v42.3c0,3.7-3,6.8-6.8,6.8h-22.4
            C416.7,604.6,413.6,601.6,413.6,597.9z"/>
        </g>
      </g>
      <g>
        <g>
          <path class="st53" d="M323.1,359.2v-42.3c0-3.7,3-6.8,6.8-6.8h22.4c3.7,0,6.8,3,6.8,6.8v42.3c0,3.7-3,6.8-6.8,6.8h-22.4
            C326.2,365.9,323.1,362.9,323.1,359.2z"/>
          <path class="st53" d="M323.1,419v-42.3c0-3.7,3-6.8,6.8-6.8h22.4c3.7,0,6.8,3,6.8,6.8V419c0,3.7-3,6.8-6.8,6.8h-22.4
            C326.2,425.8,323.1,422.7,323.1,419z"/>
          <path class="st53" d="M323.1,478.1v-42.3c0-3.7,3-6.8,6.8-6.8h22.4c3.7,0,6.8,3,6.8,6.8v42.3c0,3.7-3,6.8-6.8,6.8h-22.4
            C326.2,484.9,323.1,481.8,323.1,478.1z"/>
          <path class="st53" d="M323.1,180.7v-42.3c0-3.7,3-6.8,6.8-6.8h22.4c3.7,0,6.8,3,6.8,6.8v42.3c0,3.7-3,6.8-6.8,6.8h-22.4
            C326.2,187.4,323.1,184.4,323.1,180.7z"/>
          <path class="st53" d="M323.1,240.6v-42.3c0-3.7,3-6.8,6.8-6.8h22.4c3.7,0,6.8,3,6.8,6.8v42.3c0,3.7-3,6.8-6.8,6.8h-22.4
            C326.2,247.3,323.1,244.3,323.1,240.6z"/>
          <path class="st53" d="M323.1,299.7v-42.3c0-3.7,3-6.8,6.8-6.8h22.4c3.7,0,6.8,3,6.8,6.8v42.3c0,3.7-3,6.8-6.8,6.8h-22.4
            C326.2,306.4,323.1,303.4,323.1,299.7z"/>
          <path class="st53" d="M323.1,538v-42.3c0-3.7,3-6.8,6.8-6.8h22.4c3.7,0,6.8,3,6.8,6.8V538c0,3.7-3,6.8-6.8,6.8h-22.4
            C326.2,544.8,323.1,541.7,323.1,538z"/>
          <path class="st53" d="M323.1,597.9v-42.3c0-3.7,3-6.8,6.8-6.8h22.4c3.7,0,6.8,3,6.8,6.8v42.3c0,3.7-3,6.8-6.8,6.8h-22.4
            C326.2,604.6,323.1,601.6,323.1,597.9z"/>
        </g>
      </g>
      <g>
        <g>
          <path class="st53" d="M234.1,359.2v-42.3c0-3.7,3-6.8,6.8-6.8h22.4c3.7,0,6.8,3,6.8,6.8v42.3c0,3.7-3,6.8-6.8,6.8h-22.4
            C237.2,365.9,234.1,362.9,234.1,359.2z"/>
          <path class="st53" d="M234.1,419v-42.3c0-3.7,3-6.8,6.8-6.8h22.4c3.7,0,6.8,3,6.8,6.8V419c0,3.7-3,6.8-6.8,6.8h-22.4
            C237.2,425.8,234.1,422.7,234.1,419z"/>
          <path class="st53" d="M234.1,478.1v-42.3c0-3.7,3-6.8,6.8-6.8h22.4c3.7,0,6.8,3,6.8,6.8v42.3c0,3.7-3,6.8-6.8,6.8h-22.4
            C237.2,484.9,234.1,481.8,234.1,478.1z"/>
          <path class="st53" d="M234.1,180.7v-42.3c0-3.7,3-6.8,6.8-6.8h22.4c3.7,0,6.8,3,6.8,6.8v42.3c0,3.7-3,6.8-6.8,6.8h-22.4
            C237.2,187.4,234.1,184.4,234.1,180.7z"/>
          <path class="st53" d="M234.1,240.6v-42.3c0-3.7,3-6.8,6.8-6.8h22.4c3.7,0,6.8,3,6.8,6.8v42.3c0,3.7-3,6.8-6.8,6.8h-22.4
            C237.2,247.3,234.1,244.3,234.1,240.6z"/>
          <path class="st53" d="M234.1,299.7v-42.3c0-3.7,3-6.8,6.8-6.8h22.4c3.7,0,6.8,3,6.8,6.8v42.3c0,3.7-3,6.8-6.8,6.8h-22.4
            C237.2,306.4,234.1,303.4,234.1,299.7z"/>
          <path class="st53" d="M234.1,538v-42.3c0-3.7,3-6.8,6.8-6.8h22.4c3.7,0,6.8,3,6.8,6.8V538c0,3.7-3,6.8-6.8,6.8h-22.4
            C237.2,544.8,234.1,541.7,234.1,538z"/>
          <path class="st53" d="M234.1,597.9v-42.3c0-3.7,3-6.8,6.8-6.8h22.4c3.7,0,6.8,3,6.8,6.8v42.3c0,3.7-3,6.8-6.8,6.8h-22.4
            C237.2,604.6,234.1,601.6,234.1,597.9z"/>
        </g>
      </g>
      <g>
        <g>
          <path class="st53" d="M146.5,359.2v-42.3c0-3.7,3-6.8,6.8-6.8h22.4c3.7,0,6.8,3,6.8,6.8v42.3c0,3.7-3,6.8-6.8,6.8h-22.4
            C149.6,365.9,146.5,362.9,146.5,359.2z"/>
          <path class="st53" d="M146.5,419v-42.3c0-3.7,3-6.8,6.8-6.8h22.4c3.7,0,6.8,3,6.8,6.8V419c0,3.7-3,6.8-6.8,6.8h-22.4
            C149.6,425.8,146.5,422.7,146.5,419z"/>
          <path class="st53" d="M146.5,478.1v-42.3c0-3.7,3-6.8,6.8-6.8h22.4c3.7,0,6.8,3,6.8,6.8v42.3c0,3.7-3,6.8-6.8,6.8h-22.4
            C149.6,484.9,146.5,481.8,146.5,478.1z"/>
          <path class="st53" d="M146.5,180.7v-42.3c0-3.7,3-6.8,6.8-6.8h22.4c3.7,0,6.8,3,6.8,6.8v42.3c0,3.7-3,6.8-6.8,6.8h-22.4
            C149.6,187.4,146.5,184.4,146.5,180.7z"/>
          <path class="st53" d="M146.5,240.6v-42.3c0-3.7,3-6.8,6.8-6.8h22.4c3.7,0,6.8,3,6.8,6.8v42.3c0,3.7-3,6.8-6.8,6.8h-22.4
            C149.6,247.3,146.5,244.3,146.5,240.6z"/>
          <path class="st53" d="M146.5,299.7v-42.3c0-3.7,3-6.8,6.8-6.8h22.4c3.7,0,6.8,3,6.8,6.8v42.3c0,3.7-3,6.8-6.8,6.8h-22.4
            C149.6,306.4,146.5,303.4,146.5,299.7z"/>
          <path class="st53" d="M146.5,538v-42.3c0-3.7,3-6.8,6.8-6.8h22.4c3.7,0,6.8,3,6.8,6.8V538c0,3.7-3,6.8-6.8,6.8h-22.4
            C149.6,544.8,146.5,541.7,146.5,538z"/>
          <path class="st53" d="M146.5,597.9v-42.3c0-3.7,3-6.8,6.8-6.8h22.4c3.7,0,6.8,3,6.8,6.8v42.3c0,3.7-3,6.8-6.8,6.8h-22.4
            C149.6,604.6,146.5,601.6,146.5,597.9z"/>
        </g>
      </g>
      <g>
        <g>
          <path class="st53" d="M59.8,359.2v-42.3c0-3.7,3-6.8,6.8-6.8H89c3.7,0,6.8,3,6.8,6.8v42.3c0,3.7-3,6.8-6.8,6.8H66.5
            C62.8,365.9,59.8,362.9,59.8,359.2z"/>
          <path class="st53" d="M59.8,419v-42.3c0-3.7,3-6.8,6.8-6.8H89c3.7,0,6.8,3,6.8,6.8V419c0,3.7-3,6.8-6.8,6.8H66.5
            C62.8,425.8,59.8,422.7,59.8,419z"/>
          <path class="st53" d="M59.8,478.1v-42.3c0-3.7,3-6.8,6.8-6.8H89c3.7,0,6.8,3,6.8,6.8v42.3c0,3.7-3,6.8-6.8,6.8H66.5
            C62.8,484.9,59.8,481.8,59.8,478.1z"/>
          <path class="st53" d="M59.8,180.7v-42.3c0-3.7,3-6.8,6.8-6.8H89c3.7,0,6.8,3,6.8,6.8v42.3c0,3.7-3,6.8-6.8,6.8H66.5
            C62.8,187.4,59.8,184.4,59.8,180.7z"/>
          <path class="st53" d="M59.8,240.6v-42.3c0-3.7,3-6.8,6.8-6.8H89c3.7,0,6.8,3,6.8,6.8v42.3c0,3.7-3,6.8-6.8,6.8H66.5
            C62.8,247.3,59.8,244.3,59.8,240.6z"/>
          <path class="st53" d="M59.8,299.7v-42.3c0-3.7,3-6.8,6.8-6.8H89c3.7,0,6.8,3,6.8,6.8v42.3c0,3.7-3,6.8-6.8,6.8H66.5
            C62.8,306.4,59.8,303.4,59.8,299.7z"/>
          <path class="st53" d="M59.8,538v-42.3c0-3.7,3-6.8,6.8-6.8H89c3.7,0,6.8,3,6.8,6.8V538c0,3.7-3,6.8-6.8,6.8H66.5
            C62.8,544.8,59.8,541.7,59.8,538z"/>
          <path class="st53" d="M59.8,597.9v-42.3c0-3.7,3-6.8,6.8-6.8H89c3.7,0,6.8,3,6.8,6.8v42.3c0,3.7-3,6.8-6.8,6.8H66.5
            C62.8,604.6,59.8,601.6,59.8,597.9z"/>
          <path class="st53" d="M59.8,658.2v-42.3c0-3.7,3-6.8,6.8-6.8H89c3.7,0,6.8,3,6.8,6.8v42.3c0,3.7-3,6.8-6.8,6.8H66.5
            C62.8,665,59.8,661.9,59.8,658.2z"/>
        </g>
      </g>
    </g>
    <g id="Letras">
      <g>
        <path id="path100086_00000031910764966893815800000016243379519078970268_" class="st56" d="M862.6,650.6l10.3-27.2l10.7,27.2"/>
        <path id="path100088_00000158746522636116369890000015213079236882478246_" class="st56" d="M866.6,641.5h13"/>
        <path id="path100090_00000052061999599732466210000016014828666121543304_" class="st56" d="M773.8,650.6v-27.2h11.8l3.9,1.2
          l1.2,1.6l1.2,2.4v2.8l-1.2,2.4l-1.2,1.6l-3.9,1.2h-11.8"/>
        <path id="path100092_00000011020134727863392460000002718270310508562329_" class="st56" d="M785.6,636.4l3.9,1.2l1.2,1.6l1.2,2.4
          v3.9l-1.2,2.8l-1.2,1.2l-3.9,1.2h-11.8"/>
        <path id="path100094_00000114039413064088857200000013486946539982948537_" class="st56" d="M706.7,630l-1.2-2.8l-2.8-2.8
          l-2.8-1.2h-5.1l-2.4,1.2l-2.8,2.8l-1.2,2.8l-1.6,3.6v6.7l1.6,3.9l1.2,2.4l2.8,2.8l2.4,1.2h5.1l2.8-1.2l2.8-2.8l1.2-2.4"/>
        <path id="path100096_00000064329514356920225900000011093495013108348311_" class="st56" d="M600.6,650.6v-27.2h9.1l3.9,1.2
          l2.4,2.8l1.2,2.8l1.6,3.6v6.7l-1.6,3.9l-1.2,2.4l-2.4,2.8l-3.9,1.2H600.6"/>
        <path id="path100098_00000098200350807859626630000008095756117104001159_" class="st56" d="M510.8,650.6v-27.2h17"/>
        <path id="path100100_00000027598160246859892250000005763336582186745512_" class="st56" d="M510.8,636.4h10.3"/>
        <path id="path100102_00000085232948071077043340000005096839263255124368_" class="st56" d="M507.8,650.6h17"/>
        <path id="path100104_00000066503695433373459410000008092459471921184923_" class="st56" d="M423,650.6v-27.2h17"/>
        <path id="path100106_00000111173027374767059630000017369959250210498197_" class="st56" d="M423,636.4h10.3"/>
        <path id="path100108_00000137096055700514526900000015107876685899350688_" class="st56" d="M349.9,630l-1.6-2.8l-2.4-2.8
          l-2.8-1.2h-5.1l-2.8,1.2l-2.4,2.8l-1.6,2.8l-1.2,3.6v6.7l1.2,3.9l1.6,2.4l2.4,2.8l2.8,1.2h5.1l2.8-1.2l2.4-2.8l1.6-2.4v-3.9h-6.7"
          />
        <path id="path100110_00000127032542513830495770000014195787319726671518_" class="st56" d="M244.4,650.6v-27.2"/>
        <path id="path100112_00000137812613949921894130000014501794968500548261_" class="st56" d="M262.5,623.3v27.2"/>
        <path id="path100114_00000160890488884731282040000009729781483031690166_" class="st56" d="M244.4,636.4h18.2"/>
        <path id="path100116_00000042716625247364698260000004554172525025754508_" class="st56" d="M163,650.6v-27.2"/>
      </g>
      <g id="g112278_00000050653821795208021570000002280721682710015933_">
        <text transform="matrix(1 0 0 1 918.213 369.1641)" class="st57 st58">D</text>
      </g>
      <path id="path100118_00000061448729903019213810000004594874845623136396_" class="st56" d="M82.3,684.6v20.9l-1.6,3.9l-1.2,1.2
        l-2.8,1.2h-2.4l-2.8-1.2l-1.2-1.2l-1.2-3.9v-2.8"/>
    </g>
</svg>
