<?xml version="1.0" encoding="utf-8"?>
<!-- Generator: Adobe Illustrator 27.2.0, SVG Export Plug-In . SVG Version: 6.00 Build 0)  -->
<svg version="1.1" xmlns="http://www.w3.org/2000/svg" xmlns:xlink="http://www.w3.org/1999/xlink" x="0px" y="0px"
	 viewBox="0 0 1075.6 792" style="enable-background:new 0 0 1075.6 792;" xml:space="preserve">
  <style type="text/css">
    .st0{display:none;}
    .st1{display:inline;}
    .st2{fill:none;stroke:#DD6E00;stroke-width:2;stroke-linecap:round;stroke-linejoin:round;stroke-miterlimit:10;}
    .st3{fill:none;stroke:#0000FF;stroke-width:2;stroke-linecap:round;stroke-linejoin:round;stroke-miterlimit:10;}
    .st4{fill:none;stroke:#000000;stroke-width:2;stroke-linecap:round;stroke-linejoin:round;stroke-miterlimit:10;}
    .st5{fill:none;stroke:#BABABA;stroke-width:2;stroke-linecap:round;stroke-linejoin:round;stroke-miterlimit:10;}
    .st6{fill:none;stroke:#989898;stroke-width:2;stroke-linecap:round;stroke-linejoin:round;stroke-miterlimit:10;}
    .st7{fill:none;stroke:#FFFF00;stroke-width:2;stroke-linecap:round;stroke-linejoin:round;stroke-miterlimit:10;}
    .st8{fill:none;stroke:#FF0000;stroke-width:2;stroke-linecap:round;stroke-linejoin:round;stroke-miterlimit:10;}
    .st9{fill:none;stroke:#E69835;stroke-width:6;stroke-miterlimit:10;}
    .st10{fill:none;stroke:#D75A31;stroke-width:6;stroke-miterlimit:10;}
    .st11{fill:none;stroke:#AE2C2B;stroke-width:6;stroke-miterlimit:10;}
    .st12{fill:none;stroke:#FF6700;stroke-width:6;stroke-miterlimit:10;}
    .st13{fill:none;stroke:#50FFFF;stroke-width:6;stroke-miterlimit:10;}
    .st14{fill:none;stroke:#CB85E5;stroke-width:6;stroke-miterlimit:10;}
    .st15{fill:none;stroke:#7980B2;stroke-width:6;stroke-miterlimit:10;}
    .st16{fill:none;stroke:#3E2B1A;stroke-width:6;stroke-miterlimit:10;}
    .st17{fill:none;stroke:#42944B;stroke-width:6;stroke-miterlimit:10;}
    .st18{fill:none;stroke:#9D9D9C;stroke-width:6;stroke-miterlimit:10;}
    .st19{fill:none;stroke:#C39F6F;stroke-width:6;stroke-miterlimit:10;}
    .st20{fill:none;stroke:#F7EB50;stroke-width:6;stroke-miterlimit:10;}
    .st21{fill:#89277D;}
    .st22{fill:none;stroke:#0000FF;stroke-linecap:round;stroke-linejoin:round;}
    .st23{fill:#3670B3;}
    .st24{fill:#489F9A;}
    .st25{fill:#D22D7D;}
    .st26{fill:#2B6438;}
    .st27{fill:#00FFCE;}
    .st28{fill:#869363;}
    .st29{fill:#CB85E5;}
    .st30{fill:#FF6700;}
    .st31{fill:#7980B2;}
    .st32{fill:#F7EB50;}
    .st33{fill:#E69835;}
    .st34{fill:#D75A31;}
    .st35{fill:#AE2C2B;}
    .st36{fill:#786A5A;}
    .st37{fill:#282359;}
    .st38{fill:#9EC043;}
    .st39{fill:#469CDD;}
    .st40{fill:#5E287E;}
    .st41{fill:none;stroke:#5E287E;stroke-width:6;stroke-miterlimit:10;}
    .st42{fill:#D43673;}
    .st43{fill:#C39F6F;}
    .st44{fill:#9D9D9C;}
    .st45{fill:#42944B;}
    .st46{fill:#3E2B1A;}
    .st47{fill:#13514C;}
    .st48{fill:#425968;}
    .st49{fill:#536D01;}
    .st50{fill:#A87F1A;}
    .st51{fill:#50FFFF;}
    .st52{fill:none;stroke:#D43673;stroke-width:6;stroke-miterlimit:10;}
    .st53{fill:#D9D9D9;}
    .st54{fill:none;stroke:#1D1D1B;stroke-width:10;stroke-linecap:round;stroke-linejoin:round;stroke-miterlimit:10;}
    .st55{fill:none;stroke:#1D1D1B;stroke-width:3;stroke-linecap:round;stroke-linejoin:round;stroke-miterlimit:10;}
    .st56{fill:none;stroke:#1D1D1B;stroke-width:6;stroke-linecap:round;stroke-linejoin:round;stroke-miterlimit:10;}
    .st57{font-family:'Arial-BoldMT';}
    .st58{font-size:43.3871px;}
    .st59{fill:none;stroke:#1D1D1B;stroke-width:2;stroke-linecap:round;stroke-linejoin:round;stroke-miterlimit:10;}
  </style>
  <g id="Capa_1" class="st0">
  </g>
  <g id="Contorno_color">
    <path class="st41" d="M763.8,26.9H479.7l-0.8,232.7H311.2v73.2l41-0.6l-2,436.5l430.3,1.4V26.9H763.8L763.8,26.9z"/>
  </g>
  <g id="Asientos">
    <g>
      <path class="st53" d="M751.9,443.4v-11.5c0-1.2,0.9-2.1,2.1-2.1h5.3c1.2,0,2.1,0.9,2.1,2.1v11.5c0,1.2-0.9,2.1-2.1,2.1H754
        C752.9,445.5,751.9,444.5,751.9,443.4z"/>
      <path class="st53" d="M751.9,461v-11.5c0-1.2,0.9-2.1,2.1-2.1h5.3c1.2,0,2.1,0.9,2.1,2.1V461c0,1.2-0.9,2.1-2.1,2.1H754
        C752.9,463.1,751.9,462.1,751.9,461z"/>
      <path class="st53" d="M751.9,478.6v-11.5c0-1.2,0.9-2.1,2.1-2.1h5.3c1.2,0,2.1,0.9,2.1,2.1v11.5c0,1.2-0.9,2.1-2.1,2.1H754
        C752.9,480.7,751.9,479.7,751.9,478.6z"/>
      <path class="st53" d="M751.9,496.2v-11.5c0-1.2,0.9-2.1,2.1-2.1h5.3c1.2,0,2.1,0.9,2.1,2.1v11.5c0,1.2-0.9,2.1-2.1,2.1H754
        C752.9,498.3,751.9,497.4,751.9,496.2z"/>
      <path class="st53" d="M751.9,513.8v-11.5c0-1.2,0.9-2.1,2.1-2.1h5.3c1.2,0,2.1,0.9,2.1,2.1v11.5c0,1.2-0.9,2.1-2.1,2.1H754
        C752.9,515.9,751.9,515,751.9,513.8z"/>
      <path class="st53" d="M751.9,531.4v-11.5c0-1.2,0.9-2.1,2.1-2.1h5.3c1.2,0,2.1,0.9,2.1,2.1v11.5c0,1.2-0.9,2.1-2.1,2.1H754
        C752.9,533.5,751.9,532.6,751.9,531.4z"/>
      <path class="st53" d="M751.9,549v-11.5c0-1.2,0.9-2.1,2.1-2.1h5.3c1.2,0,2.1,0.9,2.1,2.1V549c0,1.2-0.9,2.1-2.1,2.1H754
        C752.9,551.1,751.9,550.2,751.9,549z"/>
      <path class="st53" d="M751.9,566.6v-11.5c0-1.2,0.9-2.1,2.1-2.1h5.3c1.2,0,2.1,0.9,2.1,2.1v11.5c0,1.2-0.9,2.1-2.1,2.1H754
        C752.9,568.7,751.9,567.8,751.9,566.6z"/>
      <path class="st53" d="M751.9,584.2v-11.5c0-1.2,0.9-2.1,2.1-2.1h5.3c1.2,0,2.1,0.9,2.1,2.1v11.5c0,1.2-0.9,2.1-2.1,2.1H754
        C752.9,586.3,751.9,585.4,751.9,584.2z"/>
      <path class="st53" d="M751.9,601.8v-11.5c0-1.2,0.9-2.1,2.1-2.1h5.3c1.2,0,2.1,0.9,2.1,2.1v11.5c0,1.2-0.9,2.1-2.1,2.1H754
        C752.9,603.9,751.9,603,751.9,601.8z"/>
      <path class="st53" d="M751.9,619.4v-11.5c0-1.2,0.9-2.1,2.1-2.1h5.3c1.2,0,2.1,0.9,2.1,2.1v11.5c0,1.2-0.9,2.1-2.1,2.1H754
        C752.9,621.5,751.9,620.6,751.9,619.4z"/>
      <path class="st53" d="M751.9,637v-11.5c0-1.2,0.9-2.1,2.1-2.1h5.3c1.2,0,2.1,0.9,2.1,2.1V637c0,1.2-0.9,2.1-2.1,2.1H754
        C752.9,639.1,751.9,638.2,751.9,637z"/>
      <path class="st53" d="M751.9,654.6v-11.5c0-1.2,0.9-2.1,2.1-2.1h5.3c1.2,0,2.1,0.9,2.1,2.1v11.5c0,1.2-0.9,2.1-2.1,2.1H754
        C752.9,656.7,751.9,655.8,751.9,654.6z"/>
      <path class="st53" d="M751.9,672.2v-11.5c0-1.2,0.9-2.1,2.1-2.1h5.3c1.2,0,2.1,0.9,2.1,2.1v11.5c0,1.2-0.9,2.1-2.1,2.1H754
        C752.9,674.3,751.9,673.4,751.9,672.2z"/>
      <path class="st53" d="M751.9,689.8v-11.5c0-1.2,0.9-2.1,2.1-2.1h5.3c1.2,0,2.1,0.9,2.1,2.1v11.5c0,1.2-0.9,2.1-2.1,2.1H754
        C752.9,691.9,751.9,691,751.9,689.8z"/>
      <path class="st53" d="M751.9,707.4v-11.5c0-1.2,0.9-2.1,2.1-2.1h5.3c1.2,0,2.1,0.9,2.1,2.1v11.5c0,1.2-0.9,2.1-2.1,2.1H754
        C752.9,709.6,751.9,708.6,751.9,707.4z"/>
      <path class="st53" d="M751.9,725v-11.5c0-1.2,0.9-2.1,2.1-2.1h5.3c1.2,0,2.1,0.9,2.1,2.1V725c0,1.2-0.9,2.1-2.1,2.1H754
        C752.9,727.2,751.9,726.2,751.9,725z"/>
      <path class="st53" d="M751.9,742.6v-11.5c0-1.2,0.9-2.1,2.1-2.1h5.3c1.2,0,2.1,0.9,2.1,2.1v11.5c0,1.2-0.9,2.1-2.1,2.1H754
        C752.9,744.8,751.9,743.8,751.9,742.6z"/>
      <path class="st53" d="M751.9,760.2v-11.5c0-1.2,0.9-2.1,2.1-2.1h5.3c1.2,0,2.1,0.9,2.1,2.1v11.5c0,1.2-0.9,2.1-2.1,2.1H754
        C752.9,762.4,751.9,761.4,751.9,760.2z"/>
    </g>
    <g>
      <path class="st53" d="M727.7,341.7v-11.4c0-1.2,0.9-2.1,2.1-2.1h5.3c1.2,0,2.1,0.9,2.1,2.1v11.4c0,1.2-0.9,2.1-2.1,2.1h-5.3
        C728.7,343.8,727.7,342.9,727.7,341.7z"/>
      <path class="st53" d="M727.7,359.2v-11.4c0-1.2,0.9-2.1,2.1-2.1h5.3c1.2,0,2.1,0.9,2.1,2.1v11.4c0,1.2-0.9,2.1-2.1,2.1h-5.3
        C728.7,361.3,727.7,360.4,727.7,359.2z"/>
      <path class="st53" d="M727.7,376.7v-11.4c0-1.2,0.9-2.1,2.1-2.1h5.3c1.2,0,2.1,0.9,2.1,2.1v11.4c0,1.2-0.9,2.1-2.1,2.1h-5.3
        C728.7,378.8,727.7,377.8,727.7,376.7z"/>
      <path class="st53" d="M727.7,394.1v-11.4c0-1.2,0.9-2.1,2.1-2.1h5.3c1.2,0,2.1,0.9,2.1,2.1v11.4c0,1.2-0.9,2.1-2.1,2.1h-5.3
        C728.7,396.3,727.7,395.3,727.7,394.1z"/>
      <path class="st53" d="M727.7,411.6v-11.4c0-1.2,0.9-2.1,2.1-2.1h5.3c1.2,0,2.1,0.9,2.1,2.1v11.4c0,1.2-0.9,2.1-2.1,2.1h-5.3
        C728.7,413.7,727.7,412.8,727.7,411.6z"/>
      <path class="st53" d="M727.7,429.1v-11.4c0-1.2,0.9-2.1,2.1-2.1h5.3c1.2,0,2.1,0.9,2.1,2.1v11.4c0,1.2-0.9,2.1-2.1,2.1h-5.3
        C728.7,431.2,727.7,430.3,727.7,429.1z"/>
      <path class="st53" d="M727.7,446.6v-11.4c0-1.2,0.9-2.1,2.1-2.1h5.3c1.2,0,2.1,0.9,2.1,2.1v11.4c0,1.2-0.9,2.1-2.1,2.1h-5.3
        C728.7,448.7,727.7,447.7,727.7,446.6z"/>
      <path class="st53" d="M727.7,464v-11.4c0-1.2,0.9-2.1,2.1-2.1h5.3c1.2,0,2.1,0.9,2.1,2.1V464c0,1.2-0.9,2.1-2.1,2.1h-5.3
        C728.7,466.1,727.7,465.2,727.7,464z"/>
      <path class="st53" d="M727.7,481.5v-11.4c0-1.2,0.9-2.1,2.1-2.1h5.3c1.2,0,2.1,0.9,2.1,2.1v11.4c0,1.2-0.9,2.1-2.1,2.1h-5.3
        C728.7,483.6,727.7,482.7,727.7,481.5z"/>
      <path class="st53" d="M727.7,499v-11.4c0-1.2,0.9-2.1,2.1-2.1h5.3c1.2,0,2.1,0.9,2.1,2.1V499c0,1.2-0.9,2.1-2.1,2.1h-5.3
        C728.7,501.1,727.7,500.1,727.7,499z"/>
      <path class="st53" d="M727.7,516.4V505c0-1.2,0.9-2.1,2.1-2.1h5.3c1.2,0,2.1,0.9,2.1,2.1v11.4c0,1.2-0.9,2.1-2.1,2.1h-5.3
        C728.7,518.6,727.7,517.6,727.7,516.4z"/>
      <path class="st53" d="M727.7,533.9v-11.4c0-1.2,0.9-2.1,2.1-2.1h5.3c1.2,0,2.1,0.9,2.1,2.1v11.4c0,1.2-0.9,2.1-2.1,2.1h-5.3
        C728.7,536,727.7,535.1,727.7,533.9z"/>
      <path class="st53" d="M727.7,551.4V540c0-1.2,0.9-2.1,2.1-2.1h5.3c1.2,0,2.1,0.9,2.1,2.1v11.4c0,1.2-0.9,2.1-2.1,2.1h-5.3
        C728.7,553.5,727.7,552.5,727.7,551.4z"/>
      <path class="st53" d="M727.7,568.9v-11.4c0-1.2,0.9-2.1,2.1-2.1h5.3c1.2,0,2.1,0.9,2.1,2.1v11.4c0,1.2-0.9,2.1-2.1,2.1h-5.3
        C728.7,571,727.7,570,727.7,568.9z"/>
      <path class="st53" d="M727.7,586.3v-11.4c0-1.2,0.9-2.1,2.1-2.1h5.3c1.2,0,2.1,0.9,2.1,2.1v11.4c0,1.2-0.9,2.1-2.1,2.1h-5.3
        C728.7,588.4,727.7,587.5,727.7,586.3z"/>
      <path class="st53" d="M727.7,603.8v-11.4c0-1.2,0.9-2.1,2.1-2.1h5.3c1.2,0,2.1,0.9,2.1,2.1v11.4c0,1.2-0.9,2.1-2.1,2.1h-5.3
        C728.7,605.9,727.7,605,727.7,603.8z"/>
      <path class="st53" d="M727.7,621.3v-11.4c0-1.2,0.9-2.1,2.1-2.1h5.3c1.2,0,2.1,0.9,2.1,2.1v11.4c0,1.2-0.9,2.1-2.1,2.1h-5.3
        C728.7,623.4,727.7,622.4,727.7,621.3z"/>
      <path class="st53" d="M727.7,638.7v-11.4c0-1.2,0.9-2.1,2.1-2.1h5.3c1.2,0,2.1,0.9,2.1,2.1v11.4c0,1.2-0.9,2.1-2.1,2.1h-5.3
        C728.7,640.9,727.7,639.9,727.7,638.7z"/>
      <path class="st53" d="M727.7,656.2v-11.4c0-1.2,0.9-2.1,2.1-2.1h5.3c1.2,0,2.1,0.9,2.1,2.1v11.4c0,1.2-0.9,2.1-2.1,2.1h-5.3
        C728.7,658.3,727.7,657.4,727.7,656.2z"/>
      <path class="st53" d="M727.7,673.7v-11.4c0-1.2,0.9-2.1,2.1-2.1h5.3c1.2,0,2.1,0.9,2.1,2.1v11.4c0,1.2-0.9,2.1-2.1,2.1h-5.3
        C728.7,675.8,727.7,674.8,727.7,673.7z"/>
      <path class="st53" d="M727.7,691.1v-11.4c0-1.2,0.9-2.1,2.1-2.1h5.3c1.2,0,2.1,0.9,2.1,2.1v11.4c0,1.2-0.9,2.1-2.1,2.1h-5.3
        C728.7,693.3,727.7,692.3,727.7,691.1z"/>
      <path class="st53" d="M727.7,708.6v-11.4c0-1.2,0.9-2.1,2.1-2.1h5.3c1.2,0,2.1,0.9,2.1,2.1v11.4c0,1.2-0.9,2.1-2.1,2.1h-5.3
        C728.7,710.7,727.7,709.8,727.7,708.6z"/>
      <path class="st53" d="M727.7,726.1v-11.4c0-1.2,0.9-2.1,2.1-2.1h5.3c1.2,0,2.1,0.9,2.1,2.1v11.4c0,1.2-0.9,2.1-2.1,2.1h-5.3
        C728.7,728.2,727.7,727.3,727.7,726.1z"/>
      <path class="st53" d="M727.7,743.6v-11.4c0-1.2,0.9-2.1,2.1-2.1h5.3c1.2,0,2.1,0.9,2.1,2.1v11.4c0,1.2-0.9,2.1-2.1,2.1h-5.3
        C728.7,745.7,727.7,744.7,727.7,743.6z"/>
      <path class="st53" d="M727.7,761v-11.4c0-1.2,0.9-2.1,2.1-2.1h5.3c1.2,0,2.1,0.9,2.1,2.1V761c0,1.2-0.9,2.1-2.1,2.1h-5.3
        C728.7,763.1,727.7,762.2,727.7,761z"/>
    </g>
    <g>
      <path class="st53" d="M702.2,341.7v-11.4c0-1.2,0.9-2.1,2.1-2.1h5.3c1.2,0,2.1,0.9,2.1,2.1v11.4c0,1.2-0.9,2.1-2.1,2.1h-5.3
        C703.1,343.8,702.2,342.9,702.2,341.7z"/>
      <path class="st53" d="M702.2,359.2v-11.4c0-1.2,0.9-2.1,2.1-2.1h5.3c1.2,0,2.1,0.9,2.1,2.1v11.4c0,1.2-0.9,2.1-2.1,2.1h-5.3
        C703.1,361.3,702.2,360.4,702.2,359.2z"/>
      <path class="st53" d="M702.2,376.7v-11.4c0-1.2,0.9-2.1,2.1-2.1h5.3c1.2,0,2.1,0.9,2.1,2.1v11.4c0,1.2-0.9,2.1-2.1,2.1h-5.3
        C703.1,378.8,702.2,377.8,702.2,376.7z"/>
      <path class="st53" d="M702.2,394.1v-11.4c0-1.2,0.9-2.1,2.1-2.1h5.3c1.2,0,2.1,0.9,2.1,2.1v11.4c0,1.2-0.9,2.1-2.1,2.1h-5.3
        C703.1,396.3,702.2,395.3,702.2,394.1z"/>
      <path class="st53" d="M702.2,411.6v-11.4c0-1.2,0.9-2.1,2.1-2.1h5.3c1.2,0,2.1,0.9,2.1,2.1v11.4c0,1.2-0.9,2.1-2.1,2.1h-5.3
        C703.1,413.7,702.2,412.8,702.2,411.6z"/>
      <path class="st53" d="M702.2,429.1v-11.4c0-1.2,0.9-2.1,2.1-2.1h5.3c1.2,0,2.1,0.9,2.1,2.1v11.4c0,1.2-0.9,2.1-2.1,2.1h-5.3
        C703.1,431.2,702.2,430.3,702.2,429.1z"/>
      <path class="st53" d="M702.2,446.6v-11.4c0-1.2,0.9-2.1,2.1-2.1h5.3c1.2,0,2.1,0.9,2.1,2.1v11.4c0,1.2-0.9,2.1-2.1,2.1h-5.3
        C703.1,448.7,702.2,447.7,702.2,446.6z"/>
      <path class="st53" d="M702.2,464v-11.4c0-1.2,0.9-2.1,2.1-2.1h5.3c1.2,0,2.1,0.9,2.1,2.1V464c0,1.2-0.9,2.1-2.1,2.1h-5.3
        C703.1,466.1,702.2,465.2,702.2,464z"/>
      <path class="st53" d="M702.2,481.5v-11.4c0-1.2,0.9-2.1,2.1-2.1h5.3c1.2,0,2.1,0.9,2.1,2.1v11.4c0,1.2-0.9,2.1-2.1,2.1h-5.3
        C703.1,483.6,702.2,482.7,702.2,481.5z"/>
      <path class="st53" d="M702.2,499v-11.4c0-1.2,0.9-2.1,2.1-2.1h5.3c1.2,0,2.1,0.9,2.1,2.1V499c0,1.2-0.9,2.1-2.1,2.1h-5.3
        C703.1,501.1,702.2,500.1,702.2,499z"/>
      <path class="st53" d="M702.2,516.4V505c0-1.2,0.9-2.1,2.1-2.1h5.3c1.2,0,2.1,0.9,2.1,2.1v11.4c0,1.2-0.9,2.1-2.1,2.1h-5.3
        C703.1,518.6,702.2,517.6,702.2,516.4z"/>
      <path class="st53" d="M702.2,533.9v-11.4c0-1.2,0.9-2.1,2.1-2.1h5.3c1.2,0,2.1,0.9,2.1,2.1v11.4c0,1.2-0.9,2.1-2.1,2.1h-5.3
        C703.1,536,702.2,535.1,702.2,533.9z"/>
      <path class="st53" d="M702.2,551.4V540c0-1.2,0.9-2.1,2.1-2.1h5.3c1.2,0,2.1,0.9,2.1,2.1v11.4c0,1.2-0.9,2.1-2.1,2.1h-5.3
        C703.1,553.5,702.2,552.5,702.2,551.4z"/>
      <path class="st53" d="M702.2,568.9v-11.4c0-1.2,0.9-2.1,2.1-2.1h5.3c1.2,0,2.1,0.9,2.1,2.1v11.4c0,1.2-0.9,2.1-2.1,2.1h-5.3
        C703.1,571,702.2,570,702.2,568.9z"/>
      <path class="st53" d="M702.2,586.3v-11.4c0-1.2,0.9-2.1,2.1-2.1h5.3c1.2,0,2.1,0.9,2.1,2.1v11.4c0,1.2-0.9,2.1-2.1,2.1h-5.3
        C703.1,588.4,702.2,587.5,702.2,586.3z"/>
      <path class="st53" d="M702.2,603.8v-11.4c0-1.2,0.9-2.1,2.1-2.1h5.3c1.2,0,2.1,0.9,2.1,2.1v11.4c0,1.2-0.9,2.1-2.1,2.1h-5.3
        C703.1,605.9,702.2,605,702.2,603.8z"/>
      <path class="st53" d="M702.2,621.3v-11.4c0-1.2,0.9-2.1,2.1-2.1h5.3c1.2,0,2.1,0.9,2.1,2.1v11.4c0,1.2-0.9,2.1-2.1,2.1h-5.3
        C703.1,623.4,702.2,622.4,702.2,621.3z"/>
      <path class="st53" d="M702.2,638.7v-11.4c0-1.2,0.9-2.1,2.1-2.1h5.3c1.2,0,2.1,0.9,2.1,2.1v11.4c0,1.2-0.9,2.1-2.1,2.1h-5.3
        C703.1,640.9,702.2,639.9,702.2,638.7z"/>
      <path class="st53" d="M702.2,656.2v-11.4c0-1.2,0.9-2.1,2.1-2.1h5.3c1.2,0,2.1,0.9,2.1,2.1v11.4c0,1.2-0.9,2.1-2.1,2.1h-5.3
        C703.1,658.3,702.2,657.4,702.2,656.2z"/>
      <path class="st53" d="M702.2,673.7v-11.4c0-1.2,0.9-2.1,2.1-2.1h5.3c1.2,0,2.1,0.9,2.1,2.1v11.4c0,1.2-0.9,2.1-2.1,2.1h-5.3
        C703.1,675.8,702.2,674.8,702.2,673.7z"/>
      <path class="st53" d="M702.2,691.1v-11.4c0-1.2,0.9-2.1,2.1-2.1h5.3c1.2,0,2.1,0.9,2.1,2.1v11.4c0,1.2-0.9,2.1-2.1,2.1h-5.3
        C703.1,693.3,702.2,692.3,702.2,691.1z"/>
      <path class="st53" d="M702.2,708.6v-11.4c0-1.2,0.9-2.1,2.1-2.1h5.3c1.2,0,2.1,0.9,2.1,2.1v11.4c0,1.2-0.9,2.1-2.1,2.1h-5.3
        C703.1,710.7,702.2,709.8,702.2,708.6z"/>
      <path class="st53" d="M702.2,726.1v-11.4c0-1.2,0.9-2.1,2.1-2.1h5.3c1.2,0,2.1,0.9,2.1,2.1v11.4c0,1.2-0.9,2.1-2.1,2.1h-5.3
        C703.1,728.2,702.2,727.3,702.2,726.1z"/>
      <path class="st53" d="M702.2,743.6v-11.4c0-1.2,0.9-2.1,2.1-2.1h5.3c1.2,0,2.1,0.9,2.1,2.1v11.4c0,1.2-0.9,2.1-2.1,2.1h-5.3
        C703.1,745.7,702.2,744.7,702.2,743.6z"/>
      <path class="st53" d="M702.2,761v-11.4c0-1.2,0.9-2.1,2.1-2.1h5.3c1.2,0,2.1,0.9,2.1,2.1V761c0,1.2-0.9,2.1-2.1,2.1h-5.3
        C703.1,763.1,702.2,762.2,702.2,761z"/>
    </g>
    <g>
      <path class="st53" d="M676.6,341.7v-11.4c0-1.2,0.9-2.1,2.1-2.1h5.3c1.2,0,2.1,0.9,2.1,2.1v11.4c0,1.2-0.9,2.1-2.1,2.1h-5.3
        C677.5,343.8,676.6,342.9,676.6,341.7z"/>
      <path class="st53" d="M676.6,359.2v-11.4c0-1.2,0.9-2.1,2.1-2.1h5.3c1.2,0,2.1,0.9,2.1,2.1v11.4c0,1.2-0.9,2.1-2.1,2.1h-5.3
        C677.5,361.3,676.6,360.4,676.6,359.2z"/>
      <path class="st53" d="M676.6,376.7v-11.4c0-1.2,0.9-2.1,2.1-2.1h5.3c1.2,0,2.1,0.9,2.1,2.1v11.4c0,1.2-0.9,2.1-2.1,2.1h-5.3
        C677.5,378.8,676.6,377.8,676.6,376.7z"/>
      <path class="st53" d="M676.6,394.1v-11.4c0-1.2,0.9-2.1,2.1-2.1h5.3c1.2,0,2.1,0.9,2.1,2.1v11.4c0,1.2-0.9,2.1-2.1,2.1h-5.3
        C677.5,396.3,676.6,395.3,676.6,394.1z"/>
      <path class="st53" d="M676.6,411.6v-11.4c0-1.2,0.9-2.1,2.1-2.1h5.3c1.2,0,2.1,0.9,2.1,2.1v11.4c0,1.2-0.9,2.1-2.1,2.1h-5.3
        C677.5,413.7,676.6,412.8,676.6,411.6z"/>
      <path class="st53" d="M676.6,429.1v-11.4c0-1.2,0.9-2.1,2.1-2.1h5.3c1.2,0,2.1,0.9,2.1,2.1v11.4c0,1.2-0.9,2.1-2.1,2.1h-5.3
        C677.5,431.2,676.6,430.3,676.6,429.1z"/>
      <path class="st53" d="M676.6,446.6v-11.4c0-1.2,0.9-2.1,2.1-2.1h5.3c1.2,0,2.1,0.9,2.1,2.1v11.4c0,1.2-0.9,2.1-2.1,2.1h-5.3
        C677.5,448.7,676.6,447.7,676.6,446.6z"/>
      <path class="st53" d="M676.6,464v-11.4c0-1.2,0.9-2.1,2.1-2.1h5.3c1.2,0,2.1,0.9,2.1,2.1V464c0,1.2-0.9,2.1-2.1,2.1h-5.3
        C677.5,466.1,676.6,465.2,676.6,464z"/>
      <path class="st53" d="M676.6,481.5v-11.4c0-1.2,0.9-2.1,2.1-2.1h5.3c1.2,0,2.1,0.9,2.1,2.1v11.4c0,1.2-0.9,2.1-2.1,2.1h-5.3
        C677.5,483.6,676.6,482.7,676.6,481.5z"/>
      <path class="st53" d="M676.6,499v-11.4c0-1.2,0.9-2.1,2.1-2.1h5.3c1.2,0,2.1,0.9,2.1,2.1V499c0,1.2-0.9,2.1-2.1,2.1h-5.3
        C677.5,501.1,676.6,500.1,676.6,499z"/>
      <path class="st53" d="M676.6,516.4V505c0-1.2,0.9-2.1,2.1-2.1h5.3c1.2,0,2.1,0.9,2.1,2.1v11.4c0,1.2-0.9,2.1-2.1,2.1h-5.3
        C677.5,518.6,676.6,517.6,676.6,516.4z"/>
      <path class="st53" d="M676.6,533.9v-11.4c0-1.2,0.9-2.1,2.1-2.1h5.3c1.2,0,2.1,0.9,2.1,2.1v11.4c0,1.2-0.9,2.1-2.1,2.1h-5.3
        C677.5,536,676.6,535.1,676.6,533.9z"/>
      <path class="st53" d="M676.6,551.4V540c0-1.2,0.9-2.1,2.1-2.1h5.3c1.2,0,2.1,0.9,2.1,2.1v11.4c0,1.2-0.9,2.1-2.1,2.1h-5.3
        C677.5,553.5,676.6,552.5,676.6,551.4z"/>
      <path class="st53" d="M676.6,568.9v-11.4c0-1.2,0.9-2.1,2.1-2.1h5.3c1.2,0,2.1,0.9,2.1,2.1v11.4c0,1.2-0.9,2.1-2.1,2.1h-5.3
        C677.5,571,676.6,570,676.6,568.9z"/>
      <path class="st53" d="M676.6,586.3v-11.4c0-1.2,0.9-2.1,2.1-2.1h5.3c1.2,0,2.1,0.9,2.1,2.1v11.4c0,1.2-0.9,2.1-2.1,2.1h-5.3
        C677.5,588.4,676.6,587.5,676.6,586.3z"/>
      <path class="st53" d="M676.6,603.8v-11.4c0-1.2,0.9-2.1,2.1-2.1h5.3c1.2,0,2.1,0.9,2.1,2.1v11.4c0,1.2-0.9,2.1-2.1,2.1h-5.3
        C677.5,605.9,676.6,605,676.6,603.8z"/>
      <path class="st53" d="M676.6,621.3v-11.4c0-1.2,0.9-2.1,2.1-2.1h5.3c1.2,0,2.1,0.9,2.1,2.1v11.4c0,1.2-0.9,2.1-2.1,2.1h-5.3
        C677.5,623.4,676.6,622.4,676.6,621.3z"/>
      <path class="st53" d="M676.6,638.7v-11.4c0-1.2,0.9-2.1,2.1-2.1h5.3c1.2,0,2.1,0.9,2.1,2.1v11.4c0,1.2-0.9,2.1-2.1,2.1h-5.3
        C677.5,640.9,676.6,639.9,676.6,638.7z"/>
      <path class="st53" d="M676.6,656.2v-11.4c0-1.2,0.9-2.1,2.1-2.1h5.3c1.2,0,2.1,0.9,2.1,2.1v11.4c0,1.2-0.9,2.1-2.1,2.1h-5.3
        C677.5,658.3,676.6,657.4,676.6,656.2z"/>
      <path class="st53" d="M676.6,673.7v-11.4c0-1.2,0.9-2.1,2.1-2.1h5.3c1.2,0,2.1,0.9,2.1,2.1v11.4c0,1.2-0.9,2.1-2.1,2.1h-5.3
        C677.5,675.8,676.6,674.8,676.6,673.7z"/>
      <path class="st53" d="M676.6,691.1v-11.4c0-1.2,0.9-2.1,2.1-2.1h5.3c1.2,0,2.1,0.9,2.1,2.1v11.4c0,1.2-0.9,2.1-2.1,2.1h-5.3
        C677.5,693.3,676.6,692.3,676.6,691.1z"/>
      <path class="st53" d="M676.6,708.6v-11.4c0-1.2,0.9-2.1,2.1-2.1h5.3c1.2,0,2.1,0.9,2.1,2.1v11.4c0,1.2-0.9,2.1-2.1,2.1h-5.3
        C677.5,710.7,676.6,709.8,676.6,708.6z"/>
      <path class="st53" d="M676.6,726.1v-11.4c0-1.2,0.9-2.1,2.1-2.1h5.3c1.2,0,2.1,0.9,2.1,2.1v11.4c0,1.2-0.9,2.1-2.1,2.1h-5.3
        C677.5,728.2,676.6,727.3,676.6,726.1z"/>
      <path class="st53" d="M676.6,743.6v-11.4c0-1.2,0.9-2.1,2.1-2.1h5.3c1.2,0,2.1,0.9,2.1,2.1v11.4c0,1.2-0.9,2.1-2.1,2.1h-5.3
        C677.5,745.7,676.6,744.7,676.6,743.6z"/>
      <path class="st53" d="M676.6,761v-11.4c0-1.2,0.9-2.1,2.1-2.1h5.3c1.2,0,2.1,0.9,2.1,2.1V761c0,1.2-0.9,2.1-2.1,2.1h-5.3
        C677.5,763.1,676.6,762.2,676.6,761z"/>
    </g>
    <g>
      <path class="st53" d="M651,341.7v-11.4c0-1.2,0.9-2.1,2.1-2.1h5.3c1.2,0,2.1,0.9,2.1,2.1v11.4c0,1.2-0.9,2.1-2.1,2.1h-5.3
        C651.9,343.8,651,342.9,651,341.7z"/>
      <path class="st53" d="M651,359.2v-11.4c0-1.2,0.9-2.1,2.1-2.1h5.3c1.2,0,2.1,0.9,2.1,2.1v11.4c0,1.2-0.9,2.1-2.1,2.1h-5.3
        C651.9,361.3,651,360.4,651,359.2z"/>
      <path class="st53" d="M651,376.7v-11.4c0-1.2,0.9-2.1,2.1-2.1h5.3c1.2,0,2.1,0.9,2.1,2.1v11.4c0,1.2-0.9,2.1-2.1,2.1h-5.3
        C651.9,378.8,651,377.8,651,376.7z"/>
      <path class="st53" d="M651,394.1v-11.4c0-1.2,0.9-2.1,2.1-2.1h5.3c1.2,0,2.1,0.9,2.1,2.1v11.4c0,1.2-0.9,2.1-2.1,2.1h-5.3
        C651.9,396.3,651,395.3,651,394.1z"/>
      <path class="st53" d="M651,411.6v-11.4c0-1.2,0.9-2.1,2.1-2.1h5.3c1.2,0,2.1,0.9,2.1,2.1v11.4c0,1.2-0.9,2.1-2.1,2.1h-5.3
        C651.9,413.7,651,412.8,651,411.6z"/>
      <path class="st53" d="M651,429.1v-11.4c0-1.2,0.9-2.1,2.1-2.1h5.3c1.2,0,2.1,0.9,2.1,2.1v11.4c0,1.2-0.9,2.1-2.1,2.1h-5.3
        C651.9,431.2,651,430.3,651,429.1z"/>
      <path class="st53" d="M651,446.6v-11.4c0-1.2,0.9-2.1,2.1-2.1h5.3c1.2,0,2.1,0.9,2.1,2.1v11.4c0,1.2-0.9,2.1-2.1,2.1h-5.3
        C651.9,448.7,651,447.7,651,446.6z"/>
      <path class="st53" d="M651,464v-11.4c0-1.2,0.9-2.1,2.1-2.1h5.3c1.2,0,2.1,0.9,2.1,2.1V464c0,1.2-0.9,2.1-2.1,2.1h-5.3
        C651.9,466.1,651,465.2,651,464z"/>
      <path class="st53" d="M651,481.5v-11.4c0-1.2,0.9-2.1,2.1-2.1h5.3c1.2,0,2.1,0.9,2.1,2.1v11.4c0,1.2-0.9,2.1-2.1,2.1h-5.3
        C651.9,483.6,651,482.7,651,481.5z"/>
      <path class="st53" d="M651,499v-11.4c0-1.2,0.9-2.1,2.1-2.1h5.3c1.2,0,2.1,0.9,2.1,2.1V499c0,1.2-0.9,2.1-2.1,2.1h-5.3
        C651.9,501.1,651,500.1,651,499z"/>
      <path class="st53" d="M651,516.4V505c0-1.2,0.9-2.1,2.1-2.1h5.3c1.2,0,2.1,0.9,2.1,2.1v11.4c0,1.2-0.9,2.1-2.1,2.1h-5.3
        C651.9,518.6,651,517.6,651,516.4z"/>
      <path class="st53" d="M651,533.9v-11.4c0-1.2,0.9-2.1,2.1-2.1h5.3c1.2,0,2.1,0.9,2.1,2.1v11.4c0,1.2-0.9,2.1-2.1,2.1h-5.3
        C651.9,536,651,535.1,651,533.9z"/>
      <path class="st53" d="M651,551.4V540c0-1.2,0.9-2.1,2.1-2.1h5.3c1.2,0,2.1,0.9,2.1,2.1v11.4c0,1.2-0.9,2.1-2.1,2.1h-5.3
        C651.9,553.5,651,552.5,651,551.4z"/>
      <path class="st53" d="M651,568.9v-11.4c0-1.2,0.9-2.1,2.1-2.1h5.3c1.2,0,2.1,0.9,2.1,2.1v11.4c0,1.2-0.9,2.1-2.1,2.1h-5.3
        C651.9,571,651,570,651,568.9z"/>
      <path class="st53" d="M651,586.3v-11.4c0-1.2,0.9-2.1,2.1-2.1h5.3c1.2,0,2.1,0.9,2.1,2.1v11.4c0,1.2-0.9,2.1-2.1,2.1h-5.3
        C651.9,588.4,651,587.5,651,586.3z"/>
      <path class="st53" d="M651,603.8v-11.4c0-1.2,0.9-2.1,2.1-2.1h5.3c1.2,0,2.1,0.9,2.1,2.1v11.4c0,1.2-0.9,2.1-2.1,2.1h-5.3
        C651.9,605.9,651,605,651,603.8z"/>
      <path class="st53" d="M651,621.3v-11.4c0-1.2,0.9-2.1,2.1-2.1h5.3c1.2,0,2.1,0.9,2.1,2.1v11.4c0,1.2-0.9,2.1-2.1,2.1h-5.3
        C651.9,623.4,651,622.4,651,621.3z"/>
      <path class="st53" d="M651,638.7v-11.4c0-1.2,0.9-2.1,2.1-2.1h5.3c1.2,0,2.1,0.9,2.1,2.1v11.4c0,1.2-0.9,2.1-2.1,2.1h-5.3
        C651.9,640.9,651,639.9,651,638.7z"/>
      <path class="st53" d="M651,656.2v-11.4c0-1.2,0.9-2.1,2.1-2.1h5.3c1.2,0,2.1,0.9,2.1,2.1v11.4c0,1.2-0.9,2.1-2.1,2.1h-5.3
        C651.9,658.3,651,657.4,651,656.2z"/>
      <path class="st53" d="M651,673.7v-11.4c0-1.2,0.9-2.1,2.1-2.1h5.3c1.2,0,2.1,0.9,2.1,2.1v11.4c0,1.2-0.9,2.1-2.1,2.1h-5.3
        C651.9,675.8,651,674.8,651,673.7z"/>
      <path class="st53" d="M651,691.1v-11.4c0-1.2,0.9-2.1,2.1-2.1h5.3c1.2,0,2.1,0.9,2.1,2.1v11.4c0,1.2-0.9,2.1-2.1,2.1h-5.3
        C651.9,693.3,651,692.3,651,691.1z"/>
      <path class="st53" d="M651,708.6v-11.4c0-1.2,0.9-2.1,2.1-2.1h5.3c1.2,0,2.1,0.9,2.1,2.1v11.4c0,1.2-0.9,2.1-2.1,2.1h-5.3
        C651.9,710.7,651,709.8,651,708.6z"/>
      <path class="st53" d="M651,726.1v-11.4c0-1.2,0.9-2.1,2.1-2.1h5.3c1.2,0,2.1,0.9,2.1,2.1v11.4c0,1.2-0.9,2.1-2.1,2.1h-5.3
        C651.9,728.2,651,727.3,651,726.1z"/>
      <path class="st53" d="M651,743.6v-11.4c0-1.2,0.9-2.1,2.1-2.1h5.3c1.2,0,2.1,0.9,2.1,2.1v11.4c0,1.2-0.9,2.1-2.1,2.1h-5.3
        C651.9,745.7,651,744.7,651,743.6z"/>
      <path class="st53" d="M651,761v-11.4c0-1.2,0.9-2.1,2.1-2.1h5.3c1.2,0,2.1,0.9,2.1,2.1V761c0,1.2-0.9,2.1-2.1,2.1h-5.3
        C651.9,763.1,651,762.2,651,761z"/>
    </g>
    <g>
      <path class="st53" d="M626.2,341.7v-11.4c0-1.2,0.9-2.1,2.1-2.1h5.3c1.2,0,2.1,0.9,2.1,2.1v11.4c0,1.2-0.9,2.1-2.1,2.1h-5.3
        C627.1,343.8,626.2,342.9,626.2,341.7z"/>
      <path class="st53" d="M626.2,359.2v-11.4c0-1.2,0.9-2.1,2.1-2.1h5.3c1.2,0,2.1,0.9,2.1,2.1v11.4c0,1.2-0.9,2.1-2.1,2.1h-5.3
        C627.1,361.3,626.2,360.4,626.2,359.2z"/>
      <path class="st53" d="M626.2,376.7v-11.4c0-1.2,0.9-2.1,2.1-2.1h5.3c1.2,0,2.1,0.9,2.1,2.1v11.4c0,1.2-0.9,2.1-2.1,2.1h-5.3
        C627.1,378.8,626.2,377.8,626.2,376.7z"/>
      <path class="st53" d="M626.2,394.1v-11.4c0-1.2,0.9-2.1,2.1-2.1h5.3c1.2,0,2.1,0.9,2.1,2.1v11.4c0,1.2-0.9,2.1-2.1,2.1h-5.3
        C627.1,396.3,626.2,395.3,626.2,394.1z"/>
      <path class="st53" d="M626.2,411.6v-11.4c0-1.2,0.9-2.1,2.1-2.1h5.3c1.2,0,2.1,0.9,2.1,2.1v11.4c0,1.2-0.9,2.1-2.1,2.1h-5.3
        C627.1,413.7,626.2,412.8,626.2,411.6z"/>
      <path class="st53" d="M626.2,429.1v-11.4c0-1.2,0.9-2.1,2.1-2.1h5.3c1.2,0,2.1,0.9,2.1,2.1v11.4c0,1.2-0.9,2.1-2.1,2.1h-5.3
        C627.1,431.2,626.2,430.3,626.2,429.1z"/>
      <path class="st53" d="M626.2,446.6v-11.4c0-1.2,0.9-2.1,2.1-2.1h5.3c1.2,0,2.1,0.9,2.1,2.1v11.4c0,1.2-0.9,2.1-2.1,2.1h-5.3
        C627.1,448.7,626.2,447.7,626.2,446.6z"/>
      <path class="st53" d="M626.2,464v-11.4c0-1.2,0.9-2.1,2.1-2.1h5.3c1.2,0,2.1,0.9,2.1,2.1V464c0,1.2-0.9,2.1-2.1,2.1h-5.3
        C627.1,466.1,626.2,465.2,626.2,464z"/>
      <path class="st53" d="M626.2,481.5v-11.4c0-1.2,0.9-2.1,2.1-2.1h5.3c1.2,0,2.1,0.9,2.1,2.1v11.4c0,1.2-0.9,2.1-2.1,2.1h-5.3
        C627.1,483.6,626.2,482.7,626.2,481.5z"/>
      <path class="st53" d="M626.2,499v-11.4c0-1.2,0.9-2.1,2.1-2.1h5.3c1.2,0,2.1,0.9,2.1,2.1V499c0,1.2-0.9,2.1-2.1,2.1h-5.3
        C627.1,501.1,626.2,500.1,626.2,499z"/>
      <path class="st53" d="M626.2,516.4V505c0-1.2,0.9-2.1,2.1-2.1h5.3c1.2,0,2.1,0.9,2.1,2.1v11.4c0,1.2-0.9,2.1-2.1,2.1h-5.3
        C627.1,518.6,626.2,517.6,626.2,516.4z"/>
      <path class="st53" d="M626.2,533.9v-11.4c0-1.2,0.9-2.1,2.1-2.1h5.3c1.2,0,2.1,0.9,2.1,2.1v11.4c0,1.2-0.9,2.1-2.1,2.1h-5.3
        C627.1,536,626.2,535.1,626.2,533.9z"/>
      <path class="st53" d="M626.2,551.4V540c0-1.2,0.9-2.1,2.1-2.1h5.3c1.2,0,2.1,0.9,2.1,2.1v11.4c0,1.2-0.9,2.1-2.1,2.1h-5.3
        C627.1,553.5,626.2,552.5,626.2,551.4z"/>
      <path class="st53" d="M626.2,568.9v-11.4c0-1.2,0.9-2.1,2.1-2.1h5.3c1.2,0,2.1,0.9,2.1,2.1v11.4c0,1.2-0.9,2.1-2.1,2.1h-5.3
        C627.1,571,626.2,570,626.2,568.9z"/>
      <path class="st53" d="M626.2,586.3v-11.4c0-1.2,0.9-2.1,2.1-2.1h5.3c1.2,0,2.1,0.9,2.1,2.1v11.4c0,1.2-0.9,2.1-2.1,2.1h-5.3
        C627.1,588.4,626.2,587.5,626.2,586.3z"/>
      <path class="st53" d="M626.2,603.8v-11.4c0-1.2,0.9-2.1,2.1-2.1h5.3c1.2,0,2.1,0.9,2.1,2.1v11.4c0,1.2-0.9,2.1-2.1,2.1h-5.3
        C627.1,605.9,626.2,605,626.2,603.8z"/>
      <path class="st53" d="M626.2,621.3v-11.4c0-1.2,0.9-2.1,2.1-2.1h5.3c1.2,0,2.1,0.9,2.1,2.1v11.4c0,1.2-0.9,2.1-2.1,2.1h-5.3
        C627.1,623.4,626.2,622.4,626.2,621.3z"/>
      <path class="st53" d="M626.2,638.7v-11.4c0-1.2,0.9-2.1,2.1-2.1h5.3c1.2,0,2.1,0.9,2.1,2.1v11.4c0,1.2-0.9,2.1-2.1,2.1h-5.3
        C627.1,640.9,626.2,639.9,626.2,638.7z"/>
      <path class="st53" d="M626.2,656.2v-11.4c0-1.2,0.9-2.1,2.1-2.1h5.3c1.2,0,2.1,0.9,2.1,2.1v11.4c0,1.2-0.9,2.1-2.1,2.1h-5.3
        C627.1,658.3,626.2,657.4,626.2,656.2z"/>
      <path class="st53" d="M626.2,673.7v-11.4c0-1.2,0.9-2.1,2.1-2.1h5.3c1.2,0,2.1,0.9,2.1,2.1v11.4c0,1.2-0.9,2.1-2.1,2.1h-5.3
        C627.1,675.8,626.2,674.8,626.2,673.7z"/>
      <path class="st53" d="M626.2,691.1v-11.4c0-1.2,0.9-2.1,2.1-2.1h5.3c1.2,0,2.1,0.9,2.1,2.1v11.4c0,1.2-0.9,2.1-2.1,2.1h-5.3
        C627.1,693.3,626.2,692.3,626.2,691.1z"/>
      <path class="st53" d="M626.2,708.6v-11.4c0-1.2,0.9-2.1,2.1-2.1h5.3c1.2,0,2.1,0.9,2.1,2.1v11.4c0,1.2-0.9,2.1-2.1,2.1h-5.3
        C627.1,710.7,626.2,709.8,626.2,708.6z"/>
      <path class="st53" d="M626.2,726.1v-11.4c0-1.2,0.9-2.1,2.1-2.1h5.3c1.2,0,2.1,0.9,2.1,2.1v11.4c0,1.2-0.9,2.1-2.1,2.1h-5.3
        C627.1,728.2,626.2,727.3,626.2,726.1z"/>
      <path class="st53" d="M626.2,743.6v-11.4c0-1.2,0.9-2.1,2.1-2.1h5.3c1.2,0,2.1,0.9,2.1,2.1v11.4c0,1.2-0.9,2.1-2.1,2.1h-5.3
        C627.1,745.7,626.2,744.7,626.2,743.6z"/>
      <path class="st53" d="M626.2,761v-11.4c0-1.2,0.9-2.1,2.1-2.1h5.3c1.2,0,2.1,0.9,2.1,2.1V761c0,1.2-0.9,2.1-2.1,2.1h-5.3
        C627.1,763.1,626.2,762.2,626.2,761z"/>
    </g>
    <g>
      <path class="st53" d="M600.6,341.7v-11.4c0-1.2,0.9-2.1,2.1-2.1h5.3c1.2,0,2.1,0.9,2.1,2.1v11.4c0,1.2-0.9,2.1-2.1,2.1h-5.3
        C601.5,343.8,600.6,342.9,600.6,341.7z"/>
      <path class="st53" d="M600.6,359.2v-11.4c0-1.2,0.9-2.1,2.1-2.1h5.3c1.2,0,2.1,0.9,2.1,2.1v11.4c0,1.2-0.9,2.1-2.1,2.1h-5.3
        C601.5,361.3,600.6,360.4,600.6,359.2z"/>
      <path class="st53" d="M600.6,376.7v-11.4c0-1.2,0.9-2.1,2.1-2.1h5.3c1.2,0,2.1,0.9,2.1,2.1v11.4c0,1.2-0.9,2.1-2.1,2.1h-5.3
        C601.5,378.8,600.6,377.8,600.6,376.7z"/>
      <path class="st53" d="M600.6,394.1v-11.4c0-1.2,0.9-2.1,2.1-2.1h5.3c1.2,0,2.1,0.9,2.1,2.1v11.4c0,1.2-0.9,2.1-2.1,2.1h-5.3
        C601.5,396.3,600.6,395.3,600.6,394.1z"/>
      <path class="st53" d="M600.6,411.6v-11.4c0-1.2,0.9-2.1,2.1-2.1h5.3c1.2,0,2.1,0.9,2.1,2.1v11.4c0,1.2-0.9,2.1-2.1,2.1h-5.3
        C601.5,413.7,600.6,412.8,600.6,411.6z"/>
      <path class="st53" d="M600.6,429.1v-11.4c0-1.2,0.9-2.1,2.1-2.1h5.3c1.2,0,2.1,0.9,2.1,2.1v11.4c0,1.2-0.9,2.1-2.1,2.1h-5.3
        C601.5,431.2,600.6,430.3,600.6,429.1z"/>
      <path class="st53" d="M600.6,446.6v-11.4c0-1.2,0.9-2.1,2.1-2.1h5.3c1.2,0,2.1,0.9,2.1,2.1v11.4c0,1.2-0.9,2.1-2.1,2.1h-5.3
        C601.5,448.7,600.6,447.7,600.6,446.6z"/>
      <path class="st53" d="M600.6,464v-11.4c0-1.2,0.9-2.1,2.1-2.1h5.3c1.2,0,2.1,0.9,2.1,2.1V464c0,1.2-0.9,2.1-2.1,2.1h-5.3
        C601.5,466.1,600.6,465.2,600.6,464z"/>
      <path class="st53" d="M600.6,481.5v-11.4c0-1.2,0.9-2.1,2.1-2.1h5.3c1.2,0,2.1,0.9,2.1,2.1v11.4c0,1.2-0.9,2.1-2.1,2.1h-5.3
        C601.5,483.6,600.6,482.7,600.6,481.5z"/>
      <path class="st53" d="M600.6,499v-11.4c0-1.2,0.9-2.1,2.1-2.1h5.3c1.2,0,2.1,0.9,2.1,2.1V499c0,1.2-0.9,2.1-2.1,2.1h-5.3
        C601.5,501.1,600.6,500.1,600.6,499z"/>
      <path class="st53" d="M600.6,516.4V505c0-1.2,0.9-2.1,2.1-2.1h5.3c1.2,0,2.1,0.9,2.1,2.1v11.4c0,1.2-0.9,2.1-2.1,2.1h-5.3
        C601.5,518.6,600.6,517.6,600.6,516.4z"/>
      <path class="st53" d="M600.6,533.9v-11.4c0-1.2,0.9-2.1,2.1-2.1h5.3c1.2,0,2.1,0.9,2.1,2.1v11.4c0,1.2-0.9,2.1-2.1,2.1h-5.3
        C601.5,536,600.6,535.1,600.6,533.9z"/>
      <path class="st53" d="M600.6,551.4V540c0-1.2,0.9-2.1,2.1-2.1h5.3c1.2,0,2.1,0.9,2.1,2.1v11.4c0,1.2-0.9,2.1-2.1,2.1h-5.3
        C601.5,553.5,600.6,552.5,600.6,551.4z"/>
      <path class="st53" d="M600.6,568.9v-11.4c0-1.2,0.9-2.1,2.1-2.1h5.3c1.2,0,2.1,0.9,2.1,2.1v11.4c0,1.2-0.9,2.1-2.1,2.1h-5.3
        C601.5,571,600.6,570,600.6,568.9z"/>
      <path class="st53" d="M600.6,586.3v-11.4c0-1.2,0.9-2.1,2.1-2.1h5.3c1.2,0,2.1,0.9,2.1,2.1v11.4c0,1.2-0.9,2.1-2.1,2.1h-5.3
        C601.5,588.4,600.6,587.5,600.6,586.3z"/>
      <path class="st53" d="M600.6,603.8v-11.4c0-1.2,0.9-2.1,2.1-2.1h5.3c1.2,0,2.1,0.9,2.1,2.1v11.4c0,1.2-0.9,2.1-2.1,2.1h-5.3
        C601.5,605.9,600.6,605,600.6,603.8z"/>
      <path class="st53" d="M600.6,621.3v-11.4c0-1.2,0.9-2.1,2.1-2.1h5.3c1.2,0,2.1,0.9,2.1,2.1v11.4c0,1.2-0.9,2.1-2.1,2.1h-5.3
        C601.5,623.4,600.6,622.4,600.6,621.3z"/>
      <path class="st53" d="M600.6,638.7v-11.4c0-1.2,0.9-2.1,2.1-2.1h5.3c1.2,0,2.1,0.9,2.1,2.1v11.4c0,1.2-0.9,2.1-2.1,2.1h-5.3
        C601.5,640.9,600.6,639.9,600.6,638.7z"/>
      <path class="st53" d="M600.6,656.2v-11.4c0-1.2,0.9-2.1,2.1-2.1h5.3c1.2,0,2.1,0.9,2.1,2.1v11.4c0,1.2-0.9,2.1-2.1,2.1h-5.3
        C601.5,658.3,600.6,657.4,600.6,656.2z"/>
      <path class="st53" d="M600.6,673.7v-11.4c0-1.2,0.9-2.1,2.1-2.1h5.3c1.2,0,2.1,0.9,2.1,2.1v11.4c0,1.2-0.9,2.1-2.1,2.1h-5.3
        C601.5,675.8,600.6,674.8,600.6,673.7z"/>
      <path class="st53" d="M600.6,691.1v-11.4c0-1.2,0.9-2.1,2.1-2.1h5.3c1.2,0,2.1,0.9,2.1,2.1v11.4c0,1.2-0.9,2.1-2.1,2.1h-5.3
        C601.5,693.3,600.6,692.3,600.6,691.1z"/>
      <path class="st53" d="M600.6,708.6v-11.4c0-1.2,0.9-2.1,2.1-2.1h5.3c1.2,0,2.1,0.9,2.1,2.1v11.4c0,1.2-0.9,2.1-2.1,2.1h-5.3
        C601.5,710.7,600.6,709.8,600.6,708.6z"/>
      <path class="st53" d="M600.6,726.1v-11.4c0-1.2,0.9-2.1,2.1-2.1h5.3c1.2,0,2.1,0.9,2.1,2.1v11.4c0,1.2-0.9,2.1-2.1,2.1h-5.3
        C601.5,728.2,600.6,727.3,600.6,726.1z"/>
      <path class="st53" d="M600.6,743.6v-11.4c0-1.2,0.9-2.1,2.1-2.1h5.3c1.2,0,2.1,0.9,2.1,2.1v11.4c0,1.2-0.9,2.1-2.1,2.1h-5.3
        C601.5,745.7,600.6,744.7,600.6,743.6z"/>
      <path class="st53" d="M600.6,761v-11.4c0-1.2,0.9-2.1,2.1-2.1h5.3c1.2,0,2.1,0.9,2.1,2.1V761c0,1.2-0.9,2.1-2.1,2.1h-5.3
        C601.5,763.1,600.6,762.2,600.6,761z"/>
    </g>
    <g>
      <path class="st53" d="M576,344.3v-13.5c0-1.2,0.9-2.1,2.1-2.1h5.3c1.2,0,2.1,0.9,2.1,2.1v13.5c0,1.2-0.9,2.1-2.1,2.1h-5.3
        C577,346.4,576,345.5,576,344.3z"/>
      <path class="st53" d="M576,364.1v-13.5c0-1.2,0.9-2.1,2.1-2.1h5.3c1.2,0,2.1,0.9,2.1,2.1v13.5c0,1.2-0.9,2.1-2.1,2.1h-5.3
        C577,366.2,576,365.2,576,364.1z"/>
      <path class="st53" d="M576,383.9v-13.5c0-1.2,0.9-2.1,2.1-2.1h5.3c1.2,0,2.1,0.9,2.1,2.1v13.5c0,1.2-0.9,2.1-2.1,2.1h-5.3
        C577,386,576,385,576,383.9z"/>
      <path class="st53" d="M576,403.7v-13.5c0-1.2,0.9-2.1,2.1-2.1h5.3c1.2,0,2.1,0.9,2.1,2.1v13.5c0,1.2-0.9,2.1-2.1,2.1h-5.3
        C577,405.8,576,404.8,576,403.7z"/>
      <path class="st53" d="M576,423.5V410c0-1.2,0.9-2.1,2.1-2.1h5.3c1.2,0,2.1,0.9,2.1,2.1v13.5c0,1.2-0.9,2.1-2.1,2.1h-5.3
        C577,425.6,576,424.6,576,423.5z"/>
      <path class="st53" d="M576,443.3v-13.5c0-1.2,0.9-2.1,2.1-2.1h5.3c1.2,0,2.1,0.9,2.1,2.1v13.5c0,1.2-0.9,2.1-2.1,2.1h-5.3
        C577,445.4,576,444.4,576,443.3z"/>
      <path class="st53" d="M576,463.1v-13.5c0-1.2,0.9-2.1,2.1-2.1h5.3c1.2,0,2.1,0.9,2.1,2.1v13.5c0,1.2-0.9,2.1-2.1,2.1h-5.3
        C577,465.2,576,464.2,576,463.1z"/>
      <path class="st53" d="M576,482.9v-13.5c0-1.2,0.9-2.1,2.1-2.1h5.3c1.2,0,2.1,0.9,2.1,2.1v13.5c0,1.2-0.9,2.1-2.1,2.1h-5.3
        C577,485,576,484,576,482.9z"/>
      <path class="st53" d="M576,502.6v-13.5c0-1.2,0.9-2.1,2.1-2.1h5.3c1.2,0,2.1,0.9,2.1,2.1v13.5c0,1.2-0.9,2.1-2.1,2.1h-5.3
        C577,504.8,576,503.8,576,502.6z"/>
      <path class="st53" d="M576,522.4V509c0-1.2,0.9-2.1,2.1-2.1h5.3c1.2,0,2.1,0.9,2.1,2.1v13.5c0,1.2-0.9,2.1-2.1,2.1h-5.3
        C577,524.6,576,523.6,576,522.4z"/>
      <path class="st53" d="M576,542.2v-13.5c0-1.2,0.9-2.1,2.1-2.1h5.3c1.2,0,2.1,0.9,2.1,2.1v13.5c0,1.2-0.9,2.1-2.1,2.1h-5.3
        C577,544.4,576,543.4,576,542.2z"/>
      <path class="st53" d="M576,562v-13.5c0-1.2,0.9-2.1,2.1-2.1h5.3c1.2,0,2.1,0.9,2.1,2.1V562c0,1.2-0.9,2.1-2.1,2.1h-5.3
        C577,564.2,576,563.2,576,562z"/>
      <path class="st53" d="M576,581.8v-13.5c0-1.2,0.9-2.1,2.1-2.1h5.3c1.2,0,2.1,0.9,2.1,2.1v13.5c0,1.2-0.9,2.1-2.1,2.1h-5.3
        C577,583.9,576,583,576,581.8z"/>
      <path class="st53" d="M576,601.6v-13.5c0-1.2,0.9-2.1,2.1-2.1h5.3c1.2,0,2.1,0.9,2.1,2.1v13.5c0,1.2-0.9,2.1-2.1,2.1h-5.3
        C577,603.7,576,602.8,576,601.6z"/>
      <path class="st53" d="M576,621.4v-13.5c0-1.2,0.9-2.1,2.1-2.1h5.3c1.2,0,2.1,0.9,2.1,2.1v13.5c0,1.2-0.9,2.1-2.1,2.1h-5.3
        C577,623.5,576,622.6,576,621.4z"/>
      <path class="st53" d="M576,641.2v-13.5c0-1.2,0.9-2.1,2.1-2.1h5.3c1.2,0,2.1,0.9,2.1,2.1v13.5c0,1.2-0.9,2.1-2.1,2.1h-5.3
        C577,643.3,576,642.4,576,641.2z"/>
      <path class="st53" d="M576,661v-13.5c0-1.2,0.9-2.1,2.1-2.1h5.3c1.2,0,2.1,0.9,2.1,2.1V661c0,1.2-0.9,2.1-2.1,2.1h-5.3
        C577,663.1,576,662.2,576,661z"/>
      <path class="st53" d="M576,680.8v-13.5c0-1.2,0.9-2.1,2.1-2.1h5.3c1.2,0,2.1,0.9,2.1,2.1v13.5c0,1.2-0.9,2.1-2.1,2.1h-5.3
        C577,682.9,576,682,576,680.8z"/>
      <path class="st53" d="M576,700.6v-13.5c0-1.2,0.9-2.1,2.1-2.1h5.3c1.2,0,2.1,0.9,2.1,2.1v13.5c0,1.2-0.9,2.1-2.1,2.1h-5.3
        C577,702.7,576,701.8,576,700.6z"/>
      <path class="st53" d="M576,720.4v-13.5c0-1.2,0.9-2.1,2.1-2.1h5.3c1.2,0,2.1,0.9,2.1,2.1v13.5c0,1.2-0.9,2.1-2.1,2.1h-5.3
        C577,722.5,576,721.6,576,720.4z"/>
      <path class="st53" d="M576,740.2v-13.5c0-1.2,0.9-2.1,2.1-2.1h5.3c1.2,0,2.1,0.9,2.1,2.1v13.5c0,1.2-0.9,2.1-2.1,2.1h-5.3
        C577,742.3,576,741.4,576,740.2z"/>
      <path class="st53" d="M576,760v-13.5c0-1.2,0.9-2.1,2.1-2.1h5.3c1.2,0,2.1,0.9,2.1,2.1V760c0,1.2-0.9,2.1-2.1,2.1h-5.3
        C577,762.1,576,761.2,576,760z"/>
    </g>
    <g>
      <path class="st53" d="M550,344.3v-13.5c0-1.2,0.9-2.1,2.1-2.1h5.3c1.2,0,2.1,0.9,2.1,2.1v13.5c0,1.2-0.9,2.1-2.1,2.1h-5.3
        C550.9,346.4,550,345.5,550,344.3z"/>
      <path class="st53" d="M550,364.1v-13.5c0-1.2,0.9-2.1,2.1-2.1h5.3c1.2,0,2.1,0.9,2.1,2.1v13.5c0,1.2-0.9,2.1-2.1,2.1h-5.3
        C550.9,366.2,550,365.2,550,364.1z"/>
      <path class="st53" d="M550,383.9v-13.5c0-1.2,0.9-2.1,2.1-2.1h5.3c1.2,0,2.1,0.9,2.1,2.1v13.5c0,1.2-0.9,2.1-2.1,2.1h-5.3
        C550.9,386,550,385,550,383.9z"/>
      <path class="st53" d="M550,403.7v-13.5c0-1.2,0.9-2.1,2.1-2.1h5.3c1.2,0,2.1,0.9,2.1,2.1v13.5c0,1.2-0.9,2.1-2.1,2.1h-5.3
        C550.9,405.8,550,404.8,550,403.7z"/>
      <path class="st53" d="M550,423.5V410c0-1.2,0.9-2.1,2.1-2.1h5.3c1.2,0,2.1,0.9,2.1,2.1v13.5c0,1.2-0.9,2.1-2.1,2.1h-5.3
        C550.9,425.6,550,424.6,550,423.5z"/>
      <path class="st53" d="M550,443.3v-13.5c0-1.2,0.9-2.1,2.1-2.1h5.3c1.2,0,2.1,0.9,2.1,2.1v13.5c0,1.2-0.9,2.1-2.1,2.1h-5.3
        C550.9,445.4,550,444.4,550,443.3z"/>
      <path class="st53" d="M550,463.1v-13.5c0-1.2,0.9-2.1,2.1-2.1h5.3c1.2,0,2.1,0.9,2.1,2.1v13.5c0,1.2-0.9,2.1-2.1,2.1h-5.3
        C550.9,465.2,550,464.2,550,463.1z"/>
      <path class="st53" d="M550,482.9v-13.5c0-1.2,0.9-2.1,2.1-2.1h5.3c1.2,0,2.1,0.9,2.1,2.1v13.5c0,1.2-0.9,2.1-2.1,2.1h-5.3
        C550.9,485,550,484,550,482.9z"/>
      <path class="st53" d="M550,502.6v-13.5c0-1.2,0.9-2.1,2.1-2.1h5.3c1.2,0,2.1,0.9,2.1,2.1v13.5c0,1.2-0.9,2.1-2.1,2.1h-5.3
        C550.9,504.8,550,503.8,550,502.6z"/>
      <path class="st53" d="M550,522.4V509c0-1.2,0.9-2.1,2.1-2.1h5.3c1.2,0,2.1,0.9,2.1,2.1v13.5c0,1.2-0.9,2.1-2.1,2.1h-5.3
        C550.9,524.6,550,523.6,550,522.4z"/>
      <path class="st53" d="M550,542.2v-13.5c0-1.2,0.9-2.1,2.1-2.1h5.3c1.2,0,2.1,0.9,2.1,2.1v13.5c0,1.2-0.9,2.1-2.1,2.1h-5.3
        C550.9,544.4,550,543.4,550,542.2z"/>
      <path class="st53" d="M550,562v-13.5c0-1.2,0.9-2.1,2.1-2.1h5.3c1.2,0,2.1,0.9,2.1,2.1V562c0,1.2-0.9,2.1-2.1,2.1h-5.3
        C550.9,564.2,550,563.2,550,562z"/>
      <path class="st53" d="M550,581.8v-13.5c0-1.2,0.9-2.1,2.1-2.1h5.3c1.2,0,2.1,0.9,2.1,2.1v13.5c0,1.2-0.9,2.1-2.1,2.1h-5.3
        C550.9,583.9,550,583,550,581.8z"/>
      <path class="st53" d="M550,601.6v-13.5c0-1.2,0.9-2.1,2.1-2.1h5.3c1.2,0,2.1,0.9,2.1,2.1v13.5c0,1.2-0.9,2.1-2.1,2.1h-5.3
        C550.9,603.7,550,602.8,550,601.6z"/>
      <path class="st53" d="M550,621.4v-13.5c0-1.2,0.9-2.1,2.1-2.1h5.3c1.2,0,2.1,0.9,2.1,2.1v13.5c0,1.2-0.9,2.1-2.1,2.1h-5.3
        C550.9,623.5,550,622.6,550,621.4z"/>
      <path class="st53" d="M550,641.2v-13.5c0-1.2,0.9-2.1,2.1-2.1h5.3c1.2,0,2.1,0.9,2.1,2.1v13.5c0,1.2-0.9,2.1-2.1,2.1h-5.3
        C550.9,643.3,550,642.4,550,641.2z"/>
      <path class="st53" d="M550,661v-13.5c0-1.2,0.9-2.1,2.1-2.1h5.3c1.2,0,2.1,0.9,2.1,2.1V661c0,1.2-0.9,2.1-2.1,2.1h-5.3
        C550.9,663.1,550,662.2,550,661z"/>
      <path class="st53" d="M550,680.8v-13.5c0-1.2,0.9-2.1,2.1-2.1h5.3c1.2,0,2.1,0.9,2.1,2.1v13.5c0,1.2-0.9,2.1-2.1,2.1h-5.3
        C550.9,682.9,550,682,550,680.8z"/>
      <path class="st53" d="M550,700.6v-13.5c0-1.2,0.9-2.1,2.1-2.1h5.3c1.2,0,2.1,0.9,2.1,2.1v13.5c0,1.2-0.9,2.1-2.1,2.1h-5.3
        C550.9,702.7,550,701.8,550,700.6z"/>
      <path class="st53" d="M550,720.4v-13.5c0-1.2,0.9-2.1,2.1-2.1h5.3c1.2,0,2.1,0.9,2.1,2.1v13.5c0,1.2-0.9,2.1-2.1,2.1h-5.3
        C550.9,722.5,550,721.6,550,720.4z"/>
      <path class="st53" d="M550,740.2v-13.5c0-1.2,0.9-2.1,2.1-2.1h5.3c1.2,0,2.1,0.9,2.1,2.1v13.5c0,1.2-0.9,2.1-2.1,2.1h-5.3
        C550.9,742.3,550,741.4,550,740.2z"/>
      <path class="st53" d="M550,760v-13.5c0-1.2,0.9-2.1,2.1-2.1h5.3c1.2,0,2.1,0.9,2.1,2.1V760c0,1.2-0.9,2.1-2.1,2.1h-5.3
        C550.9,762.1,550,761.2,550,760z"/>
    </g>
    <g>
      <path class="st53" d="M525.3,344.3v-13.5c0-1.2,0.9-2.1,2.1-2.1h5.3c1.2,0,2.1,0.9,2.1,2.1v13.5c0,1.2-0.9,2.1-2.1,2.1h-5.3
        C526.2,346.4,525.3,345.5,525.3,344.3z"/>
      <path class="st53" d="M525.3,364.1v-13.5c0-1.2,0.9-2.1,2.1-2.1h5.3c1.2,0,2.1,0.9,2.1,2.1v13.5c0,1.2-0.9,2.1-2.1,2.1h-5.3
        C526.2,366.2,525.3,365.2,525.3,364.1z"/>
      <path class="st53" d="M525.3,383.9v-13.5c0-1.2,0.9-2.1,2.1-2.1h5.3c1.2,0,2.1,0.9,2.1,2.1v13.5c0,1.2-0.9,2.1-2.1,2.1h-5.3
        C526.2,386,525.3,385,525.3,383.9z"/>
      <path class="st53" d="M525.3,403.7v-13.5c0-1.2,0.9-2.1,2.1-2.1h5.3c1.2,0,2.1,0.9,2.1,2.1v13.5c0,1.2-0.9,2.1-2.1,2.1h-5.3
        C526.2,405.8,525.3,404.8,525.3,403.7z"/>
      <path class="st53" d="M525.3,423.5V410c0-1.2,0.9-2.1,2.1-2.1h5.3c1.2,0,2.1,0.9,2.1,2.1v13.5c0,1.2-0.9,2.1-2.1,2.1h-5.3
        C526.2,425.6,525.3,424.6,525.3,423.5z"/>
      <path class="st53" d="M525.3,443.3v-13.5c0-1.2,0.9-2.1,2.1-2.1h5.3c1.2,0,2.1,0.9,2.1,2.1v13.5c0,1.2-0.9,2.1-2.1,2.1h-5.3
        C526.2,445.4,525.3,444.4,525.3,443.3z"/>
      <path class="st53" d="M525.3,463.1v-13.5c0-1.2,0.9-2.1,2.1-2.1h5.3c1.2,0,2.1,0.9,2.1,2.1v13.5c0,1.2-0.9,2.1-2.1,2.1h-5.3
        C526.2,465.2,525.3,464.2,525.3,463.1z"/>
      <path class="st53" d="M525.3,482.9v-13.5c0-1.2,0.9-2.1,2.1-2.1h5.3c1.2,0,2.1,0.9,2.1,2.1v13.5c0,1.2-0.9,2.1-2.1,2.1h-5.3
        C526.2,485,525.3,484,525.3,482.9z"/>
      <path class="st53" d="M525.3,502.6v-13.5c0-1.2,0.9-2.1,2.1-2.1h5.3c1.2,0,2.1,0.9,2.1,2.1v13.5c0,1.2-0.9,2.1-2.1,2.1h-5.3
        C526.2,504.8,525.3,503.8,525.3,502.6z"/>
      <path class="st53" d="M525.3,522.4V509c0-1.2,0.9-2.1,2.1-2.1h5.3c1.2,0,2.1,0.9,2.1,2.1v13.5c0,1.2-0.9,2.1-2.1,2.1h-5.3
        C526.2,524.6,525.3,523.6,525.3,522.4z"/>
      <path class="st53" d="M525.3,542.2v-13.5c0-1.2,0.9-2.1,2.1-2.1h5.3c1.2,0,2.1,0.9,2.1,2.1v13.5c0,1.2-0.9,2.1-2.1,2.1h-5.3
        C526.2,544.4,525.3,543.4,525.3,542.2z"/>
      <path class="st53" d="M525.3,562v-13.5c0-1.2,0.9-2.1,2.1-2.1h5.3c1.2,0,2.1,0.9,2.1,2.1V562c0,1.2-0.9,2.1-2.1,2.1h-5.3
        C526.2,564.2,525.3,563.2,525.3,562z"/>
      <path class="st53" d="M525.3,581.8v-13.5c0-1.2,0.9-2.1,2.1-2.1h5.3c1.2,0,2.1,0.9,2.1,2.1v13.5c0,1.2-0.9,2.1-2.1,2.1h-5.3
        C526.2,583.9,525.3,583,525.3,581.8z"/>
      <path class="st53" d="M525.3,601.6v-13.5c0-1.2,0.9-2.1,2.1-2.1h5.3c1.2,0,2.1,0.9,2.1,2.1v13.5c0,1.2-0.9,2.1-2.1,2.1h-5.3
        C526.2,603.7,525.3,602.8,525.3,601.6z"/>
      <path class="st53" d="M525.3,621.4v-13.5c0-1.2,0.9-2.1,2.1-2.1h5.3c1.2,0,2.1,0.9,2.1,2.1v13.5c0,1.2-0.9,2.1-2.1,2.1h-5.3
        C526.2,623.5,525.3,622.6,525.3,621.4z"/>
      <path class="st53" d="M525.3,641.2v-13.5c0-1.2,0.9-2.1,2.1-2.1h5.3c1.2,0,2.1,0.9,2.1,2.1v13.5c0,1.2-0.9,2.1-2.1,2.1h-5.3
        C526.2,643.3,525.3,642.4,525.3,641.2z"/>
      <path class="st53" d="M525.3,661v-13.5c0-1.2,0.9-2.1,2.1-2.1h5.3c1.2,0,2.1,0.9,2.1,2.1V661c0,1.2-0.9,2.1-2.1,2.1h-5.3
        C526.2,663.1,525.3,662.2,525.3,661z"/>
      <path class="st53" d="M525.3,680.8v-13.5c0-1.2,0.9-2.1,2.1-2.1h5.3c1.2,0,2.1,0.9,2.1,2.1v13.5c0,1.2-0.9,2.1-2.1,2.1h-5.3
        C526.2,682.9,525.3,682,525.3,680.8z"/>
      <path class="st53" d="M525.3,700.6v-13.5c0-1.2,0.9-2.1,2.1-2.1h5.3c1.2,0,2.1,0.9,2.1,2.1v13.5c0,1.2-0.9,2.1-2.1,2.1h-5.3
        C526.2,702.7,525.3,701.8,525.3,700.6z"/>
      <path class="st53" d="M525.3,720.4v-13.5c0-1.2,0.9-2.1,2.1-2.1h5.3c1.2,0,2.1,0.9,2.1,2.1v13.5c0,1.2-0.9,2.1-2.1,2.1h-5.3
        C526.2,722.5,525.3,721.6,525.3,720.4z"/>
      <path class="st53" d="M525.3,740.2v-13.5c0-1.2,0.9-2.1,2.1-2.1h5.3c1.2,0,2.1,0.9,2.1,2.1v13.5c0,1.2-0.9,2.1-2.1,2.1h-5.3
        C526.2,742.3,525.3,741.4,525.3,740.2z"/>
      <path class="st53" d="M525.3,760v-13.5c0-1.2,0.9-2.1,2.1-2.1h5.3c1.2,0,2.1,0.9,2.1,2.1V760c0,1.2-0.9,2.1-2.1,2.1h-5.3
        C526.2,762.1,525.3,761.2,525.3,760z"/>
    </g>
    <g>
      <path class="st53" d="M499.8,344.3v-13.5c0-1.2,0.9-2.1,2.1-2.1h5.3c1.2,0,2.1,0.9,2.1,2.1v13.5c0,1.2-0.9,2.1-2.1,2.1h-5.3
        C500.7,346.4,499.8,345.5,499.8,344.3z"/>
      <path class="st53" d="M499.8,364.1v-13.5c0-1.2,0.9-2.1,2.1-2.1h5.3c1.2,0,2.1,0.9,2.1,2.1v13.5c0,1.2-0.9,2.1-2.1,2.1h-5.3
        C500.7,366.2,499.8,365.2,499.8,364.1z"/>
      <path class="st53" d="M499.8,383.9v-13.5c0-1.2,0.9-2.1,2.1-2.1h5.3c1.2,0,2.1,0.9,2.1,2.1v13.5c0,1.2-0.9,2.1-2.1,2.1h-5.3
        C500.7,386,499.8,385,499.8,383.9z"/>
      <path class="st53" d="M499.8,403.7v-13.5c0-1.2,0.9-2.1,2.1-2.1h5.3c1.2,0,2.1,0.9,2.1,2.1v13.5c0,1.2-0.9,2.1-2.1,2.1h-5.3
        C500.7,405.8,499.8,404.8,499.8,403.7z"/>
      <path class="st53" d="M499.8,423.5V410c0-1.2,0.9-2.1,2.1-2.1h5.3c1.2,0,2.1,0.9,2.1,2.1v13.5c0,1.2-0.9,2.1-2.1,2.1h-5.3
        C500.7,425.6,499.8,424.6,499.8,423.5z"/>
      <path class="st53" d="M499.8,443.3v-13.5c0-1.2,0.9-2.1,2.1-2.1h5.3c1.2,0,2.1,0.9,2.1,2.1v13.5c0,1.2-0.9,2.1-2.1,2.1h-5.3
        C500.7,445.4,499.8,444.4,499.8,443.3z"/>
      <path class="st53" d="M499.8,463.1v-13.5c0-1.2,0.9-2.1,2.1-2.1h5.3c1.2,0,2.1,0.9,2.1,2.1v13.5c0,1.2-0.9,2.1-2.1,2.1h-5.3
        C500.7,465.2,499.8,464.2,499.8,463.1z"/>
      <path class="st53" d="M499.8,482.9v-13.5c0-1.2,0.9-2.1,2.1-2.1h5.3c1.2,0,2.1,0.9,2.1,2.1v13.5c0,1.2-0.9,2.1-2.1,2.1h-5.3
        C500.7,485,499.8,484,499.8,482.9z"/>
      <path class="st53" d="M499.8,502.6v-13.5c0-1.2,0.9-2.1,2.1-2.1h5.3c1.2,0,2.1,0.9,2.1,2.1v13.5c0,1.2-0.9,2.1-2.1,2.1h-5.3
        C500.7,504.8,499.8,503.8,499.8,502.6z"/>
      <path class="st53" d="M499.8,522.4V509c0-1.2,0.9-2.1,2.1-2.1h5.3c1.2,0,2.1,0.9,2.1,2.1v13.5c0,1.2-0.9,2.1-2.1,2.1h-5.3
        C500.7,524.6,499.8,523.6,499.8,522.4z"/>
      <path class="st53" d="M499.8,542.2v-13.5c0-1.2,0.9-2.1,2.1-2.1h5.3c1.2,0,2.1,0.9,2.1,2.1v13.5c0,1.2-0.9,2.1-2.1,2.1h-5.3
        C500.7,544.4,499.8,543.4,499.8,542.2z"/>
      <path class="st53" d="M499.8,562v-13.5c0-1.2,0.9-2.1,2.1-2.1h5.3c1.2,0,2.1,0.9,2.1,2.1V562c0,1.2-0.9,2.1-2.1,2.1h-5.3
        C500.7,564.2,499.8,563.2,499.8,562z"/>
      <path class="st53" d="M499.8,581.8v-13.5c0-1.2,0.9-2.1,2.1-2.1h5.3c1.2,0,2.1,0.9,2.1,2.1v13.5c0,1.2-0.9,2.1-2.1,2.1h-5.3
        C500.7,583.9,499.8,583,499.8,581.8z"/>
      <path class="st53" d="M499.8,601.6v-13.5c0-1.2,0.9-2.1,2.1-2.1h5.3c1.2,0,2.1,0.9,2.1,2.1v13.5c0,1.2-0.9,2.1-2.1,2.1h-5.3
        C500.7,603.7,499.8,602.8,499.8,601.6z"/>
      <path class="st53" d="M499.8,621.4v-13.5c0-1.2,0.9-2.1,2.1-2.1h5.3c1.2,0,2.1,0.9,2.1,2.1v13.5c0,1.2-0.9,2.1-2.1,2.1h-5.3
        C500.7,623.5,499.8,622.6,499.8,621.4z"/>
      <path class="st53" d="M499.8,641.2v-13.5c0-1.2,0.9-2.1,2.1-2.1h5.3c1.2,0,2.1,0.9,2.1,2.1v13.5c0,1.2-0.9,2.1-2.1,2.1h-5.3
        C500.7,643.3,499.8,642.4,499.8,641.2z"/>
      <path class="st53" d="M499.8,661v-13.5c0-1.2,0.9-2.1,2.1-2.1h5.3c1.2,0,2.1,0.9,2.1,2.1V661c0,1.2-0.9,2.1-2.1,2.1h-5.3
        C500.7,663.1,499.8,662.2,499.8,661z"/>
      <path class="st53" d="M499.8,680.8v-13.5c0-1.2,0.9-2.1,2.1-2.1h5.3c1.2,0,2.1,0.9,2.1,2.1v13.5c0,1.2-0.9,2.1-2.1,2.1h-5.3
        C500.7,682.9,499.8,682,499.8,680.8z"/>
      <path class="st53" d="M499.8,700.6v-13.5c0-1.2,0.9-2.1,2.1-2.1h5.3c1.2,0,2.1,0.9,2.1,2.1v13.5c0,1.2-0.9,2.1-2.1,2.1h-5.3
        C500.7,702.7,499.8,701.8,499.8,700.6z"/>
      <path class="st53" d="M499.8,720.4v-13.5c0-1.2,0.9-2.1,2.1-2.1h5.3c1.2,0,2.1,0.9,2.1,2.1v13.5c0,1.2-0.9,2.1-2.1,2.1h-5.3
        C500.7,722.5,499.8,721.6,499.8,720.4z"/>
      <path class="st53" d="M499.8,740.2v-13.5c0-1.2,0.9-2.1,2.1-2.1h5.3c1.2,0,2.1,0.9,2.1,2.1v13.5c0,1.2-0.9,2.1-2.1,2.1h-5.3
        C500.7,742.3,499.8,741.4,499.8,740.2z"/>
      <path class="st53" d="M499.8,760v-13.5c0-1.2,0.9-2.1,2.1-2.1h5.3c1.2,0,2.1,0.9,2.1,2.1V760c0,1.2-0.9,2.1-2.1,2.1h-5.3
        C500.7,762.1,499.8,761.2,499.8,760z"/>
    </g>
    <g>
      <path class="st53" d="M474.8,344.3v-13.5c0-1.2,0.9-2.1,2.1-2.1h5.3c1.2,0,2.1,0.9,2.1,2.1v13.5c0,1.2-0.9,2.1-2.1,2.1h-5.3
        C475.8,346.4,474.8,345.5,474.8,344.3z"/>
      <path class="st53" d="M474.8,364.1v-13.5c0-1.2,0.9-2.1,2.1-2.1h5.3c1.2,0,2.1,0.9,2.1,2.1v13.5c0,1.2-0.9,2.1-2.1,2.1h-5.3
        C475.8,366.2,474.8,365.2,474.8,364.1z"/>
      <path class="st53" d="M474.8,383.9v-13.5c0-1.2,0.9-2.1,2.1-2.1h5.3c1.2,0,2.1,0.9,2.1,2.1v13.5c0,1.2-0.9,2.1-2.1,2.1h-5.3
        C475.8,386,474.8,385,474.8,383.9z"/>
      <path class="st53" d="M474.8,403.7v-13.5c0-1.2,0.9-2.1,2.1-2.1h5.3c1.2,0,2.1,0.9,2.1,2.1v13.5c0,1.2-0.9,2.1-2.1,2.1h-5.3
        C475.8,405.8,474.8,404.8,474.8,403.7z"/>
      <path class="st53" d="M474.8,423.5V410c0-1.2,0.9-2.1,2.1-2.1h5.3c1.2,0,2.1,0.9,2.1,2.1v13.5c0,1.2-0.9,2.1-2.1,2.1h-5.3
        C475.8,425.6,474.8,424.6,474.8,423.5z"/>
      <path class="st53" d="M474.8,443.3v-13.5c0-1.2,0.9-2.1,2.1-2.1h5.3c1.2,0,2.1,0.9,2.1,2.1v13.5c0,1.2-0.9,2.1-2.1,2.1h-5.3
        C475.8,445.4,474.8,444.4,474.8,443.3z"/>
      <path class="st53" d="M474.8,463.1v-13.5c0-1.2,0.9-2.1,2.1-2.1h5.3c1.2,0,2.1,0.9,2.1,2.1v13.5c0,1.2-0.9,2.1-2.1,2.1h-5.3
        C475.8,465.2,474.8,464.2,474.8,463.1z"/>
      <path class="st53" d="M474.8,482.9v-13.5c0-1.2,0.9-2.1,2.1-2.1h5.3c1.2,0,2.1,0.9,2.1,2.1v13.5c0,1.2-0.9,2.1-2.1,2.1h-5.3
        C475.8,485,474.8,484,474.8,482.9z"/>
      <path class="st53" d="M474.8,502.6v-13.5c0-1.2,0.9-2.1,2.1-2.1h5.3c1.2,0,2.1,0.9,2.1,2.1v13.5c0,1.2-0.9,2.1-2.1,2.1h-5.3
        C475.8,504.8,474.8,503.8,474.8,502.6z"/>
      <path class="st53" d="M474.8,522.4V509c0-1.2,0.9-2.1,2.1-2.1h5.3c1.2,0,2.1,0.9,2.1,2.1v13.5c0,1.2-0.9,2.1-2.1,2.1h-5.3
        C475.8,524.6,474.8,523.6,474.8,522.4z"/>
      <path class="st53" d="M474.8,542.2v-13.5c0-1.2,0.9-2.1,2.1-2.1h5.3c1.2,0,2.1,0.9,2.1,2.1v13.5c0,1.2-0.9,2.1-2.1,2.1h-5.3
        C475.8,544.4,474.8,543.4,474.8,542.2z"/>
      <path class="st53" d="M474.8,562v-13.5c0-1.2,0.9-2.1,2.1-2.1h5.3c1.2,0,2.1,0.9,2.1,2.1V562c0,1.2-0.9,2.1-2.1,2.1h-5.3
        C475.8,564.2,474.8,563.2,474.8,562z"/>
      <path class="st53" d="M474.8,581.8v-13.5c0-1.2,0.9-2.1,2.1-2.1h5.3c1.2,0,2.1,0.9,2.1,2.1v13.5c0,1.2-0.9,2.1-2.1,2.1h-5.3
        C475.8,583.9,474.8,583,474.8,581.8z"/>
      <path class="st53" d="M474.8,601.6v-13.5c0-1.2,0.9-2.1,2.1-2.1h5.3c1.2,0,2.1,0.9,2.1,2.1v13.5c0,1.2-0.9,2.1-2.1,2.1h-5.3
        C475.8,603.7,474.8,602.8,474.8,601.6z"/>
      <path class="st53" d="M474.8,621.4v-13.5c0-1.2,0.9-2.1,2.1-2.1h5.3c1.2,0,2.1,0.9,2.1,2.1v13.5c0,1.2-0.9,2.1-2.1,2.1h-5.3
        C475.8,623.5,474.8,622.6,474.8,621.4z"/>
      <path class="st53" d="M474.8,641.2v-13.5c0-1.2,0.9-2.1,2.1-2.1h5.3c1.2,0,2.1,0.9,2.1,2.1v13.5c0,1.2-0.9,2.1-2.1,2.1h-5.3
        C475.8,643.3,474.8,642.4,474.8,641.2z"/>
      <path class="st53" d="M474.8,661v-13.5c0-1.2,0.9-2.1,2.1-2.1h5.3c1.2,0,2.1,0.9,2.1,2.1V661c0,1.2-0.9,2.1-2.1,2.1h-5.3
        C475.8,663.1,474.8,662.2,474.8,661z"/>
      <path class="st53" d="M474.8,680.8v-13.5c0-1.2,0.9-2.1,2.1-2.1h5.3c1.2,0,2.1,0.9,2.1,2.1v13.5c0,1.2-0.9,2.1-2.1,2.1h-5.3
        C475.8,682.9,474.8,682,474.8,680.8z"/>
      <path class="st53" d="M474.8,700.6v-13.5c0-1.2,0.9-2.1,2.1-2.1h5.3c1.2,0,2.1,0.9,2.1,2.1v13.5c0,1.2-0.9,2.1-2.1,2.1h-5.3
        C475.8,702.7,474.8,701.8,474.8,700.6z"/>
      <path class="st53" d="M474.8,720.4v-13.5c0-1.2,0.9-2.1,2.1-2.1h5.3c1.2,0,2.1,0.9,2.1,2.1v13.5c0,1.2-0.9,2.1-2.1,2.1h-5.3
        C475.8,722.5,474.8,721.6,474.8,720.4z"/>
      <path class="st53" d="M474.8,740.2v-13.5c0-1.2,0.9-2.1,2.1-2.1h5.3c1.2,0,2.1,0.9,2.1,2.1v13.5c0,1.2-0.9,2.1-2.1,2.1h-5.3
        C475.8,742.3,474.8,741.4,474.8,740.2z"/>
      <path class="st53" d="M474.8,760v-13.5c0-1.2,0.9-2.1,2.1-2.1h5.3c1.2,0,2.1,0.9,2.1,2.1V760c0,1.2-0.9,2.1-2.1,2.1h-5.3
        C475.8,762.1,474.8,761.2,474.8,760z"/>
    </g>
    <g>
      <path class="st53" d="M449.6,344.3v-13.5c0-1.2,0.9-2.1,2.1-2.1h5.3c1.2,0,2.1,0.9,2.1,2.1v13.5c0,1.2-0.9,2.1-2.1,2.1h-5.3
        C450.5,346.4,449.6,345.5,449.6,344.3z"/>
      <path class="st53" d="M449.6,364.1v-13.5c0-1.2,0.9-2.1,2.1-2.1h5.3c1.2,0,2.1,0.9,2.1,2.1v13.5c0,1.2-0.9,2.1-2.1,2.1h-5.3
        C450.5,366.2,449.6,365.2,449.6,364.1z"/>
      <path class="st53" d="M449.6,383.9v-13.5c0-1.2,0.9-2.1,2.1-2.1h5.3c1.2,0,2.1,0.9,2.1,2.1v13.5c0,1.2-0.9,2.1-2.1,2.1h-5.3
        C450.5,386,449.6,385,449.6,383.9z"/>
      <path class="st53" d="M449.6,403.7v-13.5c0-1.2,0.9-2.1,2.1-2.1h5.3c1.2,0,2.1,0.9,2.1,2.1v13.5c0,1.2-0.9,2.1-2.1,2.1h-5.3
        C450.5,405.8,449.6,404.8,449.6,403.7z"/>
      <path class="st53" d="M449.6,423.5V410c0-1.2,0.9-2.1,2.1-2.1h5.3c1.2,0,2.1,0.9,2.1,2.1v13.5c0,1.2-0.9,2.1-2.1,2.1h-5.3
        C450.5,425.6,449.6,424.6,449.6,423.5z"/>
      <path class="st53" d="M449.6,443.3v-13.5c0-1.2,0.9-2.1,2.1-2.1h5.3c1.2,0,2.1,0.9,2.1,2.1v13.5c0,1.2-0.9,2.1-2.1,2.1h-5.3
        C450.5,445.4,449.6,444.4,449.6,443.3z"/>
      <path class="st53" d="M449.6,463.1v-13.5c0-1.2,0.9-2.1,2.1-2.1h5.3c1.2,0,2.1,0.9,2.1,2.1v13.5c0,1.2-0.9,2.1-2.1,2.1h-5.3
        C450.5,465.2,449.6,464.2,449.6,463.1z"/>
      <path class="st53" d="M449.6,482.9v-13.5c0-1.2,0.9-2.1,2.1-2.1h5.3c1.2,0,2.1,0.9,2.1,2.1v13.5c0,1.2-0.9,2.1-2.1,2.1h-5.3
        C450.5,485,449.6,484,449.6,482.9z"/>
      <path class="st53" d="M449.6,502.6v-13.5c0-1.2,0.9-2.1,2.1-2.1h5.3c1.2,0,2.1,0.9,2.1,2.1v13.5c0,1.2-0.9,2.1-2.1,2.1h-5.3
        C450.5,504.8,449.6,503.8,449.6,502.6z"/>
      <path class="st53" d="M449.6,522.4V509c0-1.2,0.9-2.1,2.1-2.1h5.3c1.2,0,2.1,0.9,2.1,2.1v13.5c0,1.2-0.9,2.1-2.1,2.1h-5.3
        C450.5,524.6,449.6,523.6,449.6,522.4z"/>
      <path class="st53" d="M449.6,542.2v-13.5c0-1.2,0.9-2.1,2.1-2.1h5.3c1.2,0,2.1,0.9,2.1,2.1v13.5c0,1.2-0.9,2.1-2.1,2.1h-5.3
        C450.5,544.4,449.6,543.4,449.6,542.2z"/>
      <path class="st53" d="M449.6,562v-13.5c0-1.2,0.9-2.1,2.1-2.1h5.3c1.2,0,2.1,0.9,2.1,2.1V562c0,1.2-0.9,2.1-2.1,2.1h-5.3
        C450.5,564.2,449.6,563.2,449.6,562z"/>
      <path class="st53" d="M449.6,581.8v-13.5c0-1.2,0.9-2.1,2.1-2.1h5.3c1.2,0,2.1,0.9,2.1,2.1v13.5c0,1.2-0.9,2.1-2.1,2.1h-5.3
        C450.5,583.9,449.6,583,449.6,581.8z"/>
      <path class="st53" d="M449.6,601.6v-13.5c0-1.2,0.9-2.1,2.1-2.1h5.3c1.2,0,2.1,0.9,2.1,2.1v13.5c0,1.2-0.9,2.1-2.1,2.1h-5.3
        C450.5,603.7,449.6,602.8,449.6,601.6z"/>
      <path class="st53" d="M449.6,621.4v-13.5c0-1.2,0.9-2.1,2.1-2.1h5.3c1.2,0,2.1,0.9,2.1,2.1v13.5c0,1.2-0.9,2.1-2.1,2.1h-5.3
        C450.5,623.5,449.6,622.6,449.6,621.4z"/>
      <path class="st53" d="M449.6,641.2v-13.5c0-1.2,0.9-2.1,2.1-2.1h5.3c1.2,0,2.1,0.9,2.1,2.1v13.5c0,1.2-0.9,2.1-2.1,2.1h-5.3
        C450.5,643.3,449.6,642.4,449.6,641.2z"/>
      <path class="st53" d="M449.6,661v-13.5c0-1.2,0.9-2.1,2.1-2.1h5.3c1.2,0,2.1,0.9,2.1,2.1V661c0,1.2-0.9,2.1-2.1,2.1h-5.3
        C450.5,663.1,449.6,662.2,449.6,661z"/>
      <path class="st53" d="M449.6,680.8v-13.5c0-1.2,0.9-2.1,2.1-2.1h5.3c1.2,0,2.1,0.9,2.1,2.1v13.5c0,1.2-0.9,2.1-2.1,2.1h-5.3
        C450.5,682.9,449.6,682,449.6,680.8z"/>
      <path class="st53" d="M449.6,700.6v-13.5c0-1.2,0.9-2.1,2.1-2.1h5.3c1.2,0,2.1,0.9,2.1,2.1v13.5c0,1.2-0.9,2.1-2.1,2.1h-5.3
        C450.5,702.7,449.6,701.8,449.6,700.6z"/>
      <path class="st53" d="M449.6,720.4v-13.5c0-1.2,0.9-2.1,2.1-2.1h5.3c1.2,0,2.1,0.9,2.1,2.1v13.5c0,1.2-0.9,2.1-2.1,2.1h-5.3
        C450.5,722.5,449.6,721.6,449.6,720.4z"/>
      <path class="st53" d="M449.6,740.2v-13.5c0-1.2,0.9-2.1,2.1-2.1h5.3c1.2,0,2.1,0.9,2.1,2.1v13.5c0,1.2-0.9,2.1-2.1,2.1h-5.3
        C450.5,742.3,449.6,741.4,449.6,740.2z"/>
      <path class="st53" d="M449.6,760v-13.5c0-1.2,0.9-2.1,2.1-2.1h5.3c1.2,0,2.1,0.9,2.1,2.1V760c0,1.2-0.9,2.1-2.1,2.1h-5.3
        C450.5,762.1,449.6,761.2,449.6,760z"/>
    </g>
    <g>
      <path class="st53" d="M423.6,344.3v-13.5c0-1.2,0.9-2.1,2.1-2.1h5.3c1.2,0,2.1,0.9,2.1,2.1v13.5c0,1.2-0.9,2.1-2.1,2.1h-5.3
        C424.6,346.4,423.6,345.5,423.6,344.3z"/>
      <path class="st53" d="M423.6,364.1v-13.5c0-1.2,0.9-2.1,2.1-2.1h5.3c1.2,0,2.1,0.9,2.1,2.1v13.5c0,1.2-0.9,2.1-2.1,2.1h-5.3
        C424.6,366.2,423.6,365.2,423.6,364.1z"/>
      <path class="st53" d="M423.6,383.9v-13.5c0-1.2,0.9-2.1,2.1-2.1h5.3c1.2,0,2.1,0.9,2.1,2.1v13.5c0,1.2-0.9,2.1-2.1,2.1h-5.3
        C424.6,386,423.6,385,423.6,383.9z"/>
      <path class="st53" d="M423.6,403.7v-13.5c0-1.2,0.9-2.1,2.1-2.1h5.3c1.2,0,2.1,0.9,2.1,2.1v13.5c0,1.2-0.9,2.1-2.1,2.1h-5.3
        C424.6,405.8,423.6,404.8,423.6,403.7z"/>
      <path class="st53" d="M423.6,423.5V410c0-1.2,0.9-2.1,2.1-2.1h5.3c1.2,0,2.1,0.9,2.1,2.1v13.5c0,1.2-0.9,2.1-2.1,2.1h-5.3
        C424.6,425.6,423.6,424.6,423.6,423.5z"/>
      <path class="st53" d="M423.6,443.3v-13.5c0-1.2,0.9-2.1,2.1-2.1h5.3c1.2,0,2.1,0.9,2.1,2.1v13.5c0,1.2-0.9,2.1-2.1,2.1h-5.3
        C424.6,445.4,423.6,444.4,423.6,443.3z"/>
      <path class="st53" d="M423.6,463.1v-13.5c0-1.2,0.9-2.1,2.1-2.1h5.3c1.2,0,2.1,0.9,2.1,2.1v13.5c0,1.2-0.9,2.1-2.1,2.1h-5.3
        C424.6,465.2,423.6,464.2,423.6,463.1z"/>
      <path class="st53" d="M423.6,482.9v-13.5c0-1.2,0.9-2.1,2.1-2.1h5.3c1.2,0,2.1,0.9,2.1,2.1v13.5c0,1.2-0.9,2.1-2.1,2.1h-5.3
        C424.6,485,423.6,484,423.6,482.9z"/>
      <path class="st53" d="M423.6,502.6v-13.5c0-1.2,0.9-2.1,2.1-2.1h5.3c1.2,0,2.1,0.9,2.1,2.1v13.5c0,1.2-0.9,2.1-2.1,2.1h-5.3
        C424.6,504.8,423.6,503.8,423.6,502.6z"/>
      <path class="st53" d="M423.6,522.4V509c0-1.2,0.9-2.1,2.1-2.1h5.3c1.2,0,2.1,0.9,2.1,2.1v13.5c0,1.2-0.9,2.1-2.1,2.1h-5.3
        C424.6,524.6,423.6,523.6,423.6,522.4z"/>
      <path class="st53" d="M423.6,542.2v-13.5c0-1.2,0.9-2.1,2.1-2.1h5.3c1.2,0,2.1,0.9,2.1,2.1v13.5c0,1.2-0.9,2.1-2.1,2.1h-5.3
        C424.6,544.4,423.6,543.4,423.6,542.2z"/>
      <path class="st53" d="M423.6,562v-13.5c0-1.2,0.9-2.1,2.1-2.1h5.3c1.2,0,2.1,0.9,2.1,2.1V562c0,1.2-0.9,2.1-2.1,2.1h-5.3
        C424.6,564.2,423.6,563.2,423.6,562z"/>
      <path class="st53" d="M423.6,581.8v-13.5c0-1.2,0.9-2.1,2.1-2.1h5.3c1.2,0,2.1,0.9,2.1,2.1v13.5c0,1.2-0.9,2.1-2.1,2.1h-5.3
        C424.6,583.9,423.6,583,423.6,581.8z"/>
      <path class="st53" d="M423.6,601.6v-13.5c0-1.2,0.9-2.1,2.1-2.1h5.3c1.2,0,2.1,0.9,2.1,2.1v13.5c0,1.2-0.9,2.1-2.1,2.1h-5.3
        C424.6,603.7,423.6,602.8,423.6,601.6z"/>
      <path class="st53" d="M423.6,621.4v-13.5c0-1.2,0.9-2.1,2.1-2.1h5.3c1.2,0,2.1,0.9,2.1,2.1v13.5c0,1.2-0.9,2.1-2.1,2.1h-5.3
        C424.6,623.5,423.6,622.6,423.6,621.4z"/>
      <path class="st53" d="M423.6,641.2v-13.5c0-1.2,0.9-2.1,2.1-2.1h5.3c1.2,0,2.1,0.9,2.1,2.1v13.5c0,1.2-0.9,2.1-2.1,2.1h-5.3
        C424.6,643.3,423.6,642.4,423.6,641.2z"/>
      <path class="st53" d="M423.6,661v-13.5c0-1.2,0.9-2.1,2.1-2.1h5.3c1.2,0,2.1,0.9,2.1,2.1V661c0,1.2-0.9,2.1-2.1,2.1h-5.3
        C424.6,663.1,423.6,662.2,423.6,661z"/>
      <path class="st53" d="M423.6,680.8v-13.5c0-1.2,0.9-2.1,2.1-2.1h5.3c1.2,0,2.1,0.9,2.1,2.1v13.5c0,1.2-0.9,2.1-2.1,2.1h-5.3
        C424.6,682.9,423.6,682,423.6,680.8z"/>
      <path class="st53" d="M423.6,700.6v-13.5c0-1.2,0.9-2.1,2.1-2.1h5.3c1.2,0,2.1,0.9,2.1,2.1v13.5c0,1.2-0.9,2.1-2.1,2.1h-5.3
        C424.6,702.7,423.6,701.8,423.6,700.6z"/>
      <path class="st53" d="M423.6,720.4v-13.5c0-1.2,0.9-2.1,2.1-2.1h5.3c1.2,0,2.1,0.9,2.1,2.1v13.5c0,1.2-0.9,2.1-2.1,2.1h-5.3
        C424.6,722.5,423.6,721.6,423.6,720.4z"/>
      <path class="st53" d="M423.6,740.2v-13.5c0-1.2,0.9-2.1,2.1-2.1h5.3c1.2,0,2.1,0.9,2.1,2.1v13.5c0,1.2-0.9,2.1-2.1,2.1h-5.3
        C424.6,742.3,423.6,741.4,423.6,740.2z"/>
      <path class="st53" d="M423.6,760v-13.5c0-1.2,0.9-2.1,2.1-2.1h5.3c1.2,0,2.1,0.9,2.1,2.1V760c0,1.2-0.9,2.1-2.1,2.1h-5.3
        C424.6,762.1,423.6,761.2,423.6,760z"/>
    </g>
    <g>
      <path class="st53" d="M399.1,344.3v-13.5c0-1.2,0.9-2.1,2.1-2.1h5.3c1.2,0,2.1,0.9,2.1,2.1v13.5c0,1.2-0.9,2.1-2.1,2.1h-5.3
        C400.1,346.4,399.1,345.5,399.1,344.3z"/>
      <path class="st53" d="M399.1,364.1v-13.5c0-1.2,0.9-2.1,2.1-2.1h5.3c1.2,0,2.1,0.9,2.1,2.1v13.5c0,1.2-0.9,2.1-2.1,2.1h-5.3
        C400.1,366.2,399.1,365.2,399.1,364.1z"/>
      <path class="st53" d="M399.1,383.9v-13.5c0-1.2,0.9-2.1,2.1-2.1h5.3c1.2,0,2.1,0.9,2.1,2.1v13.5c0,1.2-0.9,2.1-2.1,2.1h-5.3
        C400.1,386,399.1,385,399.1,383.9z"/>
      <path class="st53" d="M399.1,403.7v-13.5c0-1.2,0.9-2.1,2.1-2.1h5.3c1.2,0,2.1,0.9,2.1,2.1v13.5c0,1.2-0.9,2.1-2.1,2.1h-5.3
        C400.1,405.8,399.1,404.8,399.1,403.7z"/>
      <path class="st53" d="M399.1,423.5V410c0-1.2,0.9-2.1,2.1-2.1h5.3c1.2,0,2.1,0.9,2.1,2.1v13.5c0,1.2-0.9,2.1-2.1,2.1h-5.3
        C400.1,425.6,399.1,424.6,399.1,423.5z"/>
      <path class="st53" d="M399.1,443.3v-13.5c0-1.2,0.9-2.1,2.1-2.1h5.3c1.2,0,2.1,0.9,2.1,2.1v13.5c0,1.2-0.9,2.1-2.1,2.1h-5.3
        C400.1,445.4,399.1,444.4,399.1,443.3z"/>
      <path class="st53" d="M399.1,463.1v-13.5c0-1.2,0.9-2.1,2.1-2.1h5.3c1.2,0,2.1,0.9,2.1,2.1v13.5c0,1.2-0.9,2.1-2.1,2.1h-5.3
        C400.1,465.2,399.1,464.2,399.1,463.1z"/>
      <path class="st53" d="M399.1,482.9v-13.5c0-1.2,0.9-2.1,2.1-2.1h5.3c1.2,0,2.1,0.9,2.1,2.1v13.5c0,1.2-0.9,2.1-2.1,2.1h-5.3
        C400.1,485,399.1,484,399.1,482.9z"/>
      <path class="st53" d="M399.1,502.6v-13.5c0-1.2,0.9-2.1,2.1-2.1h5.3c1.2,0,2.1,0.9,2.1,2.1v13.5c0,1.2-0.9,2.1-2.1,2.1h-5.3
        C400.1,504.8,399.1,503.8,399.1,502.6z"/>
      <path class="st53" d="M399.1,522.4V509c0-1.2,0.9-2.1,2.1-2.1h5.3c1.2,0,2.1,0.9,2.1,2.1v13.5c0,1.2-0.9,2.1-2.1,2.1h-5.3
        C400.1,524.6,399.1,523.6,399.1,522.4z"/>
      <path class="st53" d="M399.1,542.2v-13.5c0-1.2,0.9-2.1,2.1-2.1h5.3c1.2,0,2.1,0.9,2.1,2.1v13.5c0,1.2-0.9,2.1-2.1,2.1h-5.3
        C400.1,544.4,399.1,543.4,399.1,542.2z"/>
      <path class="st53" d="M399.1,562v-13.5c0-1.2,0.9-2.1,2.1-2.1h5.3c1.2,0,2.1,0.9,2.1,2.1V562c0,1.2-0.9,2.1-2.1,2.1h-5.3
        C400.1,564.2,399.1,563.2,399.1,562z"/>
      <path class="st53" d="M399.1,581.8v-13.5c0-1.2,0.9-2.1,2.1-2.1h5.3c1.2,0,2.1,0.9,2.1,2.1v13.5c0,1.2-0.9,2.1-2.1,2.1h-5.3
        C400.1,583.9,399.1,583,399.1,581.8z"/>
      <path class="st53" d="M399.1,601.6v-13.5c0-1.2,0.9-2.1,2.1-2.1h5.3c1.2,0,2.1,0.9,2.1,2.1v13.5c0,1.2-0.9,2.1-2.1,2.1h-5.3
        C400.1,603.7,399.1,602.8,399.1,601.6z"/>
      <path class="st53" d="M399.1,621.4v-13.5c0-1.2,0.9-2.1,2.1-2.1h5.3c1.2,0,2.1,0.9,2.1,2.1v13.5c0,1.2-0.9,2.1-2.1,2.1h-5.3
        C400.1,623.5,399.1,622.6,399.1,621.4z"/>
      <path class="st53" d="M399.1,641.2v-13.5c0-1.2,0.9-2.1,2.1-2.1h5.3c1.2,0,2.1,0.9,2.1,2.1v13.5c0,1.2-0.9,2.1-2.1,2.1h-5.3
        C400.1,643.3,399.1,642.4,399.1,641.2z"/>
      <path class="st53" d="M399.1,661v-13.5c0-1.2,0.9-2.1,2.1-2.1h5.3c1.2,0,2.1,0.9,2.1,2.1V661c0,1.2-0.9,2.1-2.1,2.1h-5.3
        C400.1,663.1,399.1,662.2,399.1,661z"/>
      <path class="st53" d="M399.1,680.8v-13.5c0-1.2,0.9-2.1,2.1-2.1h5.3c1.2,0,2.1,0.9,2.1,2.1v13.5c0,1.2-0.9,2.1-2.1,2.1h-5.3
        C400.1,682.9,399.1,682,399.1,680.8z"/>
      <path class="st53" d="M399.1,700.6v-13.5c0-1.2,0.9-2.1,2.1-2.1h5.3c1.2,0,2.1,0.9,2.1,2.1v13.5c0,1.2-0.9,2.1-2.1,2.1h-5.3
        C400.1,702.7,399.1,701.8,399.1,700.6z"/>
      <path class="st53" d="M399.1,720.4v-13.5c0-1.2,0.9-2.1,2.1-2.1h5.3c1.2,0,2.1,0.9,2.1,2.1v13.5c0,1.2-0.9,2.1-2.1,2.1h-5.3
        C400.1,722.5,399.1,721.6,399.1,720.4z"/>
      <path class="st53" d="M399.1,740.2v-13.5c0-1.2,0.9-2.1,2.1-2.1h5.3c1.2,0,2.1,0.9,2.1,2.1v13.5c0,1.2-0.9,2.1-2.1,2.1h-5.3
        C400.1,742.3,399.1,741.4,399.1,740.2z"/>
      <path class="st53" d="M399.1,760v-13.5c0-1.2,0.9-2.1,2.1-2.1h5.3c1.2,0,2.1,0.9,2.1,2.1V760c0,1.2-0.9,2.1-2.1,2.1h-5.3
        C400.1,762.1,399.1,761.2,399.1,760z"/>
    </g>
    <g>
      <path class="st53" d="M500.3,59.8V48.3c0-1.2,0.9-2.1,2.1-2.1h5.3c1.2,0,2.1,0.9,2.1,2.1v11.4c0,1.2-0.9,2.1-2.1,2.1h-5.3
        C501.2,61.9,500.3,60.9,500.3,59.8z"/>
      <path class="st53" d="M500.3,77.2V65.8c0-1.2,0.9-2.1,2.1-2.1h5.3c1.2,0,2.1,0.9,2.1,2.1v11.4c0,1.2-0.9,2.1-2.1,2.1h-5.3
        C501.2,79.3,500.3,78.4,500.3,77.2z"/>
      <path class="st53" d="M500.3,94.7V83.3c0-1.2,0.9-2.1,2.1-2.1h5.3c1.2,0,2.1,0.9,2.1,2.1v11.4c0,1.2-0.9,2.1-2.1,2.1h-5.3
        C501.2,96.8,500.3,95.9,500.3,94.7z"/>
      <path class="st53" d="M500.3,112.2v-11.4c0-1.2,0.9-2.1,2.1-2.1h5.3c1.2,0,2.1,0.9,2.1,2.1v11.4c0,1.2-0.9,2.1-2.1,2.1h-5.3
        C501.2,114.3,500.3,113.3,500.3,112.2z"/>
      <path class="st53" d="M500.3,129.6v-11.4c0-1.2,0.9-2.1,2.1-2.1h5.3c1.2,0,2.1,0.9,2.1,2.1v11.4c0,1.2-0.9,2.1-2.1,2.1h-5.3
        C501.2,131.8,500.3,130.8,500.3,129.6z"/>
      <path class="st53" d="M500.3,147.1v-11.4c0-1.2,0.9-2.1,2.1-2.1h5.3c1.2,0,2.1,0.9,2.1,2.1v11.4c0,1.2-0.9,2.1-2.1,2.1h-5.3
        C501.2,149.2,500.3,148.3,500.3,147.1z"/>
      <path class="st53" d="M500.3,164.6v-11.4c0-1.2,0.9-2.1,2.1-2.1h5.3c1.2,0,2.1,0.9,2.1,2.1v11.4c0,1.2-0.9,2.1-2.1,2.1h-5.3
        C501.2,166.7,500.3,165.7,500.3,164.6z"/>
      <path class="st53" d="M500.3,182.1v-11.4c0-1.2,0.9-2.1,2.1-2.1h5.3c1.2,0,2.1,0.9,2.1,2.1v11.4c0,1.2-0.9,2.1-2.1,2.1h-5.3
        C501.2,184.2,500.3,183.2,500.3,182.1z"/>
      <path class="st53" d="M500.3,199.5v-11.4c0-1.2,0.9-2.1,2.1-2.1h5.3c1.2,0,2.1,0.9,2.1,2.1v11.4c0,1.2-0.9,2.1-2.1,2.1h-5.3
        C501.2,201.6,500.3,200.7,500.3,199.5z"/>
      <path class="st53" d="M500.3,217v-11.4c0-1.2,0.9-2.1,2.1-2.1h5.3c1.2,0,2.1,0.9,2.1,2.1V217c0,1.2-0.9,2.1-2.1,2.1h-5.3
        C501.2,219.1,500.3,218.2,500.3,217z"/>
      <path class="st53" d="M500.3,234.5v-11.4c0-1.2,0.9-2.1,2.1-2.1h5.3c1.2,0,2.1,0.9,2.1,2.1v11.4c0,1.2-0.9,2.1-2.1,2.1h-5.3
        C501.2,236.6,500.3,235.6,500.3,234.5z"/>
      <path class="st53" d="M500.3,251.9v-11.4c0-1.2,0.9-2.1,2.1-2.1h5.3c1.2,0,2.1,0.9,2.1,2.1v11.4c0,1.2-0.9,2.1-2.1,2.1h-5.3
        C501.2,254.1,500.3,253.1,500.3,251.9z"/>
      <path class="st53" d="M500.3,269.4V258c0-1.2,0.9-2.1,2.1-2.1h5.3c1.2,0,2.1,0.9,2.1,2.1v11.4c0,1.2-0.9,2.1-2.1,2.1h-5.3
        C501.2,271.5,500.3,270.6,500.3,269.4z"/>
      <path class="st53" d="M500.3,286.9v-11.4c0-1.2,0.9-2.1,2.1-2.1h5.3c1.2,0,2.1,0.9,2.1,2.1v11.4c0,1.2-0.9,2.1-2.1,2.1h-5.3
        C501.2,289,500.3,288,500.3,286.9z"/>
    </g>
    <g>
      <path class="st53" d="M474.8,286.9v-11.4c0-1.2,0.9-2.1,2.1-2.1h5.3c1.2,0,2.1,0.9,2.1,2.1v11.4c0,1.2-0.9,2.1-2.1,2.1h-5.3
        C475.8,289,474.8,288,474.8,286.9z"/>
    </g>
    <g>
      <path class="st53" d="M449.6,286.9v-11.4c0-1.2,0.9-2.1,2.1-2.1h5.3c1.2,0,2.1,0.9,2.1,2.1v11.4c0,1.2-0.9,2.1-2.1,2.1h-5.3
        C450.5,289,449.6,288,449.6,286.9z"/>
    </g>
    <g>
      <path class="st53" d="M423.6,286.9v-11.4c0-1.2,0.9-2.1,2.1-2.1h5.3c1.2,0,2.1,0.9,2.1,2.1v11.4c0,1.2-0.9,2.1-2.1,2.1h-5.3
        C424.6,289,423.6,288,423.6,286.9z"/>
    </g>
    <g>
      <path class="st53" d="M399.1,286.9v-11.4c0-1.2,0.9-2.1,2.1-2.1h5.3c1.2,0,2.1,0.9,2.1,2.1v11.4c0,1.2-0.9,2.1-2.1,2.1h-5.3
        C400.1,289,399.1,288,399.1,286.9z"/>
    </g>
    <g>
      <path class="st53" d="M374,286.9v-11.4c0-1.2,0.9-2.1,2.1-2.1h5.3c1.2,0,2.1,0.9,2.1,2.1v11.4c0,1.2-0.9,2.1-2.1,2.1h-5.3
        C375,289,374,288,374,286.9z"/>
    </g>
    <g>
      <path class="st53" d="M600.6,59.8V48.3c0-1.2,0.9-2.1,2.1-2.1h5.3c1.2,0,2.1,0.9,2.1,2.1v11.4c0,1.2-0.9,2.1-2.1,2.1h-5.3
        C601.5,61.9,600.6,60.9,600.6,59.8z"/>
      <path class="st53" d="M600.6,77.2V65.8c0-1.2,0.9-2.1,2.1-2.1h5.3c1.2,0,2.1,0.9,2.1,2.1v11.4c0,1.2-0.9,2.1-2.1,2.1h-5.3
        C601.5,79.3,600.6,78.4,600.6,77.2z"/>
      <path class="st53" d="M600.6,94.7V83.3c0-1.2,0.9-2.1,2.1-2.1h5.3c1.2,0,2.1,0.9,2.1,2.1v11.4c0,1.2-0.9,2.1-2.1,2.1h-5.3
        C601.5,96.8,600.6,95.9,600.6,94.7z"/>
      <path class="st53" d="M600.6,112.2v-11.4c0-1.2,0.9-2.1,2.1-2.1h5.3c1.2,0,2.1,0.9,2.1,2.1v11.4c0,1.2-0.9,2.1-2.1,2.1h-5.3
        C601.5,114.3,600.6,113.3,600.6,112.2z"/>
      <path class="st53" d="M600.6,129.6v-11.4c0-1.2,0.9-2.1,2.1-2.1h5.3c1.2,0,2.1,0.9,2.1,2.1v11.4c0,1.2-0.9,2.1-2.1,2.1h-5.3
        C601.5,131.8,600.6,130.8,600.6,129.6z"/>
      <path class="st53" d="M600.6,147.1v-11.4c0-1.2,0.9-2.1,2.1-2.1h5.3c1.2,0,2.1,0.9,2.1,2.1v11.4c0,1.2-0.9,2.1-2.1,2.1h-5.3
        C601.5,149.2,600.6,148.3,600.6,147.1z"/>
      <path class="st53" d="M600.6,164.6v-11.4c0-1.2,0.9-2.1,2.1-2.1h5.3c1.2,0,2.1,0.9,2.1,2.1v11.4c0,1.2-0.9,2.1-2.1,2.1h-5.3
        C601.5,166.7,600.6,165.7,600.6,164.6z"/>
      <path class="st53" d="M600.6,182.1v-11.4c0-1.2,0.9-2.1,2.1-2.1h5.3c1.2,0,2.1,0.9,2.1,2.1v11.4c0,1.2-0.9,2.1-2.1,2.1h-5.3
        C601.5,184.2,600.6,183.2,600.6,182.1z"/>
      <path class="st53" d="M600.6,199.5v-11.4c0-1.2,0.9-2.1,2.1-2.1h5.3c1.2,0,2.1,0.9,2.1,2.1v11.4c0,1.2-0.9,2.1-2.1,2.1h-5.3
        C601.5,201.6,600.6,200.7,600.6,199.5z"/>
      <path class="st53" d="M600.6,217v-11.4c0-1.2,0.9-2.1,2.1-2.1h5.3c1.2,0,2.1,0.9,2.1,2.1V217c0,1.2-0.9,2.1-2.1,2.1h-5.3
        C601.5,219.1,600.6,218.2,600.6,217z"/>
      <path class="st53" d="M600.6,234.5v-11.4c0-1.2,0.9-2.1,2.1-2.1h5.3c1.2,0,2.1,0.9,2.1,2.1v11.4c0,1.2-0.9,2.1-2.1,2.1h-5.3
        C601.5,236.6,600.6,235.6,600.6,234.5z"/>
      <path class="st53" d="M600.6,251.9v-11.4c0-1.2,0.9-2.1,2.1-2.1h5.3c1.2,0,2.1,0.9,2.1,2.1v11.4c0,1.2-0.9,2.1-2.1,2.1h-5.3
        C601.5,254.1,600.6,253.1,600.6,251.9z"/>
      <path class="st53" d="M600.6,269.4V258c0-1.2,0.9-2.1,2.1-2.1h5.3c1.2,0,2.1,0.9,2.1,2.1v11.4c0,1.2-0.9,2.1-2.1,2.1h-5.3
        C601.5,271.5,600.6,270.6,600.6,269.4z"/>
      <path class="st53" d="M600.6,286.9v-11.4c0-1.2,0.9-2.1,2.1-2.1h5.3c1.2,0,2.1,0.9,2.1,2.1v11.4c0,1.2-0.9,2.1-2.1,2.1h-5.3
        C601.5,289,600.6,288,600.6,286.9z"/>
    </g>
    <g>
      <path class="st53" d="M626.2,59.8V48.3c0-1.2,0.9-2.1,2.1-2.1h5.3c1.2,0,2.1,0.9,2.1,2.1v11.4c0,1.2-0.9,2.1-2.1,2.1h-5.3
        C627.1,61.9,626.2,60.9,626.2,59.8z"/>
      <path class="st53" d="M626.2,77.2V65.8c0-1.2,0.9-2.1,2.1-2.1h5.3c1.2,0,2.1,0.9,2.1,2.1v11.4c0,1.2-0.9,2.1-2.1,2.1h-5.3
        C627.1,79.3,626.2,78.4,626.2,77.2z"/>
      <path class="st53" d="M626.2,94.7V83.3c0-1.2,0.9-2.1,2.1-2.1h5.3c1.2,0,2.1,0.9,2.1,2.1v11.4c0,1.2-0.9,2.1-2.1,2.1h-5.3
        C627.1,96.8,626.2,95.9,626.2,94.7z"/>
      <path class="st53" d="M626.2,112.2v-11.4c0-1.2,0.9-2.1,2.1-2.1h5.3c1.2,0,2.1,0.9,2.1,2.1v11.4c0,1.2-0.9,2.1-2.1,2.1h-5.3
        C627.1,114.3,626.2,113.3,626.2,112.2z"/>
      <path class="st53" d="M626.2,129.6v-11.4c0-1.2,0.9-2.1,2.1-2.1h5.3c1.2,0,2.1,0.9,2.1,2.1v11.4c0,1.2-0.9,2.1-2.1,2.1h-5.3
        C627.1,131.8,626.2,130.8,626.2,129.6z"/>
      <path class="st53" d="M626.2,147.1v-11.4c0-1.2,0.9-2.1,2.1-2.1h5.3c1.2,0,2.1,0.9,2.1,2.1v11.4c0,1.2-0.9,2.1-2.1,2.1h-5.3
        C627.1,149.2,626.2,148.3,626.2,147.1z"/>
      <path class="st53" d="M626.2,164.6v-11.4c0-1.2,0.9-2.1,2.1-2.1h5.3c1.2,0,2.1,0.9,2.1,2.1v11.4c0,1.2-0.9,2.1-2.1,2.1h-5.3
        C627.1,166.7,626.2,165.7,626.2,164.6z"/>
      <path class="st53" d="M626.2,182.1v-11.4c0-1.2,0.9-2.1,2.1-2.1h5.3c1.2,0,2.1,0.9,2.1,2.1v11.4c0,1.2-0.9,2.1-2.1,2.1h-5.3
        C627.1,184.2,626.2,183.2,626.2,182.1z"/>
      <path class="st53" d="M626.2,199.5v-11.4c0-1.2,0.9-2.1,2.1-2.1h5.3c1.2,0,2.1,0.9,2.1,2.1v11.4c0,1.2-0.9,2.1-2.1,2.1h-5.3
        C627.1,201.6,626.2,200.7,626.2,199.5z"/>
      <path class="st53" d="M626.2,217v-11.4c0-1.2,0.9-2.1,2.1-2.1h5.3c1.2,0,2.1,0.9,2.1,2.1V217c0,1.2-0.9,2.1-2.1,2.1h-5.3
        C627.1,219.1,626.2,218.2,626.2,217z"/>
      <path class="st53" d="M626.2,234.5v-11.4c0-1.2,0.9-2.1,2.1-2.1h5.3c1.2,0,2.1,0.9,2.1,2.1v11.4c0,1.2-0.9,2.1-2.1,2.1h-5.3
        C627.1,236.6,626.2,235.6,626.2,234.5z"/>
      <path class="st53" d="M626.2,251.9v-11.4c0-1.2,0.9-2.1,2.1-2.1h5.3c1.2,0,2.1,0.9,2.1,2.1v11.4c0,1.2-0.9,2.1-2.1,2.1h-5.3
        C627.1,254.1,626.2,253.1,626.2,251.9z"/>
      <path class="st53" d="M626.2,269.4V258c0-1.2,0.9-2.1,2.1-2.1h5.3c1.2,0,2.1,0.9,2.1,2.1v11.4c0,1.2-0.9,2.1-2.1,2.1h-5.3
        C627.1,271.5,626.2,270.6,626.2,269.4z"/>
      <path class="st53" d="M626.2,286.9v-11.4c0-1.2,0.9-2.1,2.1-2.1h5.3c1.2,0,2.1,0.9,2.1,2.1v11.4c0,1.2-0.9,2.1-2.1,2.1h-5.3
        C627.1,289,626.2,288,626.2,286.9z"/>
    </g>
    <g>
      <path class="st53" d="M550,59.8V48.3c0-1.2,0.9-2.1,2.1-2.1h5.3c1.2,0,2.1,0.9,2.1,2.1v11.4c0,1.2-0.9,2.1-2.1,2.1h-5.3
        C550.9,61.9,550,60.9,550,59.8z"/>
      <path class="st53" d="M550,77.2V65.8c0-1.2,0.9-2.1,2.1-2.1h5.3c1.2,0,2.1,0.9,2.1,2.1v11.4c0,1.2-0.9,2.1-2.1,2.1h-5.3
        C550.9,79.3,550,78.4,550,77.2z"/>
      <path class="st53" d="M550,94.7V83.3c0-1.2,0.9-2.1,2.1-2.1h5.3c1.2,0,2.1,0.9,2.1,2.1v11.4c0,1.2-0.9,2.1-2.1,2.1h-5.3
        C550.9,96.8,550,95.9,550,94.7z"/>
      <path class="st53" d="M550,112.2v-11.4c0-1.2,0.9-2.1,2.1-2.1h5.3c1.2,0,2.1,0.9,2.1,2.1v11.4c0,1.2-0.9,2.1-2.1,2.1h-5.3
        C550.9,114.3,550,113.3,550,112.2z"/>
      <path class="st53" d="M550,129.6v-11.4c0-1.2,0.9-2.1,2.1-2.1h5.3c1.2,0,2.1,0.9,2.1,2.1v11.4c0,1.2-0.9,2.1-2.1,2.1h-5.3
        C550.9,131.8,550,130.8,550,129.6z"/>
      <path class="st53" d="M550,147.1v-11.4c0-1.2,0.9-2.1,2.1-2.1h5.3c1.2,0,2.1,0.9,2.1,2.1v11.4c0,1.2-0.9,2.1-2.1,2.1h-5.3
        C550.9,149.2,550,148.3,550,147.1z"/>
      <path class="st53" d="M550,164.6v-11.4c0-1.2,0.9-2.1,2.1-2.1h5.3c1.2,0,2.1,0.9,2.1,2.1v11.4c0,1.2-0.9,2.1-2.1,2.1h-5.3
        C550.9,166.7,550,165.7,550,164.6z"/>
      <path class="st53" d="M550,182.1v-11.4c0-1.2,0.9-2.1,2.1-2.1h5.3c1.2,0,2.1,0.9,2.1,2.1v11.4c0,1.2-0.9,2.1-2.1,2.1h-5.3
        C550.9,184.2,550,183.2,550,182.1z"/>
      <path class="st53" d="M550,199.5v-11.4c0-1.2,0.9-2.1,2.1-2.1h5.3c1.2,0,2.1,0.9,2.1,2.1v11.4c0,1.2-0.9,2.1-2.1,2.1h-5.3
        C550.9,201.6,550,200.7,550,199.5z"/>
      <path class="st53" d="M550,217v-11.4c0-1.2,0.9-2.1,2.1-2.1h5.3c1.2,0,2.1,0.9,2.1,2.1V217c0,1.2-0.9,2.1-2.1,2.1h-5.3
        C550.9,219.1,550,218.2,550,217z"/>
      <path class="st53" d="M550,234.5v-11.4c0-1.2,0.9-2.1,2.1-2.1h5.3c1.2,0,2.1,0.9,2.1,2.1v11.4c0,1.2-0.9,2.1-2.1,2.1h-5.3
        C550.9,236.6,550,235.6,550,234.5z"/>
      <path class="st53" d="M550,251.9v-11.4c0-1.2,0.9-2.1,2.1-2.1h5.3c1.2,0,2.1,0.9,2.1,2.1v11.4c0,1.2-0.9,2.1-2.1,2.1h-5.3
        C550.9,254.1,550,253.1,550,251.9z"/>
      <path class="st53" d="M550,269.4V258c0-1.2,0.9-2.1,2.1-2.1h5.3c1.2,0,2.1,0.9,2.1,2.1v11.4c0,1.2-0.9,2.1-2.1,2.1h-5.3
        C550.9,271.5,550,270.6,550,269.4z"/>
      <path class="st53" d="M550,286.9v-11.4c0-1.2,0.9-2.1,2.1-2.1h5.3c1.2,0,2.1,0.9,2.1,2.1v11.4c0,1.2-0.9,2.1-2.1,2.1h-5.3
        C550.9,289,550,288,550,286.9z"/>
    </g>
    <g>
      <path class="st53" d="M525.3,59.8V48.3c0-1.2,0.9-2.1,2.1-2.1h5.3c1.2,0,2.1,0.9,2.1,2.1v11.4c0,1.2-0.9,2.1-2.1,2.1h-5.3
        C526.2,61.9,525.3,60.9,525.3,59.8z"/>
      <path class="st53" d="M525.3,77.2V65.8c0-1.2,0.9-2.1,2.1-2.1h5.3c1.2,0,2.1,0.9,2.1,2.1v11.4c0,1.2-0.9,2.1-2.1,2.1h-5.3
        C526.2,79.3,525.3,78.4,525.3,77.2z"/>
      <path class="st53" d="M525.3,94.7V83.3c0-1.2,0.9-2.1,2.1-2.1h5.3c1.2,0,2.1,0.9,2.1,2.1v11.4c0,1.2-0.9,2.1-2.1,2.1h-5.3
        C526.2,96.8,525.3,95.9,525.3,94.7z"/>
      <path class="st53" d="M525.3,112.2v-11.4c0-1.2,0.9-2.1,2.1-2.1h5.3c1.2,0,2.1,0.9,2.1,2.1v11.4c0,1.2-0.9,2.1-2.1,2.1h-5.3
        C526.2,114.3,525.3,113.3,525.3,112.2z"/>
      <path class="st53" d="M525.3,129.6v-11.4c0-1.2,0.9-2.1,2.1-2.1h5.3c1.2,0,2.1,0.9,2.1,2.1v11.4c0,1.2-0.9,2.1-2.1,2.1h-5.3
        C526.2,131.8,525.3,130.8,525.3,129.6z"/>
      <path class="st53" d="M525.3,147.1v-11.4c0-1.2,0.9-2.1,2.1-2.1h5.3c1.2,0,2.1,0.9,2.1,2.1v11.4c0,1.2-0.9,2.1-2.1,2.1h-5.3
        C526.2,149.2,525.3,148.3,525.3,147.1z"/>
      <path class="st53" d="M525.3,164.6v-11.4c0-1.2,0.9-2.1,2.1-2.1h5.3c1.2,0,2.1,0.9,2.1,2.1v11.4c0,1.2-0.9,2.1-2.1,2.1h-5.3
        C526.2,166.7,525.3,165.7,525.3,164.6z"/>
      <path class="st53" d="M525.3,182.1v-11.4c0-1.2,0.9-2.1,2.1-2.1h5.3c1.2,0,2.1,0.9,2.1,2.1v11.4c0,1.2-0.9,2.1-2.1,2.1h-5.3
        C526.2,184.2,525.3,183.2,525.3,182.1z"/>
      <path class="st53" d="M525.3,199.5v-11.4c0-1.2,0.9-2.1,2.1-2.1h5.3c1.2,0,2.1,0.9,2.1,2.1v11.4c0,1.2-0.9,2.1-2.1,2.1h-5.3
        C526.2,201.6,525.3,200.7,525.3,199.5z"/>
      <path class="st53" d="M525.3,217v-11.4c0-1.2,0.9-2.1,2.1-2.1h5.3c1.2,0,2.1,0.9,2.1,2.1V217c0,1.2-0.9,2.1-2.1,2.1h-5.3
        C526.2,219.1,525.3,218.2,525.3,217z"/>
      <path class="st53" d="M525.3,234.5v-11.4c0-1.2,0.9-2.1,2.1-2.1h5.3c1.2,0,2.1,0.9,2.1,2.1v11.4c0,1.2-0.9,2.1-2.1,2.1h-5.3
        C526.2,236.6,525.3,235.6,525.3,234.5z"/>
      <path class="st53" d="M525.3,251.9v-11.4c0-1.2,0.9-2.1,2.1-2.1h5.3c1.2,0,2.1,0.9,2.1,2.1v11.4c0,1.2-0.9,2.1-2.1,2.1h-5.3
        C526.2,254.1,525.3,253.1,525.3,251.9z"/>
      <path class="st53" d="M525.3,269.4V258c0-1.2,0.9-2.1,2.1-2.1h5.3c1.2,0,2.1,0.9,2.1,2.1v11.4c0,1.2-0.9,2.1-2.1,2.1h-5.3
        C526.2,271.5,525.3,270.6,525.3,269.4z"/>
      <path class="st53" d="M525.3,286.9v-11.4c0-1.2,0.9-2.1,2.1-2.1h5.3c1.2,0,2.1,0.9,2.1,2.1v11.4c0,1.2-0.9,2.1-2.1,2.1h-5.3
        C526.2,289,525.3,288,525.3,286.9z"/>
    </g>
    <g>
      <path class="st53" d="M575.6,59.8V48.3c0-1.2,0.9-2.1,2.1-2.1h5.3c1.2,0,2.1,0.9,2.1,2.1v11.4c0,1.2-0.9,2.1-2.1,2.1h-5.3
        C576.5,61.9,575.6,60.9,575.6,59.8z"/>
      <path class="st53" d="M575.6,77.2V65.8c0-1.2,0.9-2.1,2.1-2.1h5.3c1.2,0,2.1,0.9,2.1,2.1v11.4c0,1.2-0.9,2.1-2.1,2.1h-5.3
        C576.5,79.3,575.6,78.4,575.6,77.2z"/>
      <path class="st53" d="M575.6,94.7V83.3c0-1.2,0.9-2.1,2.1-2.1h5.3c1.2,0,2.1,0.9,2.1,2.1v11.4c0,1.2-0.9,2.1-2.1,2.1h-5.3
        C576.5,96.8,575.6,95.9,575.6,94.7z"/>
      <path class="st53" d="M575.6,112.2v-11.4c0-1.2,0.9-2.1,2.1-2.1h5.3c1.2,0,2.1,0.9,2.1,2.1v11.4c0,1.2-0.9,2.1-2.1,2.1h-5.3
        C576.5,114.3,575.6,113.3,575.6,112.2z"/>
      <path class="st53" d="M575.6,129.6v-11.4c0-1.2,0.9-2.1,2.1-2.1h5.3c1.2,0,2.1,0.9,2.1,2.1v11.4c0,1.2-0.9,2.1-2.1,2.1h-5.3
        C576.5,131.8,575.6,130.8,575.6,129.6z"/>
      <path class="st53" d="M575.6,147.1v-11.4c0-1.2,0.9-2.1,2.1-2.1h5.3c1.2,0,2.1,0.9,2.1,2.1v11.4c0,1.2-0.9,2.1-2.1,2.1h-5.3
        C576.5,149.2,575.6,148.3,575.6,147.1z"/>
      <path class="st53" d="M575.6,164.6v-11.4c0-1.2,0.9-2.1,2.1-2.1h5.3c1.2,0,2.1,0.9,2.1,2.1v11.4c0,1.2-0.9,2.1-2.1,2.1h-5.3
        C576.5,166.7,575.6,165.7,575.6,164.6z"/>
      <path class="st53" d="M575.6,182.1v-11.4c0-1.2,0.9-2.1,2.1-2.1h5.3c1.2,0,2.1,0.9,2.1,2.1v11.4c0,1.2-0.9,2.1-2.1,2.1h-5.3
        C576.5,184.2,575.6,183.2,575.6,182.1z"/>
      <path class="st53" d="M575.6,199.5v-11.4c0-1.2,0.9-2.1,2.1-2.1h5.3c1.2,0,2.1,0.9,2.1,2.1v11.4c0,1.2-0.9,2.1-2.1,2.1h-5.3
        C576.5,201.6,575.6,200.7,575.6,199.5z"/>
      <path class="st53" d="M575.6,217v-11.4c0-1.2,0.9-2.1,2.1-2.1h5.3c1.2,0,2.1,0.9,2.1,2.1V217c0,1.2-0.9,2.1-2.1,2.1h-5.3
        C576.5,219.1,575.6,218.2,575.6,217z"/>
      <path class="st53" d="M575.6,234.5v-11.4c0-1.2,0.9-2.1,2.1-2.1h5.3c1.2,0,2.1,0.9,2.1,2.1v11.4c0,1.2-0.9,2.1-2.1,2.1h-5.3
        C576.5,236.6,575.6,235.6,575.6,234.5z"/>
      <path class="st53" d="M575.6,251.9v-11.4c0-1.2,0.9-2.1,2.1-2.1h5.3c1.2,0,2.1,0.9,2.1,2.1v11.4c0,1.2-0.9,2.1-2.1,2.1h-5.3
        C576.5,254.1,575.6,253.1,575.6,251.9z"/>
      <path class="st53" d="M575.6,269.4V258c0-1.2,0.9-2.1,2.1-2.1h5.3c1.2,0,2.1,0.9,2.1,2.1v11.4c0,1.2-0.9,2.1-2.1,2.1h-5.3
        C576.5,271.5,575.6,270.6,575.6,269.4z"/>
      <path class="st53" d="M575.6,286.9v-11.4c0-1.2,0.9-2.1,2.1-2.1h5.3c1.2,0,2.1,0.9,2.1,2.1v11.4c0,1.2-0.9,2.1-2.1,2.1h-5.3
        C576.5,289,575.6,288,575.6,286.9z"/>
    </g>
    <g>
      <path class="st53" d="M651.6,59.8V48.3c0-1.2,0.9-2.1,2.1-2.1h5.3c1.2,0,2.1,0.9,2.1,2.1v11.4c0,1.2-0.9,2.1-2.1,2.1h-5.3
        C652.6,61.9,651.6,60.9,651.6,59.8z"/>
      <path class="st53" d="M651.6,77.2V65.8c0-1.2,0.9-2.1,2.1-2.1h5.3c1.2,0,2.1,0.9,2.1,2.1v11.4c0,1.2-0.9,2.1-2.1,2.1h-5.3
        C652.6,79.3,651.6,78.4,651.6,77.2z"/>
      <path class="st53" d="M651.6,94.7V83.3c0-1.2,0.9-2.1,2.1-2.1h5.3c1.2,0,2.1,0.9,2.1,2.1v11.4c0,1.2-0.9,2.1-2.1,2.1h-5.3
        C652.6,96.8,651.6,95.9,651.6,94.7z"/>
      <path class="st53" d="M651.6,112.2v-11.4c0-1.2,0.9-2.1,2.1-2.1h5.3c1.2,0,2.1,0.9,2.1,2.1v11.4c0,1.2-0.9,2.1-2.1,2.1h-5.3
        C652.6,114.3,651.6,113.3,651.6,112.2z"/>
      <path class="st53" d="M651.6,129.6v-11.4c0-1.2,0.9-2.1,2.1-2.1h5.3c1.2,0,2.1,0.9,2.1,2.1v11.4c0,1.2-0.9,2.1-2.1,2.1h-5.3
        C652.6,131.8,651.6,130.8,651.6,129.6z"/>
      <path class="st53" d="M651.6,147.1v-11.4c0-1.2,0.9-2.1,2.1-2.1h5.3c1.2,0,2.1,0.9,2.1,2.1v11.4c0,1.2-0.9,2.1-2.1,2.1h-5.3
        C652.6,149.2,651.6,148.3,651.6,147.1z"/>
      <path class="st53" d="M651.6,164.6v-11.4c0-1.2,0.9-2.1,2.1-2.1h5.3c1.2,0,2.1,0.9,2.1,2.1v11.4c0,1.2-0.9,2.1-2.1,2.1h-5.3
        C652.6,166.7,651.6,165.7,651.6,164.6z"/>
      <path class="st53" d="M651.6,182.1v-11.4c0-1.2,0.9-2.1,2.1-2.1h5.3c1.2,0,2.1,0.9,2.1,2.1v11.4c0,1.2-0.9,2.1-2.1,2.1h-5.3
        C652.6,184.2,651.6,183.2,651.6,182.1z"/>
      <path class="st53" d="M651.6,199.5v-11.4c0-1.2,0.9-2.1,2.1-2.1h5.3c1.2,0,2.1,0.9,2.1,2.1v11.4c0,1.2-0.9,2.1-2.1,2.1h-5.3
        C652.6,201.6,651.6,200.7,651.6,199.5z"/>
      <path class="st53" d="M651.6,217v-11.4c0-1.2,0.9-2.1,2.1-2.1h5.3c1.2,0,2.1,0.9,2.1,2.1V217c0,1.2-0.9,2.1-2.1,2.1h-5.3
        C652.6,219.1,651.6,218.2,651.6,217z"/>
      <path class="st53" d="M651.6,234.5v-11.4c0-1.2,0.9-2.1,2.1-2.1h5.3c1.2,0,2.1,0.9,2.1,2.1v11.4c0,1.2-0.9,2.1-2.1,2.1h-5.3
        C652.6,236.6,651.6,235.6,651.6,234.5z"/>
      <path class="st53" d="M651.6,251.9v-11.4c0-1.2,0.9-2.1,2.1-2.1h5.3c1.2,0,2.1,0.9,2.1,2.1v11.4c0,1.2-0.9,2.1-2.1,2.1h-5.3
        C652.6,254.1,651.6,253.1,651.6,251.9z"/>
      <path class="st53" d="M651.6,269.4V258c0-1.2,0.9-2.1,2.1-2.1h5.3c1.2,0,2.1,0.9,2.1,2.1v11.4c0,1.2-0.9,2.1-2.1,2.1h-5.3
        C652.6,271.5,651.6,270.6,651.6,269.4z"/>
      <path class="st53" d="M651.6,286.9v-11.4c0-1.2,0.9-2.1,2.1-2.1h5.3c1.2,0,2.1,0.9,2.1,2.1v11.4c0,1.2-0.9,2.1-2.1,2.1h-5.3
        C652.6,289,651.6,288,651.6,286.9z"/>
    </g>
    <g>
      <path class="st53" d="M677.2,59.8V48.3c0-1.2,0.9-2.1,2.1-2.1h5.3c1.2,0,2.1,0.9,2.1,2.1v11.4c0,1.2-0.9,2.1-2.1,2.1h-5.3
        C678.2,61.9,677.2,60.9,677.2,59.8z"/>
      <path class="st53" d="M677.2,77.2V65.8c0-1.2,0.9-2.1,2.1-2.1h5.3c1.2,0,2.1,0.9,2.1,2.1v11.4c0,1.2-0.9,2.1-2.1,2.1h-5.3
        C678.2,79.3,677.2,78.4,677.2,77.2z"/>
      <path class="st53" d="M677.2,94.7V83.3c0-1.2,0.9-2.1,2.1-2.1h5.3c1.2,0,2.1,0.9,2.1,2.1v11.4c0,1.2-0.9,2.1-2.1,2.1h-5.3
        C678.2,96.8,677.2,95.9,677.2,94.7z"/>
      <path class="st53" d="M677.2,112.2v-11.4c0-1.2,0.9-2.1,2.1-2.1h5.3c1.2,0,2.1,0.9,2.1,2.1v11.4c0,1.2-0.9,2.1-2.1,2.1h-5.3
        C678.2,114.3,677.2,113.3,677.2,112.2z"/>
      <path class="st53" d="M677.2,129.6v-11.4c0-1.2,0.9-2.1,2.1-2.1h5.3c1.2,0,2.1,0.9,2.1,2.1v11.4c0,1.2-0.9,2.1-2.1,2.1h-5.3
        C678.2,131.8,677.2,130.8,677.2,129.6z"/>
      <path class="st53" d="M677.2,147.1v-11.4c0-1.2,0.9-2.1,2.1-2.1h5.3c1.2,0,2.1,0.9,2.1,2.1v11.4c0,1.2-0.9,2.1-2.1,2.1h-5.3
        C678.2,149.2,677.2,148.3,677.2,147.1z"/>
      <path class="st53" d="M677.2,164.6v-11.4c0-1.2,0.9-2.1,2.1-2.1h5.3c1.2,0,2.1,0.9,2.1,2.1v11.4c0,1.2-0.9,2.1-2.1,2.1h-5.3
        C678.2,166.7,677.2,165.7,677.2,164.6z"/>
      <path class="st53" d="M677.2,182.1v-11.4c0-1.2,0.9-2.1,2.1-2.1h5.3c1.2,0,2.1,0.9,2.1,2.1v11.4c0,1.2-0.9,2.1-2.1,2.1h-5.3
        C678.2,184.2,677.2,183.2,677.2,182.1z"/>
      <path class="st53" d="M677.2,199.5v-11.4c0-1.2,0.9-2.1,2.1-2.1h5.3c1.2,0,2.1,0.9,2.1,2.1v11.4c0,1.2-0.9,2.1-2.1,2.1h-5.3
        C678.2,201.6,677.2,200.7,677.2,199.5z"/>
      <path class="st53" d="M677.2,217v-11.4c0-1.2,0.9-2.1,2.1-2.1h5.3c1.2,0,2.1,0.9,2.1,2.1V217c0,1.2-0.9,2.1-2.1,2.1h-5.3
        C678.2,219.1,677.2,218.2,677.2,217z"/>
      <path class="st53" d="M677.2,234.5v-11.4c0-1.2,0.9-2.1,2.1-2.1h5.3c1.2,0,2.1,0.9,2.1,2.1v11.4c0,1.2-0.9,2.1-2.1,2.1h-5.3
        C678.2,236.6,677.2,235.6,677.2,234.5z"/>
      <path class="st53" d="M677.2,251.9v-11.4c0-1.2,0.9-2.1,2.1-2.1h5.3c1.2,0,2.1,0.9,2.1,2.1v11.4c0,1.2-0.9,2.1-2.1,2.1h-5.3
        C678.2,254.1,677.2,253.1,677.2,251.9z"/>
      <path class="st53" d="M677.2,269.4V258c0-1.2,0.9-2.1,2.1-2.1h5.3c1.2,0,2.1,0.9,2.1,2.1v11.4c0,1.2-0.9,2.1-2.1,2.1h-5.3
        C678.2,271.5,677.2,270.6,677.2,269.4z"/>
      <path class="st53" d="M677.2,286.9v-11.4c0-1.2,0.9-2.1,2.1-2.1h5.3c1.2,0,2.1,0.9,2.1,2.1v11.4c0,1.2-0.9,2.1-2.1,2.1h-5.3
        C678.2,289,677.2,288,677.2,286.9z"/>
    </g>
    <g>
      <path class="st53" d="M701.4,59.8V48.3c0-1.2,0.9-2.1,2.1-2.1h5.3c1.2,0,2.1,0.9,2.1,2.1v11.4c0,1.2-0.9,2.1-2.1,2.1h-5.3
        C702.3,61.9,701.4,60.9,701.4,59.8z"/>
      <path class="st53" d="M701.4,77.2V65.8c0-1.2,0.9-2.1,2.1-2.1h5.3c1.2,0,2.1,0.9,2.1,2.1v11.4c0,1.2-0.9,2.1-2.1,2.1h-5.3
        C702.3,79.3,701.4,78.4,701.4,77.2z"/>
      <path class="st53" d="M701.4,94.7V83.3c0-1.2,0.9-2.1,2.1-2.1h5.3c1.2,0,2.1,0.9,2.1,2.1v11.4c0,1.2-0.9,2.1-2.1,2.1h-5.3
        C702.3,96.8,701.4,95.9,701.4,94.7z"/>
      <path class="st53" d="M701.4,112.2v-11.4c0-1.2,0.9-2.1,2.1-2.1h5.3c1.2,0,2.1,0.9,2.1,2.1v11.4c0,1.2-0.9,2.1-2.1,2.1h-5.3
        C702.3,114.3,701.4,113.3,701.4,112.2z"/>
      <path class="st53" d="M701.4,129.6v-11.4c0-1.2,0.9-2.1,2.1-2.1h5.3c1.2,0,2.1,0.9,2.1,2.1v11.4c0,1.2-0.9,2.1-2.1,2.1h-5.3
        C702.3,131.8,701.4,130.8,701.4,129.6z"/>
      <path class="st53" d="M701.4,147.1v-11.4c0-1.2,0.9-2.1,2.1-2.1h5.3c1.2,0,2.1,0.9,2.1,2.1v11.4c0,1.2-0.9,2.1-2.1,2.1h-5.3
        C702.3,149.2,701.4,148.3,701.4,147.1z"/>
      <path class="st53" d="M701.4,164.6v-11.4c0-1.2,0.9-2.1,2.1-2.1h5.3c1.2,0,2.1,0.9,2.1,2.1v11.4c0,1.2-0.9,2.1-2.1,2.1h-5.3
        C702.3,166.7,701.4,165.7,701.4,164.6z"/>
      <path class="st53" d="M701.4,182.1v-11.4c0-1.2,0.9-2.1,2.1-2.1h5.3c1.2,0,2.1,0.9,2.1,2.1v11.4c0,1.2-0.9,2.1-2.1,2.1h-5.3
        C702.3,184.2,701.4,183.2,701.4,182.1z"/>
      <path class="st53" d="M701.4,199.5v-11.4c0-1.2,0.9-2.1,2.1-2.1h5.3c1.2,0,2.1,0.9,2.1,2.1v11.4c0,1.2-0.9,2.1-2.1,2.1h-5.3
        C702.3,201.6,701.4,200.7,701.4,199.5z"/>
      <path class="st53" d="M701.4,217v-11.4c0-1.2,0.9-2.1,2.1-2.1h5.3c1.2,0,2.1,0.9,2.1,2.1V217c0,1.2-0.9,2.1-2.1,2.1h-5.3
        C702.3,219.1,701.4,218.2,701.4,217z"/>
      <path class="st53" d="M701.4,234.5v-11.4c0-1.2,0.9-2.1,2.1-2.1h5.3c1.2,0,2.1,0.9,2.1,2.1v11.4c0,1.2-0.9,2.1-2.1,2.1h-5.3
        C702.3,236.6,701.4,235.6,701.4,234.5z"/>
      <path class="st53" d="M701.4,251.9v-11.4c0-1.2,0.9-2.1,2.1-2.1h5.3c1.2,0,2.1,0.9,2.1,2.1v11.4c0,1.2-0.9,2.1-2.1,2.1h-5.3
        C702.3,254.1,701.4,253.1,701.4,251.9z"/>
      <path class="st53" d="M701.4,269.4V258c0-1.2,0.9-2.1,2.1-2.1h5.3c1.2,0,2.1,0.9,2.1,2.1v11.4c0,1.2-0.9,2.1-2.1,2.1h-5.3
        C702.3,271.5,701.4,270.6,701.4,269.4z"/>
      <path class="st53" d="M701.4,286.9v-11.4c0-1.2,0.9-2.1,2.1-2.1h5.3c1.2,0,2.1,0.9,2.1,2.1v11.4c0,1.2-0.9,2.1-2.1,2.1h-5.3
        C702.3,289,701.4,288,701.4,286.9z"/>
    </g>
    <g>
      <path class="st53" d="M751.9,59.8V48.3c0-1.2,0.9-2.1,2.1-2.1h5.3c1.2,0,2.1,0.9,2.1,2.1v11.4c0,1.2-0.9,2.1-2.1,2.1H754
        C752.9,61.9,751.9,60.9,751.9,59.8z"/>
      <path class="st53" d="M751.9,77.2V65.8c0-1.2,0.9-2.1,2.1-2.1h5.3c1.2,0,2.1,0.9,2.1,2.1v11.4c0,1.2-0.9,2.1-2.1,2.1H754
        C752.9,79.3,751.9,78.4,751.9,77.2z"/>
      <path class="st53" d="M751.9,94.7V83.3c0-1.2,0.9-2.1,2.1-2.1h5.3c1.2,0,2.1,0.9,2.1,2.1v11.4c0,1.2-0.9,2.1-2.1,2.1H754
        C752.9,96.8,751.9,95.9,751.9,94.7z"/>
      <path class="st53" d="M751.9,112.2v-11.4c0-1.2,0.9-2.1,2.1-2.1h5.3c1.2,0,2.1,0.9,2.1,2.1v11.4c0,1.2-0.9,2.1-2.1,2.1H754
        C752.9,114.3,751.9,113.3,751.9,112.2z"/>
      <path class="st53" d="M751.9,129.6v-11.4c0-1.2,0.9-2.1,2.1-2.1h5.3c1.2,0,2.1,0.9,2.1,2.1v11.4c0,1.2-0.9,2.1-2.1,2.1H754
        C752.9,131.8,751.9,130.8,751.9,129.6z"/>
      <path class="st53" d="M751.9,147.1v-11.4c0-1.2,0.9-2.1,2.1-2.1h5.3c1.2,0,2.1,0.9,2.1,2.1v11.4c0,1.2-0.9,2.1-2.1,2.1H754
        C752.9,149.2,751.9,148.3,751.9,147.1z"/>
      <path class="st53" d="M751.9,164.6v-11.4c0-1.2,0.9-2.1,2.1-2.1h5.3c1.2,0,2.1,0.9,2.1,2.1v11.4c0,1.2-0.9,2.1-2.1,2.1H754
        C752.9,166.7,751.9,165.7,751.9,164.6z"/>
      <path class="st53" d="M751.9,182.1v-11.4c0-1.2,0.9-2.1,2.1-2.1h5.3c1.2,0,2.1,0.9,2.1,2.1v11.4c0,1.2-0.9,2.1-2.1,2.1H754
        C752.9,184.2,751.9,183.2,751.9,182.1z"/>
      <path class="st53" d="M751.9,199.5v-11.4c0-1.2,0.9-2.1,2.1-2.1h5.3c1.2,0,2.1,0.9,2.1,2.1v11.4c0,1.2-0.9,2.1-2.1,2.1H754
        C752.9,201.6,751.9,200.7,751.9,199.5z"/>
      <path class="st53" d="M751.9,217v-11.4c0-1.2,0.9-2.1,2.1-2.1h5.3c1.2,0,2.1,0.9,2.1,2.1V217c0,1.2-0.9,2.1-2.1,2.1H754
        C752.9,219.1,751.9,218.2,751.9,217z"/>
      <path class="st53" d="M751.9,234.5v-11.4c0-1.2,0.9-2.1,2.1-2.1h5.3c1.2,0,2.1,0.9,2.1,2.1v11.4c0,1.2-0.9,2.1-2.1,2.1H754
        C752.9,236.6,751.9,235.6,751.9,234.5z"/>
      <path class="st53" d="M751.9,251.9v-11.4c0-1.2,0.9-2.1,2.1-2.1h5.3c1.2,0,2.1,0.9,2.1,2.1v11.4c0,1.2-0.9,2.1-2.1,2.1H754
        C752.9,254.1,751.9,253.1,751.9,251.9z"/>
      <path class="st53" d="M751.9,269.4V258c0-1.2,0.9-2.1,2.1-2.1h5.3c1.2,0,2.1,0.9,2.1,2.1v11.4c0,1.2-0.9,2.1-2.1,2.1H754
        C752.9,271.5,751.9,270.6,751.9,269.4z"/>
      <path class="st53" d="M751.9,286.9v-11.4c0-1.2,0.9-2.1,2.1-2.1h5.3c1.2,0,2.1,0.9,2.1,2.1v11.4c0,1.2-0.9,2.1-2.1,2.1H754
        C752.9,289,751.9,288,751.9,286.9z"/>
    </g>
    <g>
      <path class="st53" d="M751.9,304.7v-11.4c0-1.2,0.9-2.1,2.1-2.1h5.3c1.2,0,2.1,0.9,2.1,2.1v11.4c0,1.2-0.9,2.1-2.1,2.1H754
        C752.9,306.8,751.9,305.8,751.9,304.7z"/>
      <path class="st53" d="M751.9,322.1v-11.4c0-1.2,0.9-2.1,2.1-2.1h5.3c1.2,0,2.1,0.9,2.1,2.1v11.4c0,1.2-0.9,2.1-2.1,2.1H754
        C752.9,324.2,751.9,323.3,751.9,322.1z"/>
      <path class="st53" d="M751.9,339.6v-11.4c0-1.2,0.9-2.1,2.1-2.1h5.3c1.2,0,2.1,0.9,2.1,2.1v11.4c0,1.2-0.9,2.1-2.1,2.1H754
        C752.9,341.7,751.9,340.8,751.9,339.6z"/>
      <path class="st53" d="M751.9,357.1v-11.4c0-1.2,0.9-2.1,2.1-2.1h5.3c1.2,0,2.1,0.9,2.1,2.1v11.4c0,1.2-0.9,2.1-2.1,2.1H754
        C752.9,359.2,751.9,358.2,751.9,357.1z"/>
      <path class="st53" d="M751.9,374.5v-11.4c0-1.2,0.9-2.1,2.1-2.1h5.3c1.2,0,2.1,0.9,2.1,2.1v11.4c0,1.2-0.9,2.1-2.1,2.1H754
        C752.9,376.7,751.9,375.7,751.9,374.5z"/>
    </g>
    <g>
      <path class="st53" d="M727,59.8V48.3c0-1.2,0.9-2.1,2.1-2.1h5.3c1.2,0,2.1,0.9,2.1,2.1v11.4c0,1.2-0.9,2.1-2.1,2.1h-5.3
        C727.9,61.9,727,60.9,727,59.8z"/>
      <path class="st53" d="M727,77.2V65.8c0-1.2,0.9-2.1,2.1-2.1h5.3c1.2,0,2.1,0.9,2.1,2.1v11.4c0,1.2-0.9,2.1-2.1,2.1h-5.3
        C727.9,79.3,727,78.4,727,77.2z"/>
      <path class="st53" d="M727,94.7V83.3c0-1.2,0.9-2.1,2.1-2.1h5.3c1.2,0,2.1,0.9,2.1,2.1v11.4c0,1.2-0.9,2.1-2.1,2.1h-5.3
        C727.9,96.8,727,95.9,727,94.7z"/>
      <path class="st53" d="M727,112.2v-11.4c0-1.2,0.9-2.1,2.1-2.1h5.3c1.2,0,2.1,0.9,2.1,2.1v11.4c0,1.2-0.9,2.1-2.1,2.1h-5.3
        C727.9,114.3,727,113.3,727,112.2z"/>
      <path class="st53" d="M727,129.6v-11.4c0-1.2,0.9-2.1,2.1-2.1h5.3c1.2,0,2.1,0.9,2.1,2.1v11.4c0,1.2-0.9,2.1-2.1,2.1h-5.3
        C727.9,131.8,727,130.8,727,129.6z"/>
      <path class="st53" d="M727,147.1v-11.4c0-1.2,0.9-2.1,2.1-2.1h5.3c1.2,0,2.1,0.9,2.1,2.1v11.4c0,1.2-0.9,2.1-2.1,2.1h-5.3
        C727.9,149.2,727,148.3,727,147.1z"/>
      <path class="st53" d="M727,164.6v-11.4c0-1.2,0.9-2.1,2.1-2.1h5.3c1.2,0,2.1,0.9,2.1,2.1v11.4c0,1.2-0.9,2.1-2.1,2.1h-5.3
        C727.9,166.7,727,165.7,727,164.6z"/>
      <path class="st53" d="M727,182.1v-11.4c0-1.2,0.9-2.1,2.1-2.1h5.3c1.2,0,2.1,0.9,2.1,2.1v11.4c0,1.2-0.9,2.1-2.1,2.1h-5.3
        C727.9,184.2,727,183.2,727,182.1z"/>
      <path class="st53" d="M727,199.5v-11.4c0-1.2,0.9-2.1,2.1-2.1h5.3c1.2,0,2.1,0.9,2.1,2.1v11.4c0,1.2-0.9,2.1-2.1,2.1h-5.3
        C727.9,201.6,727,200.7,727,199.5z"/>
      <path class="st53" d="M727,217v-11.4c0-1.2,0.9-2.1,2.1-2.1h5.3c1.2,0,2.1,0.9,2.1,2.1V217c0,1.2-0.9,2.1-2.1,2.1h-5.3
        C727.9,219.1,727,218.2,727,217z"/>
      <path class="st53" d="M727,234.5v-11.4c0-1.2,0.9-2.1,2.1-2.1h5.3c1.2,0,2.1,0.9,2.1,2.1v11.4c0,1.2-0.9,2.1-2.1,2.1h-5.3
        C727.9,236.6,727,235.6,727,234.5z"/>
      <path class="st53" d="M727,251.9v-11.4c0-1.2,0.9-2.1,2.1-2.1h5.3c1.2,0,2.1,0.9,2.1,2.1v11.4c0,1.2-0.9,2.1-2.1,2.1h-5.3
        C727.9,254.1,727,253.1,727,251.9z"/>
      <path class="st53" d="M727,269.4V258c0-1.2,0.9-2.1,2.1-2.1h5.3c1.2,0,2.1,0.9,2.1,2.1v11.4c0,1.2-0.9,2.1-2.1,2.1h-5.3
        C727.9,271.5,727,270.6,727,269.4z"/>
      <path class="st53" d="M727,286.9v-11.4c0-1.2,0.9-2.1,2.1-2.1h5.3c1.2,0,2.1,0.9,2.1,2.1v11.4c0,1.2-0.9,2.1-2.1,2.1h-5.3
        C727.9,289,727,288,727,286.9z"/>
    </g>
  </g>
  <g id="Letras">
    <text transform="matrix(1 0 0 1 281.5837 557.7412)" class="st57 st58">V</text>
    <path id="path99226" class="st59" d="M729.2,307.5v-7.9l5.2,7.9v-7.9"/>
    <path id="path99226_00000152250698688100328740000009857679087651136395_" class="st59" d="M754.1,392.4v-7.9l5.2,7.9v-7.9"/>
    <path id="path99228" class="st59" d="M703.2,307.5v-7.9l2.9,7.9l2.9-7.9v7.9"/>
    <g>
      <path id="path99230" class="st59" d="M676.6,299.6v7.9h4.4"/>
      <path id="path99232" class="st59" d="M682.9,299.6v7.9h4.4"/>
    </g>
    <path id="path99234" class="st59" d="M654.1,299.6v7.9h4.5"/>
    <g>
      <path id="path99236" class="st59" d="M628.3,307.5v-7.9"/>
      <path id="path99238" class="st59" d="M633.5,299.6l-5.2,5.3"/>
      <path id="path99240" class="st59" d="M630.2,303l3.3,4.5"/>
    </g>
    <path id="path99242" class="st59" d="M607.2,299.6v5.9l-0.3,1.1l-0.3,0.3l-0.8,0.4H605l-0.8-0.4l-0.3-0.3l-0.4-1.1v-0.7"/>
    <path id="path99244" class="st59" d="M580.3,307.5v-7.9"/>
    <g>
      <path id="path99246" class="st59" d="M552.1,307.5v-7.9"/>
      <path id="path99248" class="st59" d="M557.3,299.6v7.9"/>
      <path id="path99250" class="st59" d="M552.1,303.3h5.2"/>
    </g>
    <path id="path99252" class="st59" d="M532.8,301.5l-0.3-0.8l-0.7-0.7l-0.8-0.4h-1.5l-0.8,0.4l-0.7,0.7l-0.4,0.8l-0.3,1.1v1.8
      l0.3,1.1l0.4,0.8l0.7,0.7l0.8,0.4h1.5l0.8-0.4l0.7-0.7l0.3-0.8v-1.1H531"/>
    <g>
      <path id="path99254" class="st59" d="M502.6,307.5v-7.9h4.8"/>
      <path id="path99256" class="st59" d="M502.6,303.3h3"/>
    </g>
    <g>
      <path id="path99258" class="st59" d="M477.2,307.5v-7.9h4.8"/>
      <path id="path99260" class="st59" d="M477.2,303.3h3"/>
      <path id="path99262" class="st59" d="M477.2,307.5h4.8"/>
    </g>
    <path id="path99264" class="st59" d="M451.7,307.5v-7.9h2.6l1.1,0.4l0.7,0.7l0.3,0.8l0.4,1.1v1.8l-0.4,1.1l-0.3,0.8l-0.7,0.7
      l-1.1,0.4H451.7"/>
    <path id="path99266" class="st59" d="M431.1,301.5l-0.3-0.8l-0.8-0.7l-0.7-0.4h-1.5l-0.8,0.4l-0.8,0.7l-0.3,0.8l-0.3,1.1v1.8
      l0.3,1.1l0.3,0.8l0.8,0.7l0.8,0.4h1.5l0.7-0.4l0.8-0.7l0.3-0.8"/>
    <g>
      <path id="path99268" class="st59" d="M401.3,307.5v-7.9h3.4l1,0.4l0.4,0.3l0.3,0.8v0.7l-0.3,0.8l-0.4,0.3l-1,0.3h-3.4"/>
      <path id="path99270" class="st59" d="M404.7,303.3l1,0.4l0.4,0.3l0.3,0.8v1l-0.3,0.8l-0.4,0.3l-1,0.4h-3.4"/>
    </g>
    <g>
      <path id="path99272" class="st59" d="M375.8,307.5l2.9-7.9l3,7.9"/>
      <path id="path99274" class="st59" d="M376.9,304.9h3.7"/>
    </g>
  </g>
</svg>
