<?xml version="1.0" encoding="utf-8"?>
<!-- Generator: Adobe Illustrator 27.2.0, SVG Export Plug-In . SVG Version: 6.00 Build 0)  -->
<svg version="1.1" xmlns="http://www.w3.org/2000/svg" xmlns:xlink="http://www.w3.org/1999/xlink" x="0px" y="0px"
	 viewBox="0 0 1075.6 792" style="enable-background:new 0 0 1075.6 792;" xml:space="preserve">
    <style type="text/css">
      .st0{display:none;}
      .st1{display:inline;}
      .st2{fill:none;stroke:#DD6E00;stroke-width:2;stroke-linecap:round;stroke-linejoin:round;stroke-miterlimit:10;}
      .st3{fill:none;stroke:#0000FF;stroke-width:2;stroke-linecap:round;stroke-linejoin:round;stroke-miterlimit:10;}
      .st4{fill:none;stroke:#000000;stroke-width:2;stroke-linecap:round;stroke-linejoin:round;stroke-miterlimit:10;}
      .st5{fill:none;stroke:#BABABA;stroke-width:2;stroke-linecap:round;stroke-linejoin:round;stroke-miterlimit:10;}
      .st6{fill:none;stroke:#989898;stroke-width:2;stroke-linecap:round;stroke-linejoin:round;stroke-miterlimit:10;}
      .st7{fill:none;stroke:#FFFF00;stroke-width:2;stroke-linecap:round;stroke-linejoin:round;stroke-miterlimit:10;}
      .st8{fill:none;stroke:#FF0000;stroke-width:2;stroke-linecap:round;stroke-linejoin:round;stroke-miterlimit:10;}
      .st9{fill:none;stroke:#E69835;stroke-width:6;stroke-miterlimit:10;}
      .st10{fill:none;stroke:#D75A31;stroke-width:6;stroke-miterlimit:10;}
      .st11{fill:none;stroke:#AE2C2B;stroke-width:6;stroke-miterlimit:10;}
      .st12{fill:none;stroke:#FF6700;stroke-width:6;stroke-miterlimit:10;}
      .st13{fill:none;stroke:#50FFFF;stroke-width:6;stroke-miterlimit:10;}
      .st14{fill:none;stroke:#CB85E5;stroke-width:6;stroke-miterlimit:10;}
      .st15{fill:none;stroke:#7980B2;stroke-width:6;stroke-miterlimit:10;}
      .st16{fill:none;stroke:#3E2B1A;stroke-width:6;stroke-miterlimit:10;}
      .st17{fill:none;stroke:#42944B;stroke-width:6;stroke-miterlimit:10;}
      .st18{fill:none;stroke:#9D9D9C;stroke-width:6;stroke-miterlimit:10;}
      .st19{fill:none;stroke:#C39F6F;stroke-width:6;stroke-miterlimit:10;}
      .st20{fill:none;stroke:#F7EB50;stroke-width:6;stroke-miterlimit:10;}
      .st21{fill:#89277D;}
      .st22{fill:none;stroke:#0000FF;stroke-linecap:round;stroke-linejoin:round;}
      .st23{fill:#3670B3;}
      .st24{fill:#489F9A;}
      .st25{fill:#D22D7D;}
      .st26{fill:#2B6438;}
      .st27{fill:#00FFCE;}
      .st28{fill:#869363;}
      .st29{fill:#CB85E5;}
      .st30{fill:#FF6700;}
      .st31{fill:#7980B2;}
      .st32{fill:#F7EB50;}
      .st33{fill:#E69835;}
      .st34{fill:#D75A31;}
      .st35{fill:#AE2C2B;}
      .st36{fill:#786A5A;}
      .st37{fill:#282359;}
      .st38{fill:#9EC043;}
      .st39{fill:#469CDD;}
      .st40{fill:#5E287E;}
      .st41{fill:none;stroke:#5E287E;stroke-width:6;stroke-miterlimit:10;}
      .st42{fill:#D43673;}
      .st43{fill:#C39F6F;}
      .st44{fill:#9D9D9C;}
      .st45{fill:#42944B;}
      .st46{fill:#3E2B1A;}
      .st47{fill:#13514C;}
      .st48{fill:#425968;}
      .st49{fill:#536D01;}
      .st50{fill:#A87F1A;}
      .st51{fill:#50FFFF;}
      .st52{fill:none;stroke:#D43673;stroke-width:6;stroke-miterlimit:10;}
      .st53{fill:#D9D9D9;}
      .st54{fill:none;stroke:#1D1D1B;stroke-width:10;stroke-linecap:round;stroke-linejoin:round;stroke-miterlimit:10;}
      .st55{font-family:'Arial-BoldMT';}
      .st56{font-size:236.8715px;}
      .st57{fill:none;stroke:#1D1D1B;stroke-width:3;stroke-linecap:round;stroke-linejoin:round;stroke-miterlimit:10;}
      .st58{fill:none;stroke:#1D1D1B;stroke-width:6;stroke-linecap:round;stroke-linejoin:round;stroke-miterlimit:10;}
      .st59{fill:none;stroke:#1D1D1B;stroke-width:2;stroke-linecap:round;stroke-linejoin:round;stroke-miterlimit:10;}
    </style>
    <g id="Capa_1" class="st0">
    </g>
    <g id="Contorno_color">
      <path id="path211862-2_00000073701006386615482040000012573064802137001347_" class="st10" d="M156.9,392.9V62.5h760.8v330.4H156.9
        z"/>
    </g>
    <g id="Asientos">
      <g>
        <path class="st53" d="M417.9,203.4H302c-6.6,0-12-5.4-12-12v-64.2c0-6.6,5.4-12,12-12h115.9c6.6,0,12,5.4,12,12v64.2
          C429.9,198,424.5,203.4,417.9,203.4z"/>
        <path class="st53" d="M567.8,203.4H452c-6.6,0-12-5.4-12-12v-64.2c0-6.6,5.4-12,12-12h115.9c6.6,0,12,5.4,12,12v64.2
          C579.8,198,574.4,203.4,567.8,203.4z"/>
        <path class="st53" d="M715.8,203.4H600c-6.6,0-12-5.4-12-12v-64.2c0-6.6,5.4-12,12-12h115.9c6.6,0,12,5.4,12,12v64.2
          C727.8,198,722.4,203.4,715.8,203.4z"/>
        <path class="st53" d="M865.7,203.4H749.9c-6.6,0-12-5.4-12-12v-64.2c0-6.6,5.4-12,12-12h115.9c6.6,0,12,5.4,12,12v64.2
          C877.7,198,872.3,203.4,865.7,203.4z"/>
        <path class="st53" d="M417.9,359.1H302c-6.6,0-12-5.4-12-12v-64.2c0-6.6,5.4-12,12-12h115.9c6.6,0,12,5.4,12,12v64.2
          C429.9,353.7,424.5,359.1,417.9,359.1z"/>
        <path class="st53" d="M567.8,359.1H452c-6.6,0-12-5.4-12-12v-64.2c0-6.6,5.4-12,12-12h115.9c6.6,0,12,5.4,12,12v64.2
          C579.8,353.7,574.4,359.1,567.8,359.1z"/>
        <path class="st53" d="M715.8,359.1H600c-6.6,0-12-5.4-12-12v-64.2c0-6.6,5.4-12,12-12h115.9c6.6,0,12,5.4,12,12v64.2
          C727.8,353.7,722.4,359.1,715.8,359.1z"/>
        <path class="st53" d="M865.7,359.1H749.9c-6.6,0-12-5.4-12-12v-64.2c0-6.6,5.4-12,12-12h115.9c6.6,0,12,5.4,12,12v64.2
          C877.7,353.7,872.3,359.1,865.7,359.1z"/>
      </g>
    </g>
    <g id="Letras">
      <g>
        <path id="path211632_00000137102596322238958860000004282407770151619223_" class="st54" d="M249.8,340.4l-66.1-25.9l66.1-24.9"/>
        <path id="path211634_00000134225710813416483120000001154910835337895089_" class="st54" d="M227.8,330.8v-31.6"/>
        <path id="path211636_00000052821081841965675920000018059580020723433878_" class="st54" d="M246.9,181.3h-66.1v-28.7l2.9-9.6
          l2.9-2.9l6.7-2.9h5.7l6.7,2.9l2.9,2.9l2.9,9.6v28.7"/>
        <path id="path211638_00000084499485980689983260000015289477022572444317_" class="st54" d="M211.5,152.6l3.8-9.6l2.9-2.9l6.7-2.9
          h9.6l5.7,2.9l2.9,2.9l3.8,9.6v28.7"/>
        <text transform="matrix(1 0 0 1 461.5352 634.4683)" class="st55 st56">Y</text>
      </g>
    </g>
</svg>
