<?xml version="1.0" encoding="utf-8"?>
<!-- Generator: Adobe Illustrator 27.2.0, SVG Export Plug-In . SVG Version: 6.00 Build 0)  -->
<svg version="1.1" id="Capa_1" xmlns="http://www.w3.org/2000/svg" xmlns:xlink="http://www.w3.org/1999/xlink" x="0px" y="0px"
	 viewBox="0 0 853 797.5" style="enable-background:new 0 0 853 797.5;" xml:space="preserve">
  <style type="text/css">
    .st0{fill:#89277D;}
    .st1{font-family:'Arial-BoldMT';}
    .st2{font-size:15.46px;}
    .st3{fill:#FFFFFF;}
    .st4{fill:none;stroke:#0000FF;stroke-linecap:round;stroke-linejoin:round;}
    .st5{fill:#3670B3;}
    .st6{fill:#489F9A;}
    .st7{fill:#D22D7D;}
    .st8{fill:#2B6438;}
    .st9{fill:#00FFCE;}
    .st10{fill:#869363;}
    .st11{fill:#CB85E5;}
    .st12{fill:#FF6700;}
    .st13{fill:#7980B2;}
    .st14{fill:#F7EB50;}
    .st15{fill:#E69835;}
    .st16{fill:#D75A31;}
    .st17{fill:#AE2C2B;}
    .st18{fill:#786A5A;}
    .st19{fill:#282359;}
    .st20{fill:#9EC043;}
    .st21{fill:#469CDD;}
    .st22{fill:#5E287E;}
    .st23{fill:#D43673;}
    .st24{fill:#C39F6F;}
    .st25{fill:#9D9D9C;}
    .st26{fill:#42944B;}
    .st27{fill:#3E2B1A;}
    .st28{fill:#13514C;}
    .st29{fill:#425968;}
    .st30{fill:#536D01;}
    .st31{fill:#A87F1A;}
    .st32{fill:#50FFFF;}
    .st33{font-size:9.89px;}
    .st34{font-size:8.69px;}
    .st35{font-size:7.73px;}
  </style>
  <rect x="388.2" y="224" class="st0" width="80.5" height="16.2"/>
  <polygon class="st0" points="607.2,52.85 607.2,52.8 433.3,52.8 431.9,52.8 248.6,52.8 248.6,52.82 172.1,53.7 172.1,163.2
    215.3,163.2 215.3,210.7 248.6,210.7 248.6,210.8 431.9,210.8 433.3,210.8 607.2,210.8 607.2,210.7 636.5,210.7 636.5,163.2
    677.9,163.2 677.9,53.7 "/>
  <g id="text112322">
    <text transform="matrix(1 0 0 1 388.9879 17.3199)" class="st1 st2">E</text>
    <text transform="matrix(1 0 0 1 399.2978 17.3199)" class="st1 st2">N</text>
    <text transform="matrix(1 0 0 1 410.4678 17.3199)" class="st1 st2">T</text>
    <text transform="matrix(1 0 0 1 419.9078 17.3199)" class="st1 st2">R</text>
    <text transform="matrix(1 0 0 1 431.0778 17.3199)" class="st1 st2">A</text>
    <text transform="matrix(1 0 0 1 442.2379 17.3199)" class="st1 st2">D</text>
    <text transform="matrix(1 0 0 1 453.3978 17.3199)" class="st1 st2">A</text>
  </g>
  <g id="text112322_00000017518271262103080470000005836965632577801388_">
    <text transform="matrix(1 0 0 1 390.7966 238.3199)" class="st3 st1 st2">GENERAL</text>
  </g>
  <path id="path112312" class="st4" d="M424.45,22.6v24.9"/>
  <g>
    <path id="path112316" class="st4" d="M434.3,42l-9.6,5.5"/>
    <path id="path112318" class="st4" d="M414.6,42l9.6,5.5"/>
  </g>
  <path class="st5" d="M13.5,247.8H114l0.3,83h58.8l0.5,26.1l-14.5-0.2l0.7,155.7L7.6,512.9V247.8H13.5z"/>
  <polyline class="st6" points="6.9,792 113,792 113,703.2 159.1,703.2 159.1,525.5 7.6,525.5 7.6,792 "/>
  <path id="path199236" class="st7" d="M461.6,260.2h117V308h-117L461.6,260.2"/>
  <path id="path197502" class="st8" d="M279,260.2h117.8V308H279V260.2"/>
  <rect x="296.2" y="328.3" class="st9" width="18.8" height="184.9"/>
  <rect x="296.2" y="522.6" class="st10" width="18.8" height="185.1"/>
  <path id="path38910_00000043459402701308558700000012245937703936280454_" class="st11" d="M194.2,516.8h85.6V403.7h-85.6
    L194.2,516.8"/>
  <rect x="194.2" y="403.6" class="st11" width="5.1" height="130.8"/>
  <path id="path38908" class="st12" d="M193.6,710.1h86.2v-44.8h-86.2L193.6,710.1"/>
  <path id="path38914" class="st13" d="M193.6,403.6h86.2v-68.7h-86.2L193.6,403.6"/>
  <path id="path211862" class="st14" d="M349.9,325.5v-13.6h-31.6v13.6H349.9z"/>
  <path id="path211862-2" class="st15" d="M351.7,325.5v-13.6h31.9v13.6H351.7z"/>
  <path id="path211862-3" class="st16" d="M467.8,325.5v-13.6h31.9v13.6H467.8z"/>
  <path id="path211862-4" class="st17" d="M501.4,325.5v-13.6h31.2v13.6H501.4L501.4,325.5z"/>
  <rect x="571.6" y="332.1" class="st18" width="86.5" height="47"/>
  <rect x="652.3" y="346.6" class="st18" width="5.8" height="48.6"/>
  <rect x="652.3" y="476.6" class="st19" width="5.8" height="48.6"/>
  <rect x="652.3" y="609.2" class="st20" width="5.8" height="48.6"/>
  <rect x="571.6" y="394.8" class="st19" width="86.5" height="112.1"/>
  <rect x="571.6" y="524.7" class="st20" width="86.5" height="113.3"/>
  <rect x="572.1" y="655.9" class="st21" width="86" height="50.7"/>
  <path class="st22" d="M841.6,252.7H741.1l-0.3,82.3H681l0.5,25.9l14.5-0.2l-0.7,154.4l152.2,0.5V252.7H841.6L841.6,252.7z"/>
  <path class="st23" d="M846.7,575.6l0.3,109.8l-152.2,0.3V527.9h151.9v49.4"/>
  <path class="st23" d="M847.1,735l0.2,57.7l-105.8,0.1v-82.9h105.6v26"/>
  <rect x="697.2" y="697.8" class="st23" width="149.9" height="12.1"/>
  <rect x="835.77" y="527.88" class="st23" width="11.3" height="209.6"/>
  <rect x="283.4" y="735.4" class="st24" width="28.1" height="50"/>
  <rect x="313.6" y="735.4" class="st25" width="26.6" height="50"/>
  <rect x="342.3" y="735.4" class="st26" width="25.7" height="50"/>
  <rect x="370.8" y="735.4" class="st27" width="26.4" height="50"/>
  <rect x="456" y="735.4" class="st28" width="26.4" height="50"/>
  <rect x="484.8" y="735.4" class="st29" width="26.4" height="50"/>
  <rect x="513.6" y="735.4" class="st30" width="26.4" height="50"/>
  <rect x="542.3" y="735.4" class="st31" width="26.4" height="50"/>
  <path id="path38910" class="st32" d="M194.2,647.1h85.6V534h-85.6L194.2,647.1"/>
  <g id="g112276">
    <g id="g112278">
      <g id="text112286">
        <text transform="matrix(1 0 0 1 231.4178 357.84)" class="st3 st1 st2">D</text>
      </g>
    </g>
  </g>
  <g id="text112298">
    <text transform="matrix(1 0 0 1 231.4178 463.72)" class="st3 st1 st2">C</text>
  </g>
  <g id="text112302">
    <text transform="matrix(1 0 0 1 231.4179 590.6799)" class="st1 st2">B</text>
  </g>
  <g id="text112306">
    <text transform="matrix(1 0 0 1 608.8369 362.9999)" class="st3 st1 st2">G</text>
  </g>
  <g id="text112310">
    <text transform="matrix(1 0 0 1 609.2675 456.5599)" class="st3 st1 st2">H</text>
  </g>
  <g id="text145334">
    <text transform="matrix(1 0 0 1 85.0177 431.9999)" class="st3 st1 st2">U</text>
  </g>
  <g id="text202682">
    <text transform="matrix(1 0 0 1 610.5505 686.96)" class="st3 st1 st2">J</text>
  </g>
  <g id="text202716">
    <text transform="matrix(1 0 0 1 85.8783 597.1199)" class="st3 st1 st2">T</text>
  </g>
  <g id="text202736">
    <text transform="matrix(1 0 0 1 770.4279 440.6399)" class="st3 st1 st2">V</text>
  </g>
  <g id="text202740">
    <text transform="matrix(1 0 0 1 768.2874 603.2)" class="st3 st1 st2">W</text>
  </g>
  <g id="text211418">
    <text transform="matrix(1 0 0 1 612.7018 588.08)" class="st3 st1 st2">I</text>
  </g>
  <g id="text212328">
    <text transform="matrix(1 0 0 1 330.8016 322.0804)" class="st3 st1 st33">S</text>
  </g>
  <g id="text212332">
    <text transform="matrix(1 0 0 1 364.3518 322.0804)" class="st3 st1 st33">X</text>
  </g>
  <g id="text212336">
    <text transform="matrix(1 0 0 1 480.4514 322.0803)" class="st3 st1 st33">Y</text>
  </g>
  <g id="text212340">
    <text transform="matrix(1 0 0 1 513.9794 322.0801)" class="st3 st1 st33">Z</text>
  </g>
  <g id="text202720_00000123411929011292451560000014509603754282733715_">
    <text transform="matrix(1 0 0 1 332.7441 290.3199)" class="st3 st1 st2">E</text>
  </g>
  <g id="text204964">
    <text transform="matrix(1 0 0 1 300.015 421.94)" class="st1 st34">C</text>
    <text transform="matrix(1 0 0 1 306.295 421.94)" class="st1 st34">S</text>
  </g>
  <g id="text204968">
    <text transform="matrix(1 0 0 1 300.02 627.86)" class="st3 st1 st34">B</text>
    <text transform="matrix(1 0 0 1 306.29 627.86)" class="st3 st1 st34">S</text>
  </g>
  <g id="text202724_00000040533671706830309960000007205071698042092975_">
    <text transform="matrix(1 0 0 1 515.3781 289.94)" class="st3 st1 st2">F</text>
  </g>
  <g id="text202686_00000107567919945685296030000014949624872247730584_">
    <text transform="matrix(1 0 0 1 552.7087 779.9)" class="st3 st1 st35">K</text>
  </g>
  <g id="text202690_00000034785315424432861400000003030268377334049944_">
    <text transform="matrix(1 0 0 1 494.7803 780.02)" class="st3 st1 st35">M</text>
  </g>
  <g id="text202694_00000176735251380494776600000007828744348891100819_">
    <text transform="matrix(1 0 0 1 466.4086 780.3)" class="st3 st1 st35">N</text>
  </g>
  <g id="text202728_00000107561572250962786900000002583862339547388855_">
    <text transform="matrix(1 0 0 1 524.5089 779.82)" class="st3 st1 st35">L</text>
  </g>
  <g id="text202698_00000095324473392175551500000010984436323322845595_">
    <text transform="matrix(1 0 0 1 352.642 780.26)" class="st3 st1 st35">P</text>
  </g>
  <g id="text202702_00000005974854219059897460000004539911856226842255_">
    <text transform="matrix(1 0 0 1 323.8936 779.86)" class="st3 st1 st35">Q</text>
  </g>
  <g id="text202706_00000159460126267712233210000009476033561872746409_">
    <text transform="matrix(1 0 0 1 294.6585 779.9)" class="st3 st1 st35">R</text>
  </g>
  <g id="text202732_00000093888344077113348170000018367548886192487086_">
    <text transform="matrix(1 0 0 1 380.9935 779.94)" class="st3 st1 st35">O</text>
  </g>
  <rect x="111" y="330" class="st5" width="65" height="27"/>
  <rect x="681" y="330" class="st22" width="65" height="32"/>
  <g id="text202678">
    <text transform="matrix(1 0 0 1 231.4503 690.2)" class="st1 st2">A</text>
  </g>
</svg>
